<svg width="162" height="29" viewBox="0 0 162 29" fill="none" xmlns="http://www.w3.org/2000/svg">
<g clip-path="url(#clip0_27_2)">
<path d="M16.6416 15.0889L31.3723 28.5H25.6839L10.9533 15.0889L25.6839 0.5H31.3723" fill="#CCCCCC"/>
<path d="M15.1398 4.48853L19.6077 0.5H0V28.5H19.6077L15.1398 24.5115H4.03529V4.48853H15.1398Z" fill="white"/>
<path d="M51.8589 6.15385H43.982V23.0144H51.8589C52.1294 23.0144 52.2646 22.8686 52.2646 22.5769V6.59135C52.2646 6.29968 52.1294 6.15385 51.8589 6.15385ZM41.2437 25.3029V3.89904L50.5067 3.73077C52.0843 3.70833 53.245 4.03365 53.9887 4.70673C54.755 5.37981 55.1381 6.46794 55.1381 7.97115V21.1971C55.1381 22.7004 54.7325 23.7885 53.9211 24.4615C53.1323 25.1346 51.9603 25.46 50.4053 25.4375L41.2437 25.3029ZM67.3789 25.5048H65.1815C63.8968 25.5048 62.9502 25.2581 62.3417 24.7644C61.7558 24.2484 61.4628 23.351 61.4628 22.0721V19.3125C61.4628 17.9439 61.767 17.0129 62.3755 16.5192C62.9841 16.0033 63.9982 15.7452 65.4181 15.7452H70.4553V17.6971H64.4377C64.2124 17.6971 64.0997 17.8093 64.0997 18.0337V23.0144C64.0997 23.2163 64.2124 23.3173 64.4377 23.3173H70.1172V11.3029C70.1172 11.0785 70.0158 10.9663 69.8129 10.9663L62.3755 11V8.77885L68.7987 8.74519C70.2186 8.74519 71.2442 9.01442 71.8751 9.55289C72.5062 10.0689 72.8217 11.0337 72.8217 12.4471V25.2692H70.4553L70.1172 23.3173L70.32 22.4087C70.32 23.4631 70.0947 24.2484 69.6439 24.7644C69.2158 25.2581 68.4607 25.5048 67.3789 25.5048ZM85.1278 8.54327H86.9871V10.8317H82.6937C82.4684 10.8317 82.3556 10.9327 82.3556 11.1346L82.3894 25.2692H79.7187L79.6849 8.77885H82.0514L82.3556 10.7308L82.0514 11.6394C82.0514 10.5849 82.288 9.8109 82.7613 9.31731C83.2572 8.80129 84.046 8.54327 85.1278 8.54327ZM95.0204 25.2692H92.3835V2.55289H95.0204V25.2692ZM98.1306 17.024H94.1753V15.5769H98.8405C98.9982 15.5769 99.111 15.476 99.1786 15.274L101.275 8.77885H103.878L102.187 13.9952C101.917 14.8702 101.646 15.5208 101.376 15.9471C101.106 16.3734 100.734 16.665 100.26 16.8221C99.7871 16.9567 99.0772 17.024 98.1306 17.024ZM99.4153 17.7981H94.1753V16.351H98.8067C99.7307 16.351 100.429 16.4294 100.903 16.5865C101.376 16.7212 101.748 17.0129 102.018 17.4615C102.311 17.8879 102.604 18.5273 102.897 19.3798L105.162 25.2692H102.458L99.7533 18.101C99.7082 17.9888 99.6631 17.9102 99.6181 17.8654C99.5955 17.8206 99.5279 17.7981 99.4153 17.7981ZM121.736 6.15385H113.859V23.0144H121.736C122.007 23.0144 122.142 22.8686 122.142 22.5769V6.59135C122.142 6.29968 122.007 6.15385 121.736 6.15385ZM111.121 25.3029V3.89904L120.384 3.73077C121.962 3.70833 123.122 4.03365 123.866 4.70673C124.632 5.37981 125.016 6.46794 125.016 7.97115V21.1971C125.016 22.7004 124.61 23.7885 123.799 24.4615C123.01 25.1346 121.838 25.46 120.283 25.4375L111.121 25.3029ZM142.935 25.4375H136.173C134.708 25.4375 133.638 25.1683 132.961 24.6298C132.285 24.0689 131.947 23.0929 131.947 21.7019V12.1779C131.947 10.7869 132.24 9.83333 132.826 9.31731C133.412 8.80129 134.404 8.54327 135.801 8.54327H139.351C140.793 8.54327 141.819 8.80129 142.427 9.31731C143.036 9.83333 143.34 10.7869 143.34 12.1779V18.8077H134.314V16.8221H140.67V11.0337C140.67 10.8317 140.556 10.7308 140.331 10.7308H134.956C134.753 10.7308 134.652 10.8317 134.652 11.0337V22.9135C134.652 23.1154 134.753 23.2163 134.956 23.2163H142.935V25.4375ZM158.714 22.1394C158.534 22.9696 158.321 23.6427 158.072 24.1587C157.824 24.6523 157.475 25 157.024 25.2019C156.573 25.4038 155.908 25.4823 155.029 25.4375L151.953 25.2692L148.234 8.77885H150.905L154.116 23.3173H155.807C155.92 23.3173 155.999 23.2948 156.043 23.25C156.089 23.2052 156.123 23.1266 156.145 23.0144L159.255 8.77885H161.824L158.714 22.1394Z" fill="white"/>
</g>
<defs>
<clipPath id="clip0_27_2">
<rect width="162" height="28" fill="white" transform="translate(0 0.5)"/>
</clipPath>
</defs>
</svg>
