<svg width="80" height="91" viewBox="0 0 80 91" fill="none" xmlns="http://www.w3.org/2000/svg">
<path d="M73.9434 18.6152L45.5371 1.74023C42.1445 -0.28125 37.9609 -0.28125 34.5684 1.74023L6.16211 18.6152C2.76953 20.6191 0.677734 24.3457 0.677734 28.3711V62.1035C0.677734 66.1289 2.76953 69.8555 6.16211 71.8594L34.5684 88.7168C36.2559 89.7188 38.1543 90.2285 40.0527 90.2285C41.9512 90.2285 43.832 89.7188 45.5371 88.7168L73.9434 71.8594C77.3359 69.8379 79.4277 66.1289 79.4277 62.1035V28.3711C79.4277 24.3457 77.3359 20.6191 73.9434 18.6152Z" fill="white"/>
<path d="M73.9434 18.6152L45.5371 1.74023C43.8496 0.738281 41.9512 0.228516 40.0527 0.228516C38.1543 0.228516 36.2734 0.738281 34.5684 1.74023L6.16211 18.6152C2.76953 20.6191 0.677734 24.3457 0.677734 28.3711V62.1035C0.677734 66.1289 2.76953 69.8555 6.16211 71.8594L34.5684 88.7168C36.2559 89.7188 38.1543 90.2285 40.0527 90.2285C41.9512 90.2285 43.832 89.7188 45.5371 88.7168L73.9434 71.8594C77.3359 69.8379 79.4277 66.1289 79.4277 62.1035V28.3711C79.4277 24.3457 77.3359 20.6191 73.9434 18.6152ZM35.5703 86.9941L7.16406 70.1367C4.38672 68.4844 2.66406 65.4082 2.66406 62.1035V28.3711C2.66406 25.0664 4.38672 21.9902 7.16406 20.3379L35.5703 3.48047C36.9414 2.67188 38.4883 2.25 40.0527 2.25C41.6172 2.25 43.1816 2.67188 44.5352 3.48047L72.9414 20.3379C75.2793 21.7266 76.8613 24.1348 77.3008 26.8418C76.3516 24.8379 74.2422 24.2754 71.7637 25.7344L44.8867 42.3457C41.5293 44.2969 39.0684 46.5117 39.0684 50.5371V83.6543C39.0684 86.0801 40.0352 87.6445 41.5469 88.1016C41.0547 88.1895 40.5625 88.2422 40.0527 88.2422C38.4883 88.2246 36.9238 87.8027 35.5703 86.9941Z" fill="#283037"/>
<path d="M66.5078 65.3556L59.4238 69.5919C59.2305 69.6974 59.0898 69.8204 59.0898 70.0489V71.8946C59.0898 72.1231 59.248 72.211 59.4238 72.1056L66.6133 67.7462C66.8066 67.6407 66.8242 67.4298 66.8242 67.2013V65.5665C66.8418 65.338 66.6836 65.2501 66.5078 65.3556Z" fill="#4DA825"/>
<path d="M51.4434 49.7812C51.6719 49.6582 51.8652 49.8164 51.8652 50.1152L51.8828 52.5586C52.9023 52.1543 53.7988 52.0488 54.6074 52.2246C54.7832 52.2773 54.8535 52.5058 54.7832 52.7871L54.2383 54.9492C54.2031 55.1074 54.0977 55.2832 53.9922 55.3887C53.9395 55.4414 53.9043 55.4766 53.8516 55.4941C53.7812 55.5293 53.7109 55.5469 53.6406 55.5293C53.2715 55.4414 52.3926 55.248 51.0215 55.9512C49.5801 56.6894 49.0703 57.9375 49.0879 58.8691C49.1055 59.9766 49.668 60.3281 51.6367 60.3457C54.2559 60.3808 55.3984 61.541 55.416 64.1777C55.4512 66.7793 54.0625 69.5566 51.9355 71.2793L51.9883 73.7051C51.9883 74.0039 51.7949 74.3379 51.5664 74.4433L50.125 75.2695C49.8965 75.3926 49.7031 75.2519 49.7031 74.9531L49.6855 72.5625C48.4551 73.0723 47.207 73.1953 46.416 72.8789C46.2578 72.8262 46.2051 72.5976 46.2578 72.3516L46.7852 70.1543C46.8203 69.9785 46.9258 69.8027 47.0488 69.6973C47.1016 69.6621 47.1367 69.6269 47.1895 69.5918C47.2773 69.5566 47.3477 69.539 47.418 69.5742C48.2793 69.8555 49.3691 69.7324 50.4238 69.1875C51.7598 68.5019 52.6562 67.1484 52.6387 65.7773C52.6211 64.5469 51.9531 64.0371 50.3359 64.0195C48.2793 64.0195 46.3457 63.6152 46.3105 60.5742C46.293 58.0781 47.5937 55.4766 49.6504 53.8242L49.6328 51.3808C49.6328 51.082 49.8086 50.748 50.0547 50.625L51.4434 49.7812Z" fill="white"/>
</svg>
