<svg width="89" height="100" viewBox="0 0 89 100" fill="none" xmlns="http://www.w3.org/2000/svg">
<path d="M85.1121 0H3.68427C1.73377 0 0.270409 1.65052 0.442494 3.60082L7.87994 86.946C8.05224 88.8948 9.73782 90.9346 11.6284 91.4612L40.9478 99.6055C42.8358 100.129 45.9219 100.132 47.8127 99.6123L77.1684 91.4795C79.0594 90.9543 80.745 88.9331 80.9171 86.9809L88.3577 3.60082C88.5298 1.65052 87.0726 0 85.1121 0ZM70.9903 30.0853C70.9891 30.098 70.9791 30.108 70.9666 30.1101C70.9538 30.1122 70.9415 30.1057 70.936 30.0938L47.965 39.5072C47.6378 39.6413 47.4513 39.9882 47.5193 40.3351C47.5877 40.6821 47.8919 40.9323 48.2457 40.9323H66.1133C67.0638 40.9323 67.9693 41.336 68.605 42.0428C69.2404 42.7496 69.5459 43.6931 69.445 44.6381L66.6532 70.8274C66.5162 72.1123 65.6528 73.2039 64.4337 73.6328L45.4685 80.3059C44.7543 80.5574 43.9756 80.5593 43.2597 80.3112L24.3831 73.7724C23.1566 73.3475 22.286 72.2528 22.1481 70.9621L20.8825 59.1015C20.816 58.4788 21.0172 57.8571 21.4357 57.3917C21.8545 56.926 22.451 56.66 23.0773 56.66H28.3302C29.4589 56.66 30.4056 57.5113 30.525 58.6334L31.3015 65.9239L44.3716 70.4671L57.5017 65.8824L59.1076 50.7624H21.9834C20.8581 50.7624 19.9129 49.9158 19.7895 48.7972L19.0826 42.3889C18.9747 41.4114 19.5262 40.4807 20.4351 40.1061L44.1949 30.3102C44.4645 30.1991 44.6176 29.9134 44.5611 29.6274C44.5044 29.3417 44.2539 29.1358 43.9627 29.1358H18.9469C18.1938 29.1358 17.5621 28.5671 17.4835 27.8184L16.7599 20.9306C16.7164 20.5161 16.8509 20.1024 17.1298 19.7925C17.4088 19.4827 17.8062 19.3058 18.2231 19.3058H70.5663C70.9855 19.3058 71.3847 19.4846 71.6638 19.7972C71.943 20.1099 72.0755 20.5267 72.0282 20.9431L70.9903 30.0853Z" fill="#4E85EE"/>
</svg>
