<svg width="114" height="26" viewBox="0 0 114 26" fill="none" xmlns="http://www.w3.org/2000/svg">
<g clip-path="url(#clip0_40_9)">
<path d="M35.3592 25.9999V0.508821H36.712V4.51393C36.8744 4.33691 37.0151 4.14882 37.1558 3.94967C38.2814 1.55988 40.6625 0.04414 43.2709 0.0773315C46.3555 -0.0111791 48.8664 1.15052 50.3384 3.96074C52.2432 7.50116 52.3515 11.7607 50.6306 15.3897C49.2561 18.5318 45.8684 20.1029 42.2427 19.5275C39.9482 19.3284 37.9134 17.9565 36.8311 15.8765V26.022H35.37L35.3592 25.9999ZM36.712 9.52584L37.0151 12.5241C37.5454 15.9318 39.5152 17.9454 42.6106 18.3216C45.6087 18.8305 48.5309 17.0935 49.6024 14.1837C50.8038 11.2518 50.7172 7.93265 49.3643 5.06712C48.2279 2.46712 45.5545 0.962438 42.7946 1.36074C40.2187 1.54882 38.0433 3.39648 37.3723 5.94116C37.08 7.12499 36.8636 8.31989 36.712 9.51478V9.52584ZM79.4634 12.9888C79.0413 16.7063 75.9892 19.5165 72.331 19.5829C66.6596 19.8705 63.9972 16.0203 63.5751 11.5837C63.2828 9.1718 63.6616 6.71563 64.679 4.52499C66.1293 1.42712 69.3762 -0.354158 72.6989 0.132651C75.8593 0.409246 78.4893 2.72159 79.2361 5.86371C79.5283 7.25776 79.734 8.67393 79.8747 10.1012H64.9712C64.7007 14.1284 66.8112 17.3701 69.82 18.1556C73.5648 19.0961 76.7576 17.4365 77.9157 13.8075C78.1754 12.8782 78.6408 12.7454 79.4742 13.0109L79.4634 12.9888ZM64.9604 8.79563H78.2837C78.1971 4.50286 75.5887 1.38286 72.0387 1.34967C68.0342 1.28329 65.1336 4.28159 64.9604 8.79563ZM82.2125 13.0773H83.5221C83.6195 15.0799 84.81 16.8612 86.5958 17.6909C88.8254 18.7199 91.4013 18.6535 93.5768 17.5029C94.7781 16.9497 95.5141 15.6884 95.4167 14.3497C95.4816 13.0552 94.7024 11.8603 93.501 11.4399C92.0615 10.8978 90.5355 10.588 89.0743 10.1122C87.5483 9.66967 86.0655 9.11648 84.6152 8.44159C82.2558 7.26882 82.1042 2.67733 84.7776 1.22797C87.5591 -0.376285 90.9359 -0.431605 93.7716 1.08414C95.4924 2.05776 96.4449 4.02712 96.1635 6.01861H95.0487C95.0487 6.01861 94.9513 5.91903 94.9513 5.85265C94.8106 2.20159 91.8126 1.06201 88.5873 1.38286C87.6132 1.4935 86.6933 1.79223 85.8274 2.23478C84.7559 2.73265 84.1173 3.86116 84.2256 5.05606C84.2256 6.25095 84.9615 7.31308 86.0655 7.71137C87.4725 8.24244 88.9661 8.57435 90.4272 8.99478L93.9447 9.9352C95.579 10.4884 96.7155 12.0041 96.802 13.7633C97.0835 15.6995 96.1202 17.5914 94.421 18.4654C91.3472 20.2467 86.282 19.7709 84.0199 17.525C82.8619 16.3412 82.2233 14.7258 82.2341 13.0552L82.2125 13.0773ZM113.361 6.02967H112.138C112.138 5.86371 112.073 5.69776 112.052 5.56499C112.009 3.62882 110.656 1.99137 108.794 1.62627C107.095 1.1284 105.277 1.21691 103.631 1.88074C102.289 2.26797 101.369 3.51818 101.359 4.94542C101.315 6.35052 102.235 7.58967 103.567 7.92159L109.162 9.39308C109.768 9.53691 110.363 9.72499 110.948 9.94627C112.734 10.6101 113.946 12.3029 114 14.239C114.054 16.1752 112.939 17.9565 111.186 18.7088C108.556 19.9258 105.547 19.959 102.895 18.7973C100.688 17.8237 99.3022 15.5446 99.4321 13.0884H100.633C101.088 15.3012 102.571 17.1599 104.616 18.0229C106.662 18.8858 109 18.6867 110.85 17.4475C111.987 16.839 112.68 15.6109 112.615 14.3054C112.669 13.0109 111.879 11.8271 110.666 11.4178C109.227 10.8756 107.701 10.5769 106.24 10.0901C104.703 9.65861 103.209 9.10542 101.759 8.44159C99.4537 7.27988 99.2697 2.73265 101.9 1.28329C104.714 -0.387349 108.188 -0.431605 111.034 1.18371C112.669 2.17946 113.578 4.08244 113.351 6.01861H113.361V6.02967ZM33.1296 19.1182C32.1339 19.5054 31.0083 19.0629 30.5104 18.1003L25.7482 11.3735L25.0555 10.4331L19.5249 18.1114C19.0595 19.0407 17.9989 19.4612 17.0356 19.1071L24.1572 9.33776L17.5443 0.530949C18.5292 0.165842 19.6223 0.56414 20.1635 1.47137L25.0988 8.28669L30.0666 1.4935C30.532 0.586268 31.5927 0.176906 32.5343 0.553076L29.9692 4.03818L26.4842 8.67393C26.1054 9.01691 26.0729 9.61435 26.4084 10.0016C26.4301 10.0237 26.4517 10.0569 26.4842 10.079L33.1188 19.1292H33.1296V19.1182ZM63.3586 0.431374V1.75903C59.6787 1.51563 56.4967 4.35903 56.2586 8.12074C56.2478 8.35308 56.237 8.57435 56.2586 8.80669C56.2586 11.9046 56.2586 15.0135 56.2586 18.1114V19.1624H54.9382V0.519885H56.237V4.33691C57.828 1.54882 60.2848 0.519885 63.3802 0.442438L63.3586 0.431374ZM0 9.22712L0.584449 6.2952C2.17545 0.508821 8.66932 -1.90309 13.1393 1.68159C15.7585 3.78371 16.4079 6.75989 16.278 10.1122H1.53688C1.29878 16.0978 5.5198 19.7156 10.9314 17.868C12.7172 17.2041 14.0592 15.6884 14.4922 13.8075C14.7736 12.8671 15.2498 12.7012 16.1156 12.9778C15.8234 15.3012 14.503 17.359 12.544 18.565C9.25377 20.4016 5.18428 19.8705 2.45685 17.2484C1.14725 15.7327 0.34634 13.8297 0.194816 11.805C0.194816 11.4731 0.086585 11.1633 0.0108231 10.8646C0.0108231 10.3114 0 9.75818 0 9.22712H0ZM1.55853 8.81776H14.8818C14.7952 4.48074 12.1219 1.39393 8.55027 1.3718C4.56736 1.31648 1.72088 4.32584 1.54771 8.80669V8.82882L1.55853 8.81776Z" fill="#384451"/>
</g>
<defs>
<clipPath id="clip0_40_9">
<rect width="114" height="26" fill="white"/>
</clipPath>
</defs>
</svg>
