<svg width="51" height="76" viewBox="0 0 51 76" fill="none" xmlns="http://www.w3.org/2000/svg">
<g clip-path="url(#clip0_54_10)">
<path d="M12.7525 76.0001C19.7891 76.0001 25.5 70.3254 25.5 63.3334V50.6667H12.7525C5.71595 50.6667 0.00509644 56.3414 0.00509644 63.3334C0.00509644 70.3254 5.71595 76.0001 12.7525 76.0001Z" fill="#0ACF83"/>
<path d="M0.00509644 37.9999C0.00509644 31.0079 5.71595 25.3333 12.7525 25.3333H25.5V50.6666H12.7525C5.71595 50.6666 0.00509644 44.9919 0.00509644 37.9999Z" fill="#A259FF"/>
<path d="M0.00509644 12.6667C0.00509644 5.67467 5.71595 0 12.7525 0H25.5V25.3333H12.7525C5.71595 25.3333 0.00509644 19.6587 0.00509644 12.6667Z" fill="#F24E1E"/>
<path d="M25.5 0H38.2474C45.284 0 50.9949 5.67467 50.9949 12.6667C50.9949 19.6587 45.284 25.3333 38.2474 25.3333H25.5V0Z" fill="#FF7262"/>
<path d="M50.9949 37.9999C50.9949 44.9919 45.284 50.6666 38.2475 50.6666C31.2109 50.6666 25.5 44.9919 25.5 37.9999C25.5 31.0079 31.2109 25.3333 38.2475 25.3333C45.284 25.3333 50.9949 31.0079 50.9949 37.9999Z" fill="#1ABCFE"/>
</g>
<defs>
<clipPath id="clip0_54_10">
<rect width="51" height="76" fill="white"/>
</clipPath>
</defs>
</svg>
