<svg width="93" height="92" viewBox="0 0 93 92" fill="none" xmlns="http://www.w3.org/2000/svg">
<path d="M90.9104 41.8503L50.7914 1.73325C48.4814 -0.57775 44.7344 -0.57775 42.4224 1.73325L34.0924 10.0653L44.6594 20.6322C47.1154 19.8022 49.9314 20.3592 51.8884 22.3172C53.8574 24.2872 54.4094 27.1273 53.5584 29.5923L63.7444 39.7772C66.2094 38.9272 69.0514 39.4772 71.0194 41.4482C73.7694 44.1982 73.7694 48.6543 71.0194 51.4062C68.2674 54.1572 63.8114 54.1572 61.0584 51.4062C58.9904 49.3363 58.4784 46.2962 59.5274 43.7482L50.0274 34.2492V59.2463C50.6974 59.5783 51.3304 60.0203 51.8884 60.5783C54.6384 63.3283 54.6384 67.7843 51.8884 70.5373C49.1384 73.2863 44.6794 73.2863 41.9314 70.5373C39.1814 67.7833 39.1814 63.3273 41.9314 60.5783C42.6114 59.8993 43.3984 59.3853 44.2384 59.0412V33.8112C43.3984 33.4672 42.6134 32.9583 41.9314 32.2743C39.8484 30.1922 39.3474 27.1343 40.4154 24.5763L29.9984 14.1573L2.48844 41.6642C0.177438 43.9772 0.177438 47.7242 2.48844 50.0352L42.6094 90.1533C44.9194 92.4642 48.6654 92.4642 50.9784 90.1533L90.9104 50.2212C93.2214 47.9102 93.2214 44.1613 90.9104 41.8503Z" fill="#F05133"/>
</svg>
