<svg width="90" height="90" viewBox="0 0 90 90" fill="none" xmlns="http://www.w3.org/2000/svg">
<path d="M45 0C20.1525 0 0 20.1488 0 45C0 64.8825 12.8925 81.75 30.7762 87.7012C33.0225 88.1175 33.75 86.7225 33.75 85.5375V77.16C21.2325 79.8825 18.6262 71.85 18.6262 71.85C16.5788 66.6488 13.6275 65.265 13.6275 65.265C9.54375 62.4712 13.9388 62.5312 13.9388 62.5312C18.4575 62.8462 20.835 67.17 20.835 67.17C24.8475 74.0475 31.3613 72.06 33.93 70.9088C34.3313 68.0025 35.4975 66.015 36.7875 64.8938C26.7938 63.75 16.2862 59.8913 16.2862 42.6525C16.2862 37.7362 18.045 33.7238 20.9212 30.5737C20.4562 29.4375 18.915 24.8588 21.36 18.6638C21.36 18.6638 25.14 17.4562 33.7388 23.2762C37.3275 22.2787 41.175 21.78 45 21.7612C48.825 21.78 52.6762 22.2787 56.2725 23.2762C64.8637 17.4562 68.6362 18.6638 68.6362 18.6638C71.085 24.8625 69.5437 29.4412 69.0788 30.5737C71.9662 33.7238 73.71 37.74 73.71 42.6525C73.71 59.9362 63.1838 63.7425 53.1637 64.8562C54.7762 66.2513 56.25 68.9888 56.25 73.1888V85.5375C56.25 86.7337 56.97 88.14 59.2537 87.6975C77.1225 81.7387 90 64.875 90 45C90 20.1488 69.8512 0 45 0Z" fill="black"/>
</svg>
