<svg width="90" height="100" viewBox="0 0 90 100" fill="none" xmlns="http://www.w3.org/2000/svg">
<path d="M2.46854 0C1.54947 0 0.864681 0.74896 0.946227 1.66436L8.6945 88.5741C8.77605 89.4895 9.56712 90.4397 10.4531 90.6856L43.3328 99.8148C44.2185 100.061 45.6676 100.061 46.5536 99.8155L79.5332 90.6713C80.4188 90.4256 81.2109 89.4755 81.2925 88.5604L89.0534 1.66436C89.1357 0.74896 88.4502 0 87.5311 0H2.46854ZM72.5526 19.9325C72.4794 20.749 72.3527 22.1663 72.2712 23.0817L72.067 25.362C71.9848 26.2771 71.8678 27.5858 71.806 28.27C71.7445 28.9544 71.686 29.5142 71.6753 29.5142C71.6649 29.5142 70.9043 29.5142 69.9852 29.5142H46.6709C45.7518 29.5142 44.9921 29.5142 44.9821 29.5142C44.9721 29.5142 44.2118 29.5142 43.2927 29.5142H31.0139C30.0948 29.5142 29.41 30.2632 29.4916 31.1786L30.2078 39.1845C30.2893 40.0996 31.1085 40.8489 32.0276 40.8489H43.293C44.2121 40.8489 44.9724 40.8489 44.9825 40.8489C44.9925 40.8489 45.7521 40.8489 46.6712 40.8489H66.0349C66.9539 40.8489 68.3763 40.8489 69.1955 40.8489C70.014 40.8489 70.6235 41.517 70.5494 42.3334C70.4748 43.1499 70.3475 44.5676 70.2659 45.4827L67.9629 71.2929C67.8807 72.2083 67.7768 73.3777 67.732 73.8917C67.6862 74.4054 66.9245 75.0266 66.0389 75.2723L46.6104 80.6594C45.7247 80.9047 44.9888 81.1079 44.9751 81.1109C44.9614 81.1139 44.2258 80.9151 43.3398 80.6694L23.8906 75.2726C23.0049 75.027 22.2135 74.0768 22.132 73.1614L20.8801 59.1097C20.7985 58.1943 21.484 57.4453 22.403 57.4453H24.178C25.0971 57.4453 26.601 57.4453 27.5201 57.4453H30.167C31.0861 57.4453 31.9046 58.1943 31.9868 59.1097L32.4777 64.6104C32.5593 65.5258 33.3517 66.4706 34.2393 66.7102L43.3368 69.167C44.2238 69.4066 44.953 69.6028 44.9571 69.6028C44.9611 69.6028 45.69 69.4063 46.5773 69.1666L55.6911 66.7039C56.5781 66.4642 57.3712 65.5191 57.4534 64.604L58.4417 53.5832C58.5239 52.6678 57.8391 51.9189 56.92 51.9189H46.6712C45.7521 51.9189 44.9925 51.9189 44.9825 51.9189C44.9724 51.9189 44.2121 51.9189 43.293 51.9189H21.9074C20.9883 51.9189 20.1699 51.1696 20.0883 50.2545L17.6633 23.0814C17.5818 22.166 17.4551 20.749 17.3819 19.9322C17.3094 19.1157 18.0015 18.4476 18.9206 18.4476H43.293C44.2121 18.4476 44.9724 18.4476 44.9825 18.4476C44.9925 18.4476 45.7521 18.4476 46.6712 18.4476H71.0142C71.933 18.4476 72.6255 19.1157 72.5526 19.9325Z" fill="#E85502"/>
</svg>
