<svg width="97" height="96" viewBox="0 0 97 96" fill="none" xmlns="http://www.w3.org/2000/svg">
<path d="M96.8 0H0.799988V96H96.8V0Z" fill="#F7DF1E"/>
<path d="M65.2876 75.0004C67.2213 78.1577 69.7371 80.4785 74.1866 80.4785C77.9246 80.4785 80.3124 78.6103 80.3124 76.029C80.3124 72.9356 77.859 71.84 73.7447 70.0404L71.4895 69.0728C64.9798 66.2994 60.6552 62.8252 60.6552 55.4804C60.6552 48.7147 65.8103 43.5642 73.8666 43.5642C79.6023 43.5642 83.7257 45.5604 86.6971 50.7871L79.6724 55.2975C78.1257 52.5242 76.4571 51.4316 73.8666 51.4316C71.2244 51.4316 69.5497 53.1078 69.5497 55.2975C69.5497 58.0038 71.2259 59.0994 75.0964 60.7756L77.3516 61.7417C85.0164 65.0286 89.344 68.3794 89.344 75.9132C89.344 84.0351 82.9638 88.4846 74.3954 88.4846C66.0175 88.4846 60.6049 84.4922 57.9566 79.2594L65.2876 75.0004ZM33.4202 75.7821C34.8373 78.2964 36.1265 80.4221 39.2259 80.4221C42.1897 80.4221 44.0594 79.2625 44.0594 74.7535V44.0793H53.0804V74.8754C53.0804 84.2164 47.6038 88.4678 39.6099 88.4678C32.387 88.4678 28.2042 84.7299 26.0769 80.2278L33.4202 75.7821Z" fill="black"/>
</svg>
