<svg width="50" height="110" viewBox="0 0 50 110" fill="none" xmlns="http://www.w3.org/2000/svg">
<path d="M24.2793 0.299561L27.205 5.79464C27.8628 6.80869 28.5754 7.70626 29.4147 8.54217C31.8754 10.9722 34.1691 13.5658 36.2801 16.3052C41.2373 22.8143 44.581 30.0429 46.9688 37.8607C48.4008 42.6363 49.1785 47.5353 49.2367 52.4891C49.4765 67.2991 44.3994 80.0158 34.1629 90.5846C32.4979 92.2606 30.699 93.7982 28.7843 95.1821C27.7703 95.1821 27.2907 94.4044 26.8727 93.6884C26.1116 92.3607 25.605 90.9026 25.379 89.389C25.0193 87.5973 24.7829 85.8055 24.8994 83.9556V83.1197C24.8172 82.9415 23.923 0.720941 24.2793 0.299561Z" fill="#599636"/>
<path d="M24.2793 0.11786C24.1594 -0.12195 24.0395 0.0596202 23.9196 0.176099C23.9778 1.37515 23.5599 2.44402 22.9055 3.46492C22.1861 4.47898 21.2337 5.25665 20.2779 6.09255C14.9678 10.6901 10.7883 16.2434 7.44122 22.4544C2.98761 30.8135 0.692286 39.7722 0.0413731 49.2035C-0.256676 52.6054 1.11709 64.6096 2.18939 68.0732C5.11507 77.2682 10.3703 84.9729 17.1775 91.6602C18.8493 93.2703 20.6376 94.764 22.4876 96.1994C23.0255 96.1994 23.0837 95.7198 23.207 95.3635C23.4428 94.6012 23.6226 93.8225 23.7449 93.034L24.9439 84.0788L24.2793 0.11786Z" fill="#6CAC48"/>
<path d="M27.205 98.8203C27.3249 97.4499 27.9827 96.3125 28.6987 95.1786C27.9793 94.8805 27.4448 94.2879 27.0269 93.6267C26.6665 93.0007 26.3681 92.3409 26.1361 91.6568C25.3002 89.1491 25.1221 86.518 24.8823 83.9555V82.4036C24.5842 82.6434 24.5226 84.6715 24.5226 84.973C24.3482 87.6814 23.9888 90.3747 23.4468 93.034C23.2687 94.1097 23.1488 95.182 22.4876 96.1378C22.4876 96.2577 22.4876 96.3776 22.5459 96.5558C23.6216 99.7213 23.9162 102.945 24.0978 106.23V107.429C24.0978 108.861 24.0395 108.56 25.2283 109.04C25.7079 109.218 26.2424 109.279 26.722 109.636C27.0817 109.636 27.1399 109.338 27.1399 109.098L26.9618 107.128V101.633C26.9035 100.674 27.0817 99.7213 27.2016 98.8237L27.205 98.8203Z" fill="#C2BFBF"/>
</svg>
