<svg width="91" height="91" viewBox="0 0 91 91" fill="none" xmlns="http://www.w3.org/2000/svg">
<g clip-path="url(#clip0_43_25)">
<path d="M42.5232 0.0710966C42.3278 0.0888683 41.7057 0.151069 41.1459 0.195498C28.2348 1.35954 16.1411 8.32605 8.48155 19.0335C4.21634 24.987 1.48838 31.7403 0.457623 38.8934C0.0933032 41.3903 0.0488739 42.1278 0.0488739 45.5133C0.0488739 48.8988 0.0933032 49.6364 0.457623 52.1333C2.92789 69.203 15.0748 83.5448 31.5492 88.8585C34.4993 89.8093 37.6094 90.458 41.1459 90.849C42.5232 91 48.4768 91 49.8541 90.849C55.9586 90.1736 61.1302 88.663 66.2307 86.0595C67.0126 85.6596 67.1637 85.553 67.0571 85.4641C66.986 85.4108 63.6538 80.9412 59.6552 75.5386L52.3865 65.7198L43.2785 52.2399C38.2669 44.8291 34.1439 38.769 34.1083 38.769C34.0728 38.7601 34.0373 44.7492 34.0195 52.0622C33.9928 64.8667 33.9839 65.3821 33.824 65.6842C33.593 66.1196 33.4152 66.2973 33.042 66.4928C32.7577 66.635 32.5089 66.6617 31.1671 66.6617H29.6299L29.2211 66.404C28.9545 66.2351 28.7591 66.013 28.6258 65.7553L28.4392 65.3554L28.4569 47.5393L28.4836 29.7143L28.7591 29.3677C28.9012 29.1811 29.2034 28.9412 29.4166 28.8257C29.7809 28.648 29.9231 28.6302 31.4604 28.6302C33.2731 28.6302 33.5752 28.7013 34.0461 29.2167C34.1794 29.3589 39.1111 36.7874 45.0113 45.7355C50.9115 54.6835 58.9798 66.9016 62.9429 72.8995L70.1405 83.8025L70.5048 83.5626C73.7303 81.4655 77.1425 78.4798 79.8438 75.3698C85.593 68.7676 89.2984 60.717 90.5424 52.1333C90.9067 49.6364 90.9511 48.8988 90.9511 45.5133C90.9511 42.1278 90.9067 41.3903 90.5424 38.8934C88.0721 21.8237 75.9252 7.4819 59.4508 2.16816C56.5451 1.22626 53.4528 0.57759 49.9874 0.186613C49.1343 0.0977541 43.2608 9.77144e-06 42.5232 0.0710966ZM61.1302 27.5639C61.5567 27.7772 61.9033 28.1859 62.0277 28.6124C62.0988 28.8435 62.1165 33.784 62.0988 44.918L62.0721 60.8947L59.2553 56.5762L56.4296 52.2577V40.6439C56.4296 33.1353 56.4651 28.9146 56.5185 28.7102C56.6606 28.2126 56.9716 27.8216 57.3982 27.5906C57.7625 27.404 57.8958 27.3862 59.2908 27.3862C60.6059 27.3862 60.837 27.404 61.1302 27.5639Z" fill="black"/>
<path d="M69.6962 83.9979C69.3852 84.1934 69.2874 84.3267 69.5629 84.1756C69.7584 84.0601 70.0783 83.8202 70.0249 83.8113C69.9983 83.8113 69.8472 83.9001 69.6962 83.9979ZM69.083 84.3977C68.9231 84.5221 68.9231 84.531 69.1186 84.4333C69.2252 84.38 69.3141 84.3178 69.3141 84.3C69.3141 84.2289 69.2696 84.2467 69.083 84.3977ZM68.6388 84.6643C68.4788 84.7887 68.4788 84.7976 68.6743 84.6999C68.7809 84.6465 68.8698 84.5843 68.8698 84.5666C68.8698 84.4955 68.8254 84.5133 68.6388 84.6643ZM68.1945 84.9309C68.0345 85.0553 68.0345 85.0642 68.23 84.9664C68.3366 84.9131 68.4255 84.8509 68.4255 84.8332C68.4255 84.7621 68.3811 84.7798 68.1945 84.9309ZM67.5191 85.2863C67.1815 85.464 67.1992 85.5351 67.5369 85.3663C67.688 85.2863 67.8035 85.2064 67.8035 85.1886C67.8035 85.1264 67.7946 85.1353 67.5191 85.2863Z" fill="black"/>
</g>
<defs>
<clipPath id="clip0_43_25">
<rect width="91" height="91" fill="white"/>
</clipPath>
</defs>
</svg>
