<svg width="78" height="88" viewBox="0 0 78 88" fill="none" xmlns="http://www.w3.org/2000/svg">
<path d="M39.0153 88C37.8378 88 36.6683 87.6909 35.6359 87.096L24.8792 80.7226C23.2726 79.8234 24.0565 79.5054 24.5864 79.3222C26.7286 78.5715 27.1633 78.402 29.4498 77.1025C29.6902 76.9652 30.0047 77.0137 30.2507 77.159L38.5145 82.0665C38.8129 82.228 39.2363 82.228 39.513 82.0665L71.734 63.4533C72.0324 63.2838 72.226 62.9367 72.226 62.5816V25.3712C72.226 24.9999 72.0324 24.669 71.7276 24.4833L39.5194 5.88626C39.221 5.70868 38.8258 5.70868 38.5274 5.88626L6.32566 24.4833C6.01353 24.6609 5.81512 25.008 5.81512 25.3632V62.5735C5.81512 62.9286 6.00869 63.2676 6.31517 63.4371L15.1387 68.5384C19.9295 70.9357 22.8572 68.1106 22.8572 65.2694V28.5434C22.8572 28.0187 23.2685 27.6151 23.7928 27.6151H27.8738C28.382 27.6151 28.8014 28.0187 28.8014 28.5434V65.2856C28.8014 71.6783 25.3171 75.3509 19.2601 75.3509C17.397 75.3509 15.9291 75.3509 11.8319 73.333L3.37938 68.4577C1.29046 67.247 0 64.9869 0 62.5735V25.3632C0 22.9417 1.29046 20.6816 3.37938 19.487L35.6327 0.865685C37.6733 -0.288562 40.3832 -0.288562 42.4076 0.865685L74.6206 19.4951C76.7015 20.6977 78 22.9497 78 25.3712V62.5816C78 64.995 76.7015 67.247 74.6206 68.4577L42.4076 87.079C41.3752 87.6763 40.2058 87.9831 39.0121 87.9831" fill="#689F63"/>
<path d="M48.9679 62.3596C34.8697 62.3596 31.9138 55.8829 31.9138 50.4507C31.9138 49.9341 32.3299 49.5225 32.8469 49.5225H37.0086C37.4684 49.5225 37.8555 49.8574 37.9281 50.3119C38.5572 54.5559 40.4283 56.6965 48.9534 56.6965C55.7444 56.6965 58.6318 55.1613 58.6318 51.5573C58.6318 49.4829 57.8092 47.9412 47.2597 46.908C38.4362 46.0363 32.984 44.091 32.984 37.0283C32.984 30.5226 38.4685 26.6482 47.6549 26.6482C57.9705 26.6482 63.0839 30.232 63.7291 37.9324C63.7533 38.1987 63.6566 38.457 63.4791 38.6507C63.3017 38.8364 63.0517 38.9494 62.7936 38.9494H58.6076C58.1721 38.9494 57.793 38.6427 57.7043 38.2229C56.6962 33.7593 54.2604 32.3306 47.6388 32.3306C40.2267 32.3306 39.3637 34.9136 39.3637 36.8508C39.3637 39.1996 40.38 39.8857 50.381 41.2095C60.2852 42.5251 64.9873 44.3816 64.9873 51.3475C64.9873 58.3698 59.1319 62.3976 48.9212 62.3976" fill="#689F63"/>
</svg>
