<svg width="104" height="40" viewBox="0 0 104 40" fill="none" xmlns="http://www.w3.org/2000/svg">
<g clip-path="url(#clip0_40_4)">
<path d="M0 0H104V34.2857H52V40H28.8889V34.2857H0V0ZM5.77778 28.5714H17.3333V11.4286H23.1111V28.5714H28.8889V5.71429H5.77778V28.5714ZM34.6667 5.71429V34.2857H46.2222V28.5714H57.7778V5.71429H34.6667ZM46.2222 11.4286H52V22.8571H46.2222V11.4286ZM63.5556 5.71429V28.5714H75.1111V11.4286H80.8889V28.5714H86.6667V11.4286H92.4444V28.5714H98.2222V5.71429H63.5556Z" fill="#CB3837"/>
<path d="M5.77777 28.5715H17.3333V11.4286H23.1111V28.5715H28.8889V5.71436H5.77777V28.5715Z" fill="white"/>
<path d="M34.6667 5.71436V34.2858H46.2222V28.5715H57.7778V5.71436H34.6667ZM52 22.8572H46.2222V11.4286H52V22.8572Z" fill="white"/>
<path d="M63.5555 5.71436V28.5715H75.1111V11.4286H80.8889V28.5715H86.6667V11.4286H92.4444V28.5715H98.2222V5.71436H63.5555Z" fill="white"/>
</g>
<defs>
<clipPath id="clip0_40_4">
<rect width="104" height="40" fill="white"/>
</clipPath>
</defs>
</svg>
