<svg width="88" height="86" viewBox="0 0 88 86" fill="none" xmlns="http://www.w3.org/2000/svg">
<path fill-rule="evenodd" clip-rule="evenodd" d="M17.2068 35.9691C17.3249 36.0573 17.5298 36.1147 17.3249 36.2889C17.1778 36.4917 17.0018 36.6659 16.8849 36.8986C16.7679 37.1026 16.6799 37.1599 16.5039 37.0155C16.7378 36.6373 16.9718 36.2878 17.2057 35.968L17.2068 35.9691ZM76.1278 66.4186C76.1278 66.5046 76.1568 66.562 76.1568 66.6502C76.2158 66.5344 76.2158 66.476 76.2459 66.4186H76.1278ZM76.1278 66.6788V66.6502V66.6788ZM70.1483 78.0099L65.0465 50.0026C64.9596 49.975 64.8426 49.9177 64.6366 49.8592C64.6956 49.975 64.7257 50.0621 64.7546 50.1492C64.8995 50.1205 64.9596 50.1205 65.0175 50.0919C65.0175 50.0632 65.0175 50.0345 65.0476 50.0037L70.1494 78.0132L70.1483 78.0099ZM64.8716 43.6981C64.8426 43.7841 64.8426 43.8723 64.8426 43.9594C64.8426 43.8712 64.8426 43.783 64.8738 43.697L64.8716 43.6981ZM64.9006 44.278C64.8716 44.278 64.8716 44.278 64.8426 44.2472V44.2758C64.8738 44.3045 64.8738 44.3045 64.9028 44.2758L64.9006 44.278ZM64.8426 44.5096V44.3056C64.7569 44.3343 64.6689 44.3343 64.5508 44.364C64.6978 44.4192 64.8449 44.45 64.8449 44.5074L64.8426 44.5096Z" fill="#DD3735"/>
<path fill-rule="evenodd" clip-rule="evenodd" d="M87.6769 37.4509C87.619 36.3174 87.5901 35.184 87.472 34.0517C87.267 32.5114 87.0621 30.9424 86.7101 29.4319C86.4461 28.1827 86.0083 26.9909 85.5672 25.8001C85.0102 24.4053 84.4533 22.9819 83.7493 21.6456C82.6064 19.4956 81.1115 17.5772 79.7336 15.5727C78.8224 14.2937 77.6505 13.2485 76.7705 11.9409C76.2726 11.1856 75.5396 10.5472 74.8067 9.96726C73.6337 9.0356 72.4028 8.19214 71.1719 7.37955C70.234 6.74006 69.2961 6.13034 68.298 5.57796C67.5071 5.14024 66.6572 4.79183 65.8363 4.41365C64.8983 3.97814 63.9894 3.45442 62.9345 3.25155C62.6694 3.19642 62.4354 3.10821 62.1714 3.02001C61.4975 2.78847 60.8526 2.52716 60.1775 2.32319C59.1527 2.00344 58.1557 1.62637 57.0997 1.36396C56.0772 1.10265 55.0212 0.929547 53.9652 0.782906C52.7933 0.612008 51.5925 0.551367 50.4184 0.437803C49.6565 0.349598 48.8946 0.263598 48.1616 0.234931C47.0477 0.177598 45.9048 0.177598 44.7909 0.148931C44.2339 0.119162 43.648 0.0607261 43.091 0.0904954C42.2411 0.119162 41.3912 0.206265 40.5401 0.322034C39.7203 0.410239 38.8993 0.553572 38.1084 0.671547C37.1427 0.787316 36.1758 0.845752 35.2078 0.962624C34.2988 1.0795 33.3609 1.2537 32.4531 1.39924C32.13 1.45767 31.807 1.57344 31.4839 1.63078C30.7822 1.77632 30.0492 1.83475 29.3452 2.06739C28.0865 2.44667 26.8244 2.88329 25.5935 3.34637C24.4495 3.81165 23.3356 4.3056 22.2517 4.88665C21.1378 5.49527 20.0818 6.22075 19.0269 6.91978C18.0289 7.58793 17.033 8.28475 16.0639 9.04001C15.1282 9.7677 14.2482 10.5803 13.3972 11.394C12.9293 11.8571 12.5472 12.4105 12.1072 12.9332C11.3754 13.7766 10.6424 14.5892 9.93842 15.4613C9.35473 16.189 8.8245 16.9432 8.26754 17.6995C7.2728 19.0336 6.42288 20.4582 5.63199 21.8827C5.30896 22.4637 5.01599 23.0448 4.72303 23.6247C4.28303 24.4958 3.81407 25.3392 3.40415 26.24C3.11007 26.8508 2.87615 27.519 2.70015 28.1871C2.29134 29.6116 1.8803 31.0648 1.49934 32.4871C1.14734 33.7661 1.05934 35.1024 1.03149 36.4101C1.00141 37.5722 1.11837 38.7056 1.23534 39.8677C1.26541 40.1588 1.09053 40.5072 1.4403 40.7387C1.32334 41.0585 1.41134 41.2349 1.58511 41.29C1.38237 41.6098 1.67422 41.8148 1.55837 42.1059C1.5283 42.1632 1.64749 42.279 1.70318 42.3661C1.70318 42.4543 1.67534 42.5701 1.70318 42.6572C1.73437 42.9185 1.85134 43.1798 1.85134 43.4709C1.85134 43.6738 2.02622 43.9064 2.08526 44.1104C2.11422 44.1964 2.08526 44.3419 2.02622 44.4003C1.85022 44.6032 1.87918 44.7774 2.14318 44.8943C2.29134 45.2714 2.2323 45.4456 2.20334 45.622C2.26126 45.8822 2.17326 45.9693 2.20334 46.0277C2.43726 46.493 2.52637 47.0156 2.55422 47.5382C2.55422 47.6551 2.61326 47.772 2.6723 47.9164C2.70126 47.9164 2.6723 48.4677 2.6723 48.4677C2.81711 48.3817 2.9363 48.353 3.08222 48.2946C3.17134 48.6717 3.25822 49.0223 3.37518 49.342C3.52222 49.5736 3.52222 49.6882 3.4643 49.7169C3.58126 50.2395 3.63918 50.7335 3.84303 51.2274C3.84303 50.6761 3.78734 50.1249 3.69822 49.6011C4.10815 49.7467 4.46015 49.8911 4.69518 49.8911C4.72526 49.8029 4.75422 49.6882 4.7843 49.6298C4.6083 49.4567 4.46126 49.1954 4.28526 49.0212C4.3443 49.2527 4.28526 49.3409 4.28526 49.4291C4.1683 49.3696 4.02126 49.3112 3.87534 49.2527C3.9923 49.1094 4.10926 48.9628 4.28526 48.7896C4.28526 48.5272 4.14045 48.2935 3.7283 48.3233C3.9043 48.2659 4.0803 48.1799 4.28526 48.1204C4.6083 47.9473 4.2563 47.6275 4.2563 47.2207C4.28526 46.7279 3.9923 46.2339 3.9043 45.7102C3.75726 44.8976 3.78734 43.6771 3.69934 42.8634C3.52334 42.7178 3.3763 43.0949 3.34734 43.1247C3.43645 43.8215 3.52334 44.5183 3.58126 45.2162C3.40637 44.6352 3.2883 43.9957 3.14237 43.2978C3.1123 43.5018 3.08334 43.5889 3.08334 43.7057C2.93853 43.8491 3.05437 44.0255 3.14237 44.2283C2.93741 44.1401 2.70237 44.171 2.70237 44.171V44.9847C2.41053 44.6936 2.32364 44.4621 2.17549 44.257C2.11756 44.0255 2.08637 43.7939 2.03068 43.5624C2.08637 43.4158 2.03068 43.3287 2.03068 43.2427C1.99949 43.0376 1.97053 42.806 1.94156 42.5436C1.97053 42.515 1.9126 42.0805 1.9126 42.0805C2.14653 42.1081 2.29468 42.1357 2.4406 42.1357C2.14764 41.7608 2.35149 41.5271 2.47068 41.2944C2.52972 41.1775 2.73468 41.1511 2.79372 41.032C3.02764 40.5965 3.40972 40.2492 3.40972 39.6957C3.40972 39.4344 3.49883 39.1444 3.52668 38.882C3.58572 38.3881 3.64364 37.8941 3.67149 37.4002C3.73164 36.7607 3.67149 36.1212 3.81964 35.5115C4.05579 34.4971 4.34875 33.4794 4.67068 32.4618C4.9046 31.7341 5.16971 31.0395 5.46156 30.3118C5.90156 29.1783 6.3126 28.0449 6.86956 26.971C7.66045 25.401 8.56941 23.8904 9.44941 22.3513C10.0064 21.392 10.5923 20.4912 11.2094 19.5618C11.7942 18.661 12.379 17.7315 13.0552 16.8881C13.9942 15.6973 15.0201 14.5925 16.163 13.6046C17.336 12.5594 18.4499 11.4844 19.7098 10.5252C21.3495 9.27265 23.0805 8.17008 24.9252 7.21085C26.4212 6.42803 27.974 5.81501 29.5279 5.23396C30.5249 4.85688 31.6087 4.68267 32.6357 4.36293C33.8076 3.98475 34.9805 3.81165 36.2114 3.78188C37.0023 3.75211 37.7654 3.66501 38.5562 3.57791C39.2602 3.52278 39.9631 3.46324 40.7262 3.37614C40.6371 3.49191 40.6081 3.55034 40.5791 3.60767C40.2583 4.07296 39.9063 4.53824 39.5833 5.00242C39.3193 5.3806 39.0263 5.78744 38.7623 6.16452C38.2922 6.77644 37.7932 7.38616 37.3543 8.02565C36.6804 8.98488 36.0644 9.97278 35.3604 10.9309C34.6586 11.8604 33.8956 12.7325 33.1626 13.6322C32.1957 14.8825 31.2868 16.1604 30.3199 17.4096C29.4399 18.6003 28.5042 19.736 27.6532 20.9268C26.8912 21.9709 26.2162 23.0768 25.4832 24.1495C24.3994 25.7483 23.3144 27.3161 22.2306 28.9148C21.3795 30.1343 20.5296 31.3261 19.6507 32.5467C19.5917 32.6349 19.5037 32.6613 19.4168 32.7198C19.1829 33.0969 19.1829 33.3008 19.0938 33.475C18.8598 33.9105 18.6259 34.3461 18.3608 34.754C18.2138 34.9855 18.0088 35.1884 17.8328 35.4211C17.8038 35.0727 18.3007 34.8984 18.0667 34.4618C17.9219 34.6956 17.7738 34.8984 17.6278 35.1311L17.2758 35.8257C17.3928 35.9139 17.5989 35.9723 17.3928 36.1454C17.3037 36.2921 17.2168 36.4652 17.1288 36.6118C17.2758 36.5236 17.3627 36.4376 17.4518 36.3208C17.4518 36.6405 17.2758 36.9007 17.1288 37.162C17.0118 37.3936 16.7189 37.57 16.5139 37.7431C16.5429 37.7728 16.7478 37.8599 16.7779 37.8886C17.0419 37.8004 17.1299 37.6571 17.16 37.7431C17.2491 37.6273 17.336 37.5402 17.365 37.4531C17.4808 37.162 17.6568 36.9305 17.9498 36.8136C18.0678 36.7552 18.1547 36.6681 18.2427 36.5821C19.1227 35.6802 20.0317 34.8091 20.8226 33.8499C22.0546 32.367 23.1685 30.8289 24.3426 29.3184C24.8394 28.6789 25.4264 28.0394 25.9533 27.4286C26.0402 28.0967 25.9823 28.7351 25.9533 29.347C25.8642 30.4209 25.8063 31.497 25.7194 32.5996C25.6893 33.0351 25.7194 33.4706 25.6893 33.9072C25.6893 34.023 25.6002 34.1101 25.6002 34.227C25.6002 34.517 25.6893 34.8367 25.6893 35.1278C25.6002 36.2028 25.4821 37.248 25.3941 38.323C25.364 38.5545 25.481 38.7883 25.5389 38.9923C25.3941 40.5601 25.7172 42.2173 25.452 43.8733C25.657 43.5536 25.716 43.3507 25.716 43.1478C25.7439 42.9736 25.716 42.7994 25.716 42.5965V42.3055C25.7439 41.7818 25.8609 41.2305 25.8029 40.7068C25.7439 40.1257 25.7439 39.5744 25.862 39.022C25.921 38.7905 25.833 38.4994 25.98 38.2083V38.6439C25.9511 40.2977 26.0101 41.9549 25.7762 43.6109C25.7461 43.7564 25.8653 44.0189 25.5423 43.9891C25.2772 44.5117 25.6002 44.8899 25.3083 45.1799C25.2482 45.2383 25.364 45.4996 25.3941 45.6738C25.276 46.0233 25.276 46.0233 25.452 46.052C25.481 46.6915 25.5412 47.2714 25.569 47.8822C26.0369 46.7797 25.8029 45.644 26.0101 44.5106C26.0391 44.9759 26.0692 45.4412 26.0391 45.9329C26.0391 46.6904 26.0101 47.4159 25.9812 48.1711C25.9812 48.3167 25.9511 48.4622 25.9221 48.6077C25.833 49.0157 25.8052 49.4214 25.6581 49.7985C25.5412 50.0896 25.6002 50.5262 25.6002 50.8735V51.9794C25.7172 52.4733 25.5701 52.7346 25.6581 53.0246C25.569 53.3168 25.5412 53.4039 25.569 53.491L25.6581 53.9265C26.2452 53.8681 25.9812 54.3047 26.2151 54.5362C26.0391 54.77 26.0981 54.856 26.0981 54.9739C26.0981 55.2352 26.0703 55.4679 26.0402 55.7292C26.0402 56.3973 26.0112 57.0655 26.0112 57.705C26.0112 57.7932 26.0402 57.8781 26.0402 57.9652C26.0402 58.0247 26.0112 58.7811 26.0112 58.7811C26.0703 58.8671 26.0112 58.9542 25.9221 59.0413C25.8943 59.0413 25.8063 55.351 25.8063 55.351H25.3663C25.3083 57.0931 25.4554 58.662 25.1323 60.2905C24.7803 60.3181 24.6645 60.3765 24.2813 60.3765C23.3723 60.3765 22.4634 60.3765 21.5544 60.4052C20.4695 60.4052 19.4157 60.4338 18.3296 60.4338C17.8038 60.4338 17.2469 60.4934 16.7189 60.4934C16.0149 60.4934 15.2819 60.4052 14.5801 60.4052C13.4941 60.4052 12.4392 60.4934 11.3542 60.522C10.5633 60.5507 9.77245 60.5507 8.98156 60.5805C8.45245 60.608 7.92334 60.6356 7.39756 60.6951C7.16364 60.7238 6.95756 60.8109 6.6646 60.898C6.57549 60.898 6.37164 60.8693 6.19675 60.898C5.90156 60.9564 5.63979 61.1296 5.3446 61.1891C4.9046 61.2773 4.78764 61.392 4.84556 61.8286V62.1185C4.8166 62.1759 5.49164 62.0303 5.49164 62.0303C5.43149 62.0303 5.40253 62.2045 5.31341 62.3501C5.54956 62.2619 5.69549 62.2045 5.84253 62.1472C6.28253 62.3512 6.66349 62.2354 7.01437 62.3236C8.15726 62.6125 9.32911 62.7316 10.501 62.8451C11.264 62.9036 11.997 62.9333 12.7589 62.9609C13.8427 63.0193 14.9277 63.0778 16.0115 63.0778C16.9205 63.0778 17.8005 62.9896 18.7072 62.9896C19.966 62.9896 21.2292 63.0469 22.489 63.0778C22.753 63.0778 23.046 63.0469 23.3389 63.0469H25.4777C27.3847 62.9896 29.2895 62.9587 31.1954 62.9036C32.2815 62.8727 33.3954 62.8154 34.4793 62.7856L37.8211 62.6974C39.111 62.6687 40.4009 62.6687 41.6619 62.6423C42.6288 62.6423 43.5667 62.6092 44.5358 62.5816C45.6185 62.553 46.7324 62.4659 47.8174 62.4085C48.4044 62.3788 48.9915 62.3203 49.5774 62.263C50.2814 62.2057 51.0144 62.1196 51.7161 62.0899C52.7721 62.0303 53.8571 62.0017 54.9131 61.9432C56.232 61.8572 57.5509 61.7415 58.8987 61.7117C60.1307 61.6544 61.3906 61.683 62.6226 61.6544C63.7075 61.6246 64.7925 61.5662 65.9064 61.5375L67.7555 61.4493C67.7555 61.4493 68.9853 61.4206 69.6013 61.3611C70.6562 61.3038 71.7111 61.188 72.7671 61.1593C73.4399 61.1296 74.1149 61.1593 74.7888 61.1296C75.8727 61.1009 76.9866 61.0413 78.0716 61.0413C78.4804 61.0413 78.9204 61.1009 79.4484 61.1296C79.2145 61.3335 79.0674 61.4493 78.8914 61.5948C79.0084 61.6235 79.1254 61.683 79.2434 61.7404C79.0674 61.8561 78.9204 61.8837 78.7756 61.8837C78.7154 62.0303 78.6564 62.0888 78.5974 62.3799H79.1254C78.9204 62.3799 78.7444 62.6412 78.5394 62.8154C78.3055 62.7558 78.0994 62.8154 77.9825 63.1351C78.1874 63.2498 78.1585 63.3369 78.1295 63.4549C77.7775 63.5695 77.5135 63.6864 77.6617 64.0635C77.5425 64.1208 77.3965 64.1792 77.2495 64.2663C77.1047 64.4979 76.8396 64.5563 76.8975 64.8761C77.0156 64.9036 77.1314 64.9643 77.2205 64.9907C77.0735 65.0492 76.9276 65.1363 76.7805 65.1936C76.2537 65.5133 76.4887 65.6589 76.6057 65.8044C76.5165 65.8629 76.4297 65.9202 76.3417 65.95C76.3996 66.2113 76.4865 66.2697 76.5165 66.2697C76.3996 66.3557 76.2525 66.4726 76.0765 66.6181C75.9874 66.8794 75.8705 66.9952 75.7535 67.1694C75.6365 67.3436 75.5775 67.5773 75.4305 67.7505C74.8156 68.4197 74.3756 69.2058 73.5847 69.7273C73.2906 69.9313 73.0277 70.1926 72.7637 70.455C72.2357 70.9479 71.7668 71.5003 71.2098 71.9655C70.478 72.5753 69.7172 73.1265 68.924 73.6789C67.9583 74.3471 66.9914 75.0152 66.0234 75.6547C65.4954 76.002 64.9095 76.2633 64.3525 76.5831C63.7955 76.9028 63.2675 77.1939 62.7106 77.5125C62.3586 77.7441 62.0355 78.0638 61.6546 78.2402C60.6877 78.6482 59.6607 78.9955 58.6648 79.3737C57.6957 79.7816 56.9939 80.1289 56.261 80.3902C55.587 80.6218 54.883 80.7982 54.1801 80.9415C53.9462 81.0011 53.6811 80.9415 53.4171 80.9713C52.9181 81.0595 52.4201 81.1764 51.9211 81.2337C50.6312 81.4079 49.3413 81.5248 48.0525 81.699C47.2894 81.7872 46.5564 81.9305 45.7945 82.0187C45.2676 82.0474 44.7107 81.9901 44.1827 81.9901C43.8017 81.9901 43.3918 82.0783 43.0097 82.0198C42.3948 81.9316 41.7788 81.7883 41.1628 81.6714C41.018 81.6427 40.8108 81.5832 40.695 81.6427C40.4611 81.7596 40.2539 81.5854 40.0188 81.6427C39.874 81.6725 39.727 81.5546 39.5799 81.5546C39.4619 81.527 39.3148 81.5854 39.1678 81.5546C38.8448 81.4685 38.5529 81.3528 38.1987 81.3814C37.85 81.4101 37.4969 81.2359 37.1182 81.1499C36.5891 81.033 36.0934 80.9184 35.5631 80.8004C35.3593 80.742 35.1844 80.6548 34.9783 80.5391C34.2153 80.5391 33.7162 80.5104 33.2473 80.3351C32.8374 80.1918 32.4564 79.9878 32.0164 80.0462C31.9006 80.0749 31.8125 80.0176 31.6934 80.0176C31.6042 79.9007 31.5185 79.6681 31.4316 79.6681C30.8457 79.6978 30.4937 79.205 29.9946 79.0583C29.7317 78.9701 29.5268 78.6802 29.2628 78.5931C28.6167 78.3317 28.0909 77.7805 27.358 77.6934C27.124 77.6636 26.8901 77.5478 26.625 77.4618C26.7141 77.5765 26.7698 77.6636 26.8589 77.7507C26.009 77.3427 25.2181 76.8797 24.4261 76.4431C24.3103 76.4144 24.2223 76.2997 24.1343 76.2402L23.3434 75.7176C22.9034 75.8058 22.7274 75.6294 22.6082 75.572C21.8173 75.0208 20.9095 74.6712 20.1464 74.0615C19.8234 73.7991 19.4447 73.6249 19.2107 73.3052C18.7986 72.8112 18.3007 72.4628 17.7437 72.1728C17.3048 71.9413 16.8949 71.6789 16.485 71.4176C16.2789 71.272 16.0728 71.0978 16.0728 70.7781C16.0728 70.5741 15.9859 70.3701 15.7219 70.487C15.605 70.3128 15.488 70.1099 15.341 70.0515C14.989 69.9082 14.755 69.6435 14.491 69.412C14.227 69.1805 14.0232 68.8607 13.7001 68.745C13.1131 68.5134 12.7611 68.0195 12.4102 67.6126C11.5881 66.6534 10.8552 65.606 10.0933 64.5916C10.0342 64.5034 9.91726 64.445 9.82926 64.3579C9.94622 64.6776 10.0933 64.9389 10.2392 65.2289C9.94734 65.1131 9.74237 64.9091 9.56637 64.7063C9.5363 64.736 11.5881 68.0768 11.5881 68.0768C11.7664 68.3381 11.9112 68.6005 12.0872 68.8618C11.6472 68.8905 11.3542 68.6579 11.2072 68.3965C10.9443 67.9335 10.6502 67.6424 10.0643 67.7019C10.0064 67.4969 9.94734 67.2642 9.91949 67.0624C9.8003 67.0624 9.71341 67.0624 9.50734 67.0327C9.91949 67.6722 10.2704 68.2234 10.6513 68.8629C10.5032 68.7747 10.4174 68.7174 10.3561 68.6887C10.883 69.24 11.264 69.9379 11.9379 70.2874C12.085 70.9545 12.8469 71.2742 13.0229 71.9137C12.8781 71.8839 12.7578 71.8553 12.6107 71.8255C12.3768 71.5355 12.1128 71.2456 11.8499 70.9258C11.9078 71.1287 11.9947 71.3029 12.1128 71.4484C12.4648 71.884 12.7878 72.3195 13.1978 72.6976C13.3448 72.8454 13.5498 72.9038 13.5498 73.1651C13.7837 73.2809 13.8728 73.3085 13.9597 73.3085C14.0198 73.4849 13.9318 73.7462 14.2827 73.6878C14.5167 74.1233 14.7506 74.1233 15.0736 73.9788C15.4557 74.357 15.6618 74.3868 15.9247 74.1552C15.9247 74.2986 15.9536 74.4441 15.9536 74.561C16.0706 74.5025 16.0427 74.4154 16.0427 74.2699C16.1875 74.3857 16.2767 74.4441 16.3346 74.5014C16.6275 74.9094 16.8915 75.2865 17.3015 75.6062C17.8584 76.0715 18.3575 76.5654 18.8832 77.001C19.9103 77.8444 21.0554 78.5423 22.1972 79.1807C23.6052 79.9658 24.9541 80.8081 26.39 81.5623C28.1188 82.4642 29.9657 83.075 31.8705 83.5105C32.5745 83.656 33.2484 83.8005 33.9535 83.9736C34.5662 84.15 35.1833 84.4113 35.7993 84.5557C36.7372 84.7597 37.7041 84.9339 38.642 85.107C38.8459 85.1368 39.0542 85.1665 39.2881 85.1952C39.5499 85.2536 39.8718 85.1368 39.9308 85.225C40.0779 85.4565 40.1948 85.3396 40.3708 85.311C40.5758 85.2525 40.8108 85.2525 41.0448 85.2525C41.8657 85.2812 42.6566 85.4554 43.4776 85.3981C43.6558 85.3981 43.9187 85.2514 44.0657 85.5414C44.3286 85.4256 44.4756 85.4257 44.5926 85.3981C44.6238 85.6583 44.5926 85.6583 44.5369 85.687C44.4768 85.7156 44.3888 85.7454 44.2718 85.8325C45.3267 86.0354 46.3236 86.064 47.2014 85.8325C48.7275 85.9483 50.0464 85.7741 51.3073 85.3385C51.4243 85.4841 51.5123 85.687 51.6883 85.397C51.7462 85.3088 51.8933 85.279 52.0113 85.2503C52.2742 85.1919 52.5973 85.0761 52.8312 85.1621C53.0963 85.2503 53.1843 85.0188 53.3881 85.0188C53.7413 85.0188 54.0632 84.989 54.3862 84.9306C54.5622 84.9019 54.7382 84.8148 54.9432 84.7564C54.7093 84.6384 54.4753 84.6097 54.2971 84.6097C54.6502 84.4355 54.9721 84.29 55.2952 84.1467C55.2361 84.2327 55.1771 84.3484 55.0613 84.3484H55.4701C55.381 84.3484 55.264 84.6097 55.1181 84.784C56.1718 84.5227 57.1387 84.29 58.0778 84.0563C57.7547 83.4476 58.4287 83.6516 58.6637 83.3021C58.3707 83.3903 58.0778 83.4763 57.7837 83.5336C58.7807 83.0408 59.8066 82.6053 60.8024 82.1698C60.6576 82.344 60.4794 82.4311 60.2176 82.5777C60.3936 82.6053 60.5106 82.6053 60.5986 82.6329C61.0664 82.7795 60.9506 82.344 61.0965 82.0816C61.6535 82.0816 61.8874 81.9956 62.1514 81.9074C62.4443 81.8192 62.7373 81.7332 63.0314 81.6174C63.4992 81.4145 63.9392 81.1543 64.4082 80.9228C64.4973 80.8919 64.6421 80.9228 64.7602 80.9228C65.0832 80.7177 65.1991 80.5435 65.2871 80.5722C65.6992 80.6306 65.9889 80.4839 66.1069 80.1091C66.3119 79.9624 66.4589 79.8467 66.6049 79.7585C67.2487 79.41 67.8636 79.0616 68.5097 78.7132C68.7436 78.7132 68.8617 78.7132 68.9196 78.6835C69.3028 78.5071 69.6548 78.3064 70.0057 78.1024C69.9165 78.0737 69.7127 77.9591 69.7127 77.9591C70.0046 77.8995 70.0914 77.8709 70.2697 77.8124C70.9714 76.9965 71.9405 76.4453 72.6724 75.8058C72.9954 75.7771 72.9954 75.69 72.9954 75.6327C73.1113 75.4871 73.2294 75.3129 73.3742 75.1961C74.0202 74.615 74.722 74.1211 75.3091 73.5113C76.159 72.6668 76.9799 71.7946 77.7419 70.8939C78.4436 70.0802 79.1499 69.2676 79.7358 68.3668C80.5567 67.1176 81.2596 65.8386 81.9926 64.5299C82.5206 63.6015 82.9896 62.672 83.5187 61.7426C83.5744 61.6544 83.6936 61.5386 83.7816 61.5386C84.5724 61.4504 85.3656 61.3953 86.1275 61.3071C86.3035 61.2784 86.5084 61.1637 86.6844 61.0755C86.5953 60.93 86.5374 60.7558 86.4505 60.6102C86.3324 60.4338 86.1564 60.2905 86.0384 60.1141C85.9225 59.9708 85.8345 59.7943 85.7465 59.6212C85.6574 59.4779 85.5705 59.361 85.4825 59.2133C85.3043 58.8936 85.1294 58.5738 84.9813 58.2276C84.9523 58.1394 84.8921 57.9961 84.9233 57.9079C85.4513 56.7755 85.6563 55.555 86.1542 54.4216C86.6521 53.2594 86.8003 51.9518 87.0342 50.7026C87.2392 49.5118 87.3573 48.3211 87.5021 47.1303C87.5912 46.2879 87.7081 45.4742 87.736 44.6319C87.9142 43.2956 87.8541 42.0453 87.8251 40.795C87.7961 39.6924 87.736 38.559 87.6803 37.4542L87.6769 37.4509ZM14.1301 73.2159C13.9252 72.9843 13.7492 72.7219 13.5442 72.4904L13.6333 72.4022C13.953 72.7517 14.276 73.1001 14.598 73.4783C14.422 73.3901 14.217 73.3327 14.1301 73.2159ZM14.598 73.4783C14.6871 73.4485 14.7762 73.4485 14.8631 73.4198C14.9522 73.5654 15.0101 73.7396 15.097 73.9138C14.6871 73.884 14.4821 73.7098 14.5991 73.4783H14.598ZM45.0861 85.4775V85.3893C45.643 85.3319 46.1699 85.2735 46.7269 85.2162V85.3011C46.1699 85.3893 45.643 85.4444 45.0861 85.4753V85.4775ZM52.4714 84.7222C52.0626 84.8104 51.6226 84.8689 51.2127 84.9273C51.0656 84.956 50.8896 85.1015 50.8317 84.8391C50.7727 84.8689 50.7136 84.8689 50.6557 84.8986C50.8005 85.333 51.1536 84.9846 51.4466 85.1588C50.8005 85.247 50.1878 85.3044 49.5707 85.3904V85.333C49.749 85.3044 49.9528 85.2746 50.1277 85.2448V85.1588C49.8358 85.1291 49.5429 85.1004 49.2477 85.1004C49.1619 85.1004 49.0438 85.2173 48.9558 85.2459C48.8389 85.2746 48.7219 85.3044 48.5749 85.3044C48.077 85.333 47.579 85.333 47.109 85.3617C47.0789 85.3617 47.0198 85.333 46.9909 85.333V85.2448C48.9547 84.9846 50.8896 84.7233 52.8535 84.462C52.8835 84.5193 52.8835 84.5778 52.9125 84.6351C52.7365 84.6351 52.6195 84.6958 52.4725 84.7233L52.4714 84.7222ZM52.9125 84.4333C53.5875 84.3451 54.2047 84.2878 54.8485 84.2018C53.5007 84.5789 53.0606 84.6362 52.9136 84.4333H52.9125ZM27.3802 25.7714C28.3159 24.4924 29.2851 23.2135 30.223 21.9069C30.5159 21.5265 30.7499 21.1197 31.0428 20.7426C31.1319 20.6258 31.2489 20.5684 31.3948 20.4515L31.3659 20.3964C31.4828 20.2498 31.5998 20.1318 31.6588 20.0171C31.8081 19.7856 31.8961 19.5232 32.0131 19.2619C32.042 19.2068 32.13 19.1483 32.13 19.1483C32.5422 19.3512 32.5422 18.9168 32.687 18.7701C32.951 18.4791 33.215 18.1604 33.4489 17.8693C33.6249 17.6378 33.8009 17.4338 33.9479 17.1725C33.9769 17.0843 33.8889 16.941 33.8588 16.823H33.7719C33.8611 16.7657 33.9479 16.6797 34.0359 16.6201C34.0649 16.6201 34.0649 16.6201 34.0939 16.5915C34.2699 16.3291 34.4459 16.0678 34.6219 15.8351C34.9728 15.372 35.3537 14.9068 35.7636 14.501C35.7057 14.6443 35.6467 14.791 35.5876 14.9068C35.6177 14.9068 35.6177 14.9365 35.6467 14.9365C35.9987 14.4712 36.3796 14.0357 36.7316 13.5693C36.7016 13.5418 36.6726 13.512 36.6425 13.512C36.4977 13.6575 36.3796 13.8031 36.2326 13.9486C36.2036 13.9189 36.1747 13.8902 36.1435 13.8902C36.4387 13.512 36.7316 13.1349 37.0235 12.6994C37.0825 12.7876 37.1416 12.9023 37.2574 13.1349C37.3766 12.845 37.4936 12.6421 37.5804 12.4381C37.4936 12.5263 37.3766 12.6123 37.2886 12.7005L37.1995 12.6123L37.7275 11.8295C38.2845 11.0445 38.8414 10.2308 39.3984 9.44575C39.6045 9.15578 39.8662 8.92314 40.0445 8.63206C40.6014 7.5295 41.4814 6.65626 42.1542 5.6397C42.3013 5.43683 42.5062 5.26262 42.6822 5.08842C42.827 4.91201 42.9462 4.97155 43.0632 5.11708C43.8541 6.10498 44.645 7.12155 45.4358 8.10944C46.024 8.83714 46.6099 9.53175 47.1669 10.2881C47.8408 11.2187 48.4858 12.1481 49.1608 13.0776C49.9227 14.1526 50.6847 15.2276 51.4176 16.3302C52.5315 17.9586 53.5864 19.586 54.7003 21.2123C55.5213 22.4031 56.3423 23.5663 57.1332 24.7571H55.636C54.2592 24.7295 52.8512 24.6137 51.4744 24.6711C49.5986 24.7593 47.6938 24.9621 45.8179 25.1077C43.443 25.3116 41.0392 25.3392 38.6665 25.3392C37.8144 25.3392 36.9645 25.4572 36.1156 25.5156C35.0886 25.573 34.0916 25.6314 33.0657 25.659C31.8627 25.7185 30.6931 25.7472 29.49 25.7769C28.815 25.8056 28.1121 25.7769 27.3791 25.7769L27.3802 25.7714ZM61.0018 39.1345V39.3969C60.9729 39.3969 60.9439 39.4267 60.8849 39.4267C60.7679 39.0187 60.6509 38.5821 60.5039 38.1753C60.2109 37.3318 59.8879 36.4883 59.3599 35.7342C58.7717 34.9216 58.246 34.0803 57.6578 33.2369C57.513 33.0329 57.3058 32.8587 57.1298 32.6856C56.5138 32.0163 55.8978 31.3184 55.1069 30.8256C53.934 30.0979 52.732 29.4882 51.4421 28.9644C51.0901 28.8211 50.7682 28.6447 50.4173 28.4418H51.1191L56.1317 28.3536C57.2167 28.3261 58.2727 28.3261 59.3566 28.2676C59.6194 28.2676 59.7665 28.3558 59.9135 28.5874C60.1764 29.0229 60.4404 29.4584 60.7334 29.895C60.7634 29.9523 60.8225 30.0383 60.8225 30.1265C60.8225 30.766 60.8225 31.4342 60.8514 32.0737C60.8793 32.7418 60.9405 33.3813 60.9673 34.0495C60.9673 34.7176 60.9082 35.4144 60.9383 36.1113C60.9684 37.1003 60.9974 38.1179 60.9974 39.1323L61.0018 39.1345ZM29.4599 29.4055C30.8379 29.347 32.1556 29.2599 33.5057 29.2015C34.5584 29.1431 35.6445 29.1133 36.6982 29.056C37.1382 29.0284 37.5493 29.0008 37.9881 29.056C37.5203 29.2897 37.0502 29.5223 36.6403 29.8123C36.1123 30.1607 35.6155 30.6249 35.0864 31.0031C34.5573 31.3802 34.0883 31.8454 33.6494 32.3394C33.0924 33.0064 32.4764 33.5875 31.8894 34.227C31.4773 34.6923 31.0094 35.1278 30.6585 35.6217C30.1606 36.2612 29.7206 36.9558 29.2516 37.6835C29.3987 34.9227 29.5747 32.1927 29.4566 29.4033L29.4599 29.4055ZM48.6027 57.3555C47.6637 57.587 46.6979 57.8494 45.7288 57.9652C44.909 58.0821 44.0579 58.0534 43.208 58.0534C42.4438 58.0534 41.7109 58.0247 40.949 57.9652C40.099 57.8792 39.2491 57.7921 38.4281 57.4139C37.723 57.0942 36.9912 56.8042 36.2894 56.4547C35.5832 56.1063 34.8803 55.7005 34.3512 55.061C33.9724 54.5947 33.4433 54.2176 32.9744 53.8107C33.0635 54.1591 33.2673 54.4502 33.5904 54.6531C33.4433 54.8273 33.2384 54.7413 32.9443 54.2749C32.8574 54.3333 32.7694 54.3631 32.7104 54.3918C32.7995 54.1878 32.8864 53.9838 32.9744 53.8107C32.8574 53.5792 32.7104 53.3168 32.5934 53.083C32.3595 52.706 32.1256 52.3002 31.9195 51.922C31.8604 51.8338 31.8604 51.7478 31.8025 51.6607C31.6555 51.4865 31.5084 51.3112 31.3904 51.137C31.1564 50.7897 30.9515 50.4126 30.6585 50.0631C30.6585 50.1513 30.6886 50.2373 30.6886 50.3542C30.6585 50.3542 30.6296 50.3829 30.6296 50.3829L30.0124 48.901C29.9835 48.901 29.9835 48.901 29.9545 48.9297L30.4814 50.8481C30.4524 50.8481 30.4235 50.8757 30.3923 50.8757C30.3065 50.761 30.2185 50.6442 30.1584 50.5008C30.1004 50.2671 29.9244 50.2671 29.7796 50.3542C29.6905 50.4126 29.6315 50.6155 29.6616 50.7026C29.8676 51.1965 30.1016 51.6905 30.3366 52.1844C30.3945 52.3587 30.4536 52.5042 30.5416 52.6784C30.5716 52.7368 30.6596 52.7942 30.6596 52.8813C30.7777 53.1128 30.8657 53.3443 31.0116 53.5494C31.2756 53.8978 31.5686 54.2462 31.8326 54.5947C32.0944 54.9431 32.3283 55.3223 32.5633 55.6697C32.5923 55.7281 32.6803 55.7281 32.7081 55.7579C32.8563 56.1934 33.3542 56.512 33.7062 56.3378C33.7953 57.006 34.5272 57.2386 34.8201 57.8781C34.4681 57.7325 34.2053 57.6168 33.9702 57.4999C33.9401 57.5286 33.9401 57.5572 33.9101 57.6157C34.2621 57.7899 34.6141 57.9641 34.9349 58.167C35.2301 58.3434 35.523 58.5165 35.787 58.7182C36.139 59.038 36.5501 59.2144 37.0458 59.3291C37.019 59.2409 36.9901 59.2111 36.9901 59.2111C37.8099 59.5893 38.661 59.9961 39.3048 60.3136C36.256 60.3732 33.0022 60.4316 29.6304 60.4901C29.6304 59.9388 29.6014 59.4151 29.6014 58.8627C29.6014 58.6311 29.6593 58.4272 29.6293 58.1945C29.5401 56.8604 29.5401 55.5219 29.3653 54.2143C29.1904 52.8206 29.1904 51.4545 29.2204 50.0576C29.2483 49.3046 29.1904 48.5206 29.1603 47.7643C29.1603 46.7477 29.1603 45.7576 29.1915 44.7432C29.1915 44.5977 29.2505 44.4819 29.3096 44.3353H29.3987C29.4265 44.3948 29.3987 44.4819 29.4544 44.5117C29.5435 44.5999 29.6905 44.7432 29.7496 44.7146C29.9244 44.5977 30.1884 44.483 30.2475 44.3066C30.3923 43.9593 30.4524 43.5811 30.4524 43.2327C30.4524 42.9725 30.5705 42.7983 30.6864 42.623C30.7465 42.5348 30.7755 42.4488 30.8345 42.333C30.7176 42.2448 30.6006 42.1875 30.4536 42.0717C30.5716 41.752 30.5427 41.3738 30.9827 41.2007C31.0406 41.1709 31.0406 41.0243 31.0718 40.9383C31.0996 40.7034 31.1275 40.4421 31.1587 40.2106C31.2166 40.2988 31.2478 40.3264 31.3035 40.3837C31.3347 40.3264 31.3636 40.2955 31.3636 40.2955C31.3636 40.1808 31.3347 39.9482 31.3636 39.9482C31.7156 39.8898 31.5686 39.5127 31.7446 39.3385C31.7724 39.3076 31.7145 39.2205 31.7145 39.1621C31.7145 39.1047 31.7145 39.0187 31.7435 39.0187C32.1523 38.9305 32.0944 38.495 32.3584 38.291C32.4475 38.2326 32.4753 38.1477 32.5923 38.0011C32.8262 38.4068 32.4163 38.6108 32.3873 38.9008C32.8841 38.6108 33.0312 37.914 32.7382 37.71C32.8552 37.6218 32.9721 37.5071 33.0613 37.3902C33.3843 37.0418 33.7341 36.7221 34.0281 36.3737C34.2342 36.1135 34.3512 35.7937 34.5561 35.5324C34.6742 35.3869 34.9081 35.2711 35.0841 35.1829C35.6121 34.894 36.109 34.5743 36.432 34.0803C36.491 34.0219 36.579 33.9646 36.6659 33.9061C36.755 33.8477 36.931 33.8477 36.96 33.7606C36.9901 33.7033 36.9021 33.5577 36.843 33.4706C36.9589 33.4122 37.077 33.2964 37.3109 33.1795C37.2218 33.3538 37.1939 33.4706 37.1349 33.5875L37.2797 33.7308C37.5448 33.528 37.9547 33.2964 38.2187 33.1222C38.2187 33.0947 38.0717 32.9789 38.0717 32.9789C37.8968 33.0671 37.6328 33.2104 37.3699 33.3273C37.4256 33.2391 37.4256 33.1818 37.459 33.1531C37.8678 32.8918 38.2778 32.6305 38.7178 32.4254C39.7426 31.9623 40.7696 31.497 41.7955 31.0615C41.9715 30.9733 42.2077 31.0329 42.4115 31.0329C42.4984 31.0329 42.5564 31.0329 42.6455 31.0042C43.1133 30.8587 43.5834 30.7131 44.0523 30.5962C44.2562 30.5389 44.4901 30.5102 44.6984 30.5102C45.5751 30.5378 46.4551 30.5378 47.334 30.5962C47.7149 30.6249 48.0669 30.712 48.4189 30.8278C48.8578 30.9744 49.3268 31.1773 49.7378 31.3791C50.2357 31.6437 50.7047 31.9325 51.1748 32.2523C52.0247 32.8036 52.8156 33.4144 53.6655 33.9083C54.4865 34.4023 55.1314 35.0704 55.6594 35.8268C56.3055 36.7265 57.0374 37.5402 57.3303 38.6439L57.7692 40.5623C57.8583 40.9107 58.0633 41.2591 57.9753 41.6649C57.8271 42.3926 57.7102 43.1478 57.5932 43.8744C57.5353 44.1666 57.4762 44.4588 57.5063 44.7454C57.562 45.6495 57.2111 46.4324 56.8602 47.2461C56.7422 47.5074 56.5662 47.7698 56.4202 48.0598C56.4492 48.0884 56.6252 48.1766 56.6542 48.1766L56.9182 47.654C56.9482 47.654 56.9482 47.654 56.9772 47.6838C56.8302 48.0895 56.7132 48.5261 56.5651 48.933C56.2153 49.8338 55.8633 50.7632 55.4233 51.6343C55.1894 52.1282 54.7772 52.5351 54.4854 53.0014C54.1935 53.4072 53.9585 53.8427 53.6655 54.2209C53.4015 54.5406 53.1386 54.8604 52.7855 55.0919C51.9946 55.673 51.1737 56.254 50.3237 56.7193C49.7969 57.039 49.1809 57.2132 48.5949 57.3588L48.6027 57.3555ZM32.9777 55.8119L32.9488 55.8417C32.8875 55.813 32.7995 55.7843 32.7416 55.7259L32.0376 54.6784C31.9796 54.5924 31.9484 54.5053 31.9796 54.3896C32.3027 54.8835 32.6257 55.3488 32.9766 55.8119H32.9777ZM51.2127 59.7921C52.5304 59.2409 53.6154 58.458 54.6101 57.5561C54.7583 57.4106 54.9042 57.2662 55.0802 57.1482C56.3122 56.394 57.2189 55.3477 58.041 54.1856C58.9789 52.8493 59.5949 51.3388 60.358 49.9154C60.4159 49.7985 60.4738 49.6838 60.5329 49.5956C60.4738 52.9077 60.8559 56.1614 61.2948 59.4448C57.9831 59.5606 54.6112 59.6764 51.2115 59.7932L51.2127 59.7921ZM80.9355 58.9211C80.9065 58.9795 80.8464 59.038 80.8185 59.0975C80.7884 59.038 80.7884 58.9509 80.7595 58.8329C80.5835 59.2993 80.2025 59.0667 79.9385 59.0667C78.3568 59.0964 76.7438 59.0964 75.1598 59.0964C73.6359 59.0964 72.0831 59.0964 70.5593 59.1229C70.0602 59.1229 69.5322 59.2387 69.0332 59.2684C67.8324 59.3258 66.6305 59.3566 65.4286 59.3842C65.3394 59.3842 65.2525 59.2409 65.1055 59.124C65.0765 59.1824 65.0164 59.2695 64.9295 59.3853C64.8983 59.328 64.8404 59.2706 64.7814 59.1835C64.7524 59.2717 64.7223 59.3577 64.6922 59.4151H64.6076C64.5485 59.0093 64.4316 58.6322 64.4316 58.2243C64.4316 57.3533 64.5207 56.4822 64.5485 55.609C64.5786 55.2033 64.5485 54.8262 64.5485 54.4469C64.6666 54.5351 64.7546 54.5935 64.8716 54.6784C64.9295 54.5649 64.9886 54.4778 65.0476 54.3918C65.0476 54.3918 64.9886 54.3609 64.9295 54.3036C64.9852 54.2738 65.0454 54.2154 65.0454 54.1867C65.0743 54.0985 65.1345 54.0125 65.1345 53.9552C65.1345 53.7512 65.0743 53.577 65.0454 53.4039C65.0743 53.4039 65.1033 53.4039 65.1345 53.373L65.3094 54.244H65.3985C65.2804 54.0423 65.6614 53.867 65.3394 53.6354C65.3105 53.6057 65.3684 53.4314 65.3684 53.3443C65.2793 53.1712 65.2236 52.997 65.1345 52.7644C65.1634 52.7357 65.2514 52.706 65.3394 52.6762C65.2225 52.6189 65.1345 52.5615 65.0465 52.5329C65.3394 52.2704 65.3394 52.1249 65.0754 51.8349C65.1356 51.8074 65.1935 51.8074 65.1935 51.7798C65.1935 51.5174 65.1935 51.2561 65.1356 50.997C65.0766 50.7037 65.2247 50.3575 64.7836 50.1811C64.8126 50.2693 64.8426 50.3266 64.9006 50.4126C64.9006 50.4126 64.8114 50.4424 64.7246 50.5008C64.3436 50.1513 64.5797 49.6849 64.4906 49.1634C64.6956 49.2219 64.8426 49.2803 64.9885 49.3398C64.9295 49.1348 64.7836 48.9021 64.6956 48.6408H64.5764V46.7223C64.5764 46.7521 64.7814 46.7521 64.8994 46.7819C64.8994 46.7521 64.9273 46.7234 64.9273 46.6937C64.8382 46.5779 64.7212 46.4621 64.6042 46.3166L64.6633 46.2582C64.4294 45.9693 64.5463 45.5635 64.5463 45.4753V43.4411C64.8404 43.7322 64.4015 44.1093 64.8404 44.2835V43.9935H64.8103C64.7814 43.558 64.7814 43.1225 64.7524 42.6859H64.6945C64.6644 42.7454 64.6644 42.7741 64.6343 42.8325H64.5764L64.7524 35.8885C65.0454 36.2656 65.3673 36.6162 65.5723 36.9911C66.2473 38.2128 67.1262 39.2591 67.9471 40.3628C68.6511 41.322 69.295 42.3672 69.9411 43.3551C70.7319 44.5459 71.4939 45.7367 72.2859 46.9274C72.8718 47.8293 73.4889 48.7301 74.1016 49.6022C74.6585 50.3851 75.2467 51.1414 75.8326 51.8978C76.3294 52.5659 76.8574 53.2341 77.3553 53.9022C77.9424 54.7159 78.5283 55.5285 79.1153 56.3135C79.4072 56.7193 79.7302 57.1261 80.051 57.533C80.2293 57.7645 80.4921 57.9409 80.6681 58.0843C80.6403 58.0843 80.6102 58.0843 80.5523 58.0556C80.6414 58.1714 80.6971 58.2585 80.7573 58.3169C81.0803 58.4911 81.1093 58.6653 80.9333 58.9277L80.9355 58.9211ZM82.4304 51.6596V51.4557C82.4304 51.513 82.4593 51.599 82.4304 51.6585V51.6596ZM83.4273 38.8478C83.3973 38.8478 83.2224 38.6714 83.1934 38.6428C83.1633 38.731 83.1934 38.817 83.1344 38.9338C83.1043 38.8478 82.9004 38.8765 82.9004 38.7905C82.8704 39.1962 83.0753 39.6031 83.0453 40.0099C83.1344 39.9515 83.4853 39.9217 83.5733 39.8357C83.6033 39.8644 83.6624 39.8931 83.6913 39.8931C83.1043 40.3297 83.2513 40.7641 83.5153 41.2602C83.5733 41.3749 83.7493 41.6076 83.5733 41.8402C83.5153 41.8986 83.6033 42.0717 83.6323 42.2184H83.7181V42.2735L83.4541 42.3617C83.3961 42.2735 83.0453 42.1015 83.0453 41.9538V43.4378C83.3382 43.526 83.3382 43.9318 83.4552 44.1357C83.5164 44.0475 83.5443 43.9891 83.5744 43.9042L83.6044 43.9307C83.5744 44.1049 83.5454 44.2791 83.4864 44.4544C83.4284 44.7146 83.3694 44.9472 83.3416 45.2085C83.3416 45.2372 83.3972 45.2967 83.3972 45.3243C83.0764 46.052 83.2524 46.8635 83.1355 47.6176C83.0464 48.1689 83.1355 48.7533 83.0764 49.3332C83.0163 49.8272 82.8982 50.3498 82.7824 50.8437C82.7523 50.9319 82.6933 50.9595 82.5484 51.0179C82.6064 50.6695 82.5774 50.4369 82.5184 50.1171C82.4872 50.1171 82.1062 49.9143 82.0761 49.9143C82.0761 50.3222 82.3101 50.8735 82.3992 51.3366C82.3101 51.3079 81.9592 51.105 81.9313 51.105C81.8712 51.4534 81.8712 51.9187 81.8422 52.2958C81.8121 52.5869 81.5493 52.8471 81.5192 53.1668C81.5192 53.3432 81.7241 53.4579 81.6952 53.749H81.9291C81.9291 53.169 82.1942 52.6464 82.1942 52.0356H82.2811C82.3112 52.094 82.3992 52.1525 82.3702 52.1811C82.3112 52.5009 82.192 52.8493 82.2232 53.169C82.2232 53.3432 82.368 53.5174 82.3123 53.7203C82.2521 53.8967 82.2232 54.0698 82.1931 54.3311C82.163 54.1856 82.1341 54.1283 82.1341 54.0412C82.1051 54.0412 81.8411 54.0114 81.811 54.0114C81.7821 54.1856 82.0171 54.3598 81.987 54.5053C81.9581 54.534 81.9291 54.534 81.8701 54.5638L80.9032 53.1679C80.139 52.0654 79.3771 50.9595 78.6152 49.8272C78.4091 49.5361 78.2331 49.2461 78.0861 48.9561C77.1782 47.4148 76.1813 45.9329 75.0673 44.5095C74.2185 43.4356 73.5413 42.2713 72.7504 41.1412C72.0196 40.0662 71.2867 39.0198 70.5537 37.9437C70.2897 37.5964 69.9678 37.2767 69.7328 36.8985C68.9719 35.7077 68.2958 34.4872 67.5361 33.2964C66.89 32.3074 66.1882 31.3482 65.5132 30.3901C65.2793 30.0703 65.0454 29.7208 64.8092 29.3724C64.7802 29.3173 64.7513 29.2588 64.7513 29.1717C64.6922 28.5322 64.6332 27.8928 64.6042 27.283C64.6042 26.702 64.6633 26.1209 64.6633 25.5101V24.9875C64.6633 24.842 64.6911 24.7262 64.6911 24.5795C64.719 24.552 64.7491 24.4935 64.778 24.4649C63.9281 24.4649 63.0481 24.434 62.1982 24.4649C61.6412 24.4924 61.3482 24.2598 60.9673 23.853C59.8534 22.6038 59.0324 21.1803 58.0655 19.844C57.1566 18.5651 56.2186 17.3148 55.2807 16.0655C54.5177 15.049 53.7546 14.0611 52.9938 13.0445C52.1428 11.8824 51.3229 10.7203 50.4429 9.55821C49.3869 8.16457 48.302 6.76873 47.2181 5.37509C46.7169 4.7356 46.1599 4.12588 45.6029 3.45662C45.985 3.51616 46.3381 3.5735 46.689 3.60326L48.097 3.69147C49.1519 3.77637 50.2068 3.8348 51.2606 3.97814C52.1406 4.09611 53.0206 4.27032 53.9295 4.41475C55.8655 4.7345 57.7703 5.25821 59.6172 5.86793C60.7022 6.21634 61.7559 6.68162 62.8142 7.11714C65.1868 8.07637 67.4448 9.23847 69.6726 10.4579C70.3744 10.8361 70.7865 11.4458 71.3123 11.9982C72.0753 12.7832 72.8384 13.5671 73.5702 14.3797C74.419 15.339 75.2099 16.3269 76.032 17.3148C76.7638 18.1858 77.5246 19.0568 78.2598 19.93C78.4938 20.1913 78.672 20.5111 78.8747 20.8011C79.3426 21.499 79.8717 22.1682 80.2816 22.9224C80.5735 23.4759 80.7495 24.1154 80.9544 24.7251C81.2463 25.6259 81.5403 26.4969 81.8344 27.3977C82.0383 28.0659 82.2132 28.7649 82.3602 29.4595C82.4783 29.9259 82.4493 30.4187 82.5941 30.8818C82.7723 31.4948 82.5941 32.1608 82.7723 32.7727C82.8002 32.8311 82.828 32.9182 82.8592 32.9767C82.9762 33.0913 83.0642 33.2082 82.8882 33.3824C82.8603 33.4111 82.8603 33.5257 82.8882 33.614C82.9483 33.5566 82.9773 33.4982 83.0363 33.4111C83.0363 33.4695 83.0642 33.4993 83.0642 33.5269C83.0642 33.6415 83.0341 33.7584 83.0642 33.8742C83.0642 33.9315 83.1221 34.0175 83.1511 34.077C83.2101 34.0175 83.268 33.9888 83.385 33.9006C83.649 34.8896 83.6791 35.8775 83.6791 36.8941C83.6791 37.8533 83.854 38.8125 83.4452 39.742C83.532 39.4223 83.3271 39.1301 83.4151 38.8401L83.4273 38.8478Z" fill="#DD3A0A"/>
<path fill-rule="evenodd" clip-rule="evenodd" d="M64.6967 50.147C64.7246 50.147 64.7546 50.1767 64.7546 50.1767L64.7246 50.1437C64.7246 50.1161 64.7245 50.1161 64.6956 50.1437L64.6967 50.147ZM69.3273 78.8533C69.0042 79.0849 68.6812 79.2888 68.2713 79.3759C68.2401 79.3473 68.2401 79.3175 68.2111 79.2877C68.5342 79.0849 68.8851 78.882 69.2081 78.678C69.2382 78.7332 69.2972 78.7927 69.3262 78.8511L69.3273 78.8533ZM14.364 39.483C14.6871 39.0783 15.0101 38.6715 15.3599 38.2646C15.3877 38.2933 15.6217 38.3529 15.6517 38.3804C15.3287 38.7884 14.8887 39.3396 14.5668 39.7752C14.5066 39.7167 14.4186 39.5139 14.3607 39.4841L14.364 39.483ZM6.03747 53.7226C5.80354 53.2286 5.56962 52.7049 5.33569 52.2121C5.36466 52.1823 5.56962 52.0952 5.59858 52.0952C5.92162 52.5583 6.06643 53.1096 6.30258 53.6057C6.30258 53.6057 6.06866 53.7215 6.03858 53.7215L6.03747 53.7226ZM13.5141 39.7752C13.3381 40.0376 13.1621 40.3286 12.9861 40.5911C12.9572 40.5602 12.6341 40.7057 12.6052 40.6771C12.7812 40.4158 13.22 39.9494 13.396 39.6892C13.4261 39.7178 13.4551 39.7476 13.5141 39.7774V39.7752ZM66.1916 80.0463C66.2194 80.0463 66.2194 80.0176 66.2495 80.0176C66.4545 80.0463 66.6884 80.075 66.9234 80.075C66.5402 80.3363 66.3052 80.3065 66.1882 80.0463H66.1916ZM13.5698 40.9957C13.601 40.9075 13.6589 40.8215 13.718 40.7344C13.7759 40.7344 13.8628 40.7046 13.8628 40.7046C13.982 40.5017 13.982 40.3562 14.0989 40.182C14.07 40.1533 14.0399 40.1533 14.0098 40.1236C13.8349 40.2426 13.6589 40.3882 13.4829 40.504C13.542 40.5613 13.542 40.5922 13.542 40.6495C13.308 40.6197 13.2189 40.7377 13.102 41.0552C13.073 41.1434 12.926 41.1721 12.7789 41.2868C12.75 41.3463 12.721 41.4919 12.662 41.6363L12.692 41.6672C12.633 41.7256 12.545 41.7554 12.545 41.7554C12.369 41.9285 12.164 42.0751 11.988 42.2482C11.9591 42.3364 11.9301 42.4224 11.9301 42.5095C12.1362 42.3066 12.4871 41.9285 12.7511 41.6958L12.7812 41.7256C12.8981 41.5514 12.9861 41.3772 13.1042 41.203C13.132 41.2316 13.132 41.2603 13.1621 41.2912C13.073 41.5227 12.9861 41.7829 12.8981 42.0156C12.8369 42.0442 12.7489 42.1038 12.7489 42.074C12.6319 42.1622 12.5439 42.2769 12.4258 42.364L11.8989 42.7124C11.606 42.9737 11.313 43.2052 10.99 43.4676C10.785 43.7874 10.58 44.0774 10.3439 44.4555C10.697 44.3673 10.785 44.514 10.756 44.8051C11.166 44.8624 11.196 44.5437 11.313 44.3111C11.342 44.2516 11.372 44.1347 11.43 44.106C11.694 43.8745 11.9869 43.6716 12.2799 43.439C12.3389 43.3805 12.3389 43.2626 12.3389 43.1766C12.3389 43.1479 12.1908 43.1479 12.1028 43.1181C12.3668 42.8271 12.7489 42.3353 13.0117 42.0156C13.1588 41.9274 13.3047 41.8105 13.3047 41.7234C13.2757 41.4036 13.4807 41.3176 13.7169 41.2008C13.5988 41.1126 13.5687 41.0277 13.5687 40.999L13.5698 40.9957Z" fill="#DD3735"/>
<path fill-rule="evenodd" clip-rule="evenodd" d="M14.158 40.6758C14.041 40.8787 13.924 41.0529 13.8071 41.2568L13.6311 41.1686C13.5141 41.8357 13.1031 42.4167 12.6931 42.5325C12.8101 42.5909 12.9271 42.6494 13.0162 42.6207C13.1031 42.5909 13.161 42.4443 13.22 42.3583L14.0109 41.2249L14.276 40.7882L14.1591 40.6725L14.158 40.6758ZM4.39776 53.4302C4.54479 53.4302 4.69183 53.4589 4.8656 53.4589C4.8656 53.3431 5.01376 53.3707 5.01376 53.256H5.10287C5.10287 53.4016 5.13183 53.5173 5.13183 53.664H4.51695C4.48687 53.6342 4.36991 53.4589 4.39887 53.4302H4.39776ZM4.16383 52.0939C4.07472 52.0057 3.92991 51.9197 3.92991 51.8326C3.89983 51.718 3.98783 51.5735 4.07472 51.428C4.13487 51.6309 4.16383 51.8051 4.22176 52.009C4.19168 52.0366 4.16272 52.0664 4.16272 52.095L4.16383 52.0939ZM4.89679 50.2339C5.01376 50.5272 5.13072 50.8469 5.24879 51.138C5.21983 51.138 5.04383 51.2262 5.01487 51.2538C4.89791 50.9627 4.75087 50.643 4.63391 50.353C4.66287 50.3243 4.83887 50.2361 4.89791 50.2361L4.89679 50.2339ZM70.1505 78.0119C70.2953 77.9546 70.4713 77.9237 70.7074 77.8686C70.4423 78.0704 70.2374 78.2159 70.0613 78.3901C70.0313 78.3614 70.0023 78.3317 69.9722 78.3317C70.0313 78.2159 70.0903 78.1288 70.1505 78.0119ZM34.1195 16.62C34.2944 16.5032 34.4425 16.4161 34.6174 16.3003L34.6753 16.3576C34.4971 16.5892 34.3523 16.8207 34.1462 17.1129C34.1172 16.9111 34.1172 16.7931 34.0872 16.6498C34.0582 16.6498 34.0872 16.6498 34.1173 16.6211L34.1195 16.62ZM42.7078 31.3205C42.9718 31.2037 43.2358 31.089 43.5578 30.9423C43.5288 31.1165 43.5288 31.2334 43.5288 31.3503C43.4397 31.3205 43.3227 31.2908 43.2347 31.2908C43.0587 31.3205 42.7357 31.5532 42.5886 31.5818C42.5608 31.5818 42.7067 31.3503 42.7067 31.3205H42.7078ZM64.6967 55.9584C64.7546 56.2484 65.3116 56.3939 64.7546 56.6839C64.8437 56.7446 64.9295 56.7721 65.0175 56.8317C65.0175 56.8614 64.9885 56.9199 64.9596 56.9485C64.9005 56.9761 64.7836 57.0345 64.7257 57.0037C64.6956 57.0037 64.6365 56.889 64.6365 56.8306C64.6365 56.5692 64.6666 56.3079 64.6956 55.9595L64.6967 55.9584Z" fill="#DD3735"/>
</svg>
