<svg width="103" height="92" viewBox="0 0 103 92" fill="none" xmlns="http://www.w3.org/2000/svg">
<g clip-path="url(#clip0_42_19)">
<path d="M51.5 55.2165C56.5702 55.2165 60.6805 51.0902 60.6805 46.0001C60.6805 40.91 56.5702 36.7837 51.5 36.7837C46.4298 36.7837 42.3196 40.91 42.3196 46.0001C42.3196 51.0902 46.4298 55.2165 51.5 55.2165Z" fill="#61DAFB"/>
<path d="M51.5 64.8825C78.706 64.8825 100.761 56.4286 100.761 46.0001C100.761 35.5716 78.706 27.1177 51.5 27.1177C24.294 27.1177 2.23914 35.5716 2.23914 46.0001C2.23914 56.4286 24.294 64.8825 51.5 64.8825Z" stroke="#61DAFB"/>
<path d="M35.2112 55.4413C48.8142 79.0947 67.1344 94.0427 76.1304 88.8284C85.1265 83.6142 81.3918 60.2123 67.7888 36.5588C54.1858 12.9054 35.8656 -2.04256 26.8696 3.17168C17.8735 8.38591 21.6082 31.7878 35.2112 55.4413Z" stroke="#61DAFB"/>
<path d="M35.2112 36.5588C21.6082 60.2122 17.8735 83.6141 26.8696 88.8283C35.8656 94.0426 54.1858 79.0946 67.7888 55.4412C81.3918 31.7877 85.1265 8.38582 76.1304 3.17158C67.1344 -2.04265 48.8142 12.9053 35.2112 36.5588Z" stroke="#61DAFB"/>
</g>
<defs>
<clipPath id="clip0_42_19">
<rect width="103" height="92" fill="white"/>
</clipPath>
</defs>
</svg>
