<svg width="101" height="76" viewBox="0 0 101 76" fill="none" xmlns="http://www.w3.org/2000/svg">
<path d="M86.2531 44.1073C82.7664 44.1256 79.7361 44.9658 77.1987 46.2079C76.2677 44.3631 75.3367 42.7191 75.1724 41.5136C74.9899 40.1071 74.7708 39.2486 74.9899 37.5681C75.2089 35.8877 76.1947 33.4948 76.1764 33.3122C76.1582 33.1295 75.9574 32.271 73.9493 32.2527C71.9413 32.2345 70.2071 32.6363 70.0063 33.166C69.8055 33.6957 69.4221 34.9013 69.1666 36.1434C68.8197 37.97 65.1505 44.4909 63.0512 47.9067C62.3758 46.5732 61.7916 45.4042 61.6638 44.4727C61.4813 43.0662 61.2622 42.2077 61.4813 40.5272C61.7003 38.8467 62.6861 36.4539 62.6678 36.2712C62.6496 36.0886 62.4488 35.2301 60.4408 35.2118C58.4327 35.1936 56.6985 35.5954 56.4977 36.1251C56.2969 36.6548 56.0778 37.8969 55.658 39.1025C55.2381 40.308 50.3641 51.1945 49.0862 54.0075C48.4291 55.4505 47.8632 56.6012 47.4616 57.3867C47.4616 57.3867 47.4433 57.4415 47.3885 57.5328C47.0417 58.2087 46.8409 58.574 46.8409 58.574C46.8409 58.574 46.8409 58.574 46.8409 58.5922C46.5671 59.0854 46.275 59.5421 46.129 59.5421C46.0194 59.5421 45.8186 58.2269 46.1655 56.4369C46.8957 52.6558 48.6299 46.7742 48.6116 46.5732C48.6116 46.4636 48.9402 45.4408 47.4798 44.911C46.0559 44.3813 45.5448 45.2581 45.417 45.2581C45.2892 45.2581 45.198 45.5686 45.198 45.5686C45.198 45.5686 46.7861 38.9563 42.1677 38.9563C39.2834 38.9563 35.3038 42.1163 33.3323 44.9658C32.091 45.6417 29.444 47.0847 26.6145 48.6373C25.5375 49.2401 24.424 49.8428 23.3834 50.4091C23.3104 50.336 23.2374 50.2447 23.1644 50.1716C17.5784 44.1987 7.24616 39.9792 7.68428 31.9605C7.84857 29.0379 8.85258 21.3662 27.5273 12.0506C42.8979 4.47022 55.1286 6.57081 57.2462 11.2286C60.2765 17.8774 50.6927 30.2252 34.811 32.0153C28.7504 32.6911 25.574 30.3531 24.7708 29.4763C23.9311 28.563 23.8033 28.5082 23.493 28.6909C22.9818 28.9649 23.3104 29.7868 23.493 30.2617C23.9676 31.5038 25.9209 33.6957 29.225 34.7734C32.1458 35.7233 39.2469 36.253 47.8449 32.9286C57.4652 29.2023 64.9862 18.8455 62.7774 10.1692C60.5685 1.36501 45.9647 -1.53928 32.1458 3.37426C23.9311 6.29682 15.0227 10.8998 8.61527 16.8911C1.00301 24.0148 -0.201813 30.207 0.291068 32.8007C2.06179 42.0068 14.7489 47.998 19.8237 52.4366C19.5682 52.5827 19.3309 52.7106 19.1301 52.8202C16.5926 54.0805 6.91757 59.1402 4.50794 64.4921C1.76971 70.5564 4.94605 74.9037 7.04536 75.4882C13.5623 77.2966 20.2619 74.0452 23.8581 68.675C27.4543 63.3049 27.0161 56.3273 25.355 53.1307C25.3367 53.0942 25.3184 53.0577 25.2819 53.0211C25.9391 52.6375 26.6145 52.2357 27.2717 51.8521C28.5678 51.0849 29.8456 50.3726 30.9409 49.788C30.3203 51.4868 29.8639 53.5143 29.6448 56.4369C29.371 59.8709 30.7766 64.3277 32.6204 66.0813C33.4419 66.8484 34.4094 66.8667 35.03 66.8667C37.1841 66.8667 38.1516 65.0767 39.2286 62.9578C40.543 60.364 41.7295 57.3502 41.7295 57.3502C41.7295 57.3502 40.2509 65.4968 44.267 65.4968C45.7274 65.4968 47.206 63.5971 47.8632 62.629C47.8632 62.6473 47.8632 62.6473 47.8632 62.6473C47.8632 62.6473 47.8997 62.5925 47.9727 62.4646C48.1187 62.2272 48.21 62.081 48.21 62.081C48.21 62.081 48.21 62.0628 48.21 62.0445C48.7942 61.0216 50.1085 58.7018 52.0618 54.8477C54.581 49.8794 57.0089 43.669 57.0089 43.669C57.0089 43.669 57.2279 45.185 57.9764 47.7057C58.4145 49.1853 59.3272 50.8109 60.0574 52.3818C59.4732 53.2038 59.1082 53.6604 59.1082 53.6604C59.1082 53.6604 59.1082 53.6604 59.1264 53.6787C58.6518 54.2997 58.1406 54.9756 57.5747 55.6332C55.585 58.0077 53.2118 60.7294 52.8833 61.5148C52.4999 62.4464 52.5912 63.1222 53.3214 63.6702C53.8508 64.072 54.8 64.1268 55.7675 64.072C57.5565 63.9442 58.8161 63.5058 59.4367 63.2318C60.4042 62.8847 61.536 62.355 62.5948 61.5696C64.5481 60.1266 65.7347 58.0625 65.6251 55.3409C65.5704 53.8431 65.0775 52.3453 64.4751 50.9388C64.6576 50.6831 64.8219 50.4274 65.0045 50.1716C68.0895 45.6599 70.4809 40.7099 70.4809 40.7099C70.4809 40.7099 70.7 42.2259 71.4484 44.7466C71.8135 46.0253 72.562 47.4135 73.2191 48.7652C70.3166 51.1215 68.5276 53.8614 67.8887 55.6514C66.7387 58.9758 67.6332 60.4736 69.3309 60.8207C70.0976 60.9851 71.1929 60.6198 71.9961 60.2727C73.0183 59.9439 74.2232 59.3777 75.3732 58.5374C77.3265 57.0944 79.2067 55.0852 79.0972 52.3635C79.0424 51.1215 78.7139 49.8976 78.2575 48.7104C80.7219 47.6875 83.8982 47.1212 87.9508 47.5961C96.6401 48.619 98.3561 54.044 98.0275 56.3273C97.6989 58.6105 95.8734 59.8526 95.271 60.2362C94.6686 60.6198 94.4678 60.7476 94.5225 61.0216C94.5956 61.4235 94.8876 61.4052 95.3988 61.3321C96.1107 61.2043 99.9625 59.4873 100.127 55.2861C100.401 49.9159 95.2892 44.0525 86.2531 44.1073ZM19.2213 66.7206C16.3371 69.8623 12.321 71.0496 10.5868 70.045C8.7248 68.9673 9.455 64.3277 12.9964 61.0033C15.1505 58.9758 17.9252 57.0944 19.769 55.9437C20.1888 55.6879 20.8095 55.3226 21.558 54.866C21.6857 54.7929 21.7588 54.7564 21.7588 54.7564C21.9048 54.6651 22.0508 54.5737 22.1969 54.4824C23.493 59.2315 22.2516 63.4144 19.2213 66.7206ZM40.2144 52.4366C39.2104 54.8843 37.1111 61.1495 35.8332 60.8024C34.7379 60.5102 34.0625 55.761 35.6142 51.0667C36.3991 48.7104 38.0603 45.8974 39.0278 44.8014C40.5977 43.0479 42.332 42.4634 42.7518 43.1758C43.2812 44.1073 40.8351 50.9023 40.2144 52.4366ZM57.5382 60.7294C57.1184 60.9485 56.7168 61.0947 56.5342 60.9851C56.4064 60.912 56.7168 60.6198 56.7168 60.6198C56.7168 60.6198 58.8891 58.2817 59.7471 57.2223C60.24 56.6012 60.8241 55.8706 61.4448 55.0486C61.4448 55.1217 61.4448 55.213 61.4448 55.2861C61.4448 58.0808 58.7431 59.9622 57.5382 60.7294ZM70.9008 57.6789C70.5904 57.4597 70.6452 56.7291 71.6857 54.4459C72.0873 53.5508 73.0366 52.053 74.6613 50.61C74.8438 51.1945 74.9716 51.7608 74.9534 52.2905C74.9351 55.8158 72.4159 57.131 70.9008 57.6789Z" fill="#CD6799"/>
</svg>
