<svg width="122" height="74" viewBox="0 0 122 74" fill="none" xmlns="http://www.w3.org/2000/svg">
<path d="M29.3039 36.8746C7.84096 37.5637 1.46187 53.0511 0 61.4414C1.90486 58.3314 7.90741 51.5075 16.7451 51.5075C27.0447 51.5075 34.8856 63.1196 39.6699 66.7443C45.4825 71.1479 57.1623 76.9623 72.4957 72.2483C84.7222 68.4894 90.3926 55.378 91.6329 49.158C85.719 57.2799 76.7484 62.1582 65.6514 56.4073C58.0098 52.447 52.2952 36.1364 29.3039 36.8746Z" fill="#07B6D5"/>
<path d="M59.671 0.0242804C38.208 0.71336 31.8289 16.2008 30.3671 24.5911C32.2719 21.481 38.2745 14.6571 47.1122 14.6571C57.4117 14.6571 65.2527 26.2693 70.037 29.8939C75.8496 34.2975 87.5294 40.112 102.863 35.398C115.089 31.6391 120.76 18.5277 122 12.3077C116.086 20.4295 107.115 25.3078 96.0185 19.5569C88.3769 15.5967 82.6623 -0.713932 59.671 0.0242804Z" fill="#07B6D5"/>
</svg>
