<svg width="100" height="100" viewBox="0 0 100 100" fill="none" xmlns="http://www.w3.org/2000/svg">
<path d="M90.2344 0H9.76562C4.37222 0 0 4.37222 0 9.76562V90.2344C0 95.6278 4.37222 100 9.76562 100H90.2344C95.6278 100 100 95.6278 100 90.2344V9.76562C100 4.37222 95.6278 0 90.2344 0Z" fill="#3178C6"/>
<path fill-rule="evenodd" clip-rule="evenodd" d="M61.9021 79.575V89.3525C63.4916 90.1674 65.3715 90.7783 67.5418 91.1857C69.7121 91.5932 71.9994 91.7969 74.4041 91.7969C76.7477 91.7969 78.9738 91.5729 81.083 91.1246C83.1922 90.6766 85.0416 89.9381 86.6311 88.9094C88.2205 87.8809 89.4789 86.5363 90.4061 84.8762C91.3332 83.216 91.7969 81.1639 91.7969 78.7195C91.7969 76.9473 91.532 75.3941 91.0022 74.06C90.4723 72.7258 89.7082 71.5393 88.7096 70.5004C87.7111 69.4615 86.5139 68.5295 85.118 67.7045C83.7221 66.8795 82.1479 66.1004 80.3953 65.3672C79.1115 64.8375 77.9602 64.3232 76.9412 63.8242C75.9223 63.325 75.0562 62.8158 74.343 62.2965C73.6297 61.777 73.0795 61.227 72.6924 60.6465C72.3053 60.0658 72.1115 59.409 72.1115 58.6756C72.1115 58.0035 72.2848 57.3975 72.6313 56.8576C72.9777 56.3178 73.4668 55.8545 74.0984 55.4674C74.7303 55.0805 75.5045 54.7799 76.4215 54.566C77.3387 54.3521 78.3574 54.2453 79.4783 54.2453C80.2934 54.2453 81.1543 54.3064 82.0611 54.4285C82.968 54.5508 83.8799 54.7393 84.7971 54.9937C85.7141 55.2484 86.6055 55.5693 87.4717 55.9563C88.3377 56.3434 89.1375 56.7914 89.8711 57.3008V48.1648C88.3836 47.5945 86.7584 47.1719 84.9957 46.8969C83.233 46.6219 81.2104 46.4844 78.9281 46.4844C76.6049 46.4844 74.4041 46.734 72.3256 47.233C70.2471 47.732 68.4182 48.5111 66.8387 49.5703C65.2594 50.6297 64.0113 51.9791 63.0943 53.6189C62.1773 55.2586 61.7188 57.2191 61.7188 59.5006C61.7188 62.4135 62.5594 64.8986 64.2406 66.9561C65.9217 69.0133 68.474 70.7549 71.8977 72.1809C73.2426 72.7309 74.4959 73.2705 75.6574 73.8002C76.8189 74.3299 77.8227 74.8799 78.6682 75.4502C79.5139 76.0205 80.1812 76.6418 80.6705 77.3141C81.1596 77.9861 81.4041 78.75 81.4041 79.6057C81.4041 80.2371 81.2512 80.8227 80.9455 81.3625C80.6398 81.9023 80.1762 82.3707 79.5547 82.768C78.9332 83.1652 78.1588 83.4758 77.2316 83.6998C76.3043 83.924 75.2193 84.0359 73.9762 84.0359C71.8568 84.0359 69.758 83.6643 67.6793 82.9207C65.6008 82.1773 63.675 81.0621 61.9021 79.575ZM45.4648 55.4848H58.0078V47.4609H23.0469V55.4848H35.5285V91.2109H45.4648V55.4848Z" fill="white"/>
</svg>
