<svg width="391" height="337" viewBox="0 0 391 337" fill="none" xmlns="http://www.w3.org/2000/svg">
<path d="M390.542 222.531L376.417 332.118H17.2486L6.64135 248.518C5.46167 239.152 10.1482 230.075 18.0571 226.441L49.9343 211.825V176.795C49.9343 166.475 56.7726 157.725 66.0153 156.24L73.5522 155.02L86.2136 107.717C88.5733 98.8804 95.9149 92.8343 104.239 92.8343H233.746C238.673 92.8343 243.184 94.9338 246.549 98.3864C249.914 101.851 252.132 106.667 252.492 112.098L314.16 119.292C323.314 120.366 330.415 128.586 330.962 138.738L333.452 186.006L377.029 199.609C386.096 202.433 391.864 212.234 390.542 222.531Z" fill="#DDECF1"/>
<path d="M38.7821 245.132L49.9938 332.118H335.087L343.507 265.76C344.444 258.324 340.724 251.12 334.446 248.237L309.143 236.634V208.829C309.143 200.638 303.716 193.691 296.379 192.513L290.396 191.545L280.346 153.997C278.473 146.984 272.646 142.184 266.038 142.184H163.24C159.33 142.184 155.749 143.851 153.078 146.591C150.407 149.341 148.647 153.163 148.361 157.475L99.4115 163.185C92.1451 164.038 86.5083 170.562 86.0747 178.621L84.0975 216.14L49.5084 226.937C42.311 229.18 37.7326 236.959 38.7821 245.132Z" fill="#CFDCE4"/>
<path d="M273.982 299.705C273.982 290.329 267.769 282.379 259.374 281.03L252.526 279.922L241.023 236.948C238.88 228.923 232.21 223.429 224.648 223.429H106.997C102.521 223.429 98.4216 225.336 95.3658 228.473C92.3091 231.62 90.2943 235.995 89.9664 240.93L39.0295 246.872L50.0176 332.118H275.273L273.982 331.526V299.705Z" fill="#BDD0D8"/>
<path d="M81.0641 109.278H168.461V19.1475H81.0641V109.278Z" fill="#192941"/>
<path d="M81.0641 28.6793H168.461V19.1475H81.0641V28.6793Z" fill="#2C4666"/>
<path d="M149.569 24.0211C149.569 24.9862 148.861 25.7692 147.988 25.7692C147.114 25.7692 146.406 24.9862 146.406 24.0211C146.406 23.056 147.114 22.274 147.988 22.274C148.861 22.274 149.569 23.056 149.569 24.0211Z" fill="#5C60B6"/>
<path d="M156.172 24.0211C156.172 24.9862 155.464 25.7692 154.591 25.7692C153.717 25.7692 153.01 24.9862 153.01 24.0211C153.01 23.056 153.717 22.274 154.591 22.274C155.464 22.274 156.172 23.056 156.172 24.0211Z" fill="#F8CF3E"/>
<path d="M162.303 24.2051C162.303 25.1702 161.596 25.9522 160.722 25.9522C159.849 25.9522 159.141 25.1702 159.141 24.2051C159.141 23.24 159.849 22.458 160.722 22.458C161.596 22.458 162.303 23.24 162.303 24.2051Z" fill="#FF454A"/>
<path d="M108.983 38.6898H96.6048V37.5406H108.983V38.6898Z" fill="#FF454A"/>
<path d="M123.511 38.6898H111.133V37.5406H123.511V38.6898Z" fill="#F8CF3E"/>
<path d="M119.628 44.8825H100.434V43.7333H119.628V44.8825Z" fill="#5C60B6"/>
<path d="M132.559 44.8825H122.802V43.7333H132.559V44.8825Z" fill="#FF454A"/>
<path d="M115.522 51.0749H107.092V49.9247H115.522V51.0749Z" fill="#F8CF3E"/>
<path d="M148.362 51.0749H120.395V49.9247H148.362V51.0749Z" fill="#F8CF3E"/>
<path d="M145.602 57.2666H113.64V56.1173H145.602V57.2666Z" fill="#5C60B6"/>
<path d="M115.485 63.4591H105.649V62.3099H115.485V63.4591Z" fill="#FF454A"/>
<path d="M129.531 63.4591H119.694V62.3099H129.531V63.4591Z" fill="#5C60B6"/>
<path d="M110.915 94.4369H96.6048V95.5862H110.915V94.4369Z" fill="#FF454A"/>
<path d="M130.237 94.4369H115.927V95.5862H130.237V94.4369Z" fill="#F8CF3E"/>
<path d="M149.038 94.4369H134.729V95.5862H149.038V94.4369Z" fill="#FF454A"/>
<path d="M128.4 88.2443H100.434V89.3935H128.4V88.2443Z" fill="#5C60B6"/>
<path d="M160.727 88.2443H132.761V89.3935H160.727V88.2443Z" fill="#FF454A"/>
<path d="M134.844 82.0518H107.092V83.201H134.844V82.0518Z" fill="#FF454A"/>
<path d="M144.988 82.0518H137.264V83.201H144.988V82.0518Z" fill="#F8CF3E"/>
<path d="M115.727 75.8591H105.279V77.0083H115.727V75.8591Z" fill="#F8CF3E"/>
<path d="M131.723 75.8591H121.275V77.0083H131.723V75.8591Z" fill="#5C60B6"/>
<path d="M148.89 75.8591H138.442V77.0083H148.89V75.8591Z" fill="#FF454A"/>
<path d="M132.04 69.6666H117.39V70.8168H132.04V69.6666Z" fill="#F8CF3E"/>
<path d="M111.863 69.6666H97.214V70.8168H111.863V69.6666Z" fill="#5C60B6"/>
<path d="M89.8347 37.9078H88.5034V36.4359H89.8347V37.9078Z" fill="#FBFDFE"/>
<path d="M89.8347 45.4101H88.5034V42.4098H89.8347V45.4101ZM89.8347 52.9123H88.5034V49.912H89.8347V52.9123ZM89.8347 60.4154H88.5034V57.4142H89.8347V60.4154ZM89.8347 67.9176H88.5034V64.9163H89.8347V67.9176ZM89.8347 75.4197H88.5034V72.4195H89.8347V75.4197ZM89.8347 82.9229H88.5034V79.9226H89.8347V82.9229ZM89.8347 90.4251H88.5034V87.4248H89.8347V90.4251Z" fill="#FBFDFE"/>
<path d="M89.8347 96.3988H88.5034V94.9268H89.8347V96.3988Z" fill="#FBFDFE"/>
<path d="M259.23 49.0131H187.265V6.10352e-05H259.23V49.0131Z" fill="#FF454A"/>
<path d="M215.215 19.7131L206.653 23.7517L215.215 27.73L214.095 30.5877L203.826 25.5196V22.0125L214.095 16.9137L215.215 19.7131Z" fill="#FBFDFE"/>
<path d="M227.834 10.3718L221.619 36.7477L218.658 35.9816L224.9 9.63538L227.834 10.3718Z" fill="#FBFDFE"/>
<path d="M242.693 22.0125V25.5196L232.424 30.5877L231.304 27.73L239.839 23.7517L231.304 19.7131L232.424 16.9137L242.693 22.0125Z" fill="#FBFDFE"/>
<path d="M297.748 127.218H256.759V94.9526H297.748V127.218Z" fill="#5C60B6"/>
<path d="M273.905 101.918C272.587 101.918 272.146 102.311 272.146 103.398V108.254C272.146 110.151 271.435 110.729 270.241 111.099C271.435 111.446 272.146 112.024 272.146 113.897V118.753C272.146 119.84 272.607 120.233 273.905 120.233V122.361C270.576 122.361 269.635 121.181 269.635 118.73V114.128C269.635 112.81 269.321 112.301 268.233 112.301V109.873C269.321 109.873 269.635 109.341 269.635 108.023V103.421C269.635 100.947 270.576 99.791 273.905 99.791V101.918Z" fill="#F4F6F5"/>
<path d="M284.872 103.421V108.023C284.872 109.341 285.185 109.873 286.294 109.873V112.301C285.185 112.301 284.872 112.81 284.872 114.128V118.73C284.872 121.181 283.93 122.361 280.603 122.361V120.233C281.9 120.233 282.361 119.84 282.361 118.753V113.897C282.361 112.024 283.072 111.446 284.265 111.099C283.072 110.729 282.361 110.151 282.361 108.254V103.398C282.361 102.311 281.922 101.918 280.603 101.918V99.791C283.93 99.791 284.872 100.947 284.872 103.421Z" fill="#F4F6F5"/>
<path d="M99.2342 41.013H53.2493V7.02903H99.2342V41.013Z" fill="#F8CF3E"/>
<path d="M78.1552 26.1393C76.0741 28.4378 72.6886 28.4378 70.6075 26.1383C68.5264 23.8389 68.5264 20.0992 70.6075 17.7997C72.6886 15.5002 76.0741 15.5002 78.1552 17.7997C80.2363 20.0992 80.2363 23.8398 78.1552 26.1393ZM68.4682 16.7841C66.2724 19.821 66.3065 24.2566 68.5434 27.2559C71.085 30.663 75.4389 31.2123 78.5673 28.9079L83.3943 34.2403C83.5976 34.465 83.9273 34.465 84.1316 34.2403L85.487 32.7417C85.6913 32.517 85.6913 32.1517 85.487 31.927L80.661 26.5946C82.6158 23.3558 82.3022 18.9272 79.7185 16.0724C76.574 12.598 71.3242 12.8355 68.4682 16.7841Z" fill="#FBFDFE"/>
<path d="M232.998 112C232.899 113.123 231.51 124.843 220.603 124.843C209.153 124.843 211.071 112.316 211.071 112.316L211.057 112.238C212.173 111.984 213.375 111.889 214.649 112.048V106.117L227.646 98.0826H228.118V111.921C228.118 111.921 230.179 111.652 232.998 112Z" fill="url(#paint0_radial_70_1107)"/>
<path d="M226.686 71.6087C228.53 73.6736 229.923 76.3452 230.593 79.6108C231.842 85.6945 230.667 92.1316 229.069 97.9945C228.797 98.9983 228.486 100.01 227.925 100.854C227.525 101.456 227.01 101.952 226.5 102.443C224.188 104.667 221.877 106.892 219.571 109.124C218.007 110.635 208.382 111.895 206.545 110.445C199.467 104.852 198.104 88.6502 199.521 80.3661C201.871 66.6248 217.856 61.7121 226.686 71.6087Z" fill="url(#paint1_radial_70_1107)"/>
<path d="M222.711 89.1937C222.805 87.8712 224.036 86.4231 225.271 87.2813C226.551 88.1702 226.25 90.5191 225.719 91.8109C225.304 92.8255 223.914 93.9351 222.972 92.9928C222.183 92.2019 223.409 91.2704 223.449 90.5488C223.486 89.8994 222.311 89.4342 222.792 88.7393" fill="#F7A388"/>
<path d="M222.938 95.3099C224.228 95.7376 226.414 94.6507 226.966 92.665C227.519 90.6793 227.46 88.4126 227.46 88.4126C227.46 88.4126 228.109 90.2102 227.775 93.1025C227.441 95.9939 226.525 98.7487 224.47 98.7853C222.416 98.821 222.938 95.3099 222.938 95.3099Z" fill="#F7A388"/>
<path d="M221.355 93.2521L221.21 93.2996C220.411 93.4233 220.092 92.3553 219.974 91.6871C219.697 90.1261 219.74 88.5463 219.692 86.9674C219.68 86.5715 219.708 86.0775 219.561 85.7054C219.112 84.57 217.916 83.8325 217.552 82.6596C217.127 81.2955 218.326 79.9344 217.85 78.4417C217.123 76.1542 214.464 75.6286 212.541 75.6533C209.656 75.6909 206.843 76.2819 203.996 76.7699C200.991 77.2856 197.149 77.7746 194.501 75.6741C191.308 73.143 189.975 66.5456 192.357 62.9346C193.655 60.9647 196.118 59.9165 198.275 59.862C200.562 59.8036 202.495 61.3102 204.593 62.0684C206.264 62.6722 207.88 60.9063 209.441 60.5619C211.405 60.1283 212.238 62.496 213.975 62.5604C215.662 62.6237 217.317 61.1677 218.957 60.837C222.228 60.1768 222.036 63.8066 224.23 65.0459C225.594 65.817 227.355 65.3498 228.735 66.1328C229.783 66.7277 229.93 67.773 230.158 68.9569C230.356 69.9814 230.367 71.1633 230.673 72.1363C230.947 73.0114 231.611 73.5637 232.13 74.2477C232.696 74.995 233.058 75.8661 233.345 76.8025C233.982 78.8792 234.124 81.1193 233.95 83.2931C233.659 86.9417 232.595 90.5339 231.492 93.9707C230.777 96.1999 230.51 98.5221 229.409 100.632C229.114 101.2 227.8 102.857 227.312 101.622C227.207 101.358 227.224 101.057 227.241 100.769C227.387 98.4696 229.324 83.6573 224.246 85.4361C223.18 85.8103 222.465 86.7903 222.067 87.9078C221.592 89.2461 221.559 90.5933 221.619 92.0068C221.628 92.2088 221.632 92.4117 221.625 92.6136C221.616 92.8749 221.557 93.1402 221.355 93.2521Z" fill="#38397C"/>
<path d="M214.649 110.691C220.424 109.665 224.234 104.625 224.234 104.625C224.234 104.625 222.677 113.119 214.302 113.568L214.649 110.691Z" fill="#F7A388"/>
<path d="M224.128 226.476H232.394V314.104C232.394 314.992 231.741 315.714 230.937 315.714H225.585C224.78 315.714 224.128 314.992 224.128 314.104V226.476Z" fill="#16202D"/>
<path d="M205.532 227.729H250.99V229.1C250.99 232.551 248.457 235.35 245.333 235.35H211.188C208.064 235.35 205.532 232.551 205.532 229.1V227.729Z" fill="#2F415B"/>
<path d="M224.128 305.324H232.394V325.629C232.394 326.518 231.741 327.239 230.937 327.239H225.585C224.78 327.239 224.128 326.518 224.128 325.629V305.324Z" fill="#16202D"/>
<path d="M185.367 321.893C185.367 324.845 187.533 327.239 190.205 327.239C192.876 327.239 195.042 324.845 195.042 321.893C195.042 318.941 192.876 316.548 190.205 316.548C187.533 316.548 185.367 318.941 185.367 321.893Z" fill="#16202D"/>
<path d="M261.479 321.893C261.479 324.845 263.645 327.239 266.317 327.239C268.989 327.239 271.155 324.845 271.155 321.893C271.155 318.941 268.989 316.548 266.317 316.548C263.645 316.548 261.479 318.941 261.479 321.893Z" fill="#16202D"/>
<path d="M219.946 314.574H236.575V298.518H219.946V314.574Z" fill="#2F415B"/>
<path d="M185.367 318.352H271.155V316.489C271.155 313.344 268.848 310.796 266.002 310.796H190.519C187.674 310.796 185.367 313.344 185.367 316.489V318.352Z" fill="#F8CF3E"/>
<path d="M228.261 297.085H225.394V237.15H228.261V297.085Z" fill="#2F415B"/>
<path d="M260.735 162.959C258.752 162.89 257.139 164.704 257.254 166.893C257.821 177.771 255.735 204.31 246.564 213.364C235.352 224.435 203.573 222.927 203.573 222.927C203.573 222.927 198.324 230.044 208.821 231.625C219.317 233.207 248.898 232.153 256.055 224.773C262.982 217.628 267.095 198.911 263.995 166.333C263.818 164.465 262.436 163.017 260.735 162.959Z" fill="#F8CF3E"/>
<path d="M201.194 297.085L204.973 306.606L193.394 312.221L189.601 302.668L201.194 297.085Z" fill="url(#paint2_radial_70_1107)"/>
<path d="M255.8 191.265C255.085 192.848 203.635 191.297 198.775 191.787C198.775 191.787 167.286 208.394 162.763 223.94C162.304 225.506 162.176 227.577 162.32 230.045C163.578 251.933 186.137 304.344 186.137 304.344L189.601 302.668L201.194 297.085L202.841 296.295C202.841 296.295 184.948 237.383 188.527 234.22C192.105 231.057 232.655 223.15 246.725 218.943C260.81 214.719 255.8 191.265 255.8 191.265Z" fill="#504B90"/>
<path d="M157.049 299.534L157.954 313.838H145.314L144.409 299.503L157.049 299.534Z" fill="url(#paint3_radial_70_1107)"/>
<path d="M198.518 191.297L198.059 191.519C198.059 191.519 145.343 199.696 136.756 216.033C131.173 226.66 141.978 304.317 141.978 304.317L160.628 304.365C160.628 304.365 157.839 239.675 158.769 236.07C159.815 231.957 161.604 230.471 162.32 230.045C162.176 227.577 162.304 225.506 162.763 223.94C167.286 208.394 198.775 191.787 198.775 191.787C198.676 191.709 198.589 191.534 198.518 191.297Z" fill="#38397C"/>
<path d="M249.436 137.478L245.901 138.016C245.901 138.016 245.041 148.549 242.937 159.082L198.895 177.554L198.293 181.081C198.108 181.065 197.921 181.049 197.749 181.033C197.764 181.761 197.764 182.472 197.792 183.137C197.893 187.202 198.135 190.127 198.523 191.297C198.594 191.535 198.68 191.709 198.781 191.787C199.977 192.865 215.554 190.776 232.394 197.608C246.999 203.535 255.185 210.006 255.563 209.137C260.154 198.593 251.797 157.216 249.436 137.478Z" fill="#FF454A"/>
<path d="M244.841 161.612C243.667 167.843 240.633 180.242 234.678 181.903C226.905 184.086 211.877 183.975 197.792 183.137C197.764 182.472 197.764 181.761 197.749 181.033C197.921 181.049 198.108 181.065 198.293 181.081L198.895 177.554L242.937 159.082C245.041 148.549 245.901 138.016 245.901 138.016C245.901 138.016 245.901 138.079 245.914 138.19C246 139.819 246.601 152.408 244.841 161.612Z" fill="#6AF7EE"/>
<path d="M200.694 121.932C199.907 123.513 198.775 140.436 198.161 157.232L189.157 147.948C192.978 139.772 200.694 121.932 200.694 121.932Z" fill="#6AF7EE"/>
<path d="M195.297 169.504C187.697 170.958 180.712 172.209 180.712 172.209L180.697 172.619C172.239 165.155 159.37 144.01 159.37 144.01C159.37 144.01 163.221 138.902 164.18 137.557C164.323 137.352 185.307 153.309 186.38 153.167C186.652 153.136 187.725 151.048 189.157 147.948L198.161 157.232C198.016 161.233 197.902 165.218 197.83 168.997C196.986 169.172 196.142 169.33 195.297 169.504Z" fill="#F7A388"/>
<path d="M180.712 172.209L180.525 179.136H157.623C157.623 179.136 159.9 169.251 166.097 169.251C172.295 169.251 174.685 172.873 174.685 172.873L180.712 172.209Z" fill="url(#paint4_radial_70_1107)"/>
<path d="M164.007 137.399L164.18 137.557C163.221 138.902 159.37 144.01 159.37 144.01L156.98 142.144C156.98 142.144 154.346 143.915 151.283 142.064C148.091 140.151 150.067 135.582 150.231 135.04C149.612 135.233 145.787 138.648 145.186 138.285C144.585 137.921 144.141 136.719 148.42 132.054C152.686 127.388 158.497 133.382 158.669 133.382L164.007 137.399Z" fill="#F7A388"/>
<path d="M151.781 141.271C151.781 141.271 150.859 143.18 152.499 144.01C154.139 144.84 157.33 145.439 158.702 145.293C160.073 145.147 161.163 143.027 161.163 143.027L157.011 138.722H153.691L151.781 141.271Z" fill="#F7A388"/>
<path d="M151.536 142.209C151.781 141.271 154.139 141.771 155.601 141.81C156.677 141.837 157.267 141.526 157.599 140.619C157.932 139.713 156.369 138.269 156.062 138.722C155.755 139.175 156.625 139.813 156.651 140.414C156.677 141.016 155.114 141.215 153.909 141.215C152.704 141.215 150.626 141.561 150.626 141.561L151.536 142.209Z" fill="#E9896F"/>
<path d="M240.699 168.065L218.27 159.287C216.638 162.656 214.892 165.186 213.161 165.693C210.542 166.451 204.214 167.764 197.83 168.997C196.986 169.172 196.142 169.33 195.297 169.504C187.697 170.958 180.712 172.209 180.712 172.209L180.697 172.619V172.888L180.525 179.136V180.721C180.525 180.721 188.14 180.29 197.745 181.033C211.186 182.092 228.519 182.726 234.258 179.737C236.949 178.329 239.096 173.711 240.786 168.017L240.699 168.065Z" fill="url(#paint5_radial_70_1107)"/>
<path d="M218.27 159.287L240.699 168.065L239.684 171.376L217.485 160.855L218.27 159.287Z" fill="#F7A388"/>
<path d="M218.27 159.287C216.638 162.656 214.892 165.186 213.161 165.693C210.542 166.451 204.214 167.764 197.83 168.997C197.902 165.218 198.016 161.233 198.161 157.232C198.775 140.436 199.907 123.513 200.694 121.932C201.981 119.29 205.503 113.55 211.057 112.238L211.071 112.316C211.071 112.316 209.153 124.843 220.603 124.843C231.51 124.843 232.899 113.123 232.998 112C238.61 112.696 247.212 115.795 248.4 128.257C248.644 130.725 248.987 133.888 249.43 137.478L245.895 138.016C245.895 138.016 244.464 155.571 240.786 168.017L240.699 168.065L218.27 159.287Z" fill="#FF454A"/>
<path d="M220.397 157.971L218.038 157.003L226.994 133.048L220.397 157.971Z" fill="#F7978B"/>
<path d="M232.998 112L228.118 112C228.118 112 221.172 120.427 216.708 120.427C212.242 120.427 214.649 112.048 214.649 112.048L212.47 112.047C206.214 112.047 200.948 117.239 200.239 124.109C200.158 124.896 200.084 125.642 200.021 126.317C199.543 131.415 218.233 135.125 218.233 135.125L227.857 134.53L233.701 121.932L234.865 116.773L232.998 112Z" fill="#FF454A"/>
<path d="M174.102 323.179C174.536 325.755 176.154 327.587 178.485 327.106L209.573 320.7C210.36 320.537 210.877 319.702 210.731 318.833L210.217 315.785C210.217 315.785 177.521 322.107 174.086 323.16L174.102 323.179Z" fill="#F4F6F5"/>
<path d="M183.351 314.53C183.675 314.219 183.987 313.91 184.311 313.601C184.935 312.984 185.549 312.383 186.14 311.802C186.451 311.494 186.763 311.185 187.052 310.895C187.62 310.334 188.155 309.807 188.634 309.334C188.978 308.992 189.3 308.667 189.59 308.377C190.121 307.85 190.555 307.422 190.859 307.12C191.123 306.86 191.514 306.848 191.784 307.099C193.062 308.286 197.192 311 204.674 305.886C205.028 305.643 205.5 305.77 205.692 306.179L210.217 315.785C210.217 315.785 177.521 322.107 174.086 323.16C175.216 322.381 179.389 318.391 183.351 314.53Z" fill="#38397C"/>
<path d="M125.142 322.842C125.199 325.462 126.53 327.556 128.903 327.49L160.517 326.638C161.317 326.616 161.95 325.883 161.93 325L161.861 321.9C161.861 321.9 128.672 322.386 125.129 322.82L125.142 322.842Z" fill="#F4F6F5"/>
<path d="M135.52 315.932C135.885 315.681 136.236 315.433 136.602 315.183C137.307 314.683 137.998 314.198 138.665 313.729C139.018 313.48 139.37 313.23 139.698 312.996C140.339 312.54 140.942 312.115 141.484 311.733C141.874 311.453 142.239 311.189 142.566 310.956C143.166 310.529 143.657 310.181 144 309.938C144.297 309.727 144.686 309.784 144.917 310.079C146.008 311.476 149.694 314.883 157.817 311.151C158.202 310.974 158.648 311.182 158.779 311.62L161.861 321.9C161.861 321.9 128.672 322.386 125.129 322.82C126.356 322.25 131.051 319.046 135.52 315.932Z" fill="#38397C"/>
<path d="M102.653 180.721L85.7683 130.967H133.836L150.719 180.721H102.653Z" fill="#A9B4B8"/>
<path d="M153.691 180.721H150.719L133.836 130.967L136.534 131.099L152.151 176.134L153.691 180.721Z" fill="#7F939F"/>
<path d="M152.759 180.721H184.52L184.433 177.584C184.433 177.584 152.639 177.584 152.108 177.584" fill="#7F939F"/>
<path d="M288.074 329.022H280.427V190.21H288.074V329.022Z" fill="#7F939F"/>
<path d="M246.564 329.022H238.917V190.21H246.564V329.022Z" fill="#A9B4B8"/>
<path d="M113.582 329.022H105.935V190.21H113.582V329.022Z" fill="#7F939F"/>
<path d="M72.0741 329.022H64.4269V190.21H72.0741V329.022Z" fill="#A9B4B8"/>
<path d="M295.726 190.737H57.1012C55.0484 190.737 53.3844 188.897 53.3844 186.63V184.827C53.3844 182.559 55.0484 180.721 57.1012 180.721H295.726C297.779 180.721 299.442 182.559 299.442 184.827V186.63C299.442 188.897 297.779 190.737 295.726 190.737Z" fill="#202450"/>
<path d="M93.7944 136.196L94.6168 138.618H104.192L103.369 136.196H93.7944Z" fill="#7F939F"/>
<path d="M189.157 147.948L188.469 149.415L198.161 160.48L198.161 157.232L189.157 147.948Z" fill="#E9896F"/>
<path d="M386.94 337H0V327.237H386.94V337Z" fill="#A4B7C7"/>
<path d="M325.594 254.83C324.057 263.071 324.519 277.108 314.653 279.331C311.996 279.929 309.429 277.895 307.885 275.563C305.864 272.511 305.38 266.052 305.415 262.357C305.443 259.429 306.347 256.165 306.637 253.21C306.952 250.02 307.208 246.822 307.545 243.634C308.758 232.144 314.191 222.513 323.38 216.777C324.091 220.549 325.712 223.742 327.142 227.364C327.794 229.015 328.382 230.756 328.806 232.486C329.557 235.55 328.649 238.646 327.974 241.581C326.977 245.92 326.412 250.441 325.594 254.83Z" fill="url(#paint6_linear_70_1107)"/>
<path d="M312.982 279.609C313.053 278.918 313.13 278.227 313.213 277.536C314.392 277.532 315.619 276.791 316.608 276.225C318.325 275.242 319.717 273.833 321.065 272.326L320.939 272.187C319.594 273.435 318.2 274.643 316.6 275.468C315.707 275.927 314.402 276.679 313.302 276.825C313.406 276 313.521 275.177 313.644 274.354C314.872 274.188 315.997 273.297 317.036 272.616C318.803 271.458 320.322 269.959 321.897 268.515L321.875 268.484C319.466 270.418 316.782 273.17 313.733 273.772C313.895 272.743 314.066 271.715 314.262 270.696L314.292 270.536C317.82 269.551 320.206 266.494 322.907 264.023L322.858 263.94C320.198 266.223 317.698 268.826 314.41 269.935C314.696 268.475 314.993 267.02 315.291 265.567C318.482 264.266 321.031 262.2 323.262 259.322L323.197 259.253C320.888 261.908 318.346 263.432 315.418 264.944C315.713 263.505 316.006 262.066 316.284 260.623C317.664 259.874 319.116 259.417 320.391 258.43C321.649 257.457 322.778 256.297 323.588 254.849L323.481 254.774C321.696 257.611 319.004 258.494 316.402 259.986C316.656 258.64 316.892 257.292 317.103 255.936C320.003 254.172 323.153 252.537 324.796 249.156L324.751 249.123C323.011 252.229 319.968 253.566 317.206 255.257C317.242 255.015 317.283 254.776 317.317 254.533C317.495 253.276 317.661 252.016 317.825 250.758C319.49 250.02 321.078 248.979 322.577 247.9C323.642 247.134 324.777 246.376 325.474 245.174L325.371 245.094C323.816 247.556 320.41 248.979 317.895 250.211C318.058 248.939 318.221 247.667 318.385 246.394C321.175 244.528 324.459 243.496 326.177 240.132C326.228 240.033 326.095 239.941 326.039 240.038C324.26 243.109 321.129 244.057 318.462 245.8C318.564 245.012 318.668 244.224 318.775 243.437C321.79 242.213 325.294 239.424 326.884 236.414C326.971 236.248 326.755 236.094 326.656 236.253C325.035 238.895 321.778 241.766 318.864 242.811C319.042 241.535 319.228 240.262 319.435 238.99L319.478 238.878C320.832 238.437 322.17 237.383 323.338 236.586C324.746 235.626 326.09 234.511 326.967 232.933C327.064 232.758 326.807 232.597 326.716 232.776C325.377 235.416 322.2 237.186 319.57 238.194C319.647 237.729 319.723 237.266 319.806 236.803C319.93 236.111 320.058 235.418 320.185 234.726C321.263 233.905 322.63 233.512 323.711 232.644C324.651 231.889 325.472 230.981 326.277 230.059C326.358 229.969 326.239 229.827 326.154 229.915C325.063 231.048 323.941 232.136 322.612 232.921C321.869 233.36 321.023 233.611 320.303 234.093C320.514 232.961 320.724 231.83 320.924 230.696L320.963 230.688L321.001 230.696L321.178 230.635C322.643 230.227 323.762 228.835 324.746 227.648L324.708 227.605C323.676 228.659 322.502 229.827 321.119 230.281L321.105 230.274L321 230.256C321.16 229.333 321.312 228.41 321.452 227.484C321.558 227.464 321.65 227.364 321.625 227.247C322.402 226.672 323.107 225.937 323.769 225.22L323.695 225.131C323.007 225.787 322.328 226.327 321.554 226.8C321.827 224.889 322.04 222.966 322.136 221.025C322.145 220.844 321.899 220.842 321.885 221.02C321.732 222.888 321.486 224.74 321.194 226.582C320.387 225.411 319.487 224.205 318.994 222.865L318.891 222.898C319.133 223.731 319.549 224.458 319.961 225.199C320.33 225.861 320.625 226.632 321.095 227.22C320.932 228.209 320.757 229.195 320.572 230.181C319.59 230.007 318.69 229.801 317.879 229.015C316.887 228.054 316.322 226.746 316.225 225.296C316.212 225.118 315.958 225.119 315.972 225.297C316.084 226.645 316.569 227.913 317.404 228.919C318.282 229.976 319.314 230.313 320.496 230.585C320.281 231.722 320.059 232.858 319.832 233.994C318.941 233.403 318.112 232.631 317.309 231.922C316.01 230.78 315.245 229.405 314.118 228.118C314.006 227.99 313.822 228.175 313.933 228.307C314.988 229.546 315.702 230.889 316.902 232.002C317.766 232.804 318.72 233.81 319.752 234.403L319.716 234.583L319.682 234.614L319.658 234.869C319.442 235.956 319.226 237.043 319.018 238.134L318.981 238.339C316.686 237.178 313.257 235.161 312.952 232.219C312.923 231.94 312.545 232.017 312.604 232.303C313.283 235.633 316.595 237.109 318.876 238.924C318.652 240.157 318.445 241.392 318.256 242.631C316.773 242.067 315.364 241.37 314.119 240.277C312.987 239.283 311.386 238.083 310.876 236.542L310.811 236.573C311.282 238.105 312.719 239.158 313.765 240.203C315.09 241.529 316.448 242.654 318.153 243.185L318.149 243.35C318.032 244.136 317.919 244.922 317.81 245.71C315.023 245.473 311.123 243.134 309.698 240.805L309.685 240.817C310.656 242.595 312.124 243.633 313.781 244.534C315.017 245.208 316.354 246.005 317.753 246.12C317.553 247.577 317.359 249.035 317.163 250.493C315.953 249.995 314.672 249.756 313.475 249.228C311.697 248.441 310.338 247.027 309.291 245.29C309.228 245.185 309.069 245.274 309.132 245.383C311.062 248.772 313.838 249.767 317.089 251.036C316.927 252.232 316.757 253.427 316.578 254.62C313.917 254.057 310.476 252.262 309.129 249.708C309.03 249.521 308.76 249.676 308.859 249.865C309.709 251.502 311.175 252.537 312.67 253.371C313.747 253.972 315.229 254.968 316.512 255.075L316.494 255.192C316.231 256.909 315.924 258.619 315.593 260.321C312.62 259.496 310.698 257.062 308.537 254.785C308.388 254.626 308.152 254.868 308.302 255.029C310.503 257.424 312.436 259.935 315.494 260.821C315.22 262.206 314.928 263.589 314.625 264.967C312.094 264.185 309.587 262.199 307.949 259.918C307.833 259.756 307.63 259.976 307.74 260.136C309.442 262.611 311.897 264.479 314.509 265.501C314.18 266.981 313.84 268.457 313.497 269.933C310.895 269.495 308.891 267.696 307.289 265.421L307.203 265.492C308.627 267.681 310.779 270.208 313.37 270.473C313.26 270.943 313.151 271.414 313.041 271.885C312.974 272.168 312.905 272.456 312.834 272.747C310.873 272.109 309.052 271.331 307.433 269.87L307.379 269.949C308.917 271.48 310.759 272.511 312.727 273.18C312.509 274.066 312.278 274.977 312.05 275.906C311.563 275.655 311.093 275.381 310.561 275.205C309.585 274.882 308.954 274.198 308.104 273.635L308.017 273.76C308.763 274.298 309.286 274.99 310.137 275.343C310.767 275.607 311.361 275.94 311.97 276.239C311.076 279.921 310.285 283.835 310.713 287.369C310.809 288.153 311.999 288.361 312.183 287.526C312.748 284.965 312.719 282.228 312.982 279.609Z" fill="#7070C0"/>
<path d="M294.368 252.47C296.123 260.659 301.904 273.167 293.809 279.786C291.629 281.567 288.525 280.918 286.234 279.524C283.236 277.701 280.33 272.071 278.951 268.704C277.857 266.036 277.43 262.655 276.565 259.842C275.631 256.803 274.642 253.785 273.729 250.738C270.44 239.755 271.687 228.491 277.827 219.005C279.911 222.094 282.602 224.232 285.281 226.848C286.501 228.041 287.7 229.346 288.746 230.716C290.597 233.144 290.957 236.374 291.465 239.35C292.219 243.749 293.435 248.111 294.368 252.47Z" fill="url(#paint7_linear_70_1107)"/>
<path d="M292.402 280.816C292.2 280.157 292.007 279.494 291.817 278.829C292.885 278.276 293.715 277.033 294.395 276.057C295.577 274.365 296.299 272.44 296.946 270.444C296.98 270.338 296.821 270.276 296.779 270.377C296.036 272.135 295.234 273.881 294.098 275.376C293.464 276.208 292.568 277.496 291.628 278.143C291.405 277.346 291.196 276.546 290.994 275.744C292.042 275.021 292.722 273.689 293.404 272.586C294.563 270.712 295.369 268.645 296.245 266.602L296.214 266.584C294.767 269.46 293.384 273.206 290.852 275.174C290.605 274.165 290.368 273.155 290.156 272.139L290.123 271.98C292.944 269.442 293.94 265.558 295.444 262.058L295.367 262.006C293.829 265.315 292.558 268.842 290 271.379C289.701 269.923 289.414 268.466 289.129 267.01C291.526 264.341 293.048 261.279 293.97 257.631L293.885 257.598C292.807 261.081 291.084 263.649 289.007 266.385C288.725 264.943 288.441 263.503 288.141 262.064C289.107 260.741 290.248 259.65 291.028 258.161C291.797 256.693 292.377 255.114 292.558 253.424L292.433 253.405C291.897 256.81 289.795 258.865 288.006 261.431C287.721 260.093 287.42 258.761 287.095 257.433C289.049 254.481 291.281 251.53 291.479 247.699L291.425 247.691C291.034 251.317 288.787 253.948 286.929 256.77C286.869 256.534 286.814 256.297 286.752 256.062C286.433 254.839 286.103 253.62 285.769 252.402C286.999 250.956 288.041 249.273 288.987 247.595C289.659 246.406 290.399 245.187 290.572 243.773L290.448 243.749C289.979 246.706 287.435 249.583 285.624 251.874C285.287 250.643 284.948 249.415 284.611 248.185C286.428 245.192 289.011 242.724 289.283 238.875C289.291 238.76 289.136 238.739 289.123 238.853C288.683 242.468 286.206 244.786 284.453 247.611C284.245 246.848 284.039 246.086 283.835 245.322C286.1 242.807 288.213 238.644 288.503 235.174C288.52 234.983 288.264 234.944 288.236 235.134C287.775 238.285 285.919 242.406 283.678 244.713C283.351 243.474 283.034 242.231 282.734 240.984L282.732 240.86C283.791 239.831 284.6 238.25 285.356 236.984C286.265 235.457 287.058 233.818 287.249 231.979C287.27 231.775 286.976 231.749 286.963 231.954C286.757 234.972 284.552 238.058 282.552 240.198C282.446 239.742 282.337 239.286 282.235 238.827C282.084 238.141 281.935 237.454 281.787 236.767C282.449 235.52 283.539 234.526 284.187 233.235C284.752 232.113 285.149 230.906 285.527 229.696C285.564 229.576 285.403 229.503 285.359 229.623C284.803 231.16 284.201 232.667 283.298 233.999C282.792 234.744 282.12 235.366 281.652 236.138C281.41 235.013 281.168 233.891 280.917 232.77L280.949 232.744L280.986 232.734L281.124 232.596C282.295 231.543 282.779 229.758 283.217 228.223L283.167 228.202C282.633 229.64 282.016 231.246 280.935 232.301L280.919 232.302L280.817 232.335C280.611 231.424 280.395 230.515 280.169 229.612C280.256 229.543 280.302 229.41 280.235 229.315C280.719 228.432 281.078 227.438 281.403 226.478L281.304 226.431C280.93 227.347 280.521 228.154 280 228.945C279.517 227.085 278.975 225.241 278.321 223.436C278.261 223.269 278.037 223.381 278.091 223.549C278.666 225.315 279.151 227.107 279.591 228.913C278.411 228.229 277.135 227.555 276.176 226.57L276.095 226.648C276.631 227.29 277.287 227.756 277.944 228.235C278.531 228.663 279.094 229.225 279.744 229.538C279.975 230.51 280.192 231.487 280.401 232.465C279.445 232.765 278.55 232.999 277.514 232.664C276.247 232.256 275.236 231.334 274.594 230.065C274.514 229.91 274.284 230.028 274.365 230.183C274.981 231.354 275.907 232.278 277.047 232.8C278.248 233.349 279.311 233.174 280.487 232.867C280.726 234 280.958 235.132 281.187 236.268C280.152 236.149 279.106 235.834 278.107 235.568C276.495 235.136 275.275 234.247 273.762 233.606C273.611 233.542 273.515 233.797 273.666 233.863C275.096 234.496 276.255 235.379 277.77 235.83C278.861 236.153 280.109 236.619 281.27 236.676L281.305 236.856L281.287 236.902C281.248 237.016 281.293 237.1 281.364 237.143C281.582 238.228 281.802 239.316 282.03 240.401L282.074 240.604C279.55 240.622 275.671 240.393 274.272 237.867C274.138 237.628 273.826 237.874 273.988 238.107C275.876 240.808 279.441 240.601 282.202 241.183C282.47 242.406 282.754 243.622 283.056 244.834C281.497 245.014 279.953 245.04 278.407 244.628C277.001 244.255 275.092 243.914 274.041 242.755L273.992 242.813C275.006 243.982 276.71 244.267 278.056 244.727C279.765 245.311 281.426 245.698 283.175 245.383L283.234 245.536C283.429 246.303 283.627 247.068 283.828 247.833C281.211 248.917 276.782 248.616 274.602 247.169L274.594 247.186C276.152 248.344 277.881 248.601 279.726 248.647C281.105 248.68 282.621 248.779 283.934 248.231C284.308 249.646 284.69 251.057 285.068 252.471C283.782 252.583 282.529 252.964 281.243 253.043C279.329 253.159 277.558 252.511 275.945 251.424C275.848 251.359 275.738 251.512 275.836 251.584C278.88 253.756 281.776 253.362 285.209 252.997C285.519 254.157 285.822 255.319 286.115 256.484C283.488 257.215 279.682 257.193 277.485 255.504C277.324 255.381 277.14 255.649 277.3 255.775C278.698 256.862 280.421 257.116 282.095 257.175C283.301 257.218 285.025 257.43 286.228 256.928L286.258 257.042C286.675 258.722 287.05 260.414 287.399 262.113C284.388 262.751 281.717 261.442 278.888 260.384C278.691 260.31 278.57 260.639 278.768 260.716C281.678 261.859 284.39 263.235 287.501 262.611C287.783 263.996 288.046 265.384 288.298 266.775C285.703 267.246 282.672 266.616 280.317 265.312C280.15 265.219 280.048 265.514 280.21 265.608C282.698 267.056 285.636 267.606 288.395 267.315C288.663 268.809 288.918 270.307 289.17 271.804C286.645 272.62 284.141 271.923 281.82 270.609L281.77 270.714C283.896 272.033 286.813 273.32 289.263 272.352C289.343 272.83 289.423 273.308 289.503 273.786C289.551 274.074 289.598 274.368 289.645 274.664C287.623 275.001 285.675 275.144 283.65 274.575L283.631 274.672C285.61 275.342 287.673 275.419 289.714 275.107C289.854 276.011 289.993 276.946 290.14 277.893C289.605 277.893 289.073 277.863 288.523 277.952C287.516 278.114 286.682 277.789 285.695 277.674C285.606 277.664 285.572 277.815 285.665 277.829C286.546 277.969 287.285 278.353 288.193 278.276C288.864 278.221 289.529 278.247 290.195 278.233C290.791 281.987 291.568 285.904 293.308 288.909C293.693 289.575 294.852 289.208 294.7 288.367C294.234 285.78 293.161 283.313 292.402 280.816Z" fill="#7070C0"/>
<path d="M311.469 246.124C311.886 256.528 316.294 273.214 305.066 279.187C302.041 280.795 298.404 279.214 295.911 276.933C292.648 273.949 290.295 266.36 289.323 261.916C288.554 258.393 288.742 254.173 288.281 250.531C287.783 246.598 287.212 242.676 286.741 238.737C285.045 224.544 288.92 211.169 298.372 201.209C300.259 205.497 303.082 208.784 305.79 212.651C307.025 214.413 308.207 216.306 309.192 218.239C310.935 221.664 310.694 225.684 310.689 229.43C310.684 234.97 311.247 240.585 311.469 246.124Z" fill="url(#paint8_linear_70_1107)"/>
<path d="M303.138 280.08C303.032 279.227 302.935 278.371 302.844 277.515C304.258 277.116 305.528 275.816 306.56 274.806C308.35 273.051 309.632 270.894 310.837 268.634C310.9 268.513 310.719 268.398 310.647 268.509C309.376 270.457 308.035 272.375 306.34 273.9C305.396 274.75 304.037 276.088 302.757 276.631C302.655 275.607 302.566 274.581 302.49 273.554C303.916 272.944 305.022 271.498 306.082 270.332C307.883 268.35 309.296 266.043 310.788 263.784L310.754 263.753C308.393 266.88 305.927 271.081 302.437 272.825C302.348 271.536 302.271 270.247 302.227 268.957L302.22 268.755C306.182 266.391 308.205 261.924 310.768 258.055L310.685 257.972C308.121 261.601 305.837 265.563 302.196 267.994C302.138 266.147 302.094 264.301 302.054 262.458C305.526 259.829 308.017 256.495 309.903 252.295L309.807 252.234C307.766 256.193 305.134 258.874 302.036 261.667C301.995 259.842 301.952 258.019 301.889 256.195C303.339 254.832 304.955 253.798 306.216 252.187C307.458 250.599 308.494 248.828 309.067 246.819C309.099 246.715 308.955 246.662 308.92 246.765C307.556 250.766 304.568 252.728 301.856 255.389C301.79 253.691 301.704 251.993 301.586 250.296C304.581 247.208 307.912 244.191 308.956 239.585L308.893 239.56C307.656 243.87 304.373 246.493 301.523 249.448C301.501 249.146 301.483 248.844 301.457 248.541C301.325 246.973 301.179 245.406 301.03 243.84C302.827 242.397 304.446 240.617 305.949 238.82C307.015 237.545 308.171 236.254 308.677 234.579C308.708 234.473 308.567 234.413 308.531 234.517C307.341 237.992 303.645 240.841 300.964 243.161C300.812 241.579 300.657 239.998 300.505 238.418C303.341 235.244 306.998 232.905 308.136 228.294C308.169 228.158 307.985 228.091 307.944 228.228C306.653 232.508 303.156 234.695 300.433 237.68C300.34 236.699 300.249 235.719 300.163 234.738C303.442 232.261 306.882 227.741 307.964 223.596C308.023 223.369 307.72 223.256 307.646 223.479C306.426 227.192 303.307 231.727 300.097 233.958C299.96 232.367 299.835 230.777 299.732 229.183L299.755 229.032C301.258 228.051 302.573 226.338 303.757 224.991C305.183 223.368 306.489 221.578 307.108 219.391C307.176 219.15 306.823 219.043 306.764 219.287C305.883 222.903 302.556 226.091 299.676 228.182C299.642 227.599 299.605 227.017 299.578 226.433C299.537 225.561 299.5 224.688 299.465 223.815C300.531 222.468 302.064 221.538 303.123 220.135C304.043 218.915 304.779 217.55 305.493 216.175C305.564 216.039 305.383 215.909 305.305 216.043C304.307 217.768 303.259 219.449 301.881 220.837C301.11 221.612 300.163 222.197 299.432 223.014C299.374 221.587 299.315 220.158 299.244 218.733L299.287 218.709L299.337 218.706C299.431 218.7 299.493 218.646 299.532 218.575C301.177 217.595 302.139 215.547 302.993 213.794L302.937 213.756C301.987 215.368 300.9 217.16 299.364 218.168L299.346 218.165L299.214 218.179C299.154 217.019 299.083 215.86 298.996 214.702C299.118 214.641 299.201 214.491 299.139 214.359C299.913 213.408 300.558 212.291 301.154 211.208L301.042 211.126C300.397 212.144 299.73 213.02 298.932 213.848C298.735 211.462 298.461 209.084 298.045 206.721C298.006 206.503 297.711 206.583 297.742 206.799C298.071 209.095 298.283 211.397 298.44 213.705C297.15 212.57 295.74 211.425 294.779 209.982L294.665 210.056C295.182 210.975 295.883 211.708 296.58 212.458C297.204 213.129 297.771 213.956 298.496 214.504C298.572 215.745 298.631 216.987 298.682 218.23C297.454 218.35 296.318 218.405 295.13 217.734C293.676 216.914 292.638 215.534 292.123 213.826C292.059 213.617 291.754 213.704 291.821 213.912C292.325 215.493 293.256 216.853 294.534 217.779C295.878 218.754 297.207 218.813 298.7 218.742C298.754 220.178 298.799 221.616 298.839 223.054C297.607 222.644 296.401 221.995 295.242 221.415C293.372 220.478 292.076 219.085 290.371 217.919C290.2 217.803 290.03 218.088 290.2 218.207C291.807 219.341 293.031 220.713 294.777 221.646C296.034 222.319 297.454 223.206 298.854 223.573L298.861 223.799L298.829 223.85C298.757 223.978 298.795 224.093 298.871 224.161C298.908 225.539 298.948 226.918 298.998 228.294L299.01 228.553C295.938 227.929 291.269 226.658 290.098 223.23C289.986 222.904 289.554 223.124 289.702 223.448C291.43 227.215 295.81 227.875 299.044 229.29C299.113 230.843 299.204 232.396 299.318 233.946C297.384 233.767 295.501 233.402 293.709 232.507C292.077 231.693 289.827 230.791 288.792 229.112L288.721 229.171C289.709 230.851 291.721 231.633 293.262 232.536C295.217 233.684 297.154 234.58 299.346 234.644L299.387 234.844C299.463 235.827 299.543 236.808 299.627 237.789C296.219 238.438 290.897 236.94 288.549 234.621L288.535 234.64C290.189 236.448 292.236 237.202 294.469 237.729C296.139 238.123 297.961 238.631 299.672 238.3C299.831 240.115 299.999 241.931 300.163 243.746C298.575 243.553 296.973 243.695 295.393 243.461C293.042 243.113 291.025 241.873 289.29 240.139C289.186 240.035 289.021 240.193 289.125 240.304C292.371 243.724 295.973 243.987 300.223 244.421C300.358 245.911 300.482 247.401 300.595 248.893C297.247 249.109 292.625 248.108 290.309 245.494C290.139 245.303 289.857 245.58 290.027 245.774C291.498 247.453 293.539 248.204 295.562 248.703C297.019 249.064 299.071 249.762 300.639 249.46L300.651 249.607C300.807 251.756 300.907 253.909 300.976 256.064C297.183 256.069 294.209 253.792 290.992 251.784C290.768 251.644 290.552 252.012 290.776 252.158C294.074 254.292 297.083 256.658 300.997 256.695C301.047 258.449 301.076 260.205 301.091 261.961C297.839 261.87 294.286 260.329 291.696 258.141C291.512 257.985 291.327 258.317 291.504 258.473C294.226 260.871 297.682 262.29 301.098 262.641C301.109 264.528 301.107 266.413 301.099 268.297C297.857 268.644 294.959 267.156 292.413 264.965L292.33 265.078C294.638 267.227 297.915 269.538 301.096 268.988C301.093 269.589 301.091 270.191 301.087 270.793C301.085 271.155 301.081 271.524 301.075 271.897C298.547 271.789 296.149 271.465 293.806 270.254L293.762 270.367C296.029 271.688 298.522 272.308 301.067 272.453C301.048 273.588 301.022 274.759 301.003 275.948C300.351 275.811 299.709 275.639 299.023 275.607C297.763 275.546 296.818 274.938 295.645 274.546C295.537 274.51 295.466 274.684 295.575 274.726C296.617 275.122 297.435 275.776 298.553 275.916C299.381 276.019 300.185 276.221 300.997 276.375C300.934 281.093 301.06 286.054 302.545 290.151C302.873 291.059 304.358 290.91 304.351 289.848C304.325 286.585 303.538 283.31 303.138 280.08Z" fill="#7070C0"/>
<path d="M317.667 283.977L317.251 292.433L316.601 305.601L315.535 327.237H289.024L287.959 305.601L287.308 292.433L286.892 283.977H317.667Z" fill="#92A6B3"/>
<path d="M317.251 292.433L317.165 294.129L317.081 295.884L316.601 305.601H287.959L287.479 295.884L287.394 294.129L287.308 292.433H317.251Z" fill="#A4B7C7"/>
<path d="M317.165 294.129L317.081 295.884H287.479L287.394 294.129H317.165Z" fill="#92A6B3"/>
<defs>
<radialGradient id="paint0_radial_70_1107" cx="0" cy="0" r="1" gradientUnits="userSpaceOnUse" gradientTransform="translate(195.372 168.5) scale(205.21 161.126)">
<stop stop-color="#FABDA6"/>
<stop offset="1" stop-color="#F9AD90"/>
</radialGradient>
<radialGradient id="paint1_radial_70_1107" cx="0" cy="0" r="1" gradientUnits="userSpaceOnUse" gradientTransform="translate(197.884 171.808) rotate(8.38432) scale(219.604 153.943)">
<stop stop-color="#FABDA6"/>
<stop offset="1" stop-color="#F9AD90"/>
</radialGradient>
<radialGradient id="paint2_radial_70_1107" cx="0" cy="0" r="1" gradientUnits="userSpaceOnUse" gradientTransform="translate(195.377 168.489) scale(185.035 179.087)">
<stop stop-color="#FABDA6"/>
<stop offset="1" stop-color="#F9AD90"/>
</radialGradient>
<radialGradient id="paint3_radial_70_1107" cx="0" cy="0" r="1" gradientUnits="userSpaceOnUse" gradientTransform="translate(195.378 168.5) scale(191.283 172.236)">
<stop stop-color="#FABDA6"/>
<stop offset="1" stop-color="#F9AD90"/>
</radialGradient>
<radialGradient id="paint4_radial_70_1107" cx="0" cy="0" r="1" gradientUnits="userSpaceOnUse" gradientTransform="translate(574.179 339.092) rotate(-19.6655) scale(658.819 1333.92)">
<stop stop-color="#FABDA6"/>
<stop offset="1" stop-color="#F9AD90"/>
</radialGradient>
<radialGradient id="paint5_radial_70_1107" cx="0" cy="0" r="1" gradientUnits="userSpaceOnUse" gradientTransform="translate(71.495 189.511) rotate(-22.17) scale(256.673 573.079)">
<stop stop-color="#FABDA6"/>
<stop offset="1" stop-color="#F9AD90"/>
</radialGradient>
<linearGradient id="paint6_linear_70_1107" x1="195.34" y1="336.995" x2="195.345" y2="0.00137328" gradientUnits="userSpaceOnUse">
<stop stop-color="#5C60B6"/>
<stop offset="1" stop-color="#523EA0"/>
</linearGradient>
<linearGradient id="paint7_linear_70_1107" x1="4.67177" y1="321.422" x2="72.6557" y2="-42.3856" gradientUnits="userSpaceOnUse">
<stop stop-color="#5C60B6"/>
<stop offset="1" stop-color="#523EA0"/>
</linearGradient>
<linearGradient id="paint8_linear_70_1107" x1="69.2536" y1="328.197" x2="96.7015" y2="-12.3693" gradientUnits="userSpaceOnUse">
<stop stop-color="#5C60B6"/>
<stop offset="1" stop-color="#523EA0"/>
</linearGradient>
</defs>
</svg>
