<svg width="189" height="193" viewBox="0 0 189 193" fill="none" xmlns="http://www.w3.org/2000/svg">
<path d="M52.4819 39.0104C63.2415 39.0104 71.9639 30.2776 71.9639 19.5052C71.9639 8.73278 63.2415 0 52.4819 0C41.7224 0 33 8.73278 33 19.5052C33 30.2776 41.7224 39.0104 52.4819 39.0104Z" fill="#C7C7C7"/>
<path d="M33.4819 87.0104C44.2415 87.0104 52.9639 78.2776 52.9639 67.5052C52.9639 56.7328 44.2415 48 33.4819 48C22.7224 48 14 56.7328 14 67.5052C14 78.2776 22.7224 87.0104 33.4819 87.0104Z" fill="#C7C7C7"/>
<path d="M52.4819 137.01C63.2415 137.01 71.9639 128.278 71.9639 117.505C71.9639 106.733 63.2415 98 52.4819 98C41.7224 98 33 106.733 33 117.505C33 128.278 41.7224 137.01 52.4819 137.01Z" fill="#C7C7C7"/>
<path d="M139.55 183.92C139.799 183.931 140.045 183.866 140.255 183.732C140.466 183.599 140.63 183.404 140.726 183.174C140.822 182.945 140.845 182.691 140.792 182.447C140.739 182.204 140.613 181.983 140.43 181.813C140.399 181.692 140.377 181.604 140.347 181.482C140.358 181.456 140.369 181.429 140.38 181.403C140.63 180.811 141.05 180.306 141.586 179.952C142.122 179.597 142.751 179.41 143.393 179.412C144.036 179.414 144.663 179.607 145.196 179.965C145.73 180.323 146.146 180.831 146.392 181.425C147.375 183.796 148.627 186.172 148.935 188.679C149.071 189.787 149.014 190.91 148.766 191.999C151.076 186.955 152.275 181.473 152.283 175.924C152.283 174.532 152.206 173.14 152.051 171.757C151.923 170.622 151.746 169.496 151.519 168.378C150.281 162.31 147.624 156.624 143.764 151.784C141.896 150.764 140.386 149.195 139.436 147.288C139.092 146.603 138.849 145.872 138.714 145.116C138.925 145.144 139.139 145.161 139.35 145.175C139.415 145.179 139.484 145.182 139.55 145.186L139.575 145.187C139.806 145.197 140.036 145.14 140.236 145.023C140.436 144.906 140.598 144.733 140.703 144.526C140.807 144.319 140.849 144.086 140.824 143.855C140.799 143.624 140.709 143.406 140.562 143.225C140.471 143.113 140.38 143.001 140.289 142.889C140.151 142.716 140.01 142.547 139.871 142.374C139.855 142.358 139.84 142.34 139.826 142.322C139.668 142.125 139.509 141.931 139.35 141.734C139.64 141.283 140.03 140.906 140.49 140.631C142.082 139.697 144.279 140.344 145.429 141.786C146.583 143.228 146.801 145.251 146.4 147.053C146.006 148.586 145.354 150.041 144.472 151.355C144.559 151.466 144.649 151.573 144.735 151.684C146.314 153.716 147.689 155.899 148.843 158.2C148.562 155.622 148.897 153.014 149.82 150.591C150.755 148.333 152.507 146.431 154.05 144.479C155.904 142.134 159.705 143.157 160.032 146.13C160.035 146.159 160.038 146.187 160.041 146.216C159.812 146.346 159.587 146.483 159.368 146.628C159.092 146.813 158.878 147.077 158.755 147.385C158.631 147.693 158.603 148.031 158.675 148.355C158.747 148.68 158.915 148.975 159.157 149.202C159.399 149.429 159.704 149.577 160.031 149.628L160.065 149.633C159.983 150.46 159.839 151.28 159.633 152.085C159.037 154.333 157.983 156.433 156.538 158.254C155.093 160.075 153.288 161.578 151.236 162.668C151.101 162.737 150.97 162.806 150.835 162.872C151.994 166.16 152.721 169.585 152.998 173.06C153.154 175.111 153.145 177.171 152.97 179.22L152.98 179.147C153.422 176.869 154.637 174.813 156.417 173.327C159.062 171.151 162.799 170.35 165.653 168.602C165.956 168.407 166.308 168.303 166.669 168.302C167.029 168.301 167.382 168.403 167.687 168.597C167.991 168.79 168.233 169.067 168.386 169.394C168.538 169.721 168.594 170.084 168.547 170.442C168.543 170.468 168.539 170.493 168.535 170.518C168.11 170.692 167.695 170.892 167.295 171.117C167.066 171.246 166.841 171.384 166.622 171.529C166.346 171.713 166.132 171.977 166.009 172.285C165.885 172.593 165.857 172.932 165.929 173.256C166.001 173.58 166.169 173.875 166.411 174.102C166.653 174.329 166.958 174.478 167.285 174.528L167.319 174.534C167.343 174.537 167.364 174.541 167.388 174.544C166.661 176.281 165.641 177.881 164.373 179.272C162.805 180.955 160.911 182.301 158.806 183.226C156.701 184.15 154.429 184.635 152.131 184.649H152.127C151.503 187.364 150.599 190.007 149.429 192.535H139.792C139.757 192.427 139.726 192.317 139.695 192.209C140.587 192.266 141.483 192.212 142.362 192.05C141.647 191.172 140.932 190.287 140.217 189.408C140.201 189.392 140.186 189.374 140.172 189.356C139.809 188.907 139.443 188.461 139.08 188.011L139.08 188.01C139.061 186.632 139.219 185.257 139.55 183.92L139.55 183.92Z" fill="#C7C7C7"/>
<path d="M64.1418 69.579C64.2805 70.0435 64.5192 70.4719 64.8411 70.8341C65.163 71.1962 65.5604 71.4833 66.0051 71.6751C66.4498 71.8669 66.9311 71.9587 67.4151 71.9441C67.8991 71.9294 68.3741 71.8088 68.8064 71.5905L77.3636 79.4093L78.4998 73.392L70.1942 66.909C69.7799 66.2061 69.1223 65.6798 68.3463 65.4298C67.5702 65.1798 66.7296 65.2235 65.9835 65.5526C65.2375 65.8817 64.638 66.4734 64.2985 67.2155C63.9591 67.9575 63.9034 68.7985 64.1418 69.579V69.579Z" fill="#FFB6B6"/>
<path d="M93.9258 63.6028C93.9258 63.6028 96.9096 56.8516 100.678 58.1936C104.14 59.4261 104.6 59.021 102.501 66.0859L88.3422 87.4468C88.3422 87.4468 73.4503 77.971 75.9336 77.8784C78.417 77.7857 78.3497 73.0405 78.3497 73.0405L84.423 75.0228L84.7882 73.1006L85.3736 73.6866L86.884 72.4964L93.9258 63.6028Z" fill="#161616"/>
<path d="M110.923 79.5693L110.294 85.4145L110.664 93.0797L94.6059 91.1897L93.4565 79.5693L95.4866 79.5892L110.923 79.5693Z" fill="#FFB6B6"/>
<path d="M114.009 185.696H110.301L106.698 157.776H115.096L114.009 185.696Z" fill="#FFB6B6"/>
<path d="M115.095 163.164V169.211C115.095 169.211 109.755 173.996 106.026 169.547L103.702 149.833C103.702 149.833 103.645 147.987 102.493 146.891C102.394 146.797 102.308 146.691 102.237 146.575C101.404 145.287 101.744 142.623 101.744 142.623C101.744 142.623 100.125 141.749 99.614 138.924C99.1034 136.099 97.424 129.928 97.424 129.928C97.424 129.928 93.9542 120.818 94.196 115.05C94.2397 113.984 94.2565 113.012 94.2565 112.138C94.2464 108.277 93.8601 106.283 93.8601 106.283L93.1581 92.8848L94.6058 90.8536L101.226 91.0486L101.676 91.0352L101.841 91.0318L108.64 90.8267L112.479 93.0866C112.479 93.0866 112.821 93.9408 113.305 95.1212C114.209 97.3105 115.599 100.623 116.214 101.736C117.161 103.451 116.691 112.276 113.466 116.197C113.466 116.197 112.126 118.104 112.479 118.793C112.798 119.419 112.492 120.478 112.432 120.666V120.67C112.425 120.686 112.422 120.697 112.422 120.697L111.908 132.131C111.908 132.131 111.908 137.03 113.06 138.82C114.212 140.609 115.095 163.164 115.095 163.164Z" fill="#2F2E41"/>
<path d="M115.965 192.127H113.307L112.832 189.614L111.617 192.127H104.565C104.227 192.127 103.898 192.019 103.625 191.818C103.353 191.618 103.152 191.335 103.051 191.012C102.951 190.689 102.956 190.342 103.066 190.022C103.176 189.702 103.386 189.426 103.664 189.234L109.295 185.34V182.799L115.219 183.153L115.965 192.127Z" fill="#2F2E41"/>
<path d="M92.0884 185.769L88.4389 185.114L89.813 156.996L98.0787 158.48L92.0884 185.769Z" fill="#FFB6B6"/>
<path d="M113.466 116.197C113.466 116.197 112.126 118.104 112.479 118.793C112.798 119.419 112.492 120.478 112.432 120.666V120.67C112.062 120.962 111.67 121.227 111.259 121.46C111.259 121.46 109.318 122.751 109.399 123.521C109.476 124.291 108.653 125.273 108.653 125.273L104.028 135.739C104.028 135.739 102.247 140.306 102.674 142.391C102.805 143.03 102.593 144.641 102.237 146.575C101.441 150.953 98.5593 166.386 98.5593 166.386L96.2853 171.901C96.2853 171.901 87.7771 169.537 87.552 168.874C87.552 168.874 90.5751 147.506 89.8999 146.067C89.2248 144.627 89.5573 140.414 90.1082 137.599C90.6557 134.781 91.4047 118.669 93.7224 113.385C93.9105 112.955 94.0885 112.538 94.2565 112.138C96.1274 107.628 96.5909 105.092 96.5909 105.092L100.796 92.3567L101.226 91.0486L101.324 91.5261L101.841 91.0317L109.405 93.7288L113.305 95.1211C114.209 97.3104 115.599 100.623 116.214 101.736C117.161 103.451 116.691 112.276 113.466 116.197Z" fill="#2F2E41"/>
<path d="M92.6491 183.218L88.577 182.235L87.9589 182.086L87.5127 184.587L81.2822 187.426C80.9742 187.565 80.719 187.8 80.5539 188.095C80.3888 188.391 80.3226 188.731 80.3649 189.067C80.4071 189.403 80.5558 189.716 80.7889 189.962C81.0221 190.207 81.3275 190.371 81.6605 190.429L88.5986 191.677L90.2391 189.417L90.263 191.976L92.8815 192.444L93.7273 183.478L92.6491 183.218Z" fill="#2F2E41"/>
<path d="M188.6 193H0.399943C0.294072 193 0.192649 192.957 0.117895 192.882C0.0431407 192.807 0.00115967 192.706 0.00115967 192.6C0.00115967 192.494 0.0431407 192.392 0.117895 192.317C0.192649 192.242 0.294072 192.2 0.399943 192.199H188.6C188.706 192.2 188.807 192.242 188.882 192.317C188.957 192.392 188.999 192.494 188.999 192.6C188.999 192.706 188.957 192.807 188.882 192.882C188.807 192.957 188.706 193 188.6 193V193Z" fill="#CCCCCC"/>
<path d="M103.755 53.5954C107.845 53.5954 111.161 50.2757 111.161 46.1807C111.161 42.0858 107.845 38.7661 103.755 38.7661C99.665 38.7661 96.3494 42.0858 96.3494 46.1807C96.3494 50.2757 99.665 53.5954 103.755 53.5954Z" fill="#FFB7B7"/>
<path d="M96.1579 60.3583L100.187 57.9377L101.995 54.8696H106.698L108.246 57.1308L115.369 60.7623L115.298 71.856L112.072 88.4993L93.5981 83.1186L92.4646 76.883C92.4646 76.883 85.8827 69.8389 91.524 65.8046L96.1579 60.3583Z" fill="#161616"/>
<path d="M113.406 108.257C113.789 108.021 114.116 107.704 114.363 107.328C114.61 106.952 114.772 106.526 114.837 106.08C114.902 105.635 114.869 105.181 114.739 104.749C114.61 104.318 114.388 103.921 114.088 103.585L116.687 75.6562L110.018 76.172L109.561 103.463C109.03 104.003 108.717 104.72 108.679 105.478C108.641 106.235 108.882 106.979 109.356 107.57C109.83 108.161 110.505 108.558 111.251 108.684C111.997 108.811 112.764 108.659 113.406 108.257H113.406Z" fill="#FFB6B6"/>
<path d="M115.431 60.5869C115.431 60.5869 115.431 60.9232 116.544 64.0802C117.497 66.7847 119.184 83.3992 115.893 87.4541C116.81 88.0202 115.43 98.5193 115.095 99.5973L108.378 97.9159C107.471 96.3564 108.436 85.4105 109.095 85.151L109.056 80.167L107.337 63.7387L113.957 61.0235L115.431 60.5869Z" fill="#161616"/>
<path d="M67.9406 73.8039L66.2463 62.9317C66.1887 62.5597 66.2809 62.18 66.5026 61.8759C66.7244 61.5718 67.0575 61.3683 67.429 61.3098L69.7957 60.9401C70.1673 60.8825 70.5465 60.9748 70.8502 61.1968C71.1539 61.4187 71.3573 61.7523 71.4156 62.1242L73.11 72.9964C73.1676 73.3684 73.0754 73.7481 72.8536 74.0522C72.6319 74.3562 72.2988 74.5598 71.9273 74.6183L69.5606 74.988C69.189 75.0456 68.8097 74.9533 68.506 74.7313C68.2023 74.5093 67.999 74.1758 67.9406 73.8039Z" fill="#3F3D56"/>
<path d="M67.7923 61.8211C67.5921 61.8526 67.4126 61.9624 67.2931 62.1262C67.1737 62.2901 67.124 62.4947 67.155 62.6952L68.8493 73.5673C68.8808 73.7678 68.9904 73.9475 69.154 74.0671C69.3177 74.1867 69.5221 74.2365 69.7223 74.2054L72.089 73.8357C72.2892 73.8042 72.4687 73.6945 72.5882 73.5306C72.7077 73.3668 72.7574 73.1622 72.7263 72.9617L71.032 62.0895C71.0005 61.8891 70.891 61.7094 70.7273 61.5897C70.5636 61.4701 70.3593 61.4204 70.159 61.4514L67.7923 61.8211Z" fill="#161616"/>
<path d="M114.76 49.5868V50.4179C114.76 50.9543 114.653 51.4853 114.444 51.9796C114.236 52.4738 113.932 52.9214 113.548 53.2959C113.164 53.6703 112.71 53.9641 112.211 54.1599C111.712 54.3557 111.179 54.4495 110.644 54.4359L105.189 54.2626C105.125 53.7219 104.947 53.201 104.667 52.7346C104.704 53.2474 104.632 53.7624 104.455 54.2449L102.042 54.1848C103.955 49.9639 104.701 46.3759 102.042 44.6351H98.4667C98.3952 44.1221 98.221 43.6289 97.9545 43.1849C97.9922 43.6763 97.9272 44.1702 97.7638 44.6351H94.2699C94.2703 42.8529 94.9776 41.1439 96.2363 39.8837C97.495 38.6235 99.202 37.9154 100.982 37.915H102.042C110.033 35.9025 114.251 40.2033 114.76 49.5868Z" fill="#2F2E41"/>
<path d="M33.4515 72.5058C32.6138 72.5058 31.795 72.2571 31.0986 71.7912C30.4021 71.3253 29.8593 70.663 29.5387 69.8882C29.2182 69.1134 29.1343 68.2609 29.2977 67.4384C29.4611 66.6159 29.8645 65.8603 30.4568 65.2673C31.0491 64.6743 31.8037 64.2705 32.6252 64.1069C33.4468 63.9433 34.2983 64.0272 35.0722 64.3482C35.8461 64.6691 36.5075 65.2126 36.9729 65.9099C37.4382 66.6072 37.6866 67.427 37.6866 68.2656C37.6853 69.3898 37.2387 70.4675 36.4448 71.2625C35.6508 72.0574 34.5743 72.5045 33.4515 72.5058ZM33.4515 64.7963C32.7661 64.7963 32.0962 64.9998 31.5264 65.381C30.9565 65.7622 30.5124 66.304 30.2501 66.938C29.9879 67.5719 29.9193 68.2694 30.053 68.9424C30.1867 69.6154 30.5167 70.2335 31.0013 70.7187C31.4859 71.2039 32.1033 71.5343 32.7755 71.6682C33.4476 71.802 34.1443 71.7333 34.7775 71.4707C35.4107 71.2082 35.9518 70.7635 36.3326 70.193C36.7133 69.6225 36.9166 68.9517 36.9166 68.2656C36.9155 67.3458 36.5501 66.464 35.9005 65.8136C35.2509 65.1633 34.3702 64.7974 33.4515 64.7963V64.7963Z" fill="#2F2E41"/>
<path d="M33.4515 74.2407C32.2712 74.2407 31.1174 73.8902 30.136 73.2337C29.1546 72.5772 28.3897 71.6441 27.938 70.5523C27.4864 69.4605 27.3682 68.2592 27.5984 67.1002C27.8287 65.9412 28.3971 64.8766 29.2317 64.041C30.0663 63.2054 31.1296 62.6364 32.2872 62.4058C33.4448 62.1753 34.6447 62.2936 35.7352 62.7458C36.8256 63.198 37.7577 63.9639 38.4134 64.9464C39.0691 65.929 39.4191 67.0841 39.4191 68.2658C39.4174 69.8499 38.7881 71.3686 37.6693 72.4887C36.5505 73.6088 35.0336 74.2389 33.4515 74.2407ZM33.4515 63.062C32.4235 63.062 31.4185 63.3672 30.5638 63.939C29.709 64.5108 29.0428 65.3235 28.6494 66.2744C28.256 67.2253 28.1531 68.2716 28.3537 69.2811C28.5542 70.2905 29.0492 71.2178 29.7761 71.9455C30.5031 72.6733 31.4292 73.1689 32.4374 73.3697C33.4457 73.5705 34.4908 73.4675 35.4405 73.0736C36.3903 72.6797 37.202 72.0127 37.7731 71.157C38.3443 70.3012 38.6491 69.2951 38.6491 68.2658C38.6475 66.8862 38.0994 65.5635 37.125 64.5879C36.1506 63.6123 34.8295 63.0635 33.4515 63.062V63.062Z" fill="#2F2E41"/>
<path d="M33.4515 80.7935C30.9767 80.7935 28.5574 80.0588 26.4997 78.6822C24.4419 77.3056 22.8381 75.349 21.8911 73.0599C20.944 70.7707 20.6962 68.2518 21.179 65.8216C21.6618 63.3914 22.8536 61.1592 24.6035 59.4071C26.3535 57.6551 28.5831 56.4619 31.0103 55.9785C33.4376 55.4951 35.9535 55.7432 38.2399 56.6914C40.5264 57.6396 42.4806 59.2454 43.8556 61.3055C45.2305 63.3657 45.9644 65.7879 45.9644 68.2657C45.9606 71.5871 44.6411 74.7714 42.2953 77.12C39.9495 79.4686 36.7689 80.7897 33.4515 80.7935ZM33.4515 56.5087C31.129 56.5087 28.8586 57.1983 26.9275 58.4901C24.9964 59.782 23.4913 61.6182 22.6025 63.7665C21.7137 65.9148 21.4811 68.2787 21.9342 70.5593C22.3873 72.8399 23.5057 74.9348 25.148 76.579C26.7903 78.2233 28.8827 79.343 31.1606 79.7966C33.4385 80.2503 35.7996 80.0175 37.9453 79.1276C40.091 78.2378 41.925 76.7308 43.2153 74.7974C44.5056 72.864 45.1943 70.5909 45.1943 68.2657C45.1908 65.1486 43.9525 62.1602 41.7511 59.9562C39.5496 57.7521 36.5648 56.5123 33.4515 56.5088V56.5087Z" fill="#2F2E41"/>
<path d="M23.5013 61.6198L22.843 62.0195L27.8331 70.2569L28.4914 69.8571L23.5013 61.6198Z" fill="#2F2E41"/>
<path d="M36.7187 72.3469L32.3029 80.2192L32.9745 80.5968L37.3902 72.7245L36.7187 72.3469Z" fill="#2F2E41"/>
<path d="M44.2152 62.2899L34.6623 62.4253L34.6732 63.1962L44.2261 63.0608L44.2152 62.2899Z" fill="#2F2E41"/>
<path d="M48.2631 112.651L47.8496 112.001C48.8808 111.344 50.0753 110.99 51.2974 110.979L51.3048 111.75C50.2267 111.76 49.1728 112.072 48.2631 112.651V112.651Z" fill="#2F2E41"/>
<path d="M51.8636 129.864C49.3073 129.888 46.8068 129.116 44.7084 127.654C42.61 126.192 41.0178 124.113 40.1524 121.705C39.287 119.296 39.1912 116.678 39.8783 114.213C40.5654 111.748 42.0014 109.557 43.9873 107.946L44.4725 108.545C42.7008 109.982 41.3939 111.913 40.7165 114.093C40.0391 116.274 40.0216 118.606 40.6662 120.796C41.3108 122.987 42.5886 124.937 44.3385 126.401C46.0884 127.865 48.2322 128.778 50.4995 129.025C52.7668 129.271 55.0562 128.84 57.0791 127.785C59.102 126.731 60.7679 125.1 61.8667 123.099C62.9655 121.099 63.448 118.817 63.2535 116.542C63.059 114.267 62.1962 112.1 60.7737 110.315L61.3752 109.834C63.1003 111.983 64.0484 114.653 64.0651 117.411C64.0928 120.681 62.8237 123.828 60.5363 126.163C58.2488 128.498 55.1298 129.828 51.8636 129.864V129.864Z" fill="#2F2E41"/>
<path d="M46.8096 118.485L46.0709 118.267C46.2119 117.766 46.4823 117.31 46.8551 116.947C47.2278 116.583 47.6896 116.324 48.1941 116.196L48.2561 116.189L50.5635 116.1L51.4482 115.02L50.768 114.8L47.4604 112.366L47.4359 109.81L43.9931 112.156L43.9559 108.274L44.7259 108.267L44.7493 110.708L48.1921 108.362L48.2267 111.973L51.1234 114.105L52.7605 114.634L50.9392 116.857L48.3227 116.958C47.9609 117.061 47.6318 117.256 47.3669 117.524C47.1019 117.791 46.91 118.122 46.8096 118.485V118.485Z" fill="#2F2E41"/>
<path d="M62.5316 115.011L55.3035 104.818C51.6606 105.75 51.5247 111.316 51.5238 111.373L50.754 111.36C50.7584 111.096 50.9137 104.868 55.397 104.008L55.6401 103.961L60.8972 111.374L60.5362 109.818L61.2862 109.644L62.5316 115.011Z" fill="#2F2E41"/>
<path d="M51.6082 123.312C50.2149 123.318 48.8691 122.805 47.8324 121.873C46.7957 120.941 46.142 119.656 45.9984 118.269L46.7647 118.194C46.8859 119.429 47.4785 120.57 48.419 121.379C49.3594 122.187 50.5752 122.601 51.8131 122.535C53.0509 122.468 54.2153 121.926 55.0637 121.021C55.912 120.116 56.3789 118.918 56.367 117.677C56.3623 116.848 56.1424 116.034 55.7291 115.315C55.3157 114.597 54.7231 113.998 54.0091 113.578L52.3155 112.57L55.6457 113.074C54.428 112.094 52.8803 111.62 51.323 111.75L51.2792 110.98C55.1409 110.758 56.9541 113.298 57.0294 113.406L57.5397 114.141L55.5788 113.844C56.3345 114.631 56.8434 115.623 57.043 116.696C57.2425 117.77 57.1238 118.878 56.7017 119.885C56.2795 120.891 55.5723 121.752 54.6672 122.361C53.7621 122.971 52.6987 123.301 51.6082 123.312V123.312Z" fill="#2F2E41"/>
<path d="M61.6805 10.9766C61.6189 10.9149 61.5612 10.8571 61.4996 10.7954C59.1804 8.52529 56.0604 7.26274 52.817 7.28195C49.5736 7.30117 46.4687 8.60059 44.1765 10.8981C41.8843 13.1955 40.5899 16.3056 40.5743 19.5528C40.5587 22.8001 41.8232 25.9225 44.0932 28.2419C44.1471 28.2997 44.2048 28.3576 44.2626 28.4154C46.579 30.6958 49.7015 31.9675 52.9501 31.9538C56.1987 31.9401 59.3103 30.642 61.6074 28.3421C63.9045 26.0422 65.2011 22.9269 65.2148 19.6744C65.2285 16.422 63.9582 13.2958 61.6805 10.9766ZM52.8946 31.1831C49.9226 31.1859 47.065 30.0365 44.921 27.9759C44.7901 27.8526 44.663 27.7254 44.5437 27.5943C42.4597 25.4122 41.3115 22.5 41.3449 19.4811C41.3784 16.4621 42.5907 13.5762 44.7225 11.4408C46.8543 9.30548 49.7362 8.09034 52.7516 8.05545C55.7669 8.02056 58.6761 9.16869 60.8566 11.2542C60.9875 11.3775 61.1146 11.5047 61.2378 11.6358C62.8028 13.2713 63.8532 15.3313 64.2584 17.5596C64.6635 19.788 64.4056 22.0864 63.5166 24.1692C62.6276 26.252 61.1468 28.0272 59.2583 29.2742C57.3698 30.5212 55.1568 31.185 52.8946 31.1831V31.1831Z" fill="#2F2E41"/>
<path d="M61.4996 10.7954L60.8566 11.2541L51.4392 17.9344L51.0773 18.1888L44.5437 27.5943L44.0932 28.2419C44.1471 28.2997 44.2048 28.3575 44.2626 28.4154L44.921 27.9759L54.3384 21.6889L54.7118 21.4383L61.2378 11.6357L61.6806 10.9766C61.6189 10.9149 61.5612 10.8571 61.4996 10.7954ZM54.3576 20.5826L54.1574 20.8832L53.8032 21.1184L46.6689 25.8789L51.4238 19.0368L51.6317 18.7361L51.9744 18.4933L59.1202 13.4282L54.3576 20.5826Z" fill="#2F2E41"/>
<path d="M51.6075 18.1713L51.1005 18.7515L54.1806 21.4498L54.6876 20.8695L51.6075 18.1713Z" fill="#2F2E41"/>
<path d="M53.0871 8.63281H52.317V10.4388H53.0871V8.63281Z" fill="#2F2E41"/>
<path d="M53.0871 28.292H52.317V30.098H53.0871V28.292Z" fill="#2F2E41"/>
<path d="M53.0871 8.63281H52.317V10.4388H53.0871V8.63281Z" fill="black"/>
<path d="M53.0871 28.292H52.317V30.098H53.0871V28.292Z" fill="black"/>
<path d="M56.3252 9.25703L55.6559 10.9341L56.371 11.2202L57.0403 9.54313L56.3252 9.25703Z" fill="#2F2E41"/>
<path d="M49.0331 27.5105L48.3638 29.1875L49.0789 29.4736L49.7482 27.7965L49.0331 27.5105Z" fill="#2F2E41"/>
<path d="M56.3252 9.25703L55.6559 10.9341L56.371 11.2202L57.0403 9.54313L56.3252 9.25703Z" fill="black"/>
<path d="M49.0331 27.5105L48.3638 29.1875L49.0789 29.4736L49.7482 27.7965L49.0331 27.5105Z" fill="black"/>
<path d="M58.7355 10.4856L57.668 11.9414L58.2888 12.3976L59.3562 10.9418L58.7355 10.4856Z" fill="#2F2E41"/>
<path d="M47.1153 26.3328L46.0479 27.7886L46.6687 28.2448L47.7361 26.789L47.1153 26.3328Z" fill="#2F2E41"/>
<path d="M58.7355 10.4856L57.668 11.9414L58.2888 12.3976L59.3562 10.9418L58.7355 10.4856Z" fill="black"/>
<path d="M47.1153 26.3328L46.0479 27.7886L46.6687 28.2448L47.7361 26.789L47.1153 26.3328Z" fill="black"/>
<path d="M61.4072 13.0905L59.9063 14.0923L60.3335 14.7337L61.8343 13.732L61.4072 13.0905Z" fill="#2F2E41"/>
<path d="M45.0707 23.9973L43.5698 24.999L43.9969 25.6405L45.4978 24.6387L45.0707 23.9973Z" fill="#2F2E41"/>
<path d="M61.4072 13.0905L59.9063 14.0923L60.3335 14.7337L61.8343 13.732L61.4072 13.0905Z" fill="black"/>
<path d="M45.0707 23.9973L43.5698 24.999L43.9969 25.6405L45.4978 24.6387L45.0707 23.9973Z" fill="black"/>
<path d="M62.7758 15.6757L61.0605 16.2349L61.2989 16.9678L63.0141 16.4086L62.7758 15.6757Z" fill="#2F2E41"/>
<path d="M44.1058 21.7631L42.3906 22.3223L42.6289 23.0552L44.3442 22.496L44.1058 21.7631Z" fill="#2F2E41"/>
<path d="M62.7758 15.6757L61.0605 16.2349L61.2989 16.9678L63.0141 16.4086L62.7758 15.6757Z" fill="black"/>
<path d="M44.1058 21.7631L42.3906 22.3223L42.6289 23.0552L44.3442 22.496L44.1058 21.7631Z" fill="black"/>
<path d="M63.4125 18.7762L61.609 18.8105L61.6237 19.5815L63.4271 19.5471L63.4125 18.7762Z" fill="#2F2E41"/>
<path d="M43.7804 19.1497L41.977 19.1841L41.9917 19.955L43.7951 19.9206L43.7804 19.1497Z" fill="#2F2E41"/>
<path d="M63.4125 18.7762L61.609 18.8105L61.6237 19.5815L63.4271 19.5471L63.4125 18.7762Z" fill="black"/>
<path d="M43.7804 19.1497L41.977 19.1841L41.9917 19.955L43.7951 19.9206L43.7804 19.1497Z" fill="black"/>
<path d="M61.4812 20.97L61.3105 21.7217L63.0693 22.1222L63.2401 21.3705L61.4812 20.97Z" fill="#2F2E41"/>
<path d="M42.3348 16.6086L42.164 17.3604L43.9229 17.7609L44.0936 17.0092L42.3348 16.6086Z" fill="#2F2E41"/>
<path d="M61.4812 20.97L61.3105 21.7217L63.0693 22.1222L63.2401 21.3705L61.4812 20.97Z" fill="black"/>
<path d="M42.3348 16.6086L42.164 17.3604L43.9229 17.7609L44.0936 17.0092L42.3348 16.6086Z" fill="black"/>
<path d="M60.8139 23.0901L60.463 23.7764L62.0687 24.5993L62.4195 23.913L60.8139 23.0901Z" fill="#2F2E41"/>
<path d="M43.3355 14.1316L42.9846 14.8179L44.5903 15.6408L44.9411 14.9545L43.3355 14.1316Z" fill="#2F2E41"/>
<path d="M60.8139 23.0901L60.463 23.7764L62.0687 24.5993L62.4195 23.913L60.8139 23.0901Z" fill="black"/>
<path d="M43.3355 14.1316L42.9846 14.8179L44.5903 15.6408L44.9411 14.9545L43.3355 14.1316Z" fill="black"/>
<path d="M59.7594 24.8341L59.2623 25.4229L60.6399 26.5889L61.137 26.0002L59.7594 24.8341Z" fill="#2F2E41"/>
<path d="M44.7642 12.1422L44.2671 12.731L45.6447 13.897L46.1418 13.3083L44.7642 12.1422Z" fill="#2F2E41"/>
<path d="M59.7594 24.8341L59.2623 25.4229L60.6399 26.5889L61.137 26.0002L59.7594 24.8341Z" fill="black"/>
<path d="M44.7642 12.1422L44.2671 12.731L45.6447 13.897L46.1418 13.3083L44.7642 12.1422Z" fill="black"/>
<path d="M58.426 26.2205L57.8145 26.689L58.9105 28.1232L59.522 27.6547L58.426 26.2205Z" fill="#2F2E41"/>
<path d="M46.4937 10.6077L45.8821 11.0762L46.9781 12.5104L47.5897 12.0419L46.4937 10.6077Z" fill="#2F2E41"/>
<path d="M58.426 26.2205L57.8145 26.689L58.9105 28.1232L59.522 27.6547L58.426 26.2205Z" fill="black"/>
<path d="M46.4937 10.6077L45.8821 11.0762L46.9781 12.5104L47.5897 12.0419L46.4937 10.6077Z" fill="black"/>
<path d="M56.8462 27.2782L56.1495 27.6064L56.9174 29.2406L57.6142 28.9123L56.8462 27.2782Z" fill="#2F2E41"/>
<path d="M48.4867 9.49015L47.7899 9.81836L48.5579 11.4525L49.2546 11.1243L48.4867 9.49015Z" fill="#2F2E41"/>
<path d="M56.8462 27.2782L56.1495 27.6064L56.9174 29.2406L57.6142 28.9123L56.8462 27.2782Z" fill="black"/>
<path d="M48.4867 9.49015L47.7899 9.81836L48.5579 11.4525L49.2546 11.1243L48.4867 9.49015Z" fill="black"/>
<path d="M54.921 28.0199L54.1675 28.1792L54.5401 29.9462L55.2936 29.7869L54.921 28.0199Z" fill="#2F2E41"/>
<path d="M50.864 8.78458L50.1106 8.94385L50.4832 10.7108L51.2366 10.5516L50.864 8.78458Z" fill="#2F2E41"/>
<path d="M54.921 28.0199L54.1675 28.1792L54.5401 29.9462L55.2936 29.7869L54.921 28.0199Z" fill="black"/>
<path d="M50.864 8.78458L50.1106 8.94385L50.4832 10.7108L51.2366 10.5516L50.864 8.78458Z" fill="black"/>
<path d="M50.6244 28.0547L50.2808 29.8276L51.0366 29.9744L51.3801 28.2016L50.6244 28.0547Z" fill="#2F2E41"/>
<path d="M54.3676 8.75642L54.024 10.5293L54.7797 10.6761L55.1233 8.90323L54.3676 8.75642Z" fill="#2F2E41"/>
<path d="M50.6244 28.0547L50.2808 29.8276L51.0366 29.9744L51.3801 28.2016L50.6244 28.0547Z" fill="black"/>
<path d="M54.3676 8.75642L54.024 10.5293L54.7797 10.6761L55.1233 8.90323L54.3676 8.75642Z" fill="black"/>
</svg>
