<svg width="147" height="148" viewBox="0 0 147 148" fill="none" xmlns="http://www.w3.org/2000/svg">
<g clip-path="url(#clip0_64_572)">
<path d="M147 0H59.3134C58.6397 4.12124 58.3018 8.29071 58.3032 12.467C58.3032 54.6265 92.3656 88.8035 134.384 88.8035C138.611 88.805 142.831 88.4553 147 87.7582V0Z" fill="#303030"/>
<path d="M109.886 47.7215C108.57 47.7226 107.265 47.4862 106.032 47.0236C105.962 46.997 105.897 46.9568 105.842 46.9053C105.787 46.8537 105.743 46.7918 105.712 46.723C105.68 46.6542 105.663 46.5799 105.66 46.5044C105.658 46.4289 105.67 46.3536 105.697 46.2829C105.723 46.2121 105.763 46.1473 105.814 46.092C105.866 46.0368 105.928 45.9923 105.996 45.961C106.065 45.9297 106.139 45.9123 106.214 45.9097C106.289 45.9072 106.364 45.9195 106.435 45.946C108.069 46.552 109.832 46.7198 111.551 46.4329C113.269 46.1459 114.884 45.4141 116.234 44.3098C112.021 44.3547 107.901 42.3571 105.851 39.1518C104.533 37.0912 104.102 34.6666 104.604 32.1398C104.989 30.3075 105.779 28.5853 106.915 27.1C104.745 27.7928 102.878 29.2114 101.624 31.119C100.371 33.0267 99.8081 35.3079 100.029 37.5819C100.037 37.6572 100.029 37.7333 100.008 37.8059C99.9861 37.8784 99.9504 37.9459 99.9026 38.0046C99.8549 38.0632 99.7961 38.1118 99.7295 38.1476C99.663 38.1834 99.5901 38.2057 99.515 38.2132C99.4399 38.2206 99.3641 38.2132 99.2919 38.1912C99.2197 38.1692 99.1525 38.1331 99.0942 38.085C99.0359 38.0369 98.9877 37.9777 98.9522 37.9108C98.9168 37.844 98.8948 37.7708 98.8876 37.6954C98.609 34.8344 99.4442 31.9762 101.218 29.719C102.992 27.4618 105.568 25.9807 108.406 25.5856C108.524 25.569 108.645 25.5901 108.751 25.646C108.857 25.7019 108.943 25.7897 108.997 25.8971C109.051 26.0045 109.07 26.1261 109.051 26.2448C109.033 26.3635 108.977 26.4734 108.893 26.5591C105.96 29.5484 104.18 34.4092 106.816 38.5303C108.895 41.7812 113.369 43.6405 117.698 43.0529C117.814 43.0371 117.932 43.0574 118.037 43.1111C118.141 43.1647 118.226 43.2491 118.281 43.3529C118.336 43.4568 118.358 43.575 118.344 43.6917C118.33 43.8085 118.281 43.9181 118.203 44.0059C117.155 45.1768 115.872 46.1129 114.439 46.7531C113.006 47.3934 111.455 47.7233 109.886 47.7215Z" fill="#F3F3F3"/>
<path d="M100.74 47.95C99.9082 47.95 99.0952 47.7025 98.4036 47.2388C97.712 46.7752 97.173 46.1162 96.8547 45.3451C96.5364 44.5741 96.4531 43.7257 96.6154 42.9071C96.7776 42.0886 97.1782 41.3368 97.7663 40.7466C98.3544 40.1565 99.1038 39.7546 99.9196 39.5918C100.735 39.429 101.581 39.5126 102.349 39.8319C103.118 40.1513 103.775 40.6922 104.237 41.3861C104.699 42.08 104.945 42.8958 104.945 43.7303C104.944 44.8491 104.501 45.9216 103.712 46.7127C102.924 47.5037 101.855 47.9487 100.74 47.95ZM100.74 40.6615C100.135 40.6615 99.5438 40.8415 99.0408 41.1787C98.5378 41.5159 98.1458 41.9952 97.9143 42.556C97.6828 43.1167 97.6222 43.7338 97.7403 44.329C97.8583 44.9243 98.1496 45.4711 98.5773 45.9003C99.005 46.3295 99.55 46.6218 100.143 46.7402C100.737 46.8586 101.352 46.7978 101.91 46.5656C102.469 46.3333 102.947 45.9399 103.283 45.4353C103.619 44.9306 103.799 44.3373 103.799 43.7303C103.798 42.9167 103.475 42.1367 102.902 41.5614C102.328 40.9861 101.551 40.6625 100.74 40.6615Z" fill="#F3F3F3"/>
<path d="M1.6613 108.766C1.38502 108.723 1.12114 108.621 0.887317 108.467C0.653489 108.313 0.4551 108.111 0.305413 107.874C0.155726 107.637 0.0581925 107.37 0.0193368 107.093C-0.0195189 106.815 0.00119939 106.532 0.080103 106.263L1.5689 101.184L3.83118 101.609L3.92844 106.781C3.93385 107.069 3.87643 107.354 3.76023 107.617C3.64402 107.88 3.47185 108.115 3.25579 108.304C3.03973 108.493 2.78502 108.632 2.50957 108.712C2.23411 108.792 1.94458 108.81 1.6613 108.766Z" fill="#CDA2A9"/>
<path d="M14.7183 141.19L11.8905 140.765L12.5974 113.1L8.63858 125.017L6.51769 141.758L3.83117 141.049L3.26554 123.599L6.37623 103.028L21.9293 106.575L14.7183 141.19Z" fill="#303030"/>
<path d="M13.4201 148C12.8689 148 12.3402 147.78 11.9504 147.389C11.5606 146.998 11.3417 146.468 11.3417 145.914C11.3417 145.846 11.345 145.778 11.3517 145.71L11.7908 141.231C11.8014 141.124 11.838 141.021 11.8974 140.931C11.9569 140.842 12.0373 140.768 12.1317 140.717C12.9653 140.266 13.8225 140.376 14.6999 140.964C14.7777 141.017 14.8433 141.086 14.8921 141.166C14.941 141.247 14.9719 141.337 14.9829 141.43L15.484 145.669C15.5186 145.961 15.4911 146.258 15.4031 146.539C15.3152 146.82 15.1689 147.079 14.9739 147.299C14.7789 147.52 14.5396 147.696 14.2718 147.817C14.004 147.937 13.7137 148 13.4201 148H13.4201Z" fill="#303030"/>
<path d="M1.87732 147.667C1.61083 147.569 1.37005 147.411 1.17318 147.206C0.976311 147.001 0.828511 146.753 0.740956 146.483C0.653401 146.212 0.628384 145.924 0.667796 145.642C0.707208 145.36 0.810018 145.091 0.968451 144.855L3.98492 140.356C5.07232 139.573 5.72815 139.954 5.98312 141.417L6.59297 139.884L7.05248 140.387C7.28563 140.642 7.42129 140.972 7.43545 141.318C7.44961 141.664 7.34136 142.003 7.12985 142.277L4.00099 147.055C3.75751 147.369 3.42052 147.598 3.03876 147.708C2.657 147.819 2.25025 147.804 1.87732 147.667Z" fill="#303030"/>
<path d="M20.9397 76.3563C23.2823 76.3563 25.1814 74.4508 25.1814 72.1003C25.1814 69.7497 23.2823 67.8442 20.9397 67.8442C18.597 67.8442 16.6979 69.7497 16.6979 72.1003C16.6979 74.4508 18.597 76.3563 20.9397 76.3563Z" fill="#CDA2A9"/>
<path d="M23.6261 79.9033L16.4151 78.4847C17.3439 76.4969 18.0877 75.8244 17.2635 73.6611H23.0606C22.5493 75.9018 23.0434 78.0049 23.6261 79.9033Z" fill="#CDA2A9"/>
<path d="M22.7778 108.561L5.81067 103.737C9.2092 96.2321 9.92105 87.9922 8.91341 79.2819C8.88945 79.0763 8.90608 78.8681 8.96235 78.6689C9.01861 78.4698 9.11342 78.2838 9.24135 78.1214C9.36928 77.959 9.52783 77.8235 9.70795 77.7227C9.88807 77.6218 10.0862 77.5575 10.2911 77.5334C10.3102 77.5312 10.3293 77.5293 10.3484 77.5278C12.5616 77.3449 14.869 77.1101 17.2635 76.7822L19.9499 78.6265L23.0605 77.9172C24.0587 78.4026 25.0641 78.8063 25.9714 79.2088C26.7986 79.5766 27.4595 80.2404 27.8253 81.0707C28.1911 81.901 28.2356 82.8383 27.95 83.6996C25.1853 92.0768 23.3347 100.375 22.7778 108.561Z" fill="#E6E6E6"/>
<path d="M4.25534 102.177L1.00332 101.751L8.70736 79.4783C9.09923 78.3453 10.0711 77.7321 11.2543 77.5625L12.3854 77.7044L11.5371 90.8981L4.25534 102.177Z" fill="#E6E6E6"/>
<path d="M29.7296 97.9188C29.1881 97.9606 28.6473 97.8297 28.1843 97.5448C27.7214 97.2599 27.36 96.8356 27.1516 96.3323L24.0503 88.8411L26.5954 79.6196L27.2681 80.0492C27.333 80.0906 27.3969 80.133 27.4601 80.1765C28.4046 80.8403 29.1404 81.7612 29.5807 82.8306C30.0211 83.9 30.1477 85.0734 29.9456 86.2126L29.2818 90.1179L32.0198 96.0163C31.8806 96.5319 31.5858 96.9916 31.1757 97.3323C30.7656 97.673 30.2604 97.8778 29.7296 97.9188Z" fill="#E6E6E6"/>
<path d="M21.2659 65.7927C21.9907 65.8261 22.6967 66.0347 23.3238 66.4007C23.4681 66.4849 23.4014 66.7886 23.5347 66.8877C23.7026 67.0124 24.0671 66.9367 24.2157 67.0828C24.6956 67.5528 25.065 68.1242 25.2972 68.7554C25.5294 69.3867 25.6186 70.0619 25.5581 70.732L25.3214 73.0933L24.7631 72.4806C23.7619 71.3668 22.3721 70.6821 20.8815 70.5686C20.8182 70.5643 20.7548 70.5609 20.6912 70.5584L21.1208 69.8041L20.3742 70.5532C20.0336 70.557 19.6938 70.5847 19.3571 70.6363L19.9283 69.6332L18.8322 70.733L18.8321 70.7331C18.3839 70.832 17.965 71.0352 17.6093 71.3262C17.2537 71.6173 16.9711 71.9882 16.7844 72.4089L16.6627 72.6796L16.5263 70.4269C16.5002 69.2229 16.9519 68.0579 17.7819 67.1881C18.6119 66.3182 19.7524 65.8148 20.9523 65.7887C21.0568 65.7864 21.1614 65.7877 21.2659 65.7927Z" fill="#303030"/>
<path d="M25.2092 73.7351C25.3973 73.7351 25.5498 73.3716 25.5498 72.9232C25.5498 72.4748 25.3973 72.1113 25.2092 72.1113C25.021 72.1113 24.8685 72.4748 24.8685 72.9232C24.8685 73.3716 25.021 73.7351 25.2092 73.7351Z" fill="#CDA2A9"/>
<path d="M16.6917 73.4787C16.8799 73.4787 17.0324 73.1152 17.0324 72.6669C17.0324 72.2185 16.8799 71.855 16.6917 71.855C16.5036 71.855 16.351 72.2185 16.351 72.6669C16.351 73.1152 16.5036 73.4787 16.6917 73.4787Z" fill="#CDA2A9"/>
<path d="M33.2678 83.5135C33.5394 83.5802 33.7937 83.7043 34.0136 83.8775C34.2336 84.0508 34.4142 84.2691 34.5433 84.518C34.6724 84.7669 34.747 85.0405 34.7622 85.3207C34.7774 85.6008 34.7329 85.881 34.6315 86.1425L32.7184 91.0763L30.5003 90.4595L30.8409 85.2977C30.8599 85.0106 30.9412 84.7312 31.0792 84.4791C31.2173 84.2269 31.4086 84.0081 31.6399 83.8381C31.8712 83.6681 32.1368 83.5509 32.418 83.4948C32.6992 83.4388 32.9892 83.4451 33.2677 83.5135H33.2678Z" fill="#CDA2A9"/>
<path d="M30.6958 97.637L27.1609 95.367L30.1302 89.2666L33.8063 90.6853L31.9683 96.0763L30.6958 97.637Z" fill="#E6E6E6"/>
<path d="M33.0704 78.4656V54.4712H32.6881V78.4656C32.4561 78.5131 32.2498 78.6454 32.1095 78.8368C31.9691 79.0283 31.9045 79.2652 31.9283 79.5016C31.9521 79.7381 32.0626 79.9572 32.2383 80.1166C32.414 80.276 32.6424 80.3642 32.8793 80.3642C33.1161 80.3642 33.3446 80.276 33.5203 80.1166C33.696 79.9572 33.8064 79.7381 33.8302 79.5016C33.854 79.2652 33.7895 79.0283 33.6491 78.8368C33.5087 78.6454 33.3025 78.5131 33.0704 78.4656ZM32.8793 79.9806C32.7659 79.9806 32.655 79.9469 32.5607 79.8836C32.4664 79.8204 32.3929 79.7306 32.3495 79.6254C32.3061 79.5203 32.2947 79.4046 32.3168 79.293C32.339 79.1813 32.3936 79.0788 32.4738 78.9983C32.554 78.9179 32.6562 78.8631 32.7674 78.8409C32.8786 78.8187 32.9939 78.8301 33.0987 78.8736C33.2035 78.9172 33.2931 78.9909 33.3561 79.0855C33.4191 79.1802 33.4528 79.2914 33.4528 79.4052C33.4526 79.5578 33.3921 79.704 33.2846 79.8119C33.1771 79.9198 33.0313 79.9805 32.8793 79.9806Z" fill="#1F1F1F"/>
<path d="M32.5798 31.5644C32.3611 31.5644 32.1513 31.4772 31.9967 31.3221C31.842 31.1669 31.7551 30.9565 31.7551 30.737V28.2548C31.7555 28.0356 31.8425 27.8255 31.9971 27.6706C32.1517 27.5157 32.3613 27.4287 32.5798 27.4287C32.7982 27.4287 33.0078 27.5157 33.1624 27.6706C33.317 27.8255 33.404 28.0356 33.4044 28.2548V30.737C33.4044 30.8457 33.3831 30.9533 33.3416 31.0537C33.3002 31.154 33.2394 31.2453 33.1629 31.3221C33.0863 31.3989 32.9954 31.4599 32.8953 31.5014C32.7953 31.543 32.688 31.5644 32.5798 31.5644Z" fill="#F3F3F3"/>
<path d="M32.5798 50.5943C32.4715 50.5943 32.3642 50.5729 32.2642 50.5313C32.1641 50.4897 32.0732 50.4288 31.9967 50.3519C31.9201 50.2751 31.8593 50.1839 31.8179 50.0835C31.7765 49.9831 31.7551 49.8755 31.7551 49.7669V47.2847C31.755 47.1759 31.7762 47.0682 31.8175 46.9677C31.8589 46.8672 31.9196 46.7758 31.9962 46.6988C32.0728 46.6219 32.1638 46.5608 32.2639 46.5192C32.364 46.4775 32.4714 46.4561 32.5798 46.4561C32.6882 46.4561 32.7955 46.4775 32.8956 46.5192C32.9957 46.5608 33.0867 46.6219 33.1633 46.6988C33.2399 46.7758 33.3006 46.8672 33.342 46.9677C33.3833 47.0682 33.4045 47.1759 33.4044 47.2847V49.7669C33.4044 49.8755 33.3831 49.9831 33.3416 50.0835C33.3002 50.1839 33.2394 50.2751 33.1629 50.352C33.0863 50.4288 32.9954 50.4897 32.8953 50.5313C32.7953 50.5729 32.688 50.5943 32.5798 50.5943Z" fill="#F3F3F3"/>
<path d="M38.4108 33.9877C38.2477 33.9877 38.0883 33.9391 37.9527 33.8482C37.8171 33.7573 37.7114 33.6281 37.649 33.4769C37.5866 33.3257 37.5703 33.1594 37.6021 32.9989C37.6339 32.8384 37.7124 32.6909 37.8277 32.5752L39.577 30.8201C39.7317 30.6651 39.9414 30.5781 40.16 30.5781C40.3786 30.5782 40.5883 30.6654 40.7428 30.8205C40.8974 30.9756 40.9843 31.1859 40.9844 31.4053C40.9844 31.6247 40.8977 31.8351 40.7432 31.9902L38.9939 33.7454C38.9174 33.8223 38.8265 33.8833 38.7265 33.9249C38.6264 33.9665 38.5191 33.9878 38.4108 33.9877Z" fill="#F3F3F3"/>
<path d="M24.9994 47.4441C24.8363 47.4441 24.6769 47.3956 24.5413 47.3047C24.4057 47.2137 24.3 47.0845 24.2376 46.9333C24.1752 46.7822 24.1589 46.6158 24.1907 46.4553C24.2225 46.2948 24.301 46.1474 24.4163 46.0317L26.1655 44.2765C26.3202 44.1214 26.5299 44.0342 26.7486 44.0342C26.9673 44.0342 27.1771 44.1213 27.3317 44.2765C27.4864 44.4317 27.5733 44.6421 27.5733 44.8616C27.5733 45.081 27.4864 45.2915 27.3318 45.4466L25.5825 47.2018C25.5061 47.2787 25.4152 47.3397 25.3151 47.3813C25.215 47.4229 25.1078 47.4442 24.9994 47.4441Z" fill="#F3F3F3"/>
<path d="M43.2998 39.8384H40.826C40.6075 39.8381 40.398 39.7507 40.2437 39.5956C40.0893 39.4405 40.0026 39.2302 40.0026 39.011C40.0026 38.7918 40.0893 38.5815 40.2437 38.4264C40.398 38.2712 40.6075 38.1839 40.826 38.1836H43.2998C43.4082 38.1834 43.5156 38.2047 43.6158 38.2462C43.716 38.2877 43.807 38.3486 43.8837 38.4255C43.9604 38.5023 44.0213 38.5936 44.0628 38.6941C44.1043 38.7945 44.1257 38.9022 44.1257 39.011C44.1257 39.1198 44.1043 39.2274 44.0628 39.3279C44.0213 39.4284 43.9604 39.5196 43.8837 39.5965C43.807 39.6733 43.716 39.7343 43.6158 39.7758C43.5156 39.8173 43.4082 39.8386 43.2998 39.8384Z" fill="#F3F3F3"/>
<path d="M24.3336 39.8384H21.8597C21.7513 39.8386 21.6439 39.8173 21.5437 39.7758C21.4436 39.7343 21.3525 39.6733 21.2758 39.5965C21.1991 39.5196 21.1382 39.4284 21.0967 39.3279C21.0552 39.2274 21.0338 39.1198 21.0338 39.011C21.0338 38.9022 21.0552 38.7945 21.0967 38.6941C21.1382 38.5936 21.1991 38.5023 21.2758 38.4255C21.3525 38.3486 21.4436 38.2877 21.5437 38.2462C21.6439 38.2047 21.7513 38.1834 21.8597 38.1836H24.3336C24.552 38.1839 24.7615 38.2712 24.9158 38.4264C25.0702 38.5815 25.1569 38.7918 25.1569 39.011C25.1569 39.2302 25.0702 39.4405 24.9158 39.5956C24.7615 39.7507 24.552 39.8381 24.3336 39.8384H24.3336Z" fill="#F3F3F3"/>
<path d="M40.1601 47.4442C40.0518 47.4444 39.9445 47.423 39.8444 47.3815C39.7444 47.3399 39.6535 47.2788 39.577 47.2019L37.8277 45.4468C37.751 45.37 37.6902 45.2787 37.6486 45.1783C37.6071 45.0779 37.5856 44.9703 37.5856 44.8615C37.5855 44.7528 37.6068 44.6451 37.6483 44.5447C37.6897 44.4442 37.7505 44.3529 37.8271 44.276C37.9037 44.1991 37.9947 44.1382 38.0948 44.0966C38.195 44.055 38.3023 44.0336 38.4106 44.0337C38.519 44.0338 38.6263 44.0552 38.7264 44.0969C38.8265 44.1386 38.9174 44.1997 38.9939 44.2767L40.7432 46.0318C40.8585 46.1475 40.937 46.2949 40.9688 46.4554C41.0006 46.6159 40.9843 46.7823 40.9219 46.9335C40.8595 47.0847 40.7538 47.2139 40.6182 47.3048C40.4826 47.3957 40.3232 47.4442 40.1601 47.4443V47.4442Z" fill="#F3F3F3"/>
<path d="M26.7487 33.9876C26.6403 33.9877 26.5331 33.9664 26.433 33.9248C26.3329 33.8832 26.2421 33.8222 26.1656 33.7452L24.4163 31.9901C24.3398 31.9133 24.279 31.8221 24.2376 31.7217C24.1961 31.6213 24.1748 31.5137 24.1748 31.405C24.1748 31.2964 24.1961 31.1888 24.2376 31.0884C24.279 30.988 24.3398 30.8968 24.4163 30.82C24.4929 30.7431 24.5838 30.6822 24.6839 30.6406C24.7839 30.599 24.8911 30.5776 24.9994 30.5776C25.1077 30.5776 25.215 30.599 25.315 30.6406C25.4151 30.6822 25.506 30.7431 25.5825 30.82L27.3317 32.5751C27.4471 32.6908 27.5256 32.8382 27.5574 32.9987C27.5892 33.1592 27.5729 33.3256 27.5105 33.4768C27.4481 33.628 27.3424 33.7572 27.2068 33.8481C27.0712 33.939 26.9117 33.9875 26.7487 33.9876Z" fill="#F3F3F3"/>
<path d="M32.5797 43.9751C31.6012 43.9751 30.6446 43.684 29.8309 43.1385C29.0173 42.593 28.3831 41.8177 28.0087 40.9105C27.6342 40.0034 27.5362 39.0052 27.7271 38.0423C27.918 37.0793 28.3892 36.1947 29.0812 35.5004C29.7731 34.8061 30.6547 34.3333 31.6145 34.1418C32.5743 33.9502 33.5691 34.0485 34.4732 34.4243C35.3772 34.8 36.15 35.4363 36.6936 36.2527C37.2373 37.0691 37.5275 38.0289 37.5275 39.0108C37.526 40.3269 37.0042 41.5888 36.0767 42.5194C35.1491 43.4501 33.8915 43.9736 32.5797 43.9751ZM32.5797 35.7012C31.9274 35.7012 31.2896 35.8953 30.7472 36.2589C30.2048 36.6226 29.782 37.1395 29.5324 37.7442C29.2827 38.349 29.2174 39.0144 29.3447 39.6564C29.4719 40.2984 29.7861 40.8881 30.2474 41.351C30.7087 41.8138 31.2964 42.129 31.9363 42.2567C32.5761 42.3844 33.2393 42.3189 33.842 42.0684C34.4447 41.8179 34.9599 41.3937 35.3223 40.8495C35.6848 40.3052 35.8782 39.6653 35.8782 39.0108C35.8772 38.1333 35.5294 37.2921 34.911 36.6716C34.2927 36.0512 33.4543 35.7022 32.5797 35.7012Z" fill="#F3F3F3"/>
</g>
<defs>
<clipPath id="clip0_64_572">
<rect width="147" height="148" fill="white"/>
</clipPath>
</defs>
</svg>
