<svg width="177" height="136" viewBox="0 0 177 136" fill="none" xmlns="http://www.w3.org/2000/svg">
<g clip-path="url(#clip0_64_445)">
<path d="M86.0864 19.2095C84.3156 21.6524 82.9535 24.3707 82.0541 27.2566C81.2513 29.7755 80.652 32.3556 80.2619 34.9718C80.0711 34.8961 79.8832 34.8146 79.6982 34.7243C77.998 33.8933 76.6278 32.5061 75.8116 30.7893C74.9954 29.0725 74.7813 27.1276 75.2045 25.2725C75.6276 23.4173 76.6629 21.7615 78.1412 20.5757C79.6195 19.3898 81.4534 18.744 83.3432 18.7437C84.0533 18.7425 84.7606 18.8335 85.4476 19.0144C85.6643 19.0697 85.8783 19.1338 86.0864 19.2095Z" fill="#5A5A5A"/>
<path d="M8.71117 116.444C9.28556 111.792 12.148 107.209 16.5529 105.695C14.8157 110.483 14.8161 115.736 16.5539 120.524C17.2308 122.368 18.1743 124.348 17.5376 126.207C17.1415 127.363 16.1724 128.248 15.0891 128.801C14.0058 129.354 12.8036 129.618 11.6164 129.876L11.3827 130.071C9.49808 125.785 8.13679 121.096 8.71117 116.444Z" fill="#E6E6E6"/>
<path d="M16.5966 105.783C14.0314 108.678 12.437 112.313 12.04 116.173C11.9399 117.002 11.9702 117.842 12.1298 118.662C12.3109 119.456 12.6997 120.186 13.2557 120.777C13.7632 121.338 14.3469 121.854 14.71 122.53C14.8907 122.879 14.9963 123.262 15.0196 123.655C15.0429 124.048 14.9836 124.441 14.8454 124.809C14.5248 125.735 13.893 126.49 13.2496 127.207C12.5352 128.002 11.7807 128.817 11.4771 129.872C11.4403 130 11.2456 129.935 11.2823 129.807C11.8106 127.972 13.5793 126.93 14.4228 125.277C14.8164 124.506 14.9816 123.61 14.6126 122.796C14.2899 122.084 13.6885 121.552 13.1698 120.988C12.6189 120.419 12.2147 119.724 11.9924 118.961C11.7918 118.152 11.7294 117.315 11.8079 116.485C11.9549 114.613 12.3931 112.776 13.1066 111.042C13.91 109.058 15.0444 107.227 16.4608 105.628C16.5486 105.529 16.6837 105.685 16.5966 105.783H16.5966Z" fill="white"/>
<path d="M12.0952 114.923C11.4614 114.768 10.9028 114.391 10.5194 113.859C10.136 113.328 9.95257 112.676 10.002 112.021C10.0124 111.889 10.2174 111.899 10.2069 112.032C10.1598 112.641 10.3307 113.248 10.6887 113.742C11.0468 114.237 11.5685 114.586 12.1596 114.726C12.288 114.757 12.2229 114.953 12.0952 114.923H12.0952Z" fill="white"/>
<path d="M12.9612 120.527C14.106 119.838 14.9512 118.74 15.3281 117.452C15.3653 117.324 15.5601 117.389 15.5229 117.517C15.1282 118.857 14.2464 119.997 13.0534 120.711C12.9397 120.779 12.848 120.594 12.9612 120.527Z" fill="white"/>
<path d="M14.1003 109.254C14.3331 109.365 14.5898 109.417 14.8473 109.404C15.1048 109.39 15.3549 109.313 15.5754 109.178C15.6882 109.109 15.7798 109.294 15.6677 109.363C15.4234 109.511 15.147 109.596 14.8625 109.611C14.5781 109.626 14.2943 109.571 14.0359 109.45C14.0106 109.441 13.9898 109.422 13.9777 109.398C13.9656 109.374 13.9631 109.346 13.9707 109.32C13.9793 109.294 13.9978 109.272 14.0221 109.26C14.0463 109.248 14.0744 109.245 14.1003 109.254H14.1003Z" fill="white"/>
<path d="M29.9796 114.004C29.9103 114.049 29.8411 114.095 29.7718 114.142C28.8441 114.756 27.9675 115.445 27.1507 116.203C27.0866 116.26 27.0225 116.32 26.9602 116.379C25.0116 118.225 23.4201 120.419 22.2667 122.85C21.8087 123.818 21.4244 124.819 21.1172 125.846C20.693 127.264 20.345 128.835 19.5053 129.994C19.4191 130.116 19.3254 130.233 19.2248 130.343H11.6366C11.6194 130.334 11.602 130.327 11.5847 130.319L11.2817 130.333C11.2939 130.278 11.3077 130.223 11.3199 130.169C11.3268 130.137 11.3354 130.106 11.3423 130.074C11.3475 130.054 11.3528 130.033 11.3562 130.013C11.3579 130.006 11.3597 129.999 11.3614 129.994C11.3648 129.975 11.3701 129.958 11.3735 129.94C11.4497 129.628 11.5282 129.316 11.609 129.004C11.609 129.002 11.609 129.002 11.6107 129C12.2037 126.616 13.0754 124.311 14.2076 122.133C14.2422 122.069 14.2768 122.003 14.315 121.938C14.8392 120.974 15.4408 120.055 16.1138 119.19C16.4838 118.717 16.8773 118.264 17.2928 117.831C18.3685 116.716 19.6118 115.778 20.9769 115.052C23.6985 113.605 26.8494 113.05 29.758 113.934C29.8324 113.957 29.9052 113.979 29.9796 114.004Z" fill="#E6E6E6"/>
<path d="M29.9625 114.101C26.1838 114.857 22.7377 116.793 20.1136 119.633C19.5379 120.235 19.06 120.924 18.6973 121.675C18.3676 122.419 18.2415 123.238 18.3321 124.047C18.4016 124.803 18.5597 125.568 18.4455 126.328C18.3813 126.716 18.2364 127.087 18.0202 127.414C17.804 127.742 17.5215 128.02 17.1912 128.23C16.3816 128.775 15.4259 128.995 14.4838 129.177C13.4379 129.379 12.3483 129.572 11.4753 130.23C11.3695 130.31 11.2529 130.14 11.3585 130.06C12.8773 128.915 14.9126 129.156 16.5741 128.347C17.3494 127.97 18.0165 127.356 18.2086 126.482C18.3765 125.718 18.2143 124.928 18.1373 124.163C18.0374 123.375 18.1305 122.575 18.4086 121.831C18.7321 121.064 19.1829 120.357 19.7417 119.742C20.9779 118.337 22.4257 117.136 24.0322 116.184C25.8597 115.087 27.8601 114.312 29.9467 113.895C30.0759 113.869 30.0908 114.075 29.9625 114.101H29.9625Z" fill="white"/>
<path d="M20.9051 118.669C20.4917 118.161 20.271 117.521 20.2825 116.864C20.2941 116.208 20.5371 115.576 20.9681 115.083C21.0557 114.984 21.2133 115.116 21.1256 115.216C20.7234 115.674 20.4971 116.262 20.4876 116.874C20.478 117.486 20.6859 118.081 21.0737 118.551C21.1579 118.654 20.9888 118.771 20.9051 118.669Z" fill="white"/>
<path d="M18.2468 123.669C19.5725 123.813 20.9035 123.449 21.9745 122.649C22.0805 122.57 22.1972 122.74 22.0913 122.819C20.9753 123.649 19.5893 124.025 18.2102 123.872C18.0787 123.857 18.1161 123.654 18.2468 123.669Z" fill="white"/>
<path d="M25.8947 115.359C26.014 115.589 26.1882 115.786 26.4017 115.931C26.6151 116.077 26.8611 116.167 27.1176 116.193C27.2492 116.206 27.2117 116.409 27.081 116.396C26.7977 116.366 26.5261 116.266 26.29 116.106C26.0538 115.946 25.8602 115.729 25.7261 115.476C25.7115 115.454 25.706 115.426 25.7108 115.399C25.7156 115.373 25.7304 115.349 25.752 115.333C25.7744 115.317 25.802 115.311 25.8287 115.316C25.8554 115.321 25.8791 115.336 25.8947 115.359Z" fill="white"/>
<path d="M88.7727 119.311C85.6195 115.863 83.9971 110.7 85.6971 106.336C88.2019 110.766 92.1817 114.161 96.9323 115.92C98.7668 116.592 100.877 117.146 101.873 118.837C102.493 119.889 102.537 121.205 102.256 122.396C101.975 123.586 101.398 124.68 100.826 125.76L100.823 126.065C96.3574 124.743 91.9258 122.759 88.7727 119.311Z" fill="#E6E6E6"/>
<path d="M85.792 106.359C86.3273 110.202 88.051 113.777 90.7184 116.577C91.282 117.19 91.938 117.709 92.6623 118.116C93.3805 118.49 94.1851 118.663 94.9922 118.618C95.7457 118.591 96.5133 118.475 97.2602 118.633C97.6413 118.72 97.9999 118.887 98.3126 119.122C98.6253 119.358 98.8849 119.658 99.0744 120.002C99.5688 120.847 99.7323 121.821 99.8594 122.778C100 123.842 100.13 124.948 100.733 125.863C100.806 125.974 100.631 126.082 100.558 125.971C99.5093 124.379 99.8627 122.346 99.1556 120.63C98.8257 119.829 98.2541 119.123 97.3988 118.88C96.6509 118.668 95.8593 118.787 95.0966 118.821C94.3098 118.876 93.5214 118.737 92.8003 118.416C92.0578 118.047 91.383 117.554 90.8048 116.957C89.4819 115.634 88.3736 114.11 87.5207 112.441C86.5367 110.541 85.8827 108.485 85.5869 106.363C85.5686 106.232 85.7739 106.229 85.792 106.359V106.359Z" fill="white"/>
<path d="M89.8068 115.726C89.2797 116.113 88.6332 116.299 87.9827 116.25C87.3322 116.201 86.7201 115.921 86.2558 115.46C86.1621 115.366 86.3023 115.215 86.396 115.309C86.8277 115.739 87.3978 116 88.0037 116.044C88.6095 116.089 89.211 115.913 89.6997 115.55C89.806 115.471 89.9125 115.648 89.8068 115.726Z" fill="white"/>
<path d="M94.612 118.682C94.8303 117.358 94.5448 115.998 93.8125 114.876C93.7398 114.765 93.9149 114.657 93.9874 114.768C94.7474 115.938 95.0416 117.353 94.8114 118.731C94.7894 118.862 94.5901 118.813 94.612 118.682Z" fill="white"/>
<path d="M86.8081 110.521C87.043 110.414 87.2479 110.25 87.4043 110.044C87.5608 109.837 87.6638 109.595 87.7043 109.339C87.7247 109.207 87.924 109.256 87.9038 109.387C87.8577 109.67 87.7435 109.938 87.5712 110.166C87.3989 110.395 87.1736 110.577 86.9151 110.697C86.8917 110.711 86.8641 110.715 86.8379 110.708C86.8117 110.702 86.7889 110.686 86.7741 110.663C86.7601 110.64 86.7557 110.612 86.7621 110.585C86.7684 110.559 86.785 110.536 86.8081 110.521Z" fill="white"/>
<path d="M100.67 101.387C100.66 101.47 100.649 101.552 100.64 101.636C100.506 102.746 100.462 103.865 100.508 104.983C100.51 105.069 100.513 105.157 100.518 105.243C100.657 107.934 101.291 110.575 102.387 113.033C102.824 114.01 103.334 114.953 103.914 115.852C104.713 117.095 105.679 118.377 106.015 119.772C106.051 119.917 106.079 120.065 106.098 120.213L101.193 126.045C101.175 126.053 101.159 126.062 101.141 126.069L100.956 126.311C100.923 126.267 100.889 126.22 100.856 126.176C100.837 126.15 100.819 126.124 100.799 126.098C100.787 126.08 100.774 126.063 100.762 126.048C100.758 126.042 100.754 126.036 100.751 126.031C100.739 126.016 100.729 126.001 100.718 125.987C100.531 125.727 100.345 125.465 100.161 125.201C100.159 125.2 100.159 125.2 100.159 125.197C98.7359 123.201 97.553 121.041 96.6351 118.763C96.6086 118.695 96.5808 118.626 96.5566 118.555C96.1652 117.529 95.8577 116.472 95.6372 115.396C95.5183 114.806 95.4292 114.211 95.3701 113.612C95.2204 112.064 95.3133 110.502 95.6454 108.984C96.308 105.957 97.9244 103.176 100.474 101.512C100.539 101.47 100.604 101.429 100.67 101.387Z" fill="#E6E6E6"/>
<path d="M100.733 101.463C98.863 104.856 98.1023 108.756 98.5585 112.609C98.6421 113.44 98.8553 114.253 99.1902 115.017C99.5403 115.751 100.079 116.377 100.751 116.83C101.368 117.266 102.05 117.639 102.552 118.218C102.805 118.518 102.992 118.869 103.1 119.247C103.209 119.625 103.237 120.021 103.183 120.411C103.072 121.386 102.621 122.262 102.15 123.104C101.627 124.038 101.069 125 101.003 126.097C100.995 126.23 100.791 126.209 100.799 126.077C100.914 124.169 102.411 122.76 102.873 120.961C103.088 120.122 103.053 119.211 102.516 118.499C102.045 117.876 101.342 117.491 100.713 117.055C100.051 116.623 99.505 116.034 99.1215 115.34C98.7491 114.595 98.5052 113.792 98.4003 112.965C98.1347 111.106 98.1608 109.217 98.4776 107.367C98.8277 105.254 99.5341 103.216 100.566 101.342C100.63 101.226 100.796 101.348 100.733 101.463H100.733Z" fill="white"/>
<path d="M98.3391 111.376C97.6869 111.366 97.0597 111.122 96.5695 110.689C96.0793 110.255 95.7581 109.66 95.6631 109.01C95.6443 108.879 95.8465 108.843 95.8653 108.975C95.9526 109.58 96.2519 110.134 96.7092 110.537C97.1665 110.94 97.7516 111.165 98.359 111.171C98.491 111.172 98.4703 111.378 98.3391 111.376Z" fill="white"/>
<path d="M100.409 116.651C101.375 115.726 101.959 114.467 102.045 113.127C102.054 112.994 102.258 113.015 102.25 113.147C102.157 114.542 101.547 115.85 100.539 116.811C100.443 116.902 100.313 116.742 100.409 116.651Z" fill="white"/>
<path d="M99.0561 105.402C99.3076 105.459 99.5692 105.453 99.8175 105.383C100.066 105.313 100.293 105.182 100.479 105.002C100.573 104.909 100.703 105.069 100.609 105.161C100.403 105.359 100.152 105.504 99.8777 105.581C99.6036 105.659 99.3147 105.668 99.0362 105.608C99.0095 105.604 98.9851 105.591 98.968 105.57C98.9509 105.549 98.9423 105.522 98.9441 105.495C98.9468 105.468 98.9602 105.443 98.9811 105.425C99.0021 105.408 99.0291 105.4 99.0561 105.402Z" fill="white"/>
<path d="M58.0216 112.091C60.8139 112.091 63.0776 109.811 63.0776 106.999C63.0776 104.186 60.8139 101.906 58.0216 101.906C55.2292 101.906 52.9655 104.186 52.9655 106.999C52.9655 109.811 55.2292 112.091 58.0216 112.091Z" fill="#F2F2F2"/>
<path d="M54.2639 63.0098C55.3026 63.0098 56.1446 62.1617 56.1446 61.1155C56.1446 60.0693 55.3026 59.2212 54.2639 59.2212C53.2252 59.2212 52.3831 60.0693 52.3831 61.1155C52.3831 62.1617 53.2252 63.0098 54.2639 63.0098Z" fill="#212121"/>
<path d="M28.4 84.1524C29.4388 84.1524 30.2808 83.3043 30.2808 82.2581C30.2808 81.2119 29.4388 80.3638 28.4 80.3638C27.3613 80.3638 26.5193 81.2119 26.5193 82.2581C26.5193 83.3043 27.3613 84.1524 28.4 84.1524Z" fill="#F0F0F0"/>
<path d="M139.697 0H0.777541C0.571493 0.000560942 0.374044 0.0832561 0.228347 0.230007C0.0826501 0.376758 0.000552356 0.575632 2.59938e-08 0.783166V5.3919C-5.32415e-05 5.59989 0.0817638 5.79942 0.227509 5.94677C0.373255 6.09411 0.571042 6.17726 0.777541 6.17798H139.697C139.904 6.17726 140.102 6.09411 140.247 5.94677C140.393 5.79942 140.475 5.5999 140.475 5.3919V0.783166C140.474 0.57563 140.392 0.376753 140.247 0.230003C140.101 0.083252 139.903 0.000560157 139.697 0Z" fill="#212121"/>
<path d="M4.51643 3.97592C5.12657 3.97592 5.62118 3.47774 5.62118 2.8632C5.62118 2.24867 5.12657 1.75049 4.51643 1.75049C3.90629 1.75049 3.41168 2.24867 3.41168 2.8632C3.41168 3.47774 3.90629 3.97592 4.51643 3.97592Z" fill="white"/>
<path d="M8.70973 3.97592C9.31987 3.97592 9.81448 3.47774 9.81448 2.8632C9.81448 2.24867 9.31987 1.75049 8.70973 1.75049C8.09959 1.75049 7.60498 2.24867 7.60498 2.8632C7.60498 3.47774 8.09959 3.97592 8.70973 3.97592Z" fill="white"/>
<path d="M12.9031 3.97592C13.5133 3.97592 14.0079 3.47774 14.0079 2.8632C14.0079 2.24867 13.5133 1.75049 12.9031 1.75049C12.293 1.75049 11.7984 2.24867 11.7984 2.8632C11.7984 3.47774 12.293 3.97592 12.9031 3.97592Z" fill="white"/>
<path d="M135.59 1.37695H130.76C130.665 1.37695 130.574 1.41484 130.507 1.48227C130.44 1.5497 130.403 1.64115 130.403 1.73651C130.403 1.83187 130.44 1.92333 130.507 1.99076C130.574 2.05819 130.665 2.09607 130.76 2.09607H135.59C135.685 2.09607 135.775 2.05819 135.842 1.99076C135.909 1.92333 135.947 1.83187 135.947 1.73651C135.947 1.64115 135.909 1.5497 135.842 1.48227C135.775 1.41484 135.685 1.37695 135.59 1.37695Z" fill="white"/>
<path d="M135.59 2.72803H130.76C130.665 2.72803 130.574 2.76591 130.507 2.83334C130.44 2.90077 130.403 2.99222 130.403 3.08758C130.403 3.18295 130.44 3.2744 130.507 3.34183C130.574 3.40926 130.665 3.44714 130.76 3.44714H135.59C135.685 3.44714 135.775 3.40926 135.842 3.34183C135.909 3.2744 135.947 3.18295 135.947 3.08758C135.947 2.99222 135.909 2.90077 135.842 2.83334C135.775 2.76591 135.685 2.72803 135.59 2.72803Z" fill="white"/>
<path d="M135.59 4.0791H130.76C130.665 4.0791 130.574 4.11713 130.506 4.18484C130.439 4.25254 130.401 4.34437 130.401 4.44011C130.401 4.53586 130.439 4.62768 130.506 4.69539C130.574 4.76309 130.665 4.80113 130.76 4.80113H135.59C135.685 4.80113 135.776 4.76309 135.843 4.69539C135.911 4.62768 135.948 4.53586 135.948 4.44011C135.948 4.34437 135.911 4.25254 135.843 4.18484C135.776 4.11713 135.685 4.0791 135.59 4.0791Z" fill="white"/>
<path d="M5.19546 40.1855C4.79427 40.1868 4.46966 40.7116 4.47046 41.3576C4.47126 42.0018 4.79539 42.5238 5.19546 42.5251H59.6777C60.079 42.5238 60.4035 41.999 60.4027 41.353C60.402 40.7088 60.0778 40.1868 59.6777 40.1855H5.19546Z" fill="#E6E6E6"/>
<path d="M5.19546 46.9639C4.79427 46.9651 4.46966 47.4899 4.47046 48.1359C4.47126 48.7802 4.79539 49.3021 5.19546 49.3034H59.6777C60.079 49.3021 60.4035 48.7773 60.4027 48.1313C60.402 47.4871 60.0778 46.9651 59.6777 46.9639H5.19546Z" fill="#E6E6E6"/>
<path d="M5.19546 53.6602C4.79427 53.6614 4.46966 54.1862 4.47046 54.8322C4.47126 55.4765 4.79539 55.9984 5.19546 55.9997H40.1665C40.5677 55.9984 40.8923 55.4736 40.8915 54.8276C40.8907 54.1834 40.5665 53.6614 40.1665 53.6602H5.19546Z" fill="#E6E6E6"/>
<path d="M1.27557 128.5C1.29392 128.458 1.31486 128.418 1.33387 128.376C1.36749 128.028 1.27557 128.5 1.27557 128.5Z" fill="#F2F2F2"/>
<path d="M11.1736 123.228C10.4836 123.227 9.79454 123.277 9.11182 123.378L9.0133 123.392C6.82853 123.745 4.84671 124.889 3.4401 126.609C2.03349 128.329 1.29887 130.508 1.37423 132.735L1.40034 133.573C1.41756 134.102 1.4359 134.672 1.45101 135.304C1.45282 135.451 1.51216 135.591 1.61614 135.694C1.72012 135.797 1.86032 135.855 2.00626 135.854H112.448C120.235 135.772 127.993 135.668 135.507 135.546C136.922 135.55 138.334 135.423 139.725 135.165C141.814 134.734 143.263 133.879 144.156 132.553H144.157C145.268 130.908 145.303 128.836 145.236 126.496C145.099 121.77 144.963 116.805 144.828 111.855C144.708 107.493 144.589 103.142 144.47 98.9772C144.396 96.5053 144.232 94.3235 142.97 92.656C141.602 90.8526 139.108 89.9385 135.555 89.9385C135.512 89.9385 135.47 89.9385 135.426 89.9388C124.293 90.0078 113.262 96.6847 107.977 106.553C107.368 107.69 106.801 108.906 106.252 110.083C105.472 111.849 104.587 113.566 103.604 115.226C103.092 116.069 102.506 116.865 101.855 117.604C101.812 117.656 101.763 117.711 101.711 117.764C101.592 117.899 101.468 118.029 101.347 118.145C100.68 118.826 99.9301 119.421 99.1161 119.914L99.0379 119.96C98.979 119.997 98.9153 120.033 98.8515 120.067C98.4087 120.315 97.9482 120.53 97.4737 120.709C95.459 121.484 93.1682 121.669 90.665 121.26C88.29 120.848 86.0012 120.035 83.8952 118.854C81.5773 117.577 79.4077 115.984 77.3095 114.443C76.3879 113.766 75.4346 113.066 74.4826 112.403C74.3036 112.279 74.1276 112.157 73.949 112.035C72.7862 111.244 71.7321 110.591 70.7263 110.039C68.3566 108.704 65.7453 107.86 63.0466 107.558C60.2777 107.294 57.8377 107.792 55.7959 109.037C55.2119 109.395 54.6627 109.807 54.1559 110.269C51.7376 112.46 50.2467 115.692 48.8051 118.819C47.0118 122.707 45.1573 126.729 41.4956 128.813C37.2703 131.221 31.1028 130.221 26.7393 128.481C25.3674 127.934 23.9972 127.305 22.672 126.696C22.1368 126.45 21.6016 126.205 21.0653 125.964C20.0121 125.489 19.1502 125.126 18.3527 124.819L18.1005 124.721C17.9602 124.668 17.8198 124.615 17.6768 124.564C16.7933 124.237 15.8927 123.959 14.979 123.73L14.7735 123.678C14.3616 123.583 13.9764 123.504 13.5984 123.438L13.4475 123.412C12.6958 123.288 11.9353 123.227 11.1736 123.228Z" fill="#E6E6E6"/>
<path d="M73.0618 123.365C71.2237 116.402 75.3055 109.616 80.075 104.918C82.6168 102.414 85.4476 100.238 88.208 97.9893C90.8569 95.8556 93.3794 93.5675 95.7626 91.1367C100.365 86.3925 104.379 80.9708 107.037 74.8763C109.565 69.0808 110.76 62.7676 110.168 56.444C109.607 50.4467 107.473 44.5472 103.546 39.9458C103.057 39.3725 102.543 38.8229 102.003 38.2971C101.713 38.0139 101.269 38.4599 101.559 38.7436C105.943 43.0314 108.495 48.8421 109.359 54.8873C110.249 61.1214 109.332 67.477 107.017 73.3054C104.552 79.5142 100.631 85.0546 96.0843 89.8893C93.7945 92.3086 91.3586 94.5833 88.7905 96.7003C86.048 98.9758 83.1982 101.126 80.5868 103.557C75.7738 108.039 71.448 114.204 72.0422 121.143C72.1115 121.95 72.2503 122.75 72.4572 123.533C72.4815 123.611 72.5351 123.677 72.6065 123.716C72.6779 123.755 72.7616 123.765 72.84 123.743C72.9184 123.721 72.9853 123.67 73.0267 123.599C73.0681 123.529 73.0806 123.445 73.0618 123.365Z" fill="#E6E6E6"/>
<path d="M92.3098 83.726C92.3485 83.798 92.358 83.8823 92.3362 83.9612C92.3144 84.0401 92.2631 84.1074 92.193 84.1489C92.1229 84.1904 92.0395 84.2029 91.9605 84.1838C91.8815 84.1646 91.8129 84.1153 91.7692 84.0462C91.0495 82.8031 90.3702 81.5385 89.7314 80.2527C89.3007 79.3793 88.8873 78.4942 88.5 77.6004C84.152 67.6727 82.29 56.8218 83.0773 46.0001C83.2914 43.0397 83.7155 40.0985 84.3463 37.199C84.4764 36.6109 84.6151 36.0228 84.7683 35.4405C84.9996 35.4026 85.225 35.3531 85.4476 35.2949C84.089 40.2559 83.5427 45.4877 83.5254 50.6059C83.5053 56.3956 84.245 62.1625 85.7251 67.757C87.1986 73.3535 89.4134 78.7247 92.3098 83.726Z" fill="#E6E6E6"/>
<path d="M133.483 66.6071C131.133 71.6991 127.184 75.8799 122.756 79.2105C117.735 82.9866 112.049 85.7116 106.416 88.4163C106.054 88.591 105.736 88.0466 106.101 87.8719C107.445 87.2256 108.789 86.5792 110.124 85.9213C115.466 83.2806 120.761 80.3751 125.233 76.3748C129.369 72.6744 132.74 68.0657 134.278 62.6592C135.882 57.0315 135.578 50.9467 133.853 45.3859C132.782 42.0091 131.246 38.8004 129.289 35.854C128.641 34.867 127.956 33.9073 127.233 32.9746C126.707 32.2963 126.164 31.6315 125.603 30.9803C123.77 28.8631 121.778 26.8921 119.643 25.0848C117.422 23.1551 114.964 21.521 112.33 20.2227C109.623 18.8967 106.664 18.1756 103.655 18.1091C100.812 18.0695 98.0117 18.8146 95.5587 20.2635C93.8815 21.2697 92.3748 22.5396 91.0957 24.025C91.0119 23.8125 90.9194 23.6029 90.8153 23.3991C93.0237 20.9389 95.7784 19.0058 98.984 18.0887C104.907 16.3942 111.159 18.3827 116.157 21.6726C118.595 23.3115 120.873 25.1814 122.958 27.2567C123.736 28.0165 124.493 28.7997 125.222 29.6062C126.1 30.5727 126.939 31.5733 127.739 32.6078C127.739 32.6078 127.745 32.6107 127.745 32.6136C128.014 32.9601 128.278 33.3114 128.537 33.6676C131.916 38.2967 134.439 43.61 135.445 49.2901C136.474 55.0983 135.966 61.2239 133.483 66.6071Z" fill="#E6E6E6"/>
<path d="M129.511 60.5048C127.164 65.5968 123.216 69.7776 118.784 73.1082C113.983 76.7154 108.575 79.3677 103.187 81.9559C102.941 82.0753 102.693 82.1917 102.447 82.3111C102.407 82.3315 102.364 82.3431 102.32 82.3451C102.275 82.3471 102.231 82.3395 102.19 82.3228C102.132 82.3061 102.081 82.2728 102.043 82.2269C102.005 82.1811 101.981 82.1248 101.974 82.0652C101.968 82.0056 101.979 81.9454 102.007 81.8923C102.034 81.8391 102.077 81.7954 102.129 81.7667C102.337 81.6648 102.548 81.5658 102.756 81.4668C103.115 81.2921 103.47 81.1203 103.829 80.9486C104.606 80.5759 105.382 80.1984 106.156 79.816C111.494 77.1783 116.793 74.2698 121.262 70.2696C125.401 66.5692 128.771 61.9605 130.309 56.554C131.91 50.9263 131.607 44.8444 129.881 39.2836C129.198 37.1013 128.311 34.9889 127.233 32.9746C126.618 31.8217 125.944 30.695 125.222 29.6061C124.127 27.9528 122.928 26.3725 121.632 24.8751C119.801 22.7582 117.809 20.788 115.674 18.9824C113.453 17.0524 110.994 15.4183 108.358 14.1204C105.653 12.7935 102.695 12.0714 99.6865 12.0038C96.8421 11.9643 94.0412 12.7093 91.5871 14.1583C89.4394 15.4583 87.5696 17.1753 86.0864 19.2095C84.3156 21.6525 82.9535 24.3707 82.0541 27.2566C81.2513 29.7755 80.652 32.3557 80.2619 34.9718C79.7918 38.1261 79.5551 41.3112 79.5537 44.5008C79.5351 50.2913 80.2747 56.059 81.7535 61.6548C83.2288 67.2506 85.4435 72.6216 88.3381 77.6238C88.346 77.6368 88.3528 77.6504 88.3584 77.6645C88.385 77.7379 88.3838 77.8186 88.3548 77.8911C88.3259 77.9636 88.2713 78.0228 88.2016 78.0571C88.1319 78.0915 88.0521 78.0986 87.9775 78.0772C87.9029 78.0558 87.8388 78.0073 87.7976 77.9411C87.0779 76.7009 86.3995 75.4363 85.7627 74.1476C80.5436 63.5347 78.2449 51.7066 79.1057 39.895C79.2329 38.1657 79.4304 36.4421 79.6983 34.7244C79.8862 33.5074 80.1126 32.2972 80.3776 31.0939C80.9906 28.1381 81.9665 25.2707 83.2826 22.5576C83.9025 21.3165 84.6268 20.1311 85.4476 19.0145C87.8439 15.7508 91.0928 13.1072 95.0153 11.9864C100.938 10.289 107.187 12.2775 112.188 15.5674C114.626 17.2078 116.903 19.0775 118.99 21.1514C121.021 23.129 122.886 25.2734 124.565 27.5623C125.74 29.1671 126.8 30.853 127.739 32.6078C127.739 32.6078 127.745 32.6107 127.745 32.6136C128.309 33.6704 128.826 34.7506 129.289 35.854C130.287 38.2074 131.02 40.6665 131.474 43.1849C132.506 48.996 131.997 55.1187 129.511 60.5048Z" fill="#E6E6E6"/>
<path d="M110.177 62.7007C112.942 62.6833 115.616 61.7004 117.742 59.9195C119.906 58.0864 121.33 55.5196 121.747 52.7024C121.991 51.1098 121.913 49.4837 121.515 47.9226C121.491 47.8445 121.437 47.7789 121.366 47.7397C121.295 47.7005 121.211 47.6908 121.133 47.7125C121.054 47.7343 120.987 47.7859 120.946 47.8564C120.905 47.9269 120.892 48.0108 120.911 48.0905C121.581 50.7411 121.278 53.5463 120.059 55.9904C119.123 57.8179 117.706 59.3513 115.963 60.4233C114.221 61.4952 112.219 62.0646 110.177 62.0693C110.096 62.0721 110.019 62.1066 109.963 62.1655C109.906 62.2244 109.875 62.3031 109.875 62.385C109.875 62.4669 109.906 62.5456 109.963 62.6045C110.019 62.6634 110.096 62.6979 110.177 62.7007Z" fill="#E6E6E6"/>
<path d="M86.6362 98.59L84.6183 95.0125C84.5749 94.9432 84.5064 94.8936 84.4274 94.8742C84.3484 94.8548 84.265 94.8671 84.1948 94.9084C84.1246 94.9498 84.073 95.017 84.051 95.0958C84.0291 95.1747 84.0384 95.2591 84.077 95.3312L86.0949 98.9087C86.1384 98.978 86.2068 99.0276 86.2858 99.047C86.3648 99.0664 86.4482 99.0541 86.5184 99.0128C86.5887 98.9715 86.6402 98.9043 86.6622 98.8254C86.6842 98.7465 86.6749 98.6621 86.6362 98.59Z" fill="#E6E6E6"/>
<path d="M74.855 25.6072C74.2511 25.1779 73.5905 24.7302 72.8517 24.7481C71.0633 24.7914 70.0991 27.4319 68.3127 27.339C67.1734 27.2798 66.4171 26.1141 65.3563 25.6914C63.9752 25.1412 62.2177 26.2174 62.067 27.7055L62.2444 27.542C67.6128 28.8602 73.1839 29.1194 78.6501 28.3054C77.3851 27.406 76.12 26.5066 74.855 25.6072Z" fill="#E6E6E6"/>
<path d="M67.4647 133.019C68.4619 133.019 69.2703 132.204 69.2703 131.2C69.2703 130.196 68.4619 129.381 67.4647 129.381C66.4675 129.381 65.6591 130.196 65.6591 131.2C65.6591 132.204 66.4675 133.019 67.4647 133.019Z" fill="white"/>
<path d="M72.701 133.019C73.6983 133.019 74.5067 132.204 74.5067 131.2C74.5067 130.196 73.6983 129.381 72.701 129.381C71.7038 129.381 70.8954 130.196 70.8954 131.2C70.8954 132.204 71.7038 133.019 72.701 133.019Z" fill="white"/>
<path d="M77.9374 133.019C78.9347 133.019 79.7431 132.204 79.7431 131.2C79.7431 130.196 78.9347 129.381 77.9374 129.381C76.9402 129.381 76.1318 130.196 76.1318 131.2C76.1318 132.204 76.9402 133.019 77.9374 133.019Z" fill="white"/>
<path d="M72.7176 132.655C73.5154 132.655 74.1621 132.004 74.1621 131.2C74.1621 130.397 73.5154 129.745 72.7176 129.745C71.9198 129.745 71.2731 130.397 71.2731 131.2C71.2731 132.004 71.9198 132.655 72.7176 132.655Z" fill="#3F3D56"/>
<path d="M157.513 131.839H155.534L154.592 124.149H157.513V131.839Z" fill="#6A6A6A"/>
<path d="M158.558 135.293H157.138L156.885 133.943L156.236 135.293H152.472C152.291 135.293 152.116 135.234 151.97 135.127C151.825 135.019 151.718 134.867 151.664 134.694C151.61 134.52 151.613 134.334 151.672 134.162C151.731 133.99 151.842 133.842 151.991 133.739L154.997 131.648V130.283L158.159 130.473L158.558 135.293Z" fill="#2F2E41"/>
<path d="M146.137 130.134L144.274 130.806L140.814 123.887L143.564 122.895L146.137 130.134Z" fill="#6A6A6A"/>
<path d="M148.531 132.088L147.305 132.808L146.411 131.771L146.526 133.266L143.274 135.177C143.118 135.268 142.937 135.307 142.758 135.288C142.578 135.269 142.41 135.192 142.277 135.07C142.143 134.947 142.053 134.785 142.018 134.606C141.982 134.428 142.005 134.243 142.081 134.079L143.632 130.747L142.949 129.568L145.776 128.127L148.531 132.088Z" fill="#2F2E41"/>
<path d="M157.888 127.14H157.864L157.443 113.322C157.715 112.793 157.854 112.205 157.845 111.609C157.837 111.013 157.683 110.429 157.396 109.908L157.336 109.798L157.492 109.069C157.693 108.132 157.601 107.156 157.229 106.274L156.836 93.3839C158.238 84.2312 151.666 77.0645 151.666 77.0645H141.149L139.397 85.6991L133.785 107.304C133.537 107.685 133.382 108.12 133.334 108.573C133.286 109.027 133.347 109.485 133.51 109.91L141.479 125.789L141.418 125.82C141.301 125.886 141.214 125.994 141.175 126.122C141.135 126.251 141.146 126.39 141.206 126.51C141.31 126.814 141.574 126.998 141.795 126.921L144.902 125.339C145.018 125.273 145.105 125.165 145.145 125.036C145.184 124.908 145.173 124.769 145.114 124.649C145.009 124.345 144.746 124.161 144.524 124.238L144.165 124.421L141.76 112.484L141.675 110.049L141.851 107.286L147.021 95.4562L150.088 110.739L154.609 127.294C154.522 127.373 154.461 127.476 154.435 127.591C154.408 127.705 154.416 127.825 154.458 127.934C154.5 128.044 154.574 128.138 154.67 128.204C154.767 128.27 154.881 128.305 154.997 128.305H157.888C158.041 128.305 158.188 128.244 158.296 128.134C158.405 128.025 158.466 127.877 158.466 127.723C158.466 127.568 158.405 127.42 158.296 127.311C158.188 127.202 158.041 127.14 157.888 127.14Z" fill="#2F2E41"/>
<path d="M152.841 70.9507L152.56 74.1066C152.56 74.1066 152.439 76.7269 152.055 77.3063C151.673 77.8827 141.261 77.9555 141.261 77.9555C141.261 77.9555 140.573 74.2202 139.981 70.9507H152.841Z" fill="#6A6A6A"/>
<path d="M147.627 51.2869C150.582 51.2869 152.977 48.8745 152.977 45.8986C152.977 42.9227 150.582 40.5103 147.627 40.5103C144.672 40.5103 142.277 42.9227 142.277 45.8986C142.277 48.8745 144.672 51.2869 147.627 51.2869Z" fill="#6A6A6A"/>
<path d="M150.372 52.3179L146.079 52.8267C145.897 52.8481 145.728 52.9259 145.592 53.0492C145.457 53.1726 145.364 53.3353 145.325 53.5147L144.642 56.6618L140.386 61.7106C140.386 61.7106 138.857 64.5972 139.43 67.8687C140.003 71.1402 140.255 73.5711 140.255 73.5711C140.255 73.5711 151.674 77.8831 152.056 77.3058C152.438 76.7285 152.562 74.1061 152.562 74.1061L154.09 56.9789C154.09 56.9789 152.371 54.0923 151.415 54.0923C150.799 54.0714 150.878 52.6737 150.372 52.3179Z" fill="#212121"/>
<path opacity="0.2" d="M148.476 63.3838L146.566 77.6243L144.562 77.7294L148.476 63.3838Z" fill="black"/>
<path d="M140.139 74.6242C140.741 74.6242 141.229 74.0342 141.229 73.3065C141.229 72.5787 140.741 71.9888 140.139 71.9888C139.537 71.9888 139.049 72.5787 139.049 73.3065C139.049 74.0342 139.537 74.6242 140.139 74.6242Z" fill="#212121"/>
<path d="M147.609 90.9036C147.836 90.6759 148.011 90.4008 148.121 90.0976C148.231 89.7945 148.274 89.4706 148.247 89.149C148.219 88.8273 148.122 88.5156 147.962 88.2358C147.802 87.9561 147.583 87.715 147.321 87.5297L150.9 70.083L147.038 71.31L144.159 88.1883C143.879 88.653 143.778 89.2051 143.875 89.7397C143.973 90.2744 144.261 90.7546 144.686 91.0893C145.112 91.424 145.644 91.59 146.183 91.5557C146.721 91.5215 147.229 91.2895 147.609 90.9036Z" fill="#6A6A6A"/>
<path d="M150.455 54.5612C150.455 54.5612 153.028 53.4393 154.591 56.2637C156.153 59.0881 153.898 68.9045 153.582 70.4976C153.266 72.0908 148.927 79.6849 148.927 79.6849L144.591 78.8115L150.455 54.5612Z" fill="#212121"/>
<path d="M145.194 40.7476C147.049 39.4626 148.682 39.2668 150.024 39.6313C150.198 39.3603 150.442 39.1421 150.73 39.0002C151.776 36.3442 154.961 34.7491 157.694 35.5245C160.445 36.3049 162.343 39.3741 161.826 42.205C161.505 43.9598 160.408 45.4793 159.967 47.2074C159.114 50.5526 161.196 54.3846 164.454 55.463C161.37 56.0868 157.974 54.1891 156.868 51.2227C156.33 49.7818 156.298 48.2087 156.229 46.6711C156.161 45.1334 156.038 43.5496 155.346 42.1772C154.882 41.2358 154.112 40.4832 153.164 40.0448C153.249 40.3093 153.27 40.5903 153.226 40.8647C153.182 41.1391 153.073 41.399 152.91 41.6229C153.633 42.5356 154.027 43.5227 154.027 44.1138C155.53 46.8802 153.381 49.2564 150.634 50.77C149.539 51.3768 148.274 51.599 147.039 51.4013L146.924 50.9072L146.768 51.3522L146.249 52.8442C145.649 53.1364 145.055 53.4566 144.466 53.8049C144.689 52.7462 144.87 51.6895 144.995 50.6562C145.168 49.25 144.566 47.1564 144.132 45.8832C143.864 45.0986 143.725 44.2744 143.724 43.4443V43.408L143.302 44.7745L141.764 44.1138C142.05 42.4611 141.764 40.5848 145.194 40.7476Z" fill="#2F2E41"/>
<path d="M177 135.654C177 135.745 176.963 135.833 176.899 135.898C176.835 135.963 176.747 136 176.656 136H111.535C111.444 136 111.356 135.964 111.292 135.899C111.227 135.834 111.191 135.745 111.191 135.654C111.191 135.562 111.227 135.474 111.292 135.409C111.356 135.344 111.444 135.307 111.535 135.307H176.656C176.701 135.307 176.746 135.316 176.788 135.333C176.83 135.351 176.868 135.376 176.9 135.408C176.932 135.44 176.957 135.479 176.974 135.521C176.991 135.563 177 135.608 177 135.654Z" fill="#CCCCCC"/>
</g>
<defs>
<clipPath id="clip0_64_445">
<rect width="177" height="136" fill="white"/>
</clipPath>
</defs>
</svg>
