<svg width="144" height="144" viewBox="0 0 144 144" fill="none" xmlns="http://www.w3.org/2000/svg">
<g clip-path="url(#clip0_34_299)">
<path d="M144 72C144.025 88.9958 138.013 105.448 127.036 118.424C126.638 118.897 126.232 119.363 125.818 119.826C120.951 125.3 115.282 130.003 109.004 133.775C107.564 134.64 106.092 135.455 104.589 136.22C104.437 136.297 104.283 136.374 104.131 136.449C103.949 136.541 103.765 136.631 103.58 136.72C99.7767 138.582 95.8147 140.101 91.7414 141.26C91.3179 141.379 90.8935 141.495 90.4683 141.608C85.1101 143.026 79.6058 143.819 74.0653 143.973C73.7763 143.98 73.4923 143.985 73.2182 143.99C73.1211 143.993 73.0264 143.995 72.9317 143.995C72.6203 143.997 72.3114 144 72 144C66.1612 144.004 60.3437 143.299 54.6751 141.9C54.1071 141.76 53.5415 141.613 52.9785 141.459C50.0127 140.649 47.1025 139.648 44.2662 138.462C42.7714 137.839 41.3032 137.167 39.8615 136.446C39.5352 136.282 39.2088 136.117 38.8874 135.948C38.7504 135.881 38.6159 135.808 38.4813 135.739C30.7976 131.683 23.907 126.277 18.1395 119.779C17.7409 119.333 17.3497 118.88 16.9636 118.424C10.6088 110.889 5.86856 102.13 3.03643 92.6895C0.204301 83.2486 -0.659413 73.3267 0.498784 63.5385C1.65698 53.7502 4.81243 44.3039 9.76969 35.7847C14.7269 27.2655 21.3805 19.8547 29.3182 14.0113C29.7267 13.7099 30.1378 13.4109 30.5539 13.1194C30.6361 13.0621 30.7183 13.0048 30.8005 12.9475C38.1109 7.82682 46.3162 4.12135 54.9915 2.02297C55.4848 1.9009 55.9781 1.7863 56.4764 1.67917C65.873 -0.376272 75.5842 -0.546482 85.0471 1.1784C85.5429 1.27058 86.0387 1.36526 86.532 1.4674C95.1298 3.23091 103.33 6.56077 110.723 11.2908C110.887 11.3954 111.052 11.5001 111.216 11.6097C111.548 11.8239 111.879 12.0432 112.205 12.2649C121.999 18.8491 130.022 27.7421 135.567 38.1595C141.112 48.577 144.008 60.1988 144 72Z" fill="#F2F2F2"/>
<path d="M53.8131 109.248L30.8005 111.291L30.5539 111.314V13.1195C30.6361 13.0622 30.7183 13.0049 30.8005 12.9476C35.5966 9.59292 40.7847 6.83698 46.2494 4.74109L47.4253 20.9598L47.5324 22.4446L48.6959 38.5288L49.0547 43.4766L53.7708 108.675L53.8131 109.248Z" fill="#CCCCCC"/>
<path d="M110.723 11.2908C110.887 11.3954 111.052 11.5001 111.216 11.6097V111.314L110.723 111.269L87.9596 109.248L88.0019 108.675L92.7181 43.4766L93.0768 38.5287L94.2403 22.4446L94.3474 20.9597L95.5806 3.95129C100.899 5.79473 105.981 8.25821 110.723 11.2908Z" fill="#CCCCCC"/>
<path d="M110.723 11.2908V112.674C110.723 114.619 109.383 116.201 107.733 116.201H33.7902C32.4249 116.201 31.2664 115.115 30.9152 113.633C30.8385 113.319 30.8 112.997 30.8006 112.674V12.9475C30.7183 13.0048 30.6361 13.0621 30.5539 13.1194C30.1379 13.4109 29.7268 13.7099 29.3182 14.0113V112.674C29.2961 114.152 29.848 115.581 30.8579 116.66C31.3874 117.215 32.0571 117.616 32.7961 117.821C33.1201 117.909 33.4544 117.953 33.7902 117.953H107.733C108.07 117.953 108.405 117.909 108.73 117.821C110.718 117.285 112.205 115.183 112.205 112.674V12.2649C111.879 12.0432 111.548 11.8239 111.216 11.6097C111.052 11.5 110.887 11.3954 110.723 11.2908Z" fill="#CCCCCC"/>
<path d="M111.465 20.9607H30.0594V22.4453H111.465V20.9607Z" fill="#CCCCCC"/>
<path d="M54.9916 2.023C55.4849 1.90093 55.9782 1.78633 56.4764 1.6792V41.9917H54.9916V2.023Z" fill="#CCCCCC"/>
<path d="M85.0472 1.17847C85.543 1.27065 86.0387 1.36532 86.532 1.46746V41.9918H85.0472V1.17847Z" fill="#CCCCCC"/>
<path d="M120.743 108.675H23.2543C21.4821 108.675 19.7826 109.379 18.5295 110.632C17.2764 111.885 16.5724 113.585 16.5724 115.357C16.5724 117.129 17.2764 118.829 18.5295 120.082C19.7826 121.335 21.4821 122.039 23.2543 122.039H120.743C121.692 122.039 122.63 121.837 123.495 121.445C124.359 121.054 125.13 120.482 125.756 119.769C126.039 119.447 126.291 119.098 126.508 118.728C126.676 118.444 126.822 118.147 126.944 117.841C127.351 116.827 127.503 115.729 127.387 114.643C127.271 113.557 126.89 112.516 126.278 111.611C125.666 110.706 124.841 109.965 123.876 109.454C122.911 108.942 121.836 108.674 120.743 108.675Z" fill="#CCCCCC"/>
<path d="M111.465 38.5284H30.5543V43.4771H111.465V38.5284Z" fill="#CCCCCC"/>
<path d="M70.2672 37.0438H71.7518C72.1093 37.0438 72.4632 37.1142 72.7934 37.251C73.1236 37.3878 73.4237 37.5883 73.6764 37.841C73.9291 38.0937 74.1296 38.3938 74.2664 38.724C74.4032 39.0542 74.4736 39.4082 74.4736 39.7656H67.5455C67.5455 39.0437 67.8322 38.3514 68.3427 37.841C68.8531 37.3306 69.5454 37.0438 70.2672 37.0438H70.2672Z" fill="#CCCCCC"/>
<path d="M127.036 118.424C124.872 120.988 122.531 123.398 120.031 125.636H23.9693C21.4689 123.398 19.1279 120.988 16.9636 118.424H127.036Z" fill="#3F3D56"/>
<path d="M80.0421 93.443H63.8682C63.7811 93.4421 63.6944 93.4556 63.6116 93.4829C63.436 93.5372 63.2825 93.6463 63.1735 93.7943C63.0646 93.9422 63.0059 94.1213 63.0062 94.3051V119.856H80.9066V94.3051C80.9065 94.1917 80.884 94.0794 80.8405 93.9747C80.797 93.87 80.7333 93.7749 80.653 93.6949C80.5727 93.6148 80.4774 93.5514 80.3726 93.5082C80.2678 93.4649 80.1555 93.4428 80.0421 93.443ZM73.9208 106.049C73.9214 106.464 73.7847 106.867 73.5322 107.195C73.2912 107.514 72.9561 107.749 72.5743 107.868C72.1925 107.986 71.7832 107.982 71.404 107.855C71.0249 107.729 70.695 107.486 70.4609 107.162C70.2268 106.838 70.1002 106.449 70.0991 106.049V103.085C70.1038 102.581 70.3071 102.099 70.665 101.745C71.0228 101.39 71.5062 101.191 72.01 101.191C72.5137 101.191 72.9971 101.39 73.3549 101.745C73.7128 102.099 73.9162 102.581 73.9208 103.085V106.049Z" fill="#2F2E41"/>
<path d="M62.9514 119.039V121.503C62.9514 121.631 63.002 121.753 63.0921 121.844C63.1822 121.935 63.3045 121.986 63.4322 121.986H80.4805C80.6082 121.985 80.7302 121.934 80.8202 121.844C80.9103 121.753 80.961 121.631 80.9614 121.503V119.039H62.9514Z" fill="#3F3D56"/>
<path d="M106.824 53.569H37.6891C37.0951 53.5697 36.5256 53.8059 36.1053 54.2257C35.6851 54.6455 35.4483 55.2147 35.4469 55.8087V102.462C35.4474 103.056 35.6838 103.626 36.1041 104.047C36.5245 104.467 37.0946 104.703 37.6891 104.704H106.824C107.419 104.703 107.989 104.467 108.409 104.047C108.829 103.626 109.066 103.056 109.066 102.462V55.8087C109.065 55.2147 108.828 54.6454 108.408 54.2257C107.988 53.8059 107.418 53.5697 106.824 53.569Z" fill="#3F3D56"/>
<path d="M106.246 55.1884H38.2646C37.9466 55.189 37.6418 55.3159 37.4172 55.541C37.1925 55.7661 37.0663 56.0711 37.0663 56.3892V101.886C37.0668 102.204 37.1933 102.508 37.4179 102.733C37.6425 102.958 37.947 103.084 38.2646 103.085H106.246C106.564 103.084 106.868 102.958 107.093 102.733C107.317 102.508 107.444 102.204 107.444 101.886V56.3892C107.444 56.0711 107.318 55.7661 107.094 55.541C106.869 55.3159 106.564 55.189 106.246 55.1884Z" fill="#272727"/>
<path d="M93.7345 121.947L93.1067 118.964C93.0807 118.843 93.0247 118.73 92.9437 118.635C92.8628 118.541 92.7595 118.468 92.6433 118.424C92.5592 118.391 92.4696 118.374 92.3792 118.374H53.1878C53.0975 118.374 53.0079 118.391 52.9237 118.424C52.8075 118.468 52.7043 118.541 52.6233 118.635C52.5424 118.73 52.4864 118.843 52.4604 118.964L51.8325 121.947C51.8098 122.055 51.8116 122.167 51.8376 122.274C51.8636 122.382 51.9133 122.482 51.9829 122.568C52.0526 122.654 52.1406 122.723 52.2404 122.771C52.3402 122.819 52.4494 122.843 52.56 122.844H93.0046C93.1156 122.844 93.2252 122.819 93.3253 122.772C93.4254 122.724 93.5134 122.654 93.5826 122.567C93.6524 122.481 93.7023 122.381 93.7285 122.274C93.7548 122.167 93.7569 122.055 93.7345 121.947Z" fill="#2F2E41"/>
<path d="M54.5991 118.911H53.5967C53.5296 118.911 53.4751 118.965 53.4751 119.033V119.537C53.4751 119.604 53.5296 119.658 53.5967 119.658H54.5991C54.6663 119.658 54.7208 119.604 54.7208 119.537V119.033C54.7208 118.965 54.6663 118.911 54.5991 118.911Z" fill="#3F3D56"/>
<path d="M57.0905 118.911H56.0881C56.0209 118.911 55.9664 118.965 55.9664 119.033V119.537C55.9664 119.604 56.0209 119.658 56.0881 119.658H57.0905C57.1577 119.658 57.2121 119.604 57.2121 119.537V119.033C57.2121 118.965 57.1577 118.911 57.0905 118.911Z" fill="#3F3D56"/>
<path d="M59.5818 118.911H58.5794C58.5122 118.911 58.4578 118.965 58.4578 119.033V119.537C58.4578 119.604 58.5122 119.658 58.5794 119.658H59.5818C59.649 119.658 59.7034 119.604 59.7034 119.537V119.033C59.7034 118.965 59.649 118.911 59.5818 118.911Z" fill="#3F3D56"/>
<path d="M62.0731 118.911H61.0707C61.0036 118.911 60.9491 118.965 60.9491 119.033V119.537C60.9491 119.604 61.0036 119.658 61.0707 119.658H62.0731C62.1403 119.658 62.1948 119.604 62.1948 119.537V119.033C62.1948 118.965 62.1403 118.911 62.0731 118.911Z" fill="#3F3D56"/>
<path d="M64.5645 118.911H63.5621C63.4949 118.911 63.4405 118.965 63.4405 119.033V119.537C63.4405 119.604 63.4949 119.658 63.5621 119.658H64.5645C64.6317 119.658 64.6862 119.604 64.6862 119.537V119.033C64.6862 118.965 64.6317 118.911 64.5645 118.911Z" fill="#3F3D56"/>
<path d="M67.0559 118.911H66.0534C65.9863 118.911 65.9318 118.965 65.9318 119.033V119.537C65.9318 119.604 65.9863 119.658 66.0534 119.658H67.0559C67.123 119.658 67.1775 119.604 67.1775 119.537V119.033C67.1775 118.965 67.123 118.911 67.0559 118.911Z" fill="#3F3D56"/>
<path d="M69.5472 118.911H68.5448C68.4776 118.911 68.4232 118.965 68.4232 119.033V119.537C68.4232 119.604 68.4776 119.658 68.5448 119.658H69.5472C69.6144 119.658 69.6688 119.604 69.6688 119.537V119.033C69.6688 118.965 69.6144 118.911 69.5472 118.911Z" fill="#3F3D56"/>
<path d="M72.0386 118.911H71.0362C70.969 118.911 70.9146 118.965 70.9146 119.033V119.537C70.9146 119.604 70.969 119.658 71.0362 119.658H72.0386C72.1058 119.658 72.1602 119.604 72.1602 119.537V119.033C72.1602 118.965 72.1058 118.911 72.0386 118.911Z" fill="#3F3D56"/>
<path d="M74.5299 118.911H73.5275C73.4603 118.911 73.4059 118.965 73.4059 119.033V119.537C73.4059 119.604 73.4603 119.658 73.5275 119.658H74.5299C74.5971 119.658 74.6516 119.604 74.6516 119.537V119.033C74.6516 118.965 74.5971 118.911 74.5299 118.911Z" fill="#3F3D56"/>
<path d="M77.0213 118.911H76.0188C75.9517 118.911 75.8972 118.965 75.8972 119.033V119.537C75.8972 119.604 75.9517 119.658 76.0188 119.658H77.0213C77.0884 119.658 77.1429 119.604 77.1429 119.537V119.033C77.1429 118.965 77.0884 118.911 77.0213 118.911Z" fill="#3F3D56"/>
<path d="M79.5126 118.911H78.5102C78.443 118.911 78.3885 118.965 78.3885 119.033V119.537C78.3885 119.604 78.443 119.658 78.5102 119.658H79.5126C79.5798 119.658 79.6342 119.604 79.6342 119.537V119.033C79.6342 118.965 79.5798 118.911 79.5126 118.911Z" fill="#3F3D56"/>
<path d="M82.004 118.911H81.0016C80.9344 118.911 80.8799 118.965 80.8799 119.033V119.537C80.8799 119.604 80.9344 119.658 81.0016 119.658H82.004C82.0712 119.658 82.1256 119.604 82.1256 119.537V119.033C82.1256 118.965 82.0712 118.911 82.004 118.911Z" fill="#3F3D56"/>
<path d="M84.4953 118.911H83.4929C83.4257 118.911 83.3713 118.965 83.3713 119.033V119.537C83.3713 119.604 83.4257 119.658 83.4929 119.658H84.4953C84.5625 119.658 84.617 119.604 84.617 119.537V119.033C84.617 118.965 84.5625 118.911 84.4953 118.911Z" fill="#3F3D56"/>
<path d="M86.9867 118.911H85.9842C85.9171 118.911 85.8626 118.965 85.8626 119.033V119.537C85.8626 119.604 85.9171 119.658 85.9842 119.658H86.9867C87.0538 119.658 87.1083 119.604 87.1083 119.537V119.033C87.1083 118.965 87.0538 118.911 86.9867 118.911Z" fill="#3F3D56"/>
<path d="M89.478 118.911H88.4756C88.4084 118.911 88.3539 118.965 88.3539 119.033V119.537C88.3539 119.604 88.4084 119.658 88.4756 119.658H89.478C89.5452 119.658 89.5996 119.604 89.5996 119.537V119.033C89.5996 118.965 89.5452 118.911 89.478 118.911Z" fill="#3F3D56"/>
<path d="M91.9694 118.911H90.967C90.8998 118.911 90.8453 118.965 90.8453 119.033V119.537C90.8453 119.604 90.8998 119.658 90.967 119.658H91.9694C92.0366 119.658 92.091 119.604 92.091 119.537V119.033C92.091 118.965 92.0366 118.911 91.9694 118.911Z" fill="#3F3D56"/>
<path d="M54.5697 120.157H53.5672C53.5001 120.157 53.4456 120.211 53.4456 120.278V120.783C53.4456 120.85 53.5001 120.904 53.5672 120.904H54.5697C54.6368 120.904 54.6913 120.85 54.6913 120.783V120.278C54.6913 120.211 54.6368 120.157 54.5697 120.157Z" fill="#3F3D56"/>
<path d="M57.0611 120.157H56.0586C55.9915 120.157 55.937 120.211 55.937 120.278V120.783C55.937 120.85 55.9915 120.904 56.0586 120.904H57.0611C57.1282 120.904 57.1827 120.85 57.1827 120.783V120.278C57.1827 120.211 57.1282 120.157 57.0611 120.157Z" fill="#3F3D56"/>
<path d="M59.5524 120.157H58.55C58.4828 120.157 58.4283 120.211 58.4283 120.278V120.783C58.4283 120.85 58.4828 120.904 58.55 120.904H59.5524C59.6196 120.904 59.674 120.85 59.674 120.783V120.278C59.674 120.211 59.6196 120.157 59.5524 120.157Z" fill="#3F3D56"/>
<path d="M62.0437 120.157H61.0413C60.9741 120.157 60.9197 120.211 60.9197 120.278V120.783C60.9197 120.85 60.9741 120.904 61.0413 120.904H62.0437C62.1109 120.904 62.1654 120.85 62.1654 120.783V120.278C62.1654 120.211 62.1109 120.157 62.0437 120.157Z" fill="#3F3D56"/>
<path d="M64.5351 120.157H63.5326C63.4655 120.157 63.411 120.211 63.411 120.278V120.783C63.411 120.85 63.4655 120.904 63.5326 120.904H64.5351C64.6022 120.904 64.6567 120.85 64.6567 120.783V120.278C64.6567 120.211 64.6022 120.157 64.5351 120.157Z" fill="#3F3D56"/>
<path d="M67.0265 120.157H66.024C65.9569 120.157 65.9024 120.211 65.9024 120.278V120.783C65.9024 120.85 65.9569 120.904 66.024 120.904H67.0265C67.0936 120.904 67.1481 120.85 67.1481 120.783V120.278C67.1481 120.211 67.0936 120.157 67.0265 120.157Z" fill="#3F3D56"/>
<path d="M69.5178 120.157H68.5154C68.4482 120.157 68.3937 120.211 68.3937 120.278V120.783C68.3937 120.85 68.4482 120.904 68.5154 120.904H69.5178C69.585 120.904 69.6394 120.85 69.6394 120.783V120.278C69.6394 120.211 69.585 120.157 69.5178 120.157Z" fill="#3F3D56"/>
<path d="M72.0091 120.157H71.0067C70.9395 120.157 70.8851 120.211 70.8851 120.278V120.783C70.8851 120.85 70.9395 120.904 71.0067 120.904H72.0091C72.0763 120.904 72.1307 120.85 72.1307 120.783V120.278C72.1307 120.211 72.0763 120.157 72.0091 120.157Z" fill="#3F3D56"/>
<path d="M74.5005 120.157H73.4981C73.4309 120.157 73.3765 120.211 73.3765 120.278V120.783C73.3765 120.85 73.4309 120.904 73.4981 120.904H74.5005C74.5677 120.904 74.6221 120.85 74.6221 120.783V120.278C74.6221 120.211 74.5677 120.157 74.5005 120.157Z" fill="#3F3D56"/>
<path d="M76.9918 120.157H75.9894C75.9223 120.157 75.8678 120.211 75.8678 120.278V120.783C75.8678 120.85 75.9223 120.904 75.9894 120.904H76.9918C77.059 120.904 77.1135 120.85 77.1135 120.783V120.278C77.1135 120.211 77.059 120.157 76.9918 120.157Z" fill="#3F3D56"/>
<path d="M79.4832 120.157H78.4808C78.4136 120.157 78.3591 120.211 78.3591 120.278V120.783C78.3591 120.85 78.4136 120.904 78.4808 120.904H79.4832C79.5504 120.904 79.6048 120.85 79.6048 120.783V120.278C79.6048 120.211 79.5504 120.157 79.4832 120.157Z" fill="#3F3D56"/>
<path d="M81.9745 120.157H80.9721C80.9049 120.157 80.8505 120.211 80.8505 120.278V120.783C80.8505 120.85 80.9049 120.904 80.9721 120.904H81.9745C82.0417 120.904 82.0961 120.85 82.0961 120.783V120.278C82.0961 120.211 82.0417 120.157 81.9745 120.157Z" fill="#3F3D56"/>
<path d="M84.4658 120.157H83.4634C83.3963 120.157 83.3418 120.211 83.3418 120.278V120.783C83.3418 120.85 83.3963 120.904 83.4634 120.904H84.4658C84.533 120.904 84.5875 120.85 84.5875 120.783V120.278C84.5875 120.211 84.533 120.157 84.4658 120.157Z" fill="#3F3D56"/>
<path d="M86.9572 120.157H85.9548C85.8876 120.157 85.8332 120.211 85.8332 120.278V120.783C85.8332 120.85 85.8876 120.904 85.9548 120.904H86.9572C87.0244 120.904 87.0789 120.85 87.0789 120.783V120.278C87.0789 120.211 87.0244 120.157 86.9572 120.157Z" fill="#3F3D56"/>
<path d="M89.4486 120.157H88.4461C88.379 120.157 88.3245 120.211 88.3245 120.278V120.783C88.3245 120.85 88.379 120.904 88.4461 120.904H89.4486C89.5157 120.904 89.5702 120.85 89.5702 120.783V120.278C89.5702 120.211 89.5157 120.157 89.4486 120.157Z" fill="#3F3D56"/>
<path d="M91.9399 120.157H90.9375C90.8703 120.157 90.8159 120.211 90.8159 120.278V120.783C90.8159 120.85 90.8703 120.904 90.9375 120.904H91.9399C92.0071 120.904 92.0615 120.85 92.0615 120.783V120.278C92.0615 120.211 92.0071 120.157 91.9399 120.157Z" fill="#3F3D56"/>
<path d="M75.2479 121.651H65.5257C65.4586 121.651 65.4041 121.706 65.4041 121.773V122.277C65.4041 122.344 65.4586 122.399 65.5257 122.399H75.2479C75.3151 122.399 75.3695 122.344 75.3695 122.277V121.773C75.3695 121.706 75.3151 121.651 75.2479 121.651Z" fill="#3F3D56"/>
<path d="M102.83 61.4557H39.22C39.1539 61.4543 39.0909 61.427 39.0447 61.3797C38.9984 61.3324 38.9725 61.2689 38.9725 61.2028C38.9725 61.1366 38.9984 61.0731 39.0447 61.0259C39.0909 60.9786 39.1539 60.9513 39.22 60.9498H102.83C102.896 60.9513 102.959 60.9786 103.005 61.0259C103.052 61.0731 103.077 61.1366 103.077 61.2028C103.077 61.2689 103.052 61.3324 103.005 61.3797C102.959 61.427 102.896 61.4543 102.83 61.4557Z" fill="#3F3D56"/>
<path d="M43.55 59.6583C44.3688 59.6583 45.0325 58.9798 45.0325 58.1428C45.0325 57.3058 44.3688 56.6273 43.55 56.6273C42.7313 56.6273 42.0676 57.3058 42.0676 58.1428C42.0676 58.9798 42.7313 59.6583 43.55 59.6583Z" fill="#3F3D56"/>
<path d="M48.6712 59.6583C49.49 59.6583 50.1537 58.9798 50.1537 58.1428C50.1537 57.3058 49.49 56.6273 48.6712 56.6273C47.8525 56.6273 47.1888 57.3058 47.1888 58.1428C47.1888 58.9798 47.8525 59.6583 48.6712 59.6583Z" fill="#3F3D56"/>
<path d="M53.7925 59.6583C54.6112 59.6583 55.2749 58.9798 55.2749 58.1428C55.2749 57.3058 54.6112 56.6273 53.7925 56.6273C52.9737 56.6273 52.31 57.3058 52.31 58.1428C52.31 58.9798 52.9737 59.6583 53.7925 59.6583Z" fill="#3F3D56"/>
<path d="M99.7462 57.0021H96.1088C96.0369 57.0038 95.9685 57.0335 95.9182 57.0849C95.868 57.1364 95.8398 57.2055 95.8398 57.2774C95.8398 57.3493 95.868 57.4184 95.9182 57.4698C95.9685 57.5212 96.0369 57.551 96.1088 57.5527H99.7462C99.8185 57.5516 99.8875 57.5222 99.9383 57.4707C99.9891 57.4192 100.018 57.3497 100.018 57.2774C100.018 57.205 99.9891 57.1356 99.9383 57.0841C99.8875 57.0325 99.8185 57.0031 99.7462 57.0021Z" fill="#3F3D56"/>
<path d="M99.7461 58.036H96.1088C96.0368 58.0376 95.9683 58.0673 95.918 58.1188C95.8677 58.1702 95.8395 58.2393 95.8395 58.3113C95.8395 58.3833 95.8677 58.4524 95.918 58.5038C95.9683 58.5553 96.0368 58.585 96.1088 58.5866H99.7461C99.8186 58.5857 99.8877 58.5563 99.9387 58.5048C99.9896 58.4533 100.018 58.3837 100.018 58.3113C100.018 58.2389 99.9896 58.1693 99.9387 58.1178C99.8877 58.0663 99.8186 58.0369 99.7461 58.036Z" fill="#3F3D56"/>
<path d="M99.7462 59.0699H96.1088C96.0369 59.0716 95.9685 59.1014 95.9182 59.1528C95.868 59.2042 95.8398 59.2733 95.8398 59.3452C95.8398 59.4172 95.868 59.4862 95.9182 59.5377C95.9685 59.5891 96.0369 59.6189 96.1088 59.6205H99.7462C99.8185 59.6195 99.8875 59.5901 99.9383 59.5385C99.9891 59.487 100.018 59.4176 100.018 59.3452C100.018 59.2729 99.9891 59.2035 99.9383 59.1519C99.8875 59.1004 99.8185 59.071 99.7462 59.0699Z" fill="#3F3D56"/>
<path d="M44.7049 67.3345H43.3979C43.0016 67.3345 42.6804 67.6557 42.6804 68.052C42.6804 68.4482 43.0016 68.7695 43.3979 68.7695H44.7049C45.1011 68.7695 45.4224 68.4482 45.4224 68.052C45.4224 67.6557 45.1011 67.3345 44.7049 67.3345Z" fill="#E6E6E6"/>
<path d="M59.6529 67.3345H58.3459C57.9497 67.3345 57.6284 67.6557 57.6284 68.052C57.6284 68.4482 57.9497 68.7695 58.3459 68.7695H59.6529C60.0492 68.7695 60.3704 68.4482 60.3704 68.052C60.3704 67.6557 60.0492 67.3345 59.6529 67.3345Z" fill="#E6E6E6"/>
<path d="M63.8882 67.3345H62.5812C62.1849 67.3345 61.8637 67.6557 61.8637 68.052C61.8637 68.4482 62.1849 68.7695 62.5812 68.7695H63.8882C64.2845 68.7695 64.6057 68.4482 64.6057 68.052C64.6057 67.6557 64.2845 67.3345 63.8882 67.3345Z" fill="#E6E6E6"/>
<path d="M55.587 67.2148H47.4638C47.0675 67.2148 46.7463 67.5361 46.7463 67.9323C46.7463 68.3286 47.0675 68.6498 47.4638 68.6498H55.587C55.9833 68.6498 56.3045 68.3286 56.3045 67.9323C56.3045 67.5361 55.9833 67.2148 55.587 67.2148Z" fill="#E6E6E6"/>
<path d="M75.5178 67.2148H67.3946C66.9983 67.2148 66.6771 67.5361 66.6771 67.9323C66.6771 68.3286 66.9983 68.6498 67.3946 68.6498H75.5178C75.9141 68.6498 76.2353 68.3286 76.2353 67.9323C76.2353 67.5361 75.9141 67.2148 75.5178 67.2148Z" fill="#E6E6E6"/>
<path d="M48.691 70.5732H47.384C46.9877 70.5732 46.6665 70.8945 46.6665 71.2907C46.6665 71.687 46.9877 72.0082 47.384 72.0082H48.691C49.0873 72.0082 49.4085 71.687 49.4085 71.2907C49.4085 70.8945 49.0873 70.5732 48.691 70.5732Z" fill="#E6E6E6"/>
<path d="M63.6391 70.5732H62.3321C61.9358 70.5732 61.6146 70.8945 61.6146 71.2907C61.6146 71.687 61.9358 72.0082 62.3321 72.0082H63.6391C64.0353 72.0082 64.3566 71.687 64.3566 71.2907C64.3566 70.8945 64.0353 70.5732 63.6391 70.5732Z" fill="#E6E6E6"/>
<path d="M67.8744 70.5732H66.5673C66.1711 70.5732 65.8499 70.8945 65.8499 71.2907C65.8499 71.687 66.1711 72.0082 66.5673 72.0082H67.8744C68.2706 72.0082 68.5919 71.687 68.5919 71.2907C68.5919 70.8945 68.2706 70.5732 67.8744 70.5732Z" fill="#E6E6E6"/>
<path d="M59.5732 70.4536H51.4499C51.0537 70.4536 50.7324 70.7748 50.7324 71.1711C50.7324 71.5674 51.0537 71.8886 51.4499 71.8886H59.5732C59.9694 71.8886 60.2907 71.5674 60.2907 71.1711C60.2907 70.7748 59.9694 70.4536 59.5732 70.4536Z" fill="#E6E6E6"/>
<path d="M79.5039 70.4536H71.3807C70.9844 70.4536 70.6632 70.7748 70.6632 71.1711C70.6632 71.5674 70.9844 71.8886 71.3807 71.8886H79.5039C79.9002 71.8886 80.2214 71.5674 80.2214 71.1711C80.2214 70.7748 79.9002 70.4536 79.5039 70.4536Z" fill="#E6E6E6"/>
<path d="M52.6772 73.812H51.3701C50.9739 73.812 50.6526 74.1332 50.6526 74.5295C50.6526 74.9258 50.9739 75.247 51.3701 75.247H52.6772C53.0734 75.247 53.3947 74.9258 53.3947 74.5295C53.3947 74.1332 53.0734 73.812 52.6772 73.812Z" fill="#E6E6E6"/>
<path d="M67.6253 73.812H66.3183C65.922 73.812 65.6008 74.1332 65.6008 74.5295C65.6008 74.9258 65.922 75.247 66.3183 75.247H67.6253C68.0215 75.247 68.3428 74.9258 68.3428 74.5295C68.3428 74.1332 68.0215 73.812 67.6253 73.812Z" fill="#E6E6E6"/>
<path d="M71.8606 73.812H70.5536C70.1573 73.812 69.8361 74.1332 69.8361 74.5295C69.8361 74.9258 70.1573 75.247 70.5536 75.247H71.8606C72.2568 75.247 72.5781 74.9258 72.5781 74.5295C72.5781 74.1332 72.2568 73.812 71.8606 73.812Z" fill="#E6E6E6"/>
<path d="M63.5593 73.6924H55.4361C55.0398 73.6924 54.7186 74.0136 54.7186 74.4099C54.7186 74.8061 55.0398 75.1274 55.4361 75.1274H63.5593C63.9556 75.1274 64.2768 74.8061 64.2768 74.4099C64.2768 74.0136 63.9556 73.6924 63.5593 73.6924Z" fill="#E6E6E6"/>
<path d="M83.4901 73.6924H75.3668C74.9706 73.6924 74.6494 74.0136 74.6494 74.4099C74.6494 74.8061 74.9706 75.1274 75.3668 75.1274H83.4901C83.8863 75.1274 84.2076 74.8061 84.2076 74.4099C84.2076 74.0136 83.8863 73.6924 83.4901 73.6924Z" fill="#E6E6E6"/>
<path d="M56.6633 77.0508H55.3563C54.96 77.0508 54.6388 77.372 54.6388 77.7683C54.6388 78.1645 54.96 78.4858 55.3563 78.4858H56.6633C57.0596 78.4858 57.3808 78.1645 57.3808 77.7683C57.3808 77.372 57.0596 77.0508 56.6633 77.0508Z" fill="#E6E6E6"/>
<path d="M71.6114 77.0508H70.3044C69.9081 77.0508 69.5869 77.372 69.5869 77.7683C69.5869 78.1645 69.9081 78.4858 70.3044 78.4858H71.6114C72.0077 78.4858 72.3289 78.1645 72.3289 77.7683C72.3289 77.372 72.0077 77.0508 71.6114 77.0508Z" fill="#E6E6E6"/>
<path d="M75.8467 77.0508H74.5397C74.1434 77.0508 73.8222 77.372 73.8222 77.7683C73.8222 78.1645 74.1434 78.4858 74.5397 78.4858H75.8467C76.243 78.4858 76.5642 78.1645 76.5642 77.7683C76.5642 77.372 76.243 77.0508 75.8467 77.0508Z" fill="#E6E6E6"/>
<path d="M67.5454 76.9312H59.4222C59.026 76.9312 58.7047 77.2524 58.7047 77.6486C58.7047 78.0449 59.026 78.3661 59.4222 78.3661H67.5454C67.9417 78.3661 68.263 78.0449 68.263 77.6486C68.263 77.2524 67.9417 76.9312 67.5454 76.9312Z" fill="#E6E6E6"/>
<path d="M59.6529 89.9294H58.3459C57.9497 89.9294 57.6284 90.2507 57.6284 90.6469C57.6284 91.0432 57.9497 91.3644 58.3459 91.3644H59.6529C60.0492 91.3644 60.3704 91.0432 60.3704 90.6469C60.3704 90.2507 60.0492 89.9294 59.6529 89.9294Z" fill="#E6E6E6"/>
<path d="M63.8882 89.9294H62.5812C62.1849 89.9294 61.8637 90.2507 61.8637 90.6469C61.8637 91.0432 62.1849 91.3644 62.5812 91.3644H63.8882C64.2845 91.3644 64.6057 91.0432 64.6057 90.6469C64.6057 90.2507 64.2845 89.9294 63.8882 89.9294Z" fill="#E6E6E6"/>
<path d="M75.5178 90.0491H67.3946C66.9983 90.0491 66.6771 90.3703 66.6771 90.7666C66.6771 91.1628 66.9983 91.4841 67.3946 91.4841H75.5178C75.9141 91.4841 76.2353 91.1628 76.2353 90.7666C76.2353 90.3703 75.9141 90.0491 75.5178 90.0491Z" fill="#E6E6E6"/>
<path d="M44.7049 89.9294H43.3979C43.0016 89.9294 42.6804 90.2507 42.6804 90.6469C42.6804 91.0432 43.0016 91.3644 43.3979 91.3644H44.7049C45.1011 91.3644 45.4224 91.0432 45.4224 90.6469C45.4224 90.2507 45.1011 89.9294 44.7049 89.9294Z" fill="#E6E6E6"/>
<path d="M55.587 90.0491H47.4638C47.0675 90.0491 46.7463 90.3703 46.7463 90.7666C46.7463 91.1628 47.0675 91.4841 47.4638 91.4841H55.587C55.9833 91.4841 56.3045 91.1628 56.3045 90.7666C56.3045 90.3703 55.9833 90.0491 55.587 90.0491Z" fill="#E6E6E6"/>
<path d="M48.691 86.6907H47.384C46.9877 86.6907 46.6665 87.0119 46.6665 87.4082C46.6665 87.8044 46.9877 88.1257 47.384 88.1257H48.691C49.0873 88.1257 49.4085 87.8044 49.4085 87.4082C49.4085 87.0119 49.0873 86.6907 48.691 86.6907Z" fill="#E6E6E6"/>
<path d="M63.6391 86.6907H62.3321C61.9358 86.6907 61.6146 87.0119 61.6146 87.4082C61.6146 87.8044 61.9358 88.1257 62.3321 88.1257H63.6391C64.0353 88.1257 64.3566 87.8044 64.3566 87.4082C64.3566 87.0119 64.0353 86.6907 63.6391 86.6907Z" fill="#E6E6E6"/>
<path d="M67.8744 86.6907H66.5673C66.1711 86.6907 65.8499 87.0119 65.8499 87.4082C65.8499 87.8044 66.1711 88.1257 66.5673 88.1257H67.8744C68.2706 88.1257 68.5919 87.8044 68.5919 87.4082C68.5919 87.0119 68.2706 86.6907 67.8744 86.6907Z" fill="#E6E6E6"/>
<path d="M59.5732 86.8103H51.4499C51.0537 86.8103 50.7324 87.1315 50.7324 87.5278C50.7324 87.9241 51.0537 88.2453 51.4499 88.2453H59.5732C59.9694 88.2453 60.2907 87.9241 60.2907 87.5278C60.2907 87.1315 59.9694 86.8103 59.5732 86.8103Z" fill="#E6E6E6"/>
<path d="M52.6772 83.4519H51.3701C50.9739 83.4519 50.6526 83.7731 50.6526 84.1694C50.6526 84.5657 50.9739 84.8869 51.3701 84.8869H52.6772C53.0734 84.8869 53.3947 84.5657 53.3947 84.1694C53.3947 83.7731 53.0734 83.4519 52.6772 83.4519Z" fill="#E6E6E6"/>
<path d="M67.6253 83.4519H66.3183C65.922 83.4519 65.6008 83.7731 65.6008 84.1694C65.6008 84.5657 65.922 84.8869 66.3183 84.8869H67.6253C68.0215 84.8869 68.3428 84.5657 68.3428 84.1694C68.3428 83.7731 68.0215 83.4519 67.6253 83.4519Z" fill="#E6E6E6"/>
<path d="M71.8606 83.4519H70.5536C70.1573 83.4519 69.8361 83.7731 69.8361 84.1694C69.8361 84.5657 70.1573 84.8869 70.5536 84.8869H71.8606C72.2568 84.8869 72.5781 84.5657 72.5781 84.1694C72.5781 83.7731 72.2568 83.4519 71.8606 83.4519Z" fill="#E6E6E6"/>
<path d="M63.5593 83.5715H55.4361C55.0398 83.5715 54.7186 83.8928 54.7186 84.289C54.7186 84.6853 55.0398 85.0065 55.4361 85.0065H63.5593C63.9556 85.0065 64.2768 84.6853 64.2768 84.289C64.2768 83.8928 63.9556 83.5715 63.5593 83.5715Z" fill="#E6E6E6"/>
<path d="M56.6633 80.2131H55.3563C54.96 80.2131 54.6388 80.5344 54.6388 80.9306C54.6388 81.3269 54.96 81.6481 55.3563 81.6481H56.6633C57.0596 81.6481 57.3808 81.3269 57.3808 80.9306C57.3808 80.5344 57.0596 80.2131 56.6633 80.2131Z" fill="#E6E6E6"/>
<path d="M71.6114 80.2131H70.3044C69.9081 80.2131 69.5869 80.5344 69.5869 80.9306C69.5869 81.3269 69.9081 81.6481 70.3044 81.6481H71.6114C72.0077 81.6481 72.3289 81.3269 72.3289 80.9306C72.3289 80.5344 72.0077 80.2131 71.6114 80.2131Z" fill="#E6E6E6"/>
<path d="M75.8467 80.2131H74.5397C74.1434 80.2131 73.8222 80.5344 73.8222 80.9306C73.8222 81.3269 74.1434 81.6481 74.5397 81.6481H75.8467C76.243 81.6481 76.5642 81.3269 76.5642 80.9306C76.5642 80.5344 76.243 80.2131 75.8467 80.2131Z" fill="#E6E6E6"/>
<path d="M67.5454 80.3328H59.4222C59.026 80.3328 58.7047 80.654 58.7047 81.0503C58.7047 81.4465 59.026 81.7678 59.4222 81.7678H67.5454C67.9417 81.7678 68.263 81.4465 68.263 81.0503C68.263 80.654 67.9417 80.3328 67.5454 80.3328Z" fill="#E6E6E6"/>
<path d="M103.593 136.718C103.441 136.795 103.286 136.872 103.134 136.947C99.198 138.915 96.049 140.034 91.7414 141.259C91.3777 137.199 91.0264 130.061 90.6851 125.636C90.5954 124.488 90.5057 123.524 90.4185 122.843C90.3965 122.482 90.3227 122.125 90.1993 121.785L90.2142 122.843L90.2516 125.636L90.4684 141.608C85.1101 143.026 79.6058 143.819 74.0653 143.973C73.7763 143.98 73.4923 143.985 73.2183 143.99C73.1211 143.992 73.0264 143.995 72.9317 143.995C72.6203 143.997 72.3114 144 72 144C66.1613 144.004 60.3437 143.299 54.6751 141.9C54.7972 137.881 54.9193 130.823 55.0364 125.636C55.0613 124.622 55.0837 123.678 55.1086 122.843C55.156 121.06 55.2058 119.774 55.2531 119.343C55.2112 119.419 55.1785 119.501 55.156 119.585C54.9252 120.659 54.7679 121.748 54.6851 122.843C54.5979 123.678 54.5107 124.622 54.4235 125.636C53.9601 131.025 53.4768 138.352 52.9785 141.459C50.0127 140.649 47.1025 139.648 44.2663 138.462C42.7715 137.839 41.3032 137.167 39.8616 136.446C40.1356 134.652 40.4221 132.642 40.7161 130.557C40.9453 128.94 41.182 127.278 41.4236 125.636C41.7973 123.1 42.181 120.614 42.5697 118.424C43.1377 115.225 43.7207 112.654 44.2987 111.473C44.8468 110.352 45.3949 109.246 45.9255 108.187C46.1099 107.816 46.2942 107.449 46.4736 107.093C46.516 107.008 46.5583 106.926 46.6007 106.844C46.9818 106.094 47.3506 105.377 47.7018 104.704C48.0033 104.128 48.2898 103.585 48.5614 103.085C49.2191 101.869 49.7771 100.9 50.1907 100.287C51.9197 97.664 54.4937 95.7116 57.4854 94.7534L57.5601 94.7335L57.6124 94.7559L62.7072 93.1914L63.4522 92.9622L63.9529 92.8077L65.7168 91.4649L66.676 90.7349L67.5753 90.0498L69.3342 88.7119L80.2239 89.3821L82.3441 94.4869L87.0926 96.2233L87.1748 96.186L87.247 96.1561L87.3218 96.176C90.313 97.135 92.8867 99.0873 94.6165 101.709C94.8506 102.061 95.1347 102.524 95.456 103.085C95.7301 103.56 96.029 104.103 96.3529 104.704C96.8138 105.558 97.3171 106.523 97.8502 107.566C97.9673 107.796 98.0869 108.03 98.2065 108.267C98.4282 108.705 98.6533 109.153 98.8816 109.609C99.4123 110.668 99.9604 111.774 100.508 112.898C100.984 113.872 101.465 115.875 101.939 118.424C102.33 120.541 102.718 123.038 103.095 125.636C103.588 129.005 103.062 133.038 103.508 136.137C103.535 136.334 103.565 136.526 103.593 136.718Z" fill="#3F3D56"/>
<path d="M72.1532 84.6373C79.148 84.6373 84.8184 78.9669 84.8184 71.9721C84.8184 64.9774 79.148 59.307 72.1532 59.307C65.1585 59.307 59.4881 64.9774 59.4881 71.9721C59.4881 78.9669 65.1585 84.6373 72.1532 84.6373Z" fill="#A0616A"/>
<path d="M93.0395 55.1884C92.7891 54.6039 92.456 54.0586 92.0504 53.569C90.1271 51.2196 86.6292 50.1857 83.0392 52.9661C82.3481 52.8117 81.6277 52.8531 80.9589 53.0857C80.6432 53.2 80.3472 53.3631 80.0819 53.569C79.5383 53.993 79.1142 54.5511 78.8512 55.1884C78.7106 55.525 78.6184 55.8798 78.5772 56.2422C77.6897 55.7811 76.7505 55.4273 75.7794 55.1884C73.3966 54.5957 70.9049 54.5957 68.5221 55.1884C67.7585 55.3815 67.0232 55.673 66.3347 56.0554C65.1687 56.728 64.4986 57.5776 64.379 58.5218C62.6973 58.6165 60.9484 59.5009 59.6454 60.9509C59.4984 61.1128 59.3564 61.2822 59.2244 61.4566C58.1286 62.8904 57.5398 64.6473 57.5502 66.4518V66.7682H57.8666C58.7335 66.7673 59.5923 66.9348 60.3953 67.2615C60.9156 67.4705 61.4084 67.7424 61.8627 68.0711C62.1599 68.282 62.4406 68.5152 62.7023 68.7687C63.3091 69.3562 63.8232 70.0324 64.227 70.7743C65.2621 72.6489 65.621 74.8225 65.2435 76.9304C65.1569 77.4183 65.0302 77.8983 64.8648 78.3654C64.6294 79.0319 64.3194 79.6696 63.9405 80.2663C63.9256 80.2887 63.9131 80.3111 63.8981 80.3336C63.7312 80.6001 63.5718 80.8717 63.4223 81.1457C63.3102 81.35 63.2055 81.5593 63.1084 81.7686C62.8244 82.351 62.5846 82.954 62.3909 83.5723C62.0441 84.666 61.8398 85.7997 61.783 86.9456C61.7655 87.2495 61.7606 87.5535 61.7705 87.8574C61.7853 88.6409 61.8712 89.4214 62.0271 90.1894C62.0496 90.294 62.072 90.3961 62.0944 90.5008L62.2763 91.2955L62.7073 93.1914L63.0062 94.4969L63.2828 95.7077L63.6914 95.1222C63.8309 94.9229 64.1822 94.3101 64.653 93.4431C64.9644 92.8775 65.3257 92.2024 65.7168 91.4649C66.2624 90.431 66.8603 89.2775 67.4458 88.1265C67.6825 87.6606 67.9167 87.1972 68.1434 86.7438C68.5719 85.8843 68.9755 85.0547 69.3218 84.3172C69.6407 83.6371 69.9123 83.0342 70.1141 82.5509C70.1763 82.8673 70.2287 83.1887 70.2685 83.5125C70.3134 83.8414 70.3458 84.1752 70.3632 84.5091C70.3682 84.5589 70.3707 84.6112 70.3732 84.6611L70.3831 84.8654L70.3856 84.9251L70.6497 84.96C72.1728 85.1231 73.7084 85.1348 75.2338 84.9949H75.2363C77.2571 84.8428 79.2396 84.3623 81.1059 83.5723C82.1658 83.1125 83.1555 82.5053 84.0457 81.7686C84.4616 81.4243 84.8498 81.0478 85.2067 80.6425C85.2963 80.5404 85.3835 80.4382 85.4682 80.3336C85.9613 79.7276 86.3834 79.0673 86.7264 78.3654C86.9561 77.9022 87.1509 77.4226 87.3094 76.9304C88.266 74.033 88.2112 70.418 87.1449 66.1229C87.4329 66.0675 87.7088 65.9612 87.9596 65.809C88.7419 65.3382 89.285 64.4039 89.4544 63.2629L89.7235 63.3351C90.6773 62.8908 91.527 62.2508 92.2173 61.4566C92.354 61.2949 92.4821 61.1261 92.601 60.9509C93.8193 59.1571 93.8292 57.0046 93.0395 55.1884Z" fill="#2F2E41"/>
<path opacity="0.2" d="M51.4016 118.413L53.5184 110.243L55.3877 117.293L51.4016 118.413Z" fill="black"/>
<path d="M107.733 113.09C106.976 123.524 107.761 128.118 103.58 136.72C99.7767 138.582 95.8147 140.101 91.7415 141.259C91.3179 141.379 90.8936 141.495 90.4684 141.608C85.1101 143.026 79.6059 143.819 74.0653 143.973C73.7763 143.98 73.4923 143.985 73.2183 143.99C73.1211 143.993 73.0264 143.995 72.9318 143.995C72.6204 143.997 72.3114 144 72 144C66.1613 144.004 60.3437 143.299 54.6752 141.9C54.1071 141.76 53.5416 141.613 52.9786 141.459C50.0128 140.649 47.1026 139.648 44.2663 138.462C42.7715 137.839 41.3033 137.167 39.8616 136.446C39.5352 136.282 39.2089 136.117 38.8875 135.948C37.2357 133.043 36.2965 129.51 36.2766 125.265C37.4201 117.95 105.207 106.782 107.733 113.09Z" fill="#2F2E41"/>
<path opacity="0.2" d="M107.731 114.877C107.77 114.231 107.813 113.563 107.864 112.869C105.338 106.561 37.5505 117.729 36.4069 125.044C36.4101 125.714 36.4387 126.365 36.487 127.001C39.2562 119.781 103.655 109.166 107.731 114.877Z" fill="black"/>
<path d="M40.6328 85.2419C40.6493 85.016 40.6172 84.7892 40.5387 84.5768C40.4603 84.3643 40.3372 84.1712 40.1778 84.0103C40.0184 83.8494 39.8264 83.7245 39.6146 83.6441C39.4029 83.5636 39.1765 83.5294 38.9504 83.5439C38.8662 83.5471 38.7824 83.5575 38.7 83.5752L28.7939 85.8131C28.5726 85.8668 28.3649 85.9662 28.1843 86.105C28.0037 86.2438 27.8542 86.4189 27.7454 86.619C27.6001 86.6245 27.4558 86.6455 27.315 86.6816C27.0068 86.7515 26.7153 86.8814 26.4572 87.0639C26.1991 87.2464 25.9796 87.478 25.811 87.7454C25.6424 88.0128 25.5282 88.3107 25.4747 88.6223C25.4213 88.9338 25.4298 89.2528 25.4997 89.5611C25.5695 89.8694 25.6995 90.1609 25.882 90.4189C26.0645 90.677 26.2961 90.8966 26.5635 91.0652C27.1035 91.4056 27.7566 91.5176 28.3792 91.3765C28.7336 91.2943 29.0651 91.1339 29.3494 90.907L32.7063 100.359C32.874 100.656 33.133 100.89 33.4447 101.026C33.7564 101.163 34.104 101.195 34.4355 101.118L40.8753 99.6629C41.2043 99.5858 41.5005 99.4065 41.7212 99.1506C41.9419 98.8948 42.0758 98.5755 42.1038 98.2388L40.6328 85.2419ZM28.2305 90.7035C27.7859 90.8039 27.3196 90.7237 26.934 90.4808C26.5483 90.2378 26.2747 89.8519 26.1732 89.4075C26.0717 88.9631 26.1506 88.4967 26.3925 88.1104C26.6344 87.724 27.0196 87.4494 27.4637 87.3467C27.495 87.3389 27.5263 87.3467 27.5576 87.3389C27.5552 87.624 27.6281 87.9047 27.7689 88.1527L28.9973 90.2966C28.7835 90.4995 28.5184 90.6402 28.2305 90.7035Z" fill="#2F2E41"/>
<path d="M38.9505 83.5439C39.0443 84.7959 36.9004 86.2357 34.0287 86.8069C31.3917 87.3468 29.0287 86.9712 28.3635 85.9853C28.4972 85.906 28.6424 85.8479 28.7939 85.8131L38.7001 83.5753C38.7825 83.5576 38.8662 83.5471 38.9505 83.5439Z" fill="#3F3D56"/>
<path d="M32.0994 115.326L37.6635 112.544L33.0267 100.025L31.8047 93.711C31.646 92.8907 31.2747 92.1265 30.7281 91.4947C30.1814 90.8629 29.4785 90.3856 28.6896 90.1105C27.9007 89.8354 27.0535 89.7722 26.2325 89.9272C25.4115 90.0822 24.6456 90.4499 24.0112 90.9936C23.0712 91.7993 22.481 92.9387 22.3651 94.1714C22.2493 95.404 22.6168 96.6335 23.3903 97.6002L27.9263 103.27L32.0994 115.326Z" fill="#A0616A"/>
<path d="M37.6635 110.226L30.2447 113.935L35.8748 131.576C36.2791 132.843 37.0038 133.984 37.9788 134.888C38.9537 135.792 40.1458 136.429 41.4394 136.737C43.0344 137.117 44.709 136.979 46.2202 136.343C47.7315 135.707 49.001 134.606 49.8445 133.2L64.7739 107.61C65.8319 105.847 66.1585 103.74 65.6839 101.739C65.2093 99.7384 63.9711 98.0024 62.2338 96.9022C61.2995 96.3104 60.251 95.922 59.1566 95.7623C58.0623 95.6025 56.9465 95.675 55.882 95.975C54.8175 96.275 53.8281 96.7958 52.9782 97.5035C52.1282 98.2111 51.4369 99.0898 50.949 100.082L41.8366 119.499L37.6635 110.226Z" fill="#3F3D56"/>
<path d="M35.3689 94.283C35.3551 94.283 35.3414 94.2807 35.3284 94.2762L33.7086 93.7186C33.689 93.7119 33.6715 93.7004 33.6574 93.6852C33.6434 93.67 33.6334 93.6515 33.6283 93.6315C33.6232 93.6114 33.6232 93.5904 33.6283 93.5704C33.6334 93.5503 33.6434 93.5319 33.6574 93.5166L34.8621 92.205C34.8731 92.1929 34.8864 92.1831 34.9013 92.1761C34.9161 92.1691 34.9322 92.1652 34.9486 92.1644C34.965 92.1637 34.9813 92.1662 34.9967 92.1718C35.0121 92.1774 35.0263 92.186 35.0384 92.1971C35.0504 92.2082 35.0602 92.2215 35.0671 92.2364C35.074 92.2513 35.0779 92.2674 35.0786 92.2838C35.0792 92.3001 35.0767 92.3165 35.071 92.3319C35.0653 92.3472 35.0567 92.3614 35.0455 92.3734L33.9696 93.5449L35.4094 94.0407C35.4372 94.0503 35.4608 94.0694 35.4759 94.0948C35.491 94.1201 35.4966 94.1499 35.4917 94.179C35.4869 94.2081 35.4719 94.2345 35.4494 94.2535C35.4269 94.2726 35.3983 94.283 35.3689 94.283Z" fill="#272727"/>
<path d="M37.5891 93.8285C37.5643 93.8285 37.54 93.8211 37.5195 93.8072C37.4989 93.7933 37.4829 93.7736 37.4736 93.7506C37.4643 93.7276 37.4621 93.7023 37.4672 93.6781C37.4724 93.6538 37.4846 93.6316 37.5025 93.6144L38.5973 92.5558L37.1266 91.9497C37.1114 91.9435 37.0977 91.9344 37.0861 91.9229C37.0744 91.9113 37.0652 91.8976 37.0589 91.8825C37.0526 91.8674 37.0494 91.8512 37.0493 91.8348C37.0493 91.8185 37.0525 91.8022 37.0587 91.7871C37.0649 91.772 37.0741 91.7582 37.0857 91.7466C37.0972 91.7351 37.111 91.7259 37.1261 91.7196C37.1412 91.7133 37.1574 91.7101 37.1738 91.7101C37.1901 91.7101 37.2064 91.7133 37.2215 91.7196L38.8681 92.3981C38.8872 92.406 38.9041 92.4185 38.9172 92.4345C38.9303 92.4505 38.9391 92.4695 38.943 92.4898C38.9469 92.5102 38.9457 92.5311 38.9394 92.5508C38.9332 92.5705 38.9221 92.5884 38.9073 92.6027L37.6757 93.7934C37.6525 93.8159 37.6214 93.8285 37.5891 93.8285Z" fill="#272727"/>
<path d="M35.7089 95.045C35.6965 95.0451 35.6841 95.0432 35.6723 95.0394C35.6566 95.0346 35.6421 95.0268 35.6295 95.0164C35.6169 95.0059 35.6064 94.9931 35.5988 94.9787C35.5911 94.9642 35.5864 94.9484 35.5848 94.9321C35.5833 94.9158 35.585 94.8994 35.5898 94.8837L36.7395 91.1467C36.7493 91.1152 36.7712 91.0889 36.8004 91.0735C36.8296 91.0582 36.8637 91.055 36.8952 91.0647C36.9267 91.0745 36.9531 91.0963 36.9686 91.1254C36.984 91.1545 36.9873 91.1886 36.9777 91.2202L35.828 94.9572C35.8201 94.9826 35.8043 95.0049 35.7829 95.0207C35.7615 95.0365 35.7355 95.045 35.7089 95.045Z" fill="#272727"/>
</g>
<defs>
<clipPath id="clip0_34_299">
<rect width="144" height="144" fill="white"/>
</clipPath>
</defs>
</svg>
