<svg width="129" height="132" viewBox="0 0 129 132" fill="none" xmlns="http://www.w3.org/2000/svg">
<g clip-path="url(#clip0_65_915)">
<path d="M92.8955 31.2863H92.1706V11.4694C92.1706 8.42752 90.958 5.51024 88.7996 3.35931C86.6412 1.20838 83.7138 1.49612e-09 80.6614 1.49612e-09H38.5303C37.0189 -2.43253e-05 35.5223 0.296616 34.126 0.872985C32.7296 1.44935 31.4608 2.29416 30.3921 3.35918C29.3233 4.42419 28.4756 5.68855 27.8971 7.08007C27.3187 8.4716 27.021 9.96303 27.021 11.4692V120.186C27.021 123.228 28.2336 126.145 30.3919 128.296C32.5503 130.447 35.4777 131.655 38.5301 131.655H80.6609C83.7133 131.655 86.6407 130.447 88.7991 128.296C90.9575 126.145 92.17 123.228 92.17 120.186V45.3922H92.895L92.8955 31.2863Z" fill="#3F3D56"/>
<path d="M89.8098 10.7013V120.954C89.8094 123.26 88.8901 125.472 87.2538 127.103C85.6175 128.734 83.3982 129.651 81.0839 129.652H38.0884C35.7732 129.652 33.5527 128.736 31.9152 127.105C30.2778 125.474 29.3575 123.261 29.3568 120.954V10.7013C29.3575 8.39418 30.2777 6.1818 31.9151 4.55077C33.5525 2.91973 35.773 2.00361 38.0881 2.00391H43.3037C43.0476 2.63151 42.9501 3.3122 43.0198 3.98614C43.0895 4.66008 43.3243 5.30663 43.7035 5.86898C44.0827 6.43132 44.5946 6.89224 45.1944 7.21121C45.7942 7.53019 46.4635 7.69746 47.1433 7.69831H71.6558C72.3356 7.69746 73.0049 7.53019 73.6047 7.21121C74.2045 6.89224 74.7164 6.43132 75.0956 5.86898C75.4748 5.30663 75.7096 4.66008 75.7793 3.98614C75.849 3.3122 75.7515 2.63151 75.4954 2.00391H81.0822C83.3965 2.0043 85.6159 2.92053 87.2525 4.55116C88.8891 6.18179 89.8089 8.39335 89.8098 10.6996V10.7013Z" fill="white"/>
<path d="M79.1522 74.2081H40.9457C40.7581 74.2079 40.5783 74.1335 40.4457 74.0014C40.313 73.8692 40.2384 73.69 40.2382 73.503V64.0586C40.2385 63.8716 40.3131 63.6925 40.4457 63.5603C40.5783 63.4281 40.7581 63.3538 40.9457 63.3535H79.1522C79.3398 63.3538 79.5196 63.4281 79.6522 63.5603C79.7848 63.6925 79.8594 63.8716 79.8597 64.0586V73.5032C79.8594 73.6901 79.7848 73.8693 79.6522 74.0015C79.5196 74.1337 79.3398 74.208 79.1522 74.2083V74.2081ZM40.9457 63.6355C40.8331 63.6356 40.7252 63.6802 40.6456 63.7595C40.566 63.8388 40.5212 63.9464 40.5211 64.0585V73.5032C40.5212 73.6154 40.566 73.723 40.6456 73.8023C40.7252 73.8816 40.8331 73.9262 40.9457 73.9263H79.1522C79.2648 73.9262 79.3727 73.8816 79.4523 73.8023C79.5319 73.723 79.5767 73.6154 79.5768 73.5032V64.0585C79.5767 63.9464 79.5319 63.8388 79.4523 63.7595C79.3727 63.6802 79.2648 63.6356 79.1522 63.6355H40.9457Z" fill="#E6E6E6"/>
<path d="M52.7616 66.7549C52.6302 66.7549 52.5043 66.8069 52.4114 66.8994C52.3185 66.992 52.2663 67.1176 52.2663 67.2485C52.2663 67.3794 52.3185 67.5049 52.4114 67.5975C52.5043 67.69 52.6302 67.742 52.7616 67.742H76.1098C76.2411 67.7471 76.369 67.6999 76.4654 67.6109C76.5618 67.522 76.6188 67.3985 76.6238 67.2676C76.6289 67.1368 76.5815 67.0093 76.4922 66.9133C76.403 66.8172 76.2791 66.7604 76.1478 66.7554C76.1405 66.7551 76.1333 66.755 76.126 66.7551H52.7616V66.7549Z" fill="#E6E6E6"/>
<path d="M52.7616 69.7158C52.6302 69.7158 52.5043 69.7678 52.4114 69.8604C52.3185 69.9529 52.2663 70.0785 52.2663 70.2094C52.2663 70.3403 52.3185 70.4659 52.4114 70.5584C52.5043 70.651 52.6302 70.703 52.7616 70.703H76.1098C76.2411 70.708 76.369 70.6608 76.4654 70.5719C76.5618 70.4829 76.6188 70.3594 76.6238 70.2286C76.6289 70.0977 76.5815 69.9703 76.4922 69.8742C76.403 69.7782 76.2791 69.7214 76.1478 69.7164C76.1405 69.7161 76.1333 69.716 76.126 69.716H52.7616V69.7158Z" fill="#E6E6E6"/>
<path d="M79.1522 89.9503H40.9457C40.7581 89.9501 40.5783 89.8757 40.4457 89.7435C40.313 89.6114 40.2384 89.4322 40.2382 89.2452V79.8007C40.2385 79.6138 40.3131 79.4346 40.4457 79.3025C40.5783 79.1703 40.7581 79.0959 40.9457 79.0957H79.1522C79.3398 79.0959 79.5196 79.1703 79.6522 79.3025C79.7848 79.4346 79.8594 79.6138 79.8597 79.8007V89.2454C79.8594 89.4323 79.7847 89.6114 79.6521 89.7436C79.5195 89.8757 79.3397 89.95 79.1522 89.9503ZM40.9457 79.3776C40.8331 79.3777 40.7252 79.4223 40.6456 79.5017C40.566 79.581 40.5212 79.6886 40.5211 79.8007V89.2454C40.5212 89.3576 40.566 89.4652 40.6456 89.5445C40.7252 89.6238 40.8331 89.6684 40.9457 89.6685H79.1522C79.2648 89.6684 79.3727 89.6238 79.4523 89.5445C79.5319 89.4652 79.5767 89.3576 79.5768 89.2454V79.8007C79.5767 79.6886 79.5319 79.581 79.4523 79.5017C79.3727 79.4223 79.2648 79.3777 79.1522 79.3776H40.9457Z" fill="#E6E6E6"/>
<path d="M52.7616 82.5479C52.6302 82.5479 52.5043 82.5999 52.4114 82.6924C52.3185 82.785 52.2663 82.9105 52.2663 83.0414C52.2663 83.1724 52.3185 83.2979 52.4114 83.3905C52.5043 83.483 52.6302 83.535 52.7616 83.535H76.1098C76.2393 83.5343 76.3634 83.4831 76.4554 83.3923C76.5475 83.3015 76.6002 83.1784 76.6023 83.0494C76.6045 82.9204 76.5558 82.7957 76.4668 82.7019C76.3777 82.6082 76.2554 82.553 76.126 82.548H52.7616V82.5479Z" fill="#E6E6E6"/>
<path d="M52.7616 85.5098C52.6302 85.5098 52.5043 85.5618 52.4114 85.6543C52.3185 85.7469 52.2663 85.8724 52.2663 86.0033C52.2663 86.1343 52.3185 86.2598 52.4114 86.3524C52.5043 86.4449 52.6302 86.4969 52.7616 86.4969H76.1098C76.2393 86.4962 76.3634 86.445 76.4554 86.3542C76.5475 86.2634 76.6002 86.1404 76.6023 86.0113C76.6045 85.8823 76.5558 85.7576 76.4668 85.6638C76.3777 85.5701 76.2554 85.5149 76.126 85.51H52.7616V85.5098Z" fill="#E6E6E6"/>
<path d="M79.1522 105.744H40.9457C40.7581 105.744 40.5783 105.669 40.4457 105.537C40.313 105.405 40.2384 105.226 40.2382 105.039V95.5942C40.2385 95.4073 40.3131 95.2281 40.4457 95.0959C40.5783 94.9638 40.7581 94.8894 40.9457 94.8892H79.1522C79.3398 94.8894 79.5196 94.9638 79.6522 95.0959C79.7848 95.2281 79.8594 95.4073 79.8597 95.5942V105.039C79.8594 105.226 79.7848 105.405 79.6522 105.537C79.5196 105.669 79.3398 105.744 79.1522 105.744V105.744ZM40.9457 95.1711C40.8331 95.1712 40.7252 95.2158 40.6456 95.2951C40.566 95.3745 40.5212 95.482 40.5211 95.5942V105.039C40.5212 105.151 40.566 105.259 40.6456 105.338C40.7252 105.417 40.8331 105.462 40.9457 105.462H79.1522C79.2648 105.462 79.3727 105.417 79.4523 105.338C79.5319 105.259 79.5767 105.151 79.5768 105.039V95.5942C79.5767 95.482 79.5319 95.3745 79.4523 95.2951C79.3727 95.2158 79.2648 95.1712 79.1522 95.1711H40.9457Z" fill="#E6E6E6"/>
<path d="M52.7616 98.3423C52.6302 98.3423 52.5043 98.3943 52.4114 98.4868C52.3185 98.5794 52.2663 98.705 52.2663 98.8359C52.2663 98.9668 52.3185 99.0923 52.4114 99.1849C52.5043 99.2774 52.6302 99.3294 52.7616 99.3294H76.1098C76.1748 99.3319 76.2397 99.3216 76.3007 99.2991C76.3617 99.2766 76.4177 99.2424 76.4654 99.1983C76.5132 99.1543 76.5517 99.1013 76.5789 99.0424C76.6061 98.9835 76.6213 98.9198 76.6238 98.855C76.6263 98.7903 76.616 98.7256 76.5934 98.6648C76.5708 98.604 76.5365 98.5482 76.4922 98.5007C76.448 98.4531 76.3949 98.4147 76.3358 98.3876C76.2767 98.3605 76.2128 98.3453 76.1478 98.3428C76.1405 98.3425 76.1333 98.3424 76.126 98.3425H52.7616V98.3423Z" fill="#E6E6E6"/>
<path d="M52.7616 101.304C52.6302 101.304 52.5043 101.356 52.4114 101.448C52.3185 101.541 52.2663 101.666 52.2663 101.797C52.2663 101.928 52.3185 102.054 52.4114 102.146C52.5043 102.239 52.6302 102.291 52.7616 102.291H76.1098C76.1748 102.293 76.2397 102.283 76.3007 102.261C76.3617 102.238 76.4177 102.204 76.4654 102.16C76.5132 102.116 76.5517 102.063 76.5789 102.004C76.6061 101.945 76.6213 101.881 76.6238 101.816C76.6263 101.752 76.616 101.687 76.5934 101.626C76.5708 101.565 76.5365 101.51 76.4922 101.462C76.448 101.415 76.3949 101.376 76.3358 101.349C76.2767 101.322 76.2128 101.307 76.1478 101.304C76.1405 101.304 76.1333 101.304 76.126 101.304H52.7616V101.304Z" fill="#E6E6E6"/>
<path d="M128.663 132H0.336825C0.150939 132 0 131.913 0 131.806C0 131.699 0.150939 131.613 0.336825 131.613H128.663C128.849 131.613 129 131.699 129 131.806C129 131.913 128.849 132 128.663 132Z" fill="#1B1B1B"/>
<path d="M5.40406 124.449C5.99059 124.654 6.62033 124.706 7.23261 124.598C7.8449 124.491 8.41908 124.228 8.89984 123.835C10.1243 122.811 10.5081 121.124 10.8204 119.561L11.7443 114.94L9.81012 116.268C8.41914 117.222 6.99692 118.207 6.03366 119.59C5.07039 120.972 4.65011 122.859 5.42395 124.355" fill="#8B8B8B"/>
<path d="M5.70279 130.365C5.45928 128.597 5.20889 126.807 5.37972 125.02C5.5314 123.434 6.01713 121.884 7.00604 120.614C7.53093 119.94 8.16959 119.364 8.89334 118.909C9.08202 118.791 9.25582 119.089 9.06789 119.207C7.81532 119.995 6.84645 121.16 6.30098 122.533C5.69871 124.059 5.60204 125.723 5.70614 127.345C5.76897 128.326 5.90187 129.3 6.0359 130.273C6.04644 130.317 6.03984 130.363 6.01741 130.403C5.99498 130.442 5.9584 130.471 5.91507 130.485C5.87086 130.497 5.82374 130.491 5.78394 130.468C5.74413 130.446 5.71484 130.408 5.70242 130.365H5.70279Z" fill="black"/>
<path d="M7.45514 127.529C7.70669 127.91 8.05246 128.22 8.45913 128.429C8.86581 128.638 9.31969 128.739 9.77704 128.723C10.9524 128.667 11.9324 127.85 12.8144 127.074L15.4235 124.779L13.6968 124.697C12.4551 124.637 11.1812 124.582 9.99769 124.964C8.81415 125.345 7.72412 126.264 7.50793 127.483" fill="#8B8B8B"/>
<path d="M5.01465 131.381C6.18573 129.314 7.54605 127.017 9.97502 126.283C10.6504 126.08 11.3586 126.007 12.0614 126.069C12.283 126.087 12.2276 126.428 12.0056 126.409C10.8275 126.311 9.65167 126.621 8.67605 127.287C7.73714 127.924 7.00623 128.809 6.3876 129.748C6.00858 130.322 5.66915 130.923 5.32973 131.521C5.22154 131.712 4.90553 131.574 5.01465 131.381Z" fill="black"/>
<path d="M45.7122 71.6843C47.3533 71.6843 48.6838 70.3585 48.6838 68.723C48.6838 67.0875 47.3533 65.7617 45.7122 65.7617C44.071 65.7617 42.7406 67.0875 42.7406 68.723C42.7406 70.3585 44.071 71.6843 45.7122 71.6843Z" fill="#090909"/>
<path d="M44.2896 68.1699C44.2554 68.1699 44.2277 68.3909 44.2277 68.6634C44.2277 68.9359 44.2554 69.1571 44.2896 69.1571H47.2115C47.2457 69.1615 47.274 68.9442 47.2745 68.6718C47.2935 68.5021 47.2726 68.3303 47.2136 68.1701H44.2896V68.1699Z" fill="#E6E6E6"/>
<path d="M45.7122 87.4842C47.3533 87.4842 48.6838 86.1583 48.6838 84.5228C48.6838 82.8874 47.3533 81.5615 45.7122 81.5615C44.071 81.5615 42.7406 82.8874 42.7406 84.5228C42.7406 86.1583 44.071 87.4842 45.7122 87.4842Z" fill="#090909"/>
<path d="M44.2896 83.9697C44.2554 83.9697 44.2277 84.1907 44.2277 84.4632C44.2277 84.7357 44.2554 84.9569 44.2896 84.9569H47.2115C47.2457 84.9613 47.274 84.744 47.2745 84.4716C47.2935 84.3019 47.2726 84.1301 47.2136 83.9699H44.2896V83.9697Z" fill="#E6E6E6"/>
<path d="M45.7122 103.278C47.3533 103.278 48.6838 101.952 48.6838 100.316C48.6838 98.6808 47.3533 97.355 45.7122 97.355C44.071 97.355 42.7406 98.6808 42.7406 100.316C42.7406 101.952 44.071 103.278 45.7122 103.278Z" fill="#090909"/>
<path d="M44.2896 99.7632C44.2554 99.7632 44.2277 99.9842 44.2277 100.257C44.2277 100.529 44.2554 100.75 44.2896 100.75H47.2115C47.2457 100.755 47.274 100.538 47.2745 100.265C47.2935 100.095 47.2726 99.9236 47.2136 99.7634H44.2896V99.7632Z" fill="#E6E6E6"/>
<path d="M69.1843 47.5461C69.03 47.5466 68.8786 47.5045 68.747 47.4244C68.6153 47.3443 68.5085 47.2293 68.4384 47.0923C67.8423 45.9309 67.0194 44.8999 66.018 44.0597C65.0165 43.2196 63.8568 42.5872 62.6068 42.1998C62.095 42.0451 61.5726 41.9272 61.0438 41.8472L60.9361 41.8309L66.4978 24.502L66.5918 24.5052C77.3969 27.4311 83.579 36.061 85.2164 38.6362C85.2788 38.7347 85.3198 38.8451 85.3367 38.9603C85.3536 39.0755 85.3461 39.193 85.3146 39.3051C85.2831 39.4172 85.2284 39.5216 85.154 39.6113C85.0795 39.701 84.987 39.7742 84.8824 39.8261L69.5597 47.4577C69.4432 47.5158 69.3146 47.5461 69.1843 47.5461Z" fill="#E6E6E6"/>
<path d="M102.539 84.4702C102.597 84.2257 102.708 83.9968 102.864 83.7997C103.02 83.6025 103.218 83.442 103.443 83.3292C103.669 83.2165 103.916 83.1543 104.168 83.1472C104.42 83.14 104.671 83.188 104.902 83.2877L109.044 78.7876L109.818 81.8656L105.766 85.667C105.572 86.0434 105.246 86.3358 104.85 86.4888C104.455 86.6418 104.016 86.6448 103.619 86.4973C103.221 86.3497 102.891 86.0618 102.692 85.6881C102.493 85.3145 102.439 84.881 102.539 84.47L102.539 84.4702Z" fill="#3F3F3F"/>
<path d="M111.435 129.362H108.905L107.701 119.633H111.437L111.435 129.362Z" fill="#3F3F3F"/>
<path d="M112.081 128.538H107.096C106.254 128.538 105.446 128.872 104.85 129.465C104.255 130.059 103.92 130.864 103.92 131.703V131.806H112.08L112.081 128.538Z" fill="#2F2E41"/>
<path d="M125.97 126.863L123.603 127.758L119.013 119.089L122.506 117.768L125.97 126.863Z" fill="#3F3F3F"/>
<path d="M126.28 125.865L121.62 127.627C120.833 127.925 120.196 128.523 119.851 129.288C119.505 130.054 119.479 130.925 119.778 131.71L119.815 131.806L127.445 128.92L126.28 125.865Z" fill="#2F2E41"/>
<path d="M117.638 97.0024L119.736 108.249C119.736 108.249 125.428 124.074 125.029 124.472C124.629 124.871 119.136 126.264 119.436 125.368C119.736 124.473 112.844 111.036 112.844 111.036L117.638 97.0024Z" fill="#2F2E41"/>
<path d="M109.133 76.5645C109.133 76.5645 104.899 82.0799 105.454 82.3811C106.009 82.6823 108.158 84.2773 108.158 84.2773L110.345 78.2969L109.133 76.5645Z" fill="#E4E4E4"/>
<path d="M107.95 82.1316C107.95 82.1316 107.251 87.3071 107.551 88.4019C107.851 89.4967 107.651 120.55 107.451 121.047C107.251 121.545 106.652 123.237 106.952 124.033C107.252 124.829 111.346 126.82 111.945 126.123C112.545 125.426 116.94 100.047 116.94 100.047C116.94 100.047 123.132 84.7192 121.734 83.2265C120.335 81.7338 107.95 82.1316 107.95 82.1316Z" fill="#2F2E41"/>
<path d="M116.936 48.8691C119.639 48.8691 121.83 46.6856 121.83 43.9922C121.83 41.2987 119.639 39.1152 116.936 39.1152C114.233 39.1152 112.042 41.2987 112.042 43.9922C112.042 46.6856 114.233 48.8691 116.936 48.8691Z" fill="#3F3F3F"/>
<path d="M111.822 55.0145C111.945 54.2249 112.34 53.5022 112.937 52.9694L113.83 50.251H119.073L120.535 52.536C122.115 53.2141 123.286 54.2897 123.33 55.5575C123.572 56.3994 122.531 83.127 122.232 84.1221C122.144 84.4119 120.949 84.5667 119.269 84.6356C117.729 84.6982 115.783 84.6894 113.914 84.6466C110.82 84.5749 107.936 84.4096 107.45 84.3211C106.353 84.1223 111.713 55.6425 111.822 55.0145Z" fill="#E4E4E4"/>
<path d="M116.458 90.4569C116.67 90.3217 116.851 90.1417 116.986 89.9296C117.121 89.7175 117.208 89.4785 117.24 89.2294C117.272 88.9803 117.249 88.7271 117.173 88.4877C117.097 88.2483 116.968 88.0286 116.797 87.8439L119.692 82.4614L116.521 82.75L114.259 87.8168C113.966 88.1234 113.797 88.5264 113.782 88.9492C113.768 89.3721 113.91 89.7855 114.181 90.111C114.452 90.4365 114.834 90.6515 115.254 90.7152C115.673 90.779 116.102 90.687 116.458 90.4568L116.458 90.4569Z" fill="#3F3F3F"/>
<path d="M116.939 52.074C116.939 52.074 112.345 53.9649 114.043 58.7428C115.741 63.5206 117.638 69.1933 117.638 69.1933C117.638 69.1933 115.241 82.0326 115.241 82.5309C115.241 83.0292 113.743 85.7158 114.342 86.2135C114.941 86.7113 118.936 87.7064 119.036 87.2089C119.342 86.0623 119.709 84.9327 120.135 83.8248C120.335 83.4267 125.029 70.9855 124.429 69.8908C123.988 69.0851 123.601 61.703 123.427 57.8612C123.387 56.7649 123.061 55.6979 122.482 54.7652C121.902 53.8325 121.089 53.0663 120.122 52.5419C119.192 52.0488 118.108 51.7828 116.939 52.074Z" fill="#E4E4E4"/>
<path d="M118.819 46.1719C118.448 46.0011 118.017 45.9657 117.615 45.8595C116.177 45.4794 115.214 44.0647 115.522 42.7845C115.578 42.6217 115.604 42.4498 115.597 42.2777C115.544 41.8985 115.098 41.6537 114.67 41.5669C114.243 41.48 113.788 41.4928 113.38 41.3529C113.084 41.2485 112.822 41.0668 112.622 40.8266C112.421 40.5865 112.289 40.297 112.239 39.9884C112.176 39.3889 112.329 38.7865 112.672 38.2895L112.826 38.6763C113.055 38.5113 113.231 38.283 113.331 38.0196C113.498 38.0397 113.658 38.1008 113.797 38.1975C113.935 38.2942 114.047 38.4235 114.123 38.5739C114.37 38.7011 114.406 38.1788 114.68 38.1017C114.799 38.0885 114.919 38.1145 115.022 38.1758C115.573 38.3997 116.214 38.2082 116.806 38.0841C117.834 37.8702 118.896 37.8691 119.924 38.0809C120.605 38.2223 121.279 38.4687 121.766 38.9062C122.14 39.2719 122.434 39.7109 122.628 40.1955C123.151 41.3407 123.496 42.5798 123.324 43.8028C123.167 44.829 122.682 45.7774 121.941 46.5073C121.547 46.9032 120.259 48.284 119.553 48.0487C118.665 47.7524 119.865 46.6529 118.819 46.1719Z" fill="#2F2E41"/>
<path d="M59.8514 50.8418C60.6727 50.8418 61.3385 50.1783 61.3385 49.3599C61.3385 48.5414 60.6727 47.8779 59.8514 47.8779C59.0301 47.8779 58.3643 48.5414 58.3643 49.3599C58.3643 50.1783 59.0301 50.8418 59.8514 50.8418Z" fill="#3F3D56"/>
<path d="M49.8716 47.5249C49.7355 47.5247 49.6015 47.4914 49.4812 47.4277L34.2473 39.4188C34.1463 39.3657 34.0572 39.2925 33.9856 39.2038C33.9141 39.115 33.8615 39.0126 33.8312 38.9028C33.8008 38.793 33.7934 38.6782 33.8093 38.5655C33.8252 38.4527 33.8641 38.3444 33.9237 38.2472C35.9586 34.9968 38.5355 32.1166 41.5433 29.7306C46.8042 25.5755 52.7883 23.4908 59.3285 23.5258C61.7815 23.5366 64.2225 23.866 66.59 24.5055L66.6838 24.5308L61.1208 41.8588L61.0425 41.847C60.5414 41.7717 60.0362 41.727 59.5296 41.7133C53.8693 41.5541 51.4164 45.3952 50.6243 47.0538C50.5766 47.1544 50.5088 47.2443 50.425 47.3178C50.3413 47.3914 50.2433 47.4472 50.1372 47.4818C50.0516 47.5102 49.9619 47.5248 49.8716 47.5249Z" fill="#090909"/>
<path d="M66.5674 24.5947L62.6341 42.1114C62.1179 41.9553 61.5911 41.8364 61.0578 41.7557L66.5656 24.5947H66.5674Z" fill="#3F3D56"/>
</g>
<defs>
<clipPath id="clip0_65_915">
<rect width="129" height="132" fill="white"/>
</clipPath>
</defs>
</svg>
