<svg width="153" height="128" viewBox="0 0 153 128" fill="none" xmlns="http://www.w3.org/2000/svg">
<g clip-path="url(#clip0_35_621)">
<path d="M104.524 1.06951e-05L0 62.0708L3.14349 67.3872L107.668 5.3164L104.524 1.06951e-05Z" fill="#F2F2F2"/>
<path d="M127.242 5.20386L22.7181 67.2747L25.8615 72.591L130.386 10.5202L127.242 5.20386Z" fill="#F2F2F2"/>
<path d="M147.364 10.8958L42.8398 72.9666L45.9833 78.2829L150.507 16.2122L147.364 10.8958Z" fill="#F2F2F2"/>
<path d="M68.0821 72.762C86.1558 72.762 100.807 58.0787 100.807 39.966C100.807 21.8532 86.1558 7.16992 68.0821 7.16992C50.0084 7.16992 35.3568 21.8532 35.3568 39.966C35.3568 58.0787 50.0084 72.762 68.0821 72.762Z" fill="white"/>
<path d="M35.1134 39.966C35.1134 21.7477 49.9031 6.92603 68.0821 6.92603C86.2611 6.92603 101.051 21.7477 101.051 39.966C101.051 58.1842 86.2611 73.0059 68.0821 73.0059C49.9031 73.0059 35.1134 58.1842 35.1134 39.966ZM35.6002 39.966C35.6002 57.9152 50.1715 72.5181 68.0821 72.5181C85.9927 72.5181 100.564 57.9152 100.564 39.966C100.564 22.0167 85.9927 7.41389 68.0821 7.41389C50.1715 7.41389 35.6002 22.0167 35.6002 39.966H35.6002Z" fill="#3F3D56"/>
<path d="M62.2484 40.1086C62.2484 38.9523 62.5906 37.822 63.2316 36.8606C63.8726 35.8992 64.7837 35.1498 65.8496 34.7074C66.9156 34.2649 68.0886 34.1491 69.2202 34.3747C70.3518 34.6002 71.3912 35.157 72.2071 35.9747C73.0229 36.7923 73.5785 37.834 73.8036 38.968C74.0287 40.1021 73.9132 41.2776 73.4717 42.3459C73.0301 43.4141 72.2824 44.3272 71.3231 44.9696C70.3637 45.612 69.2359 45.9548 68.0821 45.9548C66.5349 45.9548 65.0511 45.3389 63.9571 44.2425C62.8631 43.1461 62.2484 41.6591 62.2484 40.1086V40.1086ZM68.0821 34.5475C66.6109 34.5492 65.2004 35.1356 64.1601 36.1782C63.1198 37.2207 62.5347 38.6342 62.533 40.1086C62.533 41.2085 62.8585 42.2836 63.4682 43.1982C64.0779 44.1127 64.9446 44.8254 65.9585 45.2464C66.9725 45.6673 68.0882 45.7774 69.1647 45.5628C70.2411 45.3482 71.2298 44.8186 72.0059 44.0409C72.7819 43.2631 73.3104 42.2722 73.5245 41.1935C73.7386 40.1148 73.6288 38.9966 73.2088 37.9805C72.7888 36.9643 72.0775 36.0958 71.165 35.4847C70.2524 34.8737 69.1796 34.5475 68.0821 34.5475Z" fill="#3F3D56"/>
<path d="M56.9839 40.1086C56.9839 37.9088 57.6348 35.7585 58.8543 33.9295C60.0738 32.1004 61.8071 30.6749 63.835 29.8331C65.8629 28.9913 68.0944 28.771 70.2472 29.2002C72.4001 29.6293 74.3776 30.6886 75.9297 32.2441C77.4818 33.7995 78.5388 35.7813 78.967 37.9388C79.3952 40.0963 79.1754 42.3325 78.3354 44.3648C77.4954 46.3972 76.073 48.1342 74.2479 49.3563C72.4228 50.5784 70.2771 51.2307 68.0821 51.2307C66.6247 51.2307 65.1815 50.943 63.835 50.3841C62.4885 49.8252 61.2651 49.0059 60.2345 47.9731C59.2039 46.9403 58.3865 45.7142 57.8287 44.3648C57.271 43.0154 56.9839 41.5692 56.9839 40.1086V40.1086ZM68.0821 29.2716C65.9434 29.2716 63.8527 29.9072 62.0744 31.098C60.2961 32.2888 58.9101 33.9813 58.0916 35.9615C57.2732 37.9417 57.059 40.1206 57.4763 42.2228C57.8935 44.3249 58.9234 46.2559 60.4357 47.7715C61.948 49.287 63.8748 50.3192 65.9725 50.7373C68.0701 51.1554 70.2443 50.9408 72.2203 50.1206C74.1962 49.3004 75.885 47.9114 77.0732 46.1293C78.2615 44.3471 78.8957 42.2519 78.8957 40.1086C78.8924 37.2354 77.7521 34.4809 75.7249 32.4493C73.6976 30.4177 70.949 29.2749 68.0821 29.2716Z" fill="#CCCCCC"/>
<path d="M46.4549 40.1085C46.4549 35.8218 47.7233 31.6314 50.0998 28.0671C52.4762 24.5029 55.8539 21.7249 59.8057 20.0844C63.7576 18.444 68.1061 18.0147 72.3013 18.851C76.4966 19.6873 80.3502 21.7516 83.3748 24.7827C86.3994 27.8139 88.4592 31.6758 89.2937 35.8801C90.1282 40.0844 89.6999 44.4423 88.063 48.4027C86.4261 52.3631 83.654 55.7481 80.0975 58.1297C76.5409 60.5112 72.3595 61.7824 68.0821 61.7824C62.3482 61.7759 56.851 59.4903 52.7965 55.4271C48.742 51.3638 46.4614 45.8548 46.4549 40.1085ZM68.0821 18.7198C63.8609 18.7198 59.7345 19.9742 56.2248 22.3244C52.715 24.6746 49.9795 28.0151 48.3641 31.9234C46.7487 35.8317 46.3261 40.1322 47.1496 44.2812C47.9731 48.4302 50.0058 52.2413 52.9906 55.2326C55.9754 58.2239 59.7783 60.2609 63.9184 61.0862C68.0584 61.9115 72.3497 61.4879 76.2495 59.8691C80.1494 58.2502 83.4826 55.5088 85.8278 51.9914C88.1729 48.4741 89.4247 44.3388 89.4247 40.1085C89.4183 34.4378 87.1676 29.0012 83.1665 24.9915C79.1654 20.9817 73.7405 18.7262 68.0821 18.7198Z" fill="#CCCCCC"/>
<path d="M68.0821 42.6752C69.5751 42.6752 70.7855 41.4622 70.7855 39.9659C70.7855 38.4697 69.5751 37.2567 68.0821 37.2567C66.589 37.2567 65.3787 38.4697 65.3787 39.9659C65.3787 41.4622 66.589 42.6752 68.0821 42.6752Z" fill="#1B1B1B"/>
<path d="M61.1102 50.5177C62.6032 50.5177 63.8136 49.3047 63.8136 47.8085C63.8136 46.3122 62.6032 45.0992 61.1102 45.0992C59.6171 45.0992 58.4068 46.3122 58.4068 47.8085C58.4068 49.3047 59.6171 50.5177 61.1102 50.5177Z" fill="#1B1B1B"/>
<path d="M88.3098 49.377C89.8029 49.377 91.0132 48.164 91.0132 46.6677C91.0132 45.1715 89.8029 43.9585 88.3098 43.9585C86.8168 43.9585 85.6064 45.1715 85.6064 46.6677C85.6064 48.164 86.8168 49.377 88.3098 49.377Z" fill="#1B1B1B"/>
<path d="M68.0821 41.2493C68.7893 41.2493 69.3626 40.6747 69.3626 39.9659C69.3626 39.2572 68.7893 38.6826 68.0821 38.6826C67.3749 38.6826 66.8015 39.2572 66.8015 39.9659C66.8015 40.6747 67.3749 41.2493 68.0821 41.2493Z" fill="#2F2E41"/>
<path d="M88.3098 47.951C89.0171 47.951 89.5904 47.3765 89.5904 46.6677C89.5904 45.959 89.0171 45.3844 88.3098 45.3844C87.6026 45.3844 87.0293 45.959 87.0293 46.6677C87.0293 47.3765 87.6026 47.951 88.3098 47.951Z" fill="#2F2E41"/>
<path d="M61.1102 49.2344C61.8174 49.2344 62.3907 48.6598 62.3907 47.951C62.3907 47.2423 61.8174 46.6677 61.1102 46.6677C60.4029 46.6677 59.8296 47.2423 59.8296 47.951C59.8296 48.6598 60.4029 49.2344 61.1102 49.2344Z" fill="#2F2E41"/>
<path d="M8.32287 26.8475C9.03009 26.8475 9.60342 26.273 9.60342 25.5642C9.60342 24.8554 9.03009 24.2809 8.32287 24.2809C7.61564 24.2809 7.04231 24.8554 7.04231 25.5642C7.04231 26.273 7.61564 26.8475 8.32287 26.8475Z" fill="#1B1B1B"/>
<path d="M68.0109 25.6357H11.8087V25.3505H68.2956V40.0372H68.0109V25.6357Z" fill="#2F2E41"/>
<path d="M4.62346 25.5642C4.62346 24.8309 4.84043 24.1142 5.24692 23.5045C5.65341 22.8948 6.23117 22.4196 6.90715 22.139C7.58312 21.8584 8.32694 21.785 9.04456 21.928C9.76217 22.0711 10.4213 22.4242 10.9387 22.9427C11.4561 23.4612 11.8084 24.1218 11.9511 24.8409C12.0939 25.5601 12.0206 26.3055 11.7406 26.9829C11.4606 27.6604 10.9865 28.2394 10.3781 28.6468C9.76975 29.0541 9.05452 29.2716 8.32285 29.2716C7.83704 29.2716 7.35598 29.1757 6.90715 28.9894C6.45832 28.8031 6.05051 28.53 5.70699 28.1857C5.36347 27.8415 5.09097 27.4328 4.90506 26.983C4.71915 26.5332 4.62346 26.0511 4.62346 25.5642ZM8.32285 22.142C7.64746 22.142 6.98724 22.3427 6.42568 22.7187C5.86412 23.0948 5.42643 23.6293 5.16797 24.2546C4.90951 24.8799 4.84188 25.568 4.97364 26.2318C5.10541 26.8957 5.43064 27.5055 5.90821 27.9841C6.38578 28.4627 6.99424 28.7886 7.65664 28.9206C8.31905 29.0527 9.00566 28.9849 9.62963 28.7259C10.2536 28.4669 10.7869 28.0282 11.1622 27.4655C11.5374 26.9027 11.7377 26.241 11.7377 25.5642C11.7366 24.6569 11.3765 23.7871 10.7363 23.1455C10.0962 22.5039 9.2282 22.143 8.32285 22.142Z" fill="#2F2E41"/>
<path d="M16.8599 63.7787C17.5671 63.7787 18.1405 63.2041 18.1405 62.4954C18.1405 61.7866 17.5671 61.212 16.8599 61.212C16.1527 61.212 15.5793 61.7866 15.5793 62.4954C15.5793 63.2041 16.1527 63.7787 16.8599 63.7787Z" fill="#1B1B1B"/>
<path d="M13.1605 62.4953C13.1605 61.7621 13.3775 61.0453 13.784 60.4356C14.1905 59.826 14.7682 59.3508 15.4442 59.0702C16.1202 58.7896 16.864 58.7162 17.5816 58.8592C18.2992 59.0023 18.9584 59.3553 19.4757 59.8738C19.9931 60.3923 20.3454 61.0529 20.4882 61.7721C20.6309 62.4912 20.5577 63.2367 20.2777 63.9141C19.9977 64.5915 19.5235 65.1705 18.9152 65.5779C18.3068 65.9853 17.5916 66.2027 16.8599 66.2027C15.8788 66.2027 14.9378 65.8121 14.244 65.1168C13.5503 64.4216 13.1605 63.4786 13.1605 62.4953ZM16.8599 59.0731C16.1845 59.0731 15.5243 59.2739 14.9627 59.6499C14.4012 60.0259 13.9635 60.5604 13.705 61.1857C13.4466 61.811 13.3789 62.4991 13.5107 63.163C13.6424 63.8268 13.9677 64.4366 14.4452 64.9152C14.9228 65.3938 15.5313 65.7197 16.1937 65.8518C16.8561 65.9838 17.5427 65.9161 18.1667 65.657C18.7906 65.398 19.324 64.9594 19.6992 64.3966C20.0744 63.8338 20.2747 63.1722 20.2747 62.4953C20.2737 61.588 19.9136 60.7182 19.2734 60.0766C18.6332 59.4351 17.7652 59.0742 16.8599 59.0731Z" fill="#2F2E41"/>
<path d="M128.007 32.8364C128.714 32.8364 129.288 32.2619 129.288 31.5531C129.288 30.8443 128.714 30.2698 128.007 30.2698C127.3 30.2698 126.726 30.8443 126.726 31.5531C126.726 32.2619 127.3 32.8364 128.007 32.8364Z" fill="#1B1B1B"/>
<path d="M124.308 31.5531C124.308 30.8198 124.525 30.103 124.931 29.4934C125.338 28.8837 125.915 28.4085 126.591 28.1279C127.267 27.8473 128.011 27.7739 128.729 27.9169C129.446 28.06 130.106 28.4131 130.623 28.9316C131.14 29.4501 131.493 30.1106 131.635 30.8298C131.778 31.549 131.705 32.2944 131.425 32.9718C131.145 33.6493 130.671 34.2283 130.062 34.6357C129.454 35.043 128.739 35.2605 128.007 35.2605C127.521 35.2605 127.04 35.1646 126.591 34.9783C126.143 34.7919 125.735 34.5189 125.391 34.1746C125.048 33.8303 124.775 33.4216 124.589 32.9718C124.403 32.522 124.308 32.0399 124.308 31.5531ZM128.007 28.1309C127.102 28.1319 126.234 28.4928 125.594 29.1344C124.953 29.7759 124.593 30.6458 124.592 31.5531C124.592 32.2299 124.792 32.8916 125.168 33.4543C125.543 34.0171 126.076 34.4558 126.7 34.7148C127.324 34.9738 128.011 35.0416 128.673 34.9095C129.336 34.7775 129.944 34.4515 130.422 33.9729C130.899 33.4943 131.224 32.8846 131.356 32.2207C131.488 31.5569 131.42 30.8688 131.162 30.2435C130.903 29.6181 130.466 29.0837 129.904 28.7076C129.343 28.3316 128.682 28.1309 128.007 28.1309V28.1309Z" fill="#2F2E41"/>
<path d="M88.1675 31.983L124.448 31.4105L124.452 31.6955L88.4521 32.2638V46.6678H88.1675V31.983Z" fill="#2F2E41"/>
<path d="M20.4171 62.3529H60.9678V47.9512H61.2524V62.6379H20.4171V62.3529Z" fill="#2F2E41"/>
<path d="M16.1485 32.266H0.497248V33.2641H16.1485V32.266Z" fill="#CCCCCC"/>
<path d="M16.1485 35.1178H0.497248V36.1159H16.1485V35.1178Z" fill="#CCCCCC"/>
<path d="M16.1485 37.9697H0.497248V38.9679H16.1485V37.9697Z" fill="#CCCCCC"/>
<path d="M24.6855 69.1971H9.03427V70.1953H24.6855V69.1971Z" fill="#CCCCCC"/>
<path d="M24.6855 72.0491H9.03427V73.0472H24.6855V72.0491Z" fill="#CCCCCC"/>
<path d="M24.6855 74.9009H9.03427V75.899H24.6855V74.9009Z" fill="#CCCCCC"/>
<path d="M135.833 38.3975H120.181V39.3956H135.833V38.3975Z" fill="#CCCCCC"/>
<path d="M135.833 41.2493H120.181V42.2474H135.833V41.2493Z" fill="#CCCCCC"/>
<path d="M135.833 44.1011H120.181V45.0992H135.833V44.1011Z" fill="#CCCCCC"/>
<path d="M143.283 123.44L141.058 124.237L136.93 116.012L140.215 114.836L143.283 123.44Z" fill="#FFB8B8"/>
<path d="M137.445 127.969L137.413 127.878C137.149 127.135 137.19 126.318 137.526 125.606C137.863 124.894 138.468 124.344 139.208 124.078L143.591 122.508L144.622 125.399L137.445 127.969Z" fill="#2F2E41"/>
<path d="M128.81 125.646L126.446 125.646L125.321 116.509L128.81 116.509L128.81 125.646Z" fill="#FFB8B8"/>
<path d="M129.412 127.942L121.791 127.942V127.845C121.791 127.455 121.868 127.068 122.017 126.708C122.166 126.347 122.384 126.019 122.66 125.743C122.935 125.467 123.262 125.248 123.622 125.099C123.982 124.949 124.368 124.872 124.757 124.872H124.758L129.412 124.873L129.412 127.942Z" fill="#2F2E41"/>
<path d="M134.196 67.2728L133.169 65.2372C133.169 65.2372 129.339 66.1987 128.991 68.423L134.196 67.2728Z" fill="#1B1B1B"/>
<path d="M138.438 90.5488L135.643 106.183L143.065 119.338L138.631 121.077L131.112 108.325L130.148 104.847L129.569 123.009L125.57 122.888L123.736 105.928L126.677 90.1624L138.438 90.5488Z" fill="#2F2E41"/>
<path d="M125.086 93.3691C124.999 92.9819 124.75 81.1629 124.75 81.1629C124.75 81.1629 128.862 67.6359 128.9 67.5248L128.914 67.4814L132.036 66.3085C132.08 66.2885 133.12 65.8241 133.971 66.2111C134.189 66.3176 134.381 66.4705 134.535 66.6592C134.688 66.8479 134.798 67.0678 134.858 67.3036C135.212 67.568 137.763 70.4323 137.763 74.3174L137.86 83.4855L139.999 93.4247L139.904 93.4449C139.846 93.4573 137.238 94.2445 133.131 94.2445C130.849 94.2445 125.086 93.3691 125.086 93.3691Z" fill="#3F3D56"/>
<path d="M129.976 64.5962C132.306 64.5962 134.195 62.7032 134.195 60.3681C134.195 58.0329 132.306 56.1399 129.976 56.1399C127.646 56.1399 125.757 58.0329 125.757 60.3681C125.757 62.7032 127.646 64.5962 129.976 64.5962Z" fill="#FFB8B8"/>
<path opacity="0.2" d="M135.986 78.9955L128.605 89.3164L127.515 84.4966L135.986 78.9955Z" fill="black"/>
<path d="M122.886 89.539C123.15 89.5285 123.409 89.46 123.645 89.3383C123.88 89.2166 124.086 89.0447 124.247 88.8348C124.409 88.6248 124.523 88.3818 124.581 88.123C124.639 87.8642 124.639 87.5958 124.583 87.3367L130.067 83.9652L127.039 82.5453L122.295 85.9646C121.867 86.0891 121.499 86.3665 121.262 86.7444C121.024 87.1223 120.933 87.5744 121.006 88.015C121.079 88.4556 121.311 88.8541 121.657 89.135C122.004 89.4158 122.441 89.5596 122.886 89.539Z" fill="#FFB8B8"/>
<path d="M126.677 82.6268L124.799 83.9459L126.392 86.781L128.605 84.9454L126.677 82.6268Z" fill="#1B1B1B"/>
<path d="M125.694 82.71L130.112 77.5774L128.419 70.4982C128.244 69.7666 128.341 68.9962 128.691 68.3308C129.042 67.6654 129.622 67.1505 130.323 66.8823C131.024 66.614 131.799 66.6108 132.503 66.8731C133.206 67.1355 133.791 67.6455 134.147 68.3079L134.185 68.3796L135.745 78.8922L127.907 86.9438L125.694 82.71Z" fill="#3F3D56"/>
<path d="M133.569 64.0391L130.068 64.1651C129.854 64.1728 129.275 61.8641 129.199 61.3852C129.139 61.0734 128.968 60.7941 128.717 60.5996C128.467 60.405 128.155 60.3084 127.838 60.3278C127.576 60.3526 126.915 59.8618 126.233 59.2807C124.938 58.1774 125.006 56.1052 126.428 55.1729C126.467 55.1474 126.505 55.1241 126.543 55.1031C127.44 54.5997 128.49 54.4307 129.518 54.4178C130.45 54.4061 131.409 54.5237 132.23 54.9659C133.702 55.7586 134.486 57.491 134.555 59.1645C134.624 60.8381 134.088 62.4746 133.481 64.035" fill="#2F2E41"/>
<path d="M152.807 128H110.198C110.147 128 110.098 127.98 110.062 127.943C110.026 127.907 110.005 127.858 110.005 127.807C110.005 127.755 110.026 127.706 110.062 127.67C110.098 127.634 110.147 127.614 110.198 127.614H152.807C152.858 127.614 152.907 127.634 152.944 127.67C152.98 127.706 153 127.755 153 127.807C153 127.858 152.98 127.907 152.944 127.943C152.907 127.98 152.858 128 152.807 128Z" fill="#3F3D56"/>
</g>
<defs>
<clipPath id="clip0_35_621">
<rect width="153" height="128" fill="white"/>
</clipPath>
</defs>
</svg>
