<svg width="108" height="152" viewBox="0 0 108 152" fill="none" xmlns="http://www.w3.org/2000/svg">
<g clip-path="url(#clip0_35_685)">
<path d="M1.48447e-06 151.672C-0.000128281 151.715 0.00825086 151.757 0.0246571 151.797C0.0410633 151.837 0.0651768 151.873 0.0956212 151.903C0.126066 151.934 0.162237 151.958 0.202084 151.975C0.241932 151.991 0.284674 152 0.327857 152H107.67C107.758 152 107.842 151.965 107.903 151.904C107.965 151.842 108 151.759 108 151.672C108 151.585 107.965 151.502 107.903 151.44C107.842 151.379 107.758 151.344 107.67 151.344H0.32982C0.286635 151.344 0.243841 151.352 0.203894 151.369C0.163948 151.385 0.127626 151.409 0.0969999 151.439C0.0663733 151.469 0.0420449 151.505 0.0254014 151.545C0.00875789 151.585 0.000127958 151.627 1.48447e-06 151.67V151.672Z" fill="#CCCCCC"/>
<path opacity="0.5" d="M42.8963 106.755C44.0657 106.52 45.2633 106.455 46.4515 106.563C46.5615 106.562 46.6668 106.518 46.7446 106.441C46.8223 106.364 46.8664 106.259 46.8672 106.15C46.865 106.041 46.8205 105.937 46.743 105.86C46.6655 105.783 46.5611 105.738 46.4515 105.736C45.1886 105.627 43.9165 105.702 42.6752 105.958C42.569 105.987 42.4788 106.057 42.4244 106.152C42.3701 106.248 42.356 106.36 42.3853 106.466C42.4146 106.572 42.4848 106.662 42.5806 106.716C42.6765 106.77 42.79 106.784 42.8963 106.755H42.8963Z" fill="#CCCCCC"/>
<path d="M14.3557 99.5638C12.0695 96.5399 10.7481 93.1586 10.7048 89.3035C10.6312 89.0957 10.6434 88.8674 10.7388 88.6686C10.8342 88.4698 11.0051 88.3168 11.2138 88.243L19.0065 85.5013C19.2154 85.4281 19.445 85.4402 19.6449 85.5351C19.8448 85.63 19.9987 85.7999 20.0729 86.0074L23.7238 96.2677C23.7974 96.4755 23.7852 96.7038 23.6898 96.9026C23.5944 97.1014 23.4236 97.2545 23.2148 97.3282L15.4222 100.07C15.2132 100.143 14.9836 100.131 14.7837 100.036C14.5838 99.9412 14.4299 99.7714 14.3557 99.5638Z" fill="#F2F2F2"/>
<path opacity="0.2" d="M16.115 99.3809C15.9061 99.4541 15.6765 99.442 15.4766 99.3471C15.2767 99.2522 15.1228 99.0823 15.0486 98.8748C12.7624 95.8509 11.441 92.4695 11.3977 88.6145C11.35 88.4778 11.3395 88.3311 11.3672 88.1891L11.2138 88.243C11.0051 88.3167 10.8342 88.4698 10.7388 88.6686C10.6434 88.8674 10.6312 89.0957 10.7048 89.3035C10.7481 93.1585 12.0695 96.5399 14.3557 99.5638C14.4299 99.7713 14.5838 99.9412 14.7837 100.036C14.9836 100.131 15.2132 100.143 15.4222 100.07L23.2148 97.3282C23.353 97.279 23.4758 97.1944 23.5705 97.0828C23.6653 96.9713 23.7287 96.8369 23.7543 96.6931L16.115 99.3809Z" fill="black"/>
<path d="M19.7658 91.7013L14.5489 93.5529C14.4659 93.5824 14.3745 93.5779 14.2949 93.5403C14.2152 93.5028 14.1538 93.4354 14.1242 93.3528C14.0946 93.2703 14.0991 93.1794 14.1369 93.1002C14.1746 93.021 14.2425 92.9599 14.3255 92.9305L19.5423 91.0788C19.6253 91.0496 19.7165 91.0543 19.796 91.0918C19.8755 91.1294 19.9367 91.1968 19.9663 91.2792C19.9959 91.3616 19.9914 91.4523 19.9538 91.5314C19.9162 91.6106 19.8486 91.6716 19.7658 91.7013H19.7658Z" fill="white"/>
<path d="M15.084 91.4386L13.9363 91.846C13.8952 91.8608 13.8516 91.8674 13.8079 91.8654C13.7643 91.8634 13.7215 91.8529 13.682 91.8344C13.6424 91.816 13.6069 91.79 13.5775 91.7579C13.5481 91.7257 13.5253 91.6882 13.5105 91.6473C13.4957 91.6065 13.4891 91.5631 13.4912 91.5197C13.4932 91.4763 13.5038 91.4338 13.5224 91.3945C13.5411 91.3552 13.5673 91.3199 13.5996 91.2907C13.6319 91.2615 13.6697 91.2389 13.7108 91.2242L13.7128 91.2235L14.8605 90.8161C14.9435 90.787 15.0346 90.7917 15.1141 90.8293C15.1935 90.8669 15.2547 90.9342 15.2843 91.0166C15.3139 91.099 15.3094 91.1897 15.2718 91.2688C15.2343 91.3479 15.1667 91.409 15.084 91.4386Z" fill="white"/>
<path d="M20.7482 94.4378L15.5314 96.2895C15.4484 96.3187 15.3573 96.3139 15.2778 96.2764C15.1984 96.2388 15.1372 96.1714 15.1076 96.089C15.078 96.0067 15.0825 95.916 15.1201 95.8369C15.1576 95.7578 15.2252 95.6967 15.3079 95.667L20.5248 93.8153C20.6077 93.7857 20.699 93.7901 20.7787 93.8274C20.8584 93.8647 20.9199 93.9319 20.9498 94.0143C20.9796 94.0967 20.9754 94.1875 20.938 94.2668C20.9006 94.3461 20.833 94.4073 20.7502 94.4372L20.7482 94.4378Z" fill="white"/>
<path d="M20.257 93.0696L15.0402 94.9212C14.9572 94.9508 14.8658 94.9464 14.7861 94.9089C14.7064 94.8715 14.6449 94.8041 14.6152 94.7216C14.5854 94.6391 14.5899 94.5482 14.6275 94.469C14.6652 94.3897 14.733 94.3286 14.816 94.299L14.8167 94.2987L20.0336 92.447C20.1165 92.4178 20.2077 92.4225 20.2872 92.4601C20.3667 92.4977 20.4279 92.5651 20.4575 92.6475C20.4871 92.7299 20.4826 92.8206 20.445 92.8997C20.4074 92.9789 20.3398 93.0399 20.257 93.0696H20.257Z" fill="white"/>
<path d="M14.9026 88.3491C15.668 88.3491 16.2884 87.7322 16.2884 86.9711C16.2884 86.2101 15.668 85.5931 14.9026 85.5931C14.1373 85.5931 13.5168 86.2101 13.5168 86.9711C13.5168 87.7322 14.1373 88.3491 14.9026 88.3491Z" fill="#CCCCCC"/>
<path d="M65.6225 27.4528C65.6447 29.4702 66.2904 33.6703 65.8276 35.6464L65.7528 35.481C65.368 35.7843 64.9593 36.0562 64.5305 36.294C64.2213 35.546 63.7588 34.8702 63.1724 34.3097C63.2496 35.2371 63.1394 36.1704 62.8481 37.0547C61.1159 37.6748 58.0755 35.7208 56.1908 35.6795C53.1587 35.6106 50.2042 34.8609 47.3079 34.0672C46.2797 33.7861 45.1489 33.4195 44.6832 32.5707C44.2176 31.7219 45.051 30.8056 44.9964 29.8478C44.6081 23.0252 47.8762 21.8816 50.9858 20.0585C51.6701 19.6573 52.0058 18.7935 52.779 18.4573C53.8516 17.9915 55.1293 18.2148 56.2962 18.449C56.0064 18.3541 55.746 18.1866 55.5402 17.9626C55.3344 17.7387 55.19 17.4658 55.121 17.1702C55.0724 16.8806 55.1051 16.5832 55.2156 16.3109C55.3261 16.0385 55.5102 15.8018 55.7474 15.6269C56.3904 15.1336 57.3494 15.0729 58.1697 15.2824C58.9623 15.5289 59.712 15.8951 60.3925 16.3683C60.8547 16.6203 61.2677 16.9526 61.612 17.3494C61.7743 17.5372 61.875 17.7697 61.9008 18.016C61.9265 18.2622 61.8761 18.5104 61.7562 18.7274C61.6082 18.9134 61.42 19.0637 61.2055 19.1673C60.991 19.2708 60.7557 19.3249 60.5173 19.3254C60.1498 19.3361 59.7826 19.2981 59.4253 19.2124C61.0633 19.6142 62.5395 20.5025 63.6575 21.759C65.046 23.3657 65.5975 25.4355 65.6225 27.4528Z" fill="#2F2E41"/>
<path d="M17.1755 46.8949C17.4573 47.4896 17.9614 47.9516 18.5806 48.1825C19.1997 48.4133 19.885 48.3948 20.4906 48.1309C20.6129 48.0753 20.7303 48.0098 20.8417 47.935L27.9782 53.1488L31.9129 50.4787L21.3601 44.3875C21.0123 43.9523 20.5294 43.6438 19.9867 43.5102C19.4441 43.3766 18.8722 43.4254 18.3603 43.6489C18.0703 43.7789 17.8089 43.9645 17.591 44.1949C17.373 44.4254 17.2029 44.6963 17.0903 44.9921C16.9776 45.288 16.9247 45.603 16.9345 45.9192C16.9443 46.2353 17.0166 46.5465 17.1474 46.8349C17.1565 46.855 17.1658 46.875 17.1755 46.8949Z" fill="#FFB6B6"/>
<path d="M90.7302 42.1632C90.074 42.2445 89.4757 42.5772 89.0625 43.0905C88.6492 43.6037 88.4537 44.2571 88.5176 44.9116C88.5326 45.0444 88.5587 45.1757 88.5956 45.3043L81.3925 50.4266L82.7204 54.9756L91.8249 46.8978C92.3491 46.7045 92.7941 46.344 93.0906 45.8728C93.3871 45.4015 93.5184 44.8458 93.4639 44.2926C93.4299 43.9781 93.3339 43.6733 93.1815 43.3956C93.029 43.118 92.823 42.873 92.5753 42.6745C92.3276 42.476 92.043 42.328 91.7377 42.2389C91.4325 42.1498 91.1126 42.1213 90.7963 42.1552C90.7742 42.1575 90.7522 42.1602 90.7302 42.1632Z" fill="#FFB6B6"/>
<path d="M38.4964 147.143L36.1766 147.123L35.15 138.019L38.5734 138.048L38.4964 147.143Z" fill="#FFB6B6"/>
<path d="M31.0663 150.811C31.0642 151.084 31.1713 151.347 31.364 151.542C31.5568 151.737 31.8195 151.848 32.0944 151.851L36.7064 151.889L37.5138 150.262L37.8103 151.897L39.5505 151.913L39.1111 146.079L38.5056 146.039L36.0362 145.87L35.2394 145.817L35.2255 147.467L31.5207 149.966C31.3819 150.06 31.2681 150.186 31.1889 150.333C31.1098 150.48 31.0677 150.644 31.0663 150.811Z" fill="#2F2E41"/>
<path d="M69.0735 136.924L67.1797 138.256L60.9968 131.464L63.792 129.498L69.0735 136.924Z" fill="#FFB6B6"/>
<path d="M65.1989 144.217C65.3579 144.441 65.5994 144.592 65.8704 144.638C66.1414 144.684 66.4198 144.622 66.6446 144.464L70.4099 141.816L70.1089 140.026L71.3106 141.181L72.7321 140.183L68.9476 135.704L68.4328 136.023L66.3292 137.32L65.6515 137.74L66.61 139.088L65.0716 143.268C65.014 143.425 64.9955 143.593 65.0176 143.758C65.0398 143.924 65.102 144.081 65.1989 144.217Z" fill="#2F2E41"/>
<path d="M40.2361 73.3297L46.9741 57.7708H62.4938L58.0174 74.0085L40.2361 73.3297Z" fill="#FFB6B6"/>
<path d="M25.9896 147.212C25.8607 147.218 25.7332 147.185 25.6242 147.116C25.5153 147.047 25.4302 146.947 25.3804 146.829C25.3307 146.711 25.3187 146.58 25.3461 146.455C25.3735 146.329 25.439 146.215 25.5337 146.128L25.5768 145.958C25.5712 145.944 25.5654 145.931 25.5597 145.917C25.4299 145.612 25.2124 145.352 24.9346 145.17C24.6567 144.988 24.3309 144.891 23.998 144.892C23.6651 144.894 23.34 144.993 23.0636 145.177C22.7871 145.361 22.5716 145.623 22.4441 145.929C21.9345 147.149 21.2857 148.371 21.126 149.662C21.0556 150.232 21.0853 150.81 21.2137 151.371C20.0168 148.775 19.3953 145.953 19.3913 143.097C19.3911 142.38 19.4311 141.664 19.5113 140.952C19.5775 140.368 19.6694 139.788 19.787 139.213C20.4285 136.09 21.8058 133.163 23.8058 130.672C24.7738 130.147 25.5566 129.339 26.0488 128.358C26.2271 128.005 26.3531 127.629 26.4229 127.24C26.3137 127.254 26.0112 125.601 26.0936 125.499C25.9414 125.27 25.669 125.156 25.5028 124.932C24.6763 123.817 23.5375 124.012 22.9429 125.526C21.6729 126.163 21.6607 127.22 22.4399 128.237C22.9357 128.884 23.0038 129.759 23.4388 130.451C23.394 130.508 23.3475 130.564 23.3028 130.621C22.4847 131.667 21.7716 132.79 21.1739 133.974C21.3193 132.647 21.1458 131.305 20.6677 130.058C20.1832 128.896 19.275 127.917 18.4753 126.912C18.2637 126.642 17.9765 126.441 17.6498 126.333C17.3231 126.225 16.9717 126.217 16.64 126.308C16.3082 126.398 16.011 126.585 15.786 126.844C15.5609 127.103 15.4181 127.422 15.3755 127.762C15.3739 127.777 15.3723 127.792 15.3707 127.806C15.4895 127.873 15.6058 127.944 15.7196 128.018C15.8625 128.113 15.9732 128.249 16.0373 128.408C16.1014 128.566 16.1157 128.741 16.0786 128.907C16.0414 129.074 15.9544 129.226 15.8289 129.343C15.7035 129.46 15.5455 129.536 15.3756 129.562L15.3582 129.565C15.4005 129.991 15.4753 130.413 15.582 130.827C14.556 134.772 16.771 136.209 19.9338 136.274C20.0036 136.31 20.0716 136.345 20.1414 136.379C19.5409 138.071 19.1642 139.834 19.0208 141.623C18.9396 142.678 18.9444 143.739 19.0351 144.793L19.0297 144.756C18.8006 143.583 18.1714 142.525 17.2486 141.76C15.8778 140.641 13.9413 140.228 12.4625 139.328C12.3054 139.228 12.1226 139.174 11.9359 139.174C11.7491 139.173 11.5661 139.226 11.4085 139.326C11.2508 139.425 11.1251 139.568 11.0461 139.736C10.9672 139.904 10.9382 140.091 10.9628 140.275L10.9688 140.315C11.1893 140.404 11.4039 140.507 11.6115 140.623C11.7302 140.689 11.8465 140.76 11.9603 140.835C12.1032 140.93 12.214 141.066 12.278 141.224C12.3421 141.383 12.3565 141.557 12.3193 141.724C12.2821 141.891 12.1951 142.042 12.0697 142.159C11.9442 142.276 11.7862 142.353 11.6163 142.379L11.5989 142.381C11.5864 142.383 11.5756 142.385 11.5631 142.387C11.9398 143.281 12.4684 144.104 13.1259 144.82C13.7674 148.264 16.5227 148.591 19.4701 147.588H19.4719C19.7953 148.985 20.2638 150.346 20.87 151.647H25.8644C25.8823 151.591 25.8984 151.534 25.9145 151.479C25.4522 151.508 24.9881 151.481 24.5325 151.397C24.9031 150.945 25.2737 150.49 25.6442 150.037C25.6525 150.029 25.6603 150.02 25.6675 150.011C25.8555 149.779 26.0452 149.55 26.2332 149.318L26.2333 149.318C26.2433 148.609 26.1615 147.901 25.9897 147.212L25.9896 147.212Z" fill="#F2F2F2"/>
<path d="M80.0341 147.212C80.1629 147.218 80.2905 147.185 80.3994 147.116C80.5084 147.047 80.5935 146.947 80.6433 146.829C80.693 146.711 80.705 146.58 80.6776 146.455C80.6501 146.329 80.5846 146.215 80.4899 146.128L80.4468 145.958C80.4525 145.944 80.4582 145.931 80.4639 145.917C80.5937 145.612 80.8112 145.352 81.0891 145.17C81.3669 144.988 81.6927 144.891 82.0256 144.892C82.3585 144.894 82.6836 144.993 82.9601 145.177C83.2366 145.361 83.4521 145.623 83.5796 145.929C84.0892 147.149 84.738 148.371 84.8977 149.662C84.968 150.232 84.9384 150.81 84.81 151.371C86.0068 148.775 86.6283 145.953 86.6323 143.097C86.6326 142.38 86.5925 141.664 86.5124 140.952C86.4461 140.368 86.3543 139.788 86.2367 139.213C85.5952 136.09 84.2179 133.163 82.2179 130.672C81.2499 130.147 80.467 129.339 79.9748 128.358C79.7965 128.005 79.6705 127.629 79.6007 127.24C79.7099 127.254 80.0124 125.601 79.9301 125.499C80.0823 125.27 80.3546 125.156 80.5208 124.932C81.3474 123.817 82.4862 124.012 83.0807 125.526C84.3507 126.163 84.363 127.22 83.5838 128.237C83.088 128.884 83.0199 129.759 82.5849 130.451C82.6296 130.508 82.6762 130.564 82.7209 130.621C83.539 131.667 84.252 132.79 84.8498 133.974C84.7044 132.647 84.8779 131.305 85.356 130.058C85.8405 128.896 86.7486 127.917 87.5484 126.912C87.7599 126.642 88.0472 126.441 88.3738 126.333C88.7005 126.225 89.0519 126.217 89.3837 126.308C89.7154 126.398 90.0126 126.585 90.2377 126.844C90.4628 127.103 90.6056 127.422 90.6481 127.762C90.6498 127.777 90.6514 127.792 90.6529 127.806C90.5341 127.873 90.4179 127.944 90.3041 128.018C90.1611 128.113 90.0504 128.249 89.9864 128.408C89.9223 128.566 89.9079 128.741 89.9451 128.907C89.9823 129.074 90.0693 129.226 90.1947 129.343C90.3202 129.46 90.4782 129.536 90.6481 129.562L90.6654 129.565C90.6231 129.991 90.5483 130.413 90.4417 130.827C91.4677 134.772 89.2527 136.209 86.0899 136.274C86.0201 136.31 85.9521 136.345 85.8822 136.379C86.4828 138.071 86.8595 139.834 87.0029 141.623C87.084 142.679 87.0792 143.739 86.9885 144.793L86.9939 144.756C87.2231 143.583 87.8522 142.525 88.7751 141.76C90.1458 140.64 92.0824 140.228 93.5611 139.328C93.7183 139.228 93.901 139.174 94.0878 139.174C94.2745 139.173 94.4575 139.226 94.6152 139.326C94.7728 139.425 94.8985 139.568 94.9775 139.736C95.0565 139.904 95.0854 140.091 95.0609 140.275L95.0548 140.315C94.8344 140.404 94.6198 140.507 94.4122 140.623C94.2934 140.689 94.1771 140.76 94.0633 140.835C93.9204 140.93 93.8096 141.065 93.7456 141.224C93.6815 141.383 93.6672 141.557 93.7043 141.724C93.7415 141.891 93.8285 142.042 93.954 142.159C94.0794 142.276 94.2374 142.353 94.4073 142.379L94.4247 142.381C94.4372 142.383 94.448 142.385 94.4605 142.387C94.0838 143.281 93.5552 144.104 92.8977 144.82C92.2562 148.264 89.5009 148.591 86.5535 147.588H86.5517C86.2284 148.985 85.7598 150.346 85.1537 151.647H80.1592C80.1413 151.591 80.1252 151.534 80.1091 151.479C80.5714 151.508 81.0355 151.481 81.4911 151.397C81.1205 150.945 80.75 150.49 80.3794 150.037C80.3711 150.029 80.3634 150.02 80.3561 150.011C80.1682 149.779 79.9784 149.55 79.7905 149.318L79.7904 149.318C79.7803 148.609 79.8622 147.901 80.0339 147.212L80.0341 147.212Z" fill="#F2F2F2"/>
<path d="M40.2362 72.1613L33.5464 86.0381L34.0239 141.339H39.7537C39.7537 141.339 40.8679 139.845 40.8679 138.798C40.8679 137.751 38.9729 137.599 40.2362 136.314C41.4995 135.029 41.9207 134.611 41.9207 133.354V113.257L46.4385 93.774L45.961 115.181L62.1955 134.448L65.9773 130.687C65.9773 130.687 67.0833 130.202 65.9773 129.161C64.8714 128.12 64.1817 129.959 64.1054 127.05C64.0291 124.142 64.6608 124.77 64.0291 124.142C63.3975 123.514 54.5557 113.018 54.5557 113.018C54.5557 113.018 62.5552 79.1268 58.5546 72.6363L40.2362 72.1613Z" fill="#2F2E41"/>
<path d="M58.9757 73.6831C58.9757 73.6831 41.7101 67.6113 42.9734 64.2614C44.2368 60.9114 46.3589 61.556 43.8239 60.5009C41.289 59.4458 39.6095 59.2364 41.1862 57.7708C42.7629 56.3052 45.079 54.8396 45.079 53.374C45.079 51.9084 46.974 40.3929 46.974 40.3929H50.0076L53.0801 35.1586H57.4206L59.6074 39.9741H64.2248L64.4502 47.3022C64.4502 47.3022 64.7487 61.4587 63.3361 62.0226C61.9236 62.5864 60.6602 62.5864 61.9236 63.8426C63.1869 65.0988 63.9064 65.7484 63.3361 66.8892C62.7658 68.0301 58.9757 73.6831 58.9757 73.6831Z" fill="#E6E6E6"/>
<path d="M61.5024 42.0678L64.2248 39.9741C64.2248 39.9741 68.8719 39.9741 69.5036 42.4866C70.1353 44.9991 73.9372 51.1433 73.9372 51.1433C73.9372 51.1433 77.7153 48.9771 79.1892 48.9771C80.6631 48.9771 81.7159 50.024 81.7159 48.7678C81.7159 47.5115 80.8737 47.3022 82.137 47.3022C83.4004 47.3022 86.7693 46.0459 86.7693 46.0459L90.3628 49.6193C90.3628 49.6193 89.9276 52.9552 88.4537 52.7459C86.9798 52.5365 86.1376 51.4896 86.1376 52.7459C86.1376 54.0021 86.9798 55.8864 85.0848 56.0958C83.1898 56.3052 70.5564 59.4458 70.5564 59.4458L61.9236 46.8834L61.5024 42.0678Z" fill="#E6E6E6"/>
<path d="M50.5535 42.0678L47.8312 39.9741C47.8312 39.9741 43.184 39.9741 42.5523 42.4866C41.9207 44.9991 37.9068 51.1433 37.9068 51.1433C37.9068 51.1433 34.3406 48.9771 32.8667 48.9771C31.3928 48.9771 30.3401 50.024 30.3401 48.7678C30.3401 47.5115 31.1823 47.3022 29.9189 47.3022C28.6556 47.3022 25.2867 46.0459 25.2867 46.0459L21.6931 49.6193C21.6931 49.6193 22.1283 52.9552 23.6022 52.7458C25.0761 52.5365 25.9184 51.4896 25.9184 52.7458C25.9184 54.0021 25.0761 55.8864 26.9711 56.0958C28.8661 56.3052 41.4996 59.4458 41.4996 59.4458L50.1324 46.8834L50.5535 42.0678Z" fill="#E6E6E6"/>
<path d="M54.7457 34.0215C58.4567 34.0215 61.4651 31.03 61.4651 27.3398C61.4651 23.6497 58.4567 20.6582 54.7457 20.6582C51.0346 20.6582 48.0262 23.6497 48.0262 27.3398C48.0262 31.03 51.0346 34.0215 54.7457 34.0215Z" fill="#FFB6B6"/>
<path d="M62.0777 26.3311C61.2878 27.2819 60.1126 27.2323 59.0677 27.0807C58.7379 27.0339 58.4081 26.9815 58.0783 26.9209C58.0201 26.7362 57.9536 26.5516 57.8788 26.3724C57.5695 25.6244 57.107 24.9486 56.5207 24.3881C56.5824 25.1209 56.5253 25.8588 56.3516 26.5736C55.7391 26.4331 55.1293 26.276 54.5224 26.1023C53.9853 26.0155 53.5024 25.7269 53.1733 25.296C52.8442 24.8652 52.6941 24.3251 52.7541 23.7873C51.8811 24.4488 50.9304 25.022 49.9326 25.033C49.3702 25.0185 48.8273 24.8252 48.3834 24.4815C47.9395 24.1378 47.6179 23.6618 47.4659 23.1231C47.1943 22.2963 47.2359 21.3428 47.3468 20.4498C47.4798 19.3888 47.7791 18.223 48.4997 17.7958C49.079 17.4486 49.7469 17.6966 50.3428 17.9777C51.6557 18.6042 52.9002 19.3633 54.0567 20.2431L54.0706 20.5325C54.3699 19.1077 55.3594 18.008 56.4375 17.8978C57.1637 17.8261 57.8732 18.1596 58.5578 18.4958C59.4525 18.8883 60.2846 19.4093 61.0273 20.0419C61.8663 20.8009 62.449 21.799 62.6958 22.8999C62.9535 24.0932 62.7595 25.5098 62.0777 26.3311Z" fill="#2F2E41"/>
<path d="M55.4261 17.0584C55.495 17.0642 55.3257 17.0256 55.3807 17.0485C55.3537 17.0362 55.3278 17.0218 55.3032 17.0054C55.299 17.0027 55.2444 16.9588 55.2801 16.9894C55.1979 16.9258 55.136 16.8398 55.1018 16.742C55.0255 16.5042 54.9899 16.2553 54.9967 16.0058C55.0104 15.6779 54.9541 15.3508 54.8317 15.046C54.7954 14.9635 54.74 14.8906 54.6701 14.8333C54.6002 14.776 54.5176 14.736 54.4292 14.7164C54.3408 14.6968 54.249 14.6982 54.1612 14.7205C54.0734 14.7428 53.9922 14.7853 53.924 14.8447C53.6972 15.0659 53.6793 15.4395 53.6632 15.7366C53.6459 16.0451 53.6788 16.3543 53.7606 16.6524C53.9012 17.1425 54.1822 17.5814 54.5692 17.9155C55.0163 18.3048 55.5776 18.5404 56.17 18.5875C56.2514 18.5857 56.3305 18.5603 56.3977 18.5146C56.4649 18.4689 56.5172 18.4047 56.5484 18.3299C56.5795 18.2551 56.5881 18.1729 56.5732 18.0934C56.5582 18.0138 56.5202 17.9403 56.464 17.8818L55.72 17.1795C55.6421 17.102 55.5363 17.0584 55.4261 17.0584C55.3158 17.0584 55.21 17.102 55.1321 17.1795C55.0541 17.257 55.0103 17.3622 55.0103 17.4718C55.0103 17.5814 55.0541 17.6866 55.1321 17.7641L55.876 18.4664L56.17 17.7607C56.0472 17.7497 55.9261 17.7251 55.8088 17.6873C55.6816 17.6521 55.5601 17.5992 55.448 17.53C55.338 17.4702 55.235 17.3986 55.1407 17.3165C55.0804 17.2637 55.0228 17.208 54.9681 17.1494C54.9483 17.1282 54.9288 17.1065 54.9098 17.0845C54.9111 17.0861 54.8315 16.9867 54.8657 17.0322C54.7797 16.9152 54.7049 16.7905 54.6421 16.6597C54.62 16.6134 54.6018 16.5654 54.5876 16.5161C54.5613 16.435 54.5397 16.3525 54.5231 16.2689C54.4914 16.0934 54.4819 15.9145 54.4947 15.7366C54.4983 15.6611 54.5058 15.5859 54.5173 15.5113C54.5278 15.4719 54.5356 15.4318 54.5406 15.3914C54.542 15.291 54.5268 15.445 54.4741 15.4684L54.2643 15.5248C54.2301 15.5221 54.197 15.5117 54.1674 15.4944C54.1378 15.4772 54.1125 15.4536 54.0934 15.4253C54.0846 15.3908 54.0871 15.3969 54.1008 15.4437C54.1165 15.4985 54.1287 15.5543 54.1374 15.6108C54.1534 15.7419 54.1627 15.8737 54.1652 16.0058C54.1679 16.2856 54.2006 16.5643 54.2627 16.8372C54.321 17.1114 54.4648 17.3604 54.6737 17.5486C54.8826 17.7368 55.1459 17.8546 55.426 17.8852C55.536 17.8843 55.6413 17.8405 55.719 17.7632C55.7968 17.6858 55.8409 17.5812 55.8418 17.4718C55.8396 17.3629 55.7951 17.259 55.7176 17.1819C55.6401 17.1048 55.5356 17.0606 55.4261 17.0584Z" fill="#2F2E41"/>
<path d="M89.7426 43.8928C87.4564 40.8689 86.135 37.4875 86.0917 33.6325C86.018 33.4247 86.0302 33.1964 86.1256 32.9976C86.2211 32.7988 86.3919 32.6457 86.6007 32.572L94.3933 29.8303C94.6022 29.757 94.8318 29.7692 95.0318 29.8641C95.2317 29.959 95.3856 30.1288 95.4597 30.3364L99.1106 40.5967C99.1843 40.8045 99.1721 41.0328 99.0766 41.2316C98.9812 41.4304 98.8104 41.5834 98.6016 41.6571L90.809 44.3989C90.6001 44.4721 90.3705 44.46 90.1705 44.3651C89.9706 44.2702 89.8167 44.1003 89.7426 43.8928Z" fill="black"/>
<path opacity="0.2" d="M91.5019 43.7099C91.293 43.7831 91.0633 43.771 90.8634 43.6761C90.6635 43.5812 90.5096 43.4113 90.4355 43.2037C88.1492 40.1799 86.8279 36.7985 86.7845 32.9434C86.7369 32.8068 86.7263 32.6601 86.754 32.5181L86.6007 32.572C86.3919 32.6457 86.2211 32.7988 86.1257 32.9976C86.0302 33.1964 86.018 33.4247 86.0917 33.6324C86.135 37.4875 87.4563 40.8689 89.7426 43.8927C89.8167 44.1003 89.9706 44.2702 90.1705 44.3651C90.3704 44.46 90.6001 44.4721 90.809 44.3989L98.6016 41.6571C98.7399 41.608 98.8626 41.5233 98.9574 41.4118C99.0521 41.3003 99.1155 41.1658 99.1412 41.0221L91.5019 43.7099Z" fill="black"/>
<path d="M95.1526 36.0303L89.9358 37.882C89.8528 37.9114 89.7614 37.9069 89.6817 37.8694C89.6021 37.8318 89.5407 37.7644 89.511 37.6818C89.4814 37.5993 89.486 37.5084 89.5237 37.4292C89.5615 37.35 89.6293 37.2889 89.7123 37.2595L94.9292 35.4078C94.9703 35.3932 95.0139 35.3868 95.0575 35.389C95.1011 35.3911 95.1438 35.4018 95.1832 35.4204C95.2227 35.439 95.2581 35.4651 95.2874 35.4973C95.3166 35.5295 95.3393 35.5671 95.3539 35.6079C95.3686 35.6488 95.375 35.6922 95.3729 35.7355C95.3707 35.7788 95.36 35.8213 95.3413 35.8606C95.3226 35.8998 95.2963 35.935 95.2639 35.9641C95.2316 35.9932 95.1938 36.0157 95.1526 36.0303Z" fill="white"/>
<path d="M90.4708 35.7677L89.3231 36.1751C89.282 36.1897 89.2385 36.1962 89.1949 36.1941C89.1513 36.192 89.1085 36.1813 89.0691 36.1628C89.0296 36.1443 88.9942 36.1182 88.9649 36.086C88.9355 36.0539 88.9129 36.0163 88.8981 35.9754C88.8834 35.9346 88.8769 35.8912 88.8791 35.8479C88.8812 35.8045 88.8919 35.762 88.9105 35.7228C88.9291 35.6836 88.9554 35.6483 88.9877 35.6192C89.02 35.59 89.0578 35.5675 89.0989 35.5528L89.0997 35.5526L90.2474 35.1452C90.3304 35.1159 90.4217 35.1205 90.5012 35.158C90.5808 35.1956 90.6422 35.263 90.6718 35.3455C90.7014 35.428 90.6969 35.5188 90.6592 35.598C90.6215 35.6771 90.5538 35.7382 90.4708 35.7677Z" fill="white"/>
<path d="M96.1351 38.767L90.9182 40.6187C90.8352 40.6482 90.7438 40.6438 90.6641 40.6064C90.5844 40.5689 90.523 40.5015 90.4932 40.419C90.4635 40.3365 90.4679 40.2456 90.5056 40.1664C90.5433 40.0871 90.611 40.026 90.694 39.9964L90.6947 39.9962L95.9116 38.1445C95.9946 38.1151 96.0859 38.1197 96.1655 38.1573C96.2451 38.1948 96.3064 38.2623 96.336 38.3448C96.3656 38.4272 96.3611 38.518 96.3234 38.5972C96.2858 38.6764 96.218 38.7375 96.1351 38.767Z" fill="white"/>
<path d="M95.6439 37.3987L90.427 39.2504C90.3859 39.265 90.3423 39.2715 90.2987 39.2694C90.2552 39.2673 90.2124 39.2566 90.1729 39.2381C90.1335 39.2196 90.0981 39.1935 90.0687 39.1613C90.0394 39.1292 90.0167 39.0916 90.002 39.0508C89.9873 39.0099 89.9808 38.9666 89.9829 38.9232C89.9851 38.8799 89.9957 38.8374 90.0144 38.7981C90.033 38.7589 90.0593 38.7237 90.0916 38.6945C90.1239 38.6653 90.1617 38.6428 90.2028 38.6282L90.2035 38.6279L95.4204 36.7762C95.4615 36.7616 95.5051 36.7551 95.5487 36.7572C95.5923 36.7593 95.635 36.77 95.6745 36.7885C95.7139 36.807 95.7494 36.8331 95.7787 36.8653C95.808 36.8974 95.8307 36.935 95.8454 36.9759C95.8601 37.0167 95.8666 37.06 95.8645 37.1034C95.8624 37.1467 95.8517 37.1893 95.833 37.2285C95.8144 37.2677 95.7882 37.3029 95.7558 37.3321C95.7235 37.3613 95.6857 37.3838 95.6446 37.3985L95.6439 37.3987Z" fill="white"/>
<path d="M90.2895 32.6782C91.0549 32.6782 91.6753 32.0613 91.6753 31.3002C91.6753 30.5392 91.0549 29.9222 90.2895 29.9222C89.5242 29.9222 88.9037 30.5392 88.9037 31.3002C88.9037 32.0613 89.5242 32.6782 90.2895 32.6782Z" fill="#3F3D56"/>
<path d="M21.8598 8.76928C23.2555 5.24998 25.4624 2.36126 28.7439 0.307907C28.8834 0.136805 29.0855 0.0277283 29.3058 0.00460014C29.5261 -0.018528 29.7466 0.0461838 29.919 0.184541L36.3454 5.35428C36.5175 5.49303 36.6272 5.69397 36.6504 5.91304C36.6737 6.13211 36.6086 6.3514 36.4695 6.52282L29.5854 14.9842C29.4459 15.1553 29.2438 15.2644 29.0235 15.2875C28.8032 15.3106 28.5827 15.2459 28.4103 15.1076L21.9839 9.93782C21.8118 9.79908 21.7021 9.59813 21.6789 9.37906C21.6556 9.15999 21.7207 8.9407 21.8598 8.76928Z" fill="black"/>
<path opacity="0.2" d="M22.9369 10.1646C22.7648 10.0259 22.6551 9.82492 22.6319 9.60585C22.6086 9.38678 22.6737 9.16748 22.8128 8.99607C24.2085 5.47674 26.4154 2.58803 29.6969 0.534677C29.7891 0.422793 29.9093 0.337107 30.0455 0.286283L29.919 0.184544C29.7466 0.0461893 29.5261 -0.0185268 29.3058 0.00459917C29.0855 0.0277252 28.8834 0.136805 28.7439 0.307902C25.4624 2.36126 23.2555 5.24996 21.8598 8.76929C21.7207 8.9407 21.6556 9.16 21.6789 9.37907C21.7021 9.59814 21.8118 9.79909 21.9839 9.93783L28.4103 15.1076C28.5247 15.199 28.6615 15.2587 28.8066 15.2807C28.9518 15.3027 29.1002 15.2861 29.2368 15.2326L22.9369 10.1646Z" fill="black"/>
<path d="M31.4287 9.24125L27.1127 5.78877C27.0442 5.73375 27.0005 5.65399 26.9911 5.56698C26.9818 5.47997 27.0075 5.39282 27.0626 5.32463C27.1178 5.25645 27.1979 5.2128 27.2854 5.20326C27.3729 5.19373 27.4606 5.21908 27.5293 5.27376L31.8454 8.72623C31.9138 8.78125 31.9575 8.86101 31.9669 8.94801C31.9762 9.03501 31.9505 9.12215 31.8954 9.19033C31.8402 9.25851 31.7601 9.30215 31.6726 9.31169C31.5852 9.32124 31.4975 9.2959 31.4287 9.24124L31.4287 9.24125Z" fill="white"/>
<path d="M29.2046 5.13612L28.2551 4.37658C28.1867 4.32152 28.1432 4.24178 28.1338 4.15483C28.1245 4.06787 28.1502 3.98079 28.2053 3.91265C28.2605 3.84451 28.3405 3.80087 28.4279 3.79129C28.5153 3.78172 28.603 3.80699 28.6717 3.86156L29.6213 4.62111C29.6896 4.67615 29.7333 4.7559 29.7426 4.84287C29.752 4.92985 29.7262 5.01696 29.6711 5.08512C29.616 5.15328 29.5359 5.19691 29.4485 5.20648C29.361 5.21604 29.2733 5.19074 29.2046 5.13613L29.2046 5.13612Z" fill="white"/>
<path d="M29.5971 11.5053L25.281 8.05283C25.2126 7.99781 25.1689 7.91804 25.1595 7.83103C25.1501 7.74402 25.1758 7.65686 25.231 7.58867C25.2861 7.52048 25.3663 7.47684 25.4537 7.4673C25.5412 7.45777 25.6289 7.48312 25.6976 7.53781L30.0137 10.9903C30.0821 11.0453 30.1257 11.1251 30.135 11.212C30.1443 11.299 30.1186 11.3861 30.0635 11.4542C30.0083 11.5223 29.9283 11.566 29.8409 11.5756C29.7535 11.5851 29.6658 11.5599 29.5971 11.5053H29.5971Z" fill="white"/>
<path d="M30.5129 10.3733L26.1968 6.92083C26.1627 6.89372 26.1344 6.8602 26.1133 6.82218C26.0923 6.78417 26.0789 6.7424 26.0741 6.69926C26.0644 6.61215 26.0898 6.52476 26.1449 6.45631C26.2 6.38787 26.2801 6.34398 26.3677 6.3343C26.4553 6.32462 26.5432 6.34994 26.6121 6.40469L26.6135 6.40581L30.9295 9.85829C30.9984 9.91304 31.0425 9.99274 31.0522 10.0799C31.062 10.167 31.0365 10.2544 30.9814 10.3228C30.9264 10.3913 30.8462 10.4351 30.7586 10.4448C30.671 10.4545 30.5831 10.4292 30.5143 10.3744L30.5129 10.3733V10.3733Z" fill="white"/>
<path d="M32.9388 4.02344C33.7042 4.02344 34.3246 3.40649 34.3246 2.64545C34.3246 1.8844 33.7042 1.26746 32.9388 1.26746C32.1735 1.26746 31.553 1.8844 31.553 2.64545C31.553 3.40649 32.1735 4.02344 32.9388 4.02344Z" fill="#3F3D56"/>
<path d="M5.96395 49.9662C2.58232 45.4935 0.627796 40.492 0.563745 34.7898C0.454796 34.4825 0.472876 34.1448 0.614021 33.8507C0.755165 33.5567 1.00785 33.3303 1.31663 33.2213L12.843 29.1658C13.1521 29.0575 13.4917 29.0755 13.7874 29.2158C14.0831 29.3562 14.3108 29.6074 14.4204 29.9145L19.8206 45.0909C19.9296 45.3982 19.9115 45.7359 19.7703 46.03C19.6292 46.324 19.3765 46.5504 19.0677 46.6594L7.54135 50.7148C7.23232 50.8232 6.89269 50.8052 6.59697 50.6648C6.30125 50.5245 6.0736 50.2732 5.96395 49.9662Z" fill="black"/>
<path opacity="0.2" d="M8.56625 49.6957C8.25722 49.8041 7.9176 49.7861 7.62188 49.6457C7.32616 49.5054 7.09851 49.2541 6.98886 48.9471C3.60723 44.4744 1.65271 39.4729 1.58864 33.7707C1.51811 33.5686 1.50252 33.3515 1.54345 33.1415L1.31663 33.2213C1.00785 33.3303 0.755175 33.5567 0.614027 33.8507C0.47288 34.1448 0.454795 34.4825 0.563735 34.7898C0.627789 40.492 2.5823 45.4935 5.96395 49.9662C6.0736 50.2732 6.30126 50.5245 6.59698 50.6649C6.89269 50.8052 7.23232 50.8232 7.54135 50.7148L19.0677 46.6595C19.2722 46.5867 19.4538 46.4615 19.5939 46.2966C19.7341 46.1316 19.8279 45.9328 19.8658 45.7201L8.56625 49.6957Z" fill="black"/>
<path d="M13.9663 38.3366L6.2498 41.0755C6.18894 41.0973 6.12437 41.1069 6.05976 41.1038C5.99515 41.1008 5.93178 41.0851 5.87329 41.0576C5.8148 41.0302 5.76233 40.9915 5.71889 40.9438C5.67546 40.8962 5.64191 40.8405 5.62016 40.7799C5.59842 40.7193 5.58891 40.6551 5.59218 40.5908C5.59545 40.5266 5.61144 40.4636 5.63923 40.4056C5.66701 40.3475 5.70605 40.2954 5.75411 40.2524C5.80216 40.2093 5.85829 40.1761 5.91927 40.1547L13.6357 37.4158C13.6965 37.3942 13.761 37.3847 13.8255 37.3879C13.89 37.3911 13.9532 37.4069 14.0115 37.4344C14.0699 37.4619 14.1222 37.5006 14.1655 37.5482C14.2088 37.5958 14.2423 37.6514 14.264 37.7118C14.2857 37.7723 14.2952 37.8364 14.292 37.9005C14.2888 37.9646 14.2729 38.0275 14.2452 38.0855C14.2176 38.1435 14.1787 38.1956 14.1309 38.2386C14.083 38.2817 14.0271 38.315 13.9663 38.3366Z" fill="white"/>
<path d="M7.04112 37.948L5.34349 38.5506C5.22081 38.5937 5.08593 38.5867 4.96842 38.5311C4.8509 38.4755 4.76035 38.3759 4.7166 38.254C4.67285 38.1322 4.67949 37.998 4.73504 37.881C4.79059 37.764 4.89054 37.6737 5.01297 37.6298L6.71058 37.0272C6.83327 36.9841 6.96815 36.9911 7.08566 37.0467C7.20317 37.1023 7.29373 37.2019 7.33748 37.3238C7.38122 37.4456 7.37459 37.5798 7.31904 37.6968C7.26348 37.8138 7.16354 37.9041 7.04112 37.948Z" fill="white"/>
<path d="M15.4194 42.3844L7.70289 45.1233C7.5801 45.1669 7.44492 45.1602 7.3271 45.1047C7.20928 45.0491 7.11846 44.9494 7.07463 44.8273C7.0308 44.7052 7.03754 44.5707 7.09338 44.4536C7.14921 44.3364 7.24957 44.2461 7.37236 44.2025L15.0888 41.4636C15.1496 41.4421 15.2141 41.4326 15.2786 41.4358C15.3431 41.439 15.4063 41.4548 15.4646 41.4823C15.523 41.5098 15.5753 41.5484 15.6186 41.596C15.6619 41.6436 15.6954 41.6992 15.7171 41.7597C15.7388 41.8201 15.7483 41.8843 15.7451 41.9484C15.7419 42.0125 15.726 42.0754 15.6983 42.1334C15.6707 42.1914 15.6318 42.2434 15.584 42.2865C15.5361 42.3296 15.4802 42.3628 15.4194 42.3844Z" fill="white"/>
<path d="M14.6928 40.3605L6.97633 43.0994C6.91553 43.121 6.85105 43.1304 6.78657 43.1272C6.72209 43.124 6.65888 43.1082 6.60054 43.0807C6.5422 43.0533 6.48988 43.0146 6.44656 42.967C6.40324 42.9194 6.36978 42.8638 6.34807 42.8033C6.32637 42.7429 6.31685 42.6788 6.32007 42.6146C6.32329 42.5505 6.33917 42.4877 6.36682 42.4297C6.39446 42.3716 6.43333 42.3196 6.4812 42.2765C6.52906 42.2335 6.585 42.2002 6.6458 42.1786L14.3623 39.4397C14.4231 39.4181 14.4876 39.4087 14.552 39.4119C14.6165 39.4151 14.6797 39.4309 14.7381 39.4583C14.7964 39.4858 14.8487 39.5245 14.892 39.5721C14.9354 39.6197 14.9688 39.6753 14.9905 39.7358C15.0122 39.7962 15.0217 39.8603 15.0185 39.9245C15.0153 39.9886 14.9994 40.0514 14.9718 40.1094C14.9441 40.1674 14.9053 40.2195 14.8574 40.2626C14.8095 40.3056 14.7536 40.3389 14.6928 40.3605Z" fill="white"/>
<path d="M6.77292 33.3782C7.90498 33.3782 8.82269 32.4657 8.82269 31.34C8.82269 30.2143 7.90498 29.3018 6.77292 29.3018C5.64086 29.3018 4.72314 30.2143 4.72314 31.34C4.72314 32.4657 5.64086 33.3782 6.77292 33.3782Z" fill="#3F3D56"/>
<path d="M82.0269 123.685C78.2225 123.665 74.7154 122.666 71.6023 120.368C71.3914 120.301 71.216 120.153 71.1145 119.957C71.013 119.761 70.9938 119.533 71.0611 119.324L73.58 111.495C73.6478 111.285 73.7964 111.111 73.9933 111.01C74.1903 110.909 74.4194 110.89 74.6305 110.957L85.0551 114.273C85.266 114.341 85.4415 114.489 85.5429 114.684C85.6444 114.88 85.6636 115.108 85.5963 115.318L83.0774 123.147C83.0096 123.356 82.861 123.531 82.6641 123.632C82.4671 123.732 82.238 123.752 82.0269 123.685Z" fill="#F2F2F2"/>
<path opacity="0.2" d="M82.9448 122.181C82.8771 122.391 82.7285 122.565 82.5315 122.666C82.3346 122.767 82.1055 122.786 81.8944 122.719C78.0899 122.7 74.5829 121.701 71.4698 119.403C71.3315 119.358 71.2076 119.277 71.1107 119.17L71.0611 119.324C70.9938 119.534 71.013 119.761 71.1145 119.957C71.216 120.153 71.3914 120.301 71.6023 120.368C74.7154 122.666 78.2225 123.666 82.0269 123.685C82.238 123.752 82.4671 123.733 82.664 123.632C82.861 123.531 83.0096 123.356 83.0774 123.147L85.5963 115.318C85.6406 115.179 85.647 115.03 85.6151 114.888C85.5831 114.745 85.5138 114.614 85.4142 114.507L82.9448 122.181Z" fill="black"/>
<path d="M79.0041 114.645L77.3308 119.895C77.3178 119.937 77.2967 119.975 77.2688 120.009C77.2408 120.042 77.2065 120.07 77.1678 120.09C77.1292 120.11 77.0869 120.122 77.0434 120.126C76.9998 120.13 76.956 120.126 76.9143 120.113C76.8726 120.1 76.8339 120.079 76.8003 120.051C76.7668 120.023 76.7391 119.989 76.7189 119.95C76.6986 119.912 76.6862 119.87 76.6823 119.827C76.6785 119.783 76.6832 119.74 76.6963 119.698L76.6971 119.696L78.3705 114.445C78.3974 114.362 78.4564 114.293 78.5345 114.252C78.6126 114.212 78.7034 114.205 78.7872 114.231C78.871 114.258 78.9408 114.316 78.9815 114.393C79.0221 114.471 79.0303 114.561 79.0041 114.645Z" fill="white"/>
<path d="M75.9614 118.193L75.5932 119.348C75.5802 119.389 75.5591 119.428 75.5312 119.461C75.5032 119.494 75.4689 119.522 75.4303 119.542C75.3916 119.562 75.3493 119.574 75.3059 119.578C75.2624 119.582 75.2186 119.578 75.1769 119.565C75.1353 119.552 75.0966 119.531 75.0631 119.503C75.0295 119.475 75.0019 119.441 74.9816 119.403C74.9614 119.364 74.9489 119.322 74.945 119.279C74.9411 119.236 74.9458 119.192 74.9588 119.151L74.9596 119.148L75.3277 117.993C75.3407 117.951 75.3618 117.913 75.3898 117.88C75.4178 117.846 75.4521 117.819 75.4907 117.799C75.5294 117.779 75.5716 117.766 75.6151 117.762C75.6586 117.758 75.7024 117.763 75.7441 117.776C75.7857 117.789 75.8244 117.81 75.8579 117.838C75.8914 117.866 75.9191 117.9 75.9394 117.938C75.9596 117.977 75.9721 118.019 75.976 118.062C75.9799 118.105 75.9752 118.149 75.9622 118.19L75.9614 118.193Z" fill="white"/>
<path d="M81.7898 115.522L80.1164 120.773C80.1034 120.815 80.0823 120.853 80.0544 120.886C80.0264 120.92 79.9921 120.947 79.9534 120.967C79.9148 120.987 79.8725 121 79.829 121.004C79.7856 121.008 79.7418 121.003 79.7001 120.99C79.6584 120.977 79.6198 120.956 79.5862 120.928C79.5527 120.901 79.5251 120.866 79.5048 120.828C79.4846 120.79 79.4721 120.747 79.4682 120.704C79.4643 120.661 79.469 120.617 79.482 120.576L79.4828 120.573L81.1561 115.323C81.1691 115.281 81.1901 115.243 81.2181 115.209C81.246 115.176 81.2803 115.148 81.319 115.128C81.3577 115.108 81.4 115.095 81.4436 115.091C81.4871 115.088 81.531 115.092 81.5727 115.105C81.6144 115.118 81.6531 115.139 81.6867 115.167C81.7202 115.195 81.7479 115.229 81.7681 115.268C81.7884 115.306 81.8008 115.348 81.8046 115.391C81.8085 115.435 81.8037 115.478 81.7906 115.52L81.7898 115.522Z" fill="white"/>
<path d="M80.3969 115.083L78.7236 120.334C78.7106 120.376 78.6896 120.414 78.6616 120.448C78.6336 120.481 78.5993 120.509 78.5607 120.529C78.522 120.549 78.4797 120.561 78.4362 120.565C78.3927 120.569 78.3488 120.565 78.3071 120.552C78.2654 120.539 78.2267 120.518 78.1932 120.49C78.1596 120.462 78.1319 120.428 78.1117 120.389C78.0915 120.351 78.079 120.309 78.0752 120.265C78.0713 120.222 78.076 120.179 78.0891 120.137L78.0899 120.135L79.7633 114.884C79.7763 114.842 79.7974 114.804 79.8254 114.771C79.8533 114.737 79.8876 114.71 79.9263 114.69C79.9649 114.669 80.0072 114.657 80.0507 114.653C80.0941 114.649 80.138 114.654 80.1796 114.667C80.2213 114.68 80.26 114.701 80.2935 114.729C80.327 114.756 80.3547 114.791 80.3749 114.829C80.3952 114.867 80.4076 114.909 80.4115 114.953C80.4154 114.996 80.4108 115.039 80.3977 115.081L80.3969 115.083Z" fill="white"/>
<path d="M72.2743 117.011C73.0397 117.011 73.6601 116.395 73.6601 115.633C73.6601 114.872 73.0397 114.255 72.2743 114.255C71.509 114.255 70.8885 114.872 70.8885 115.633C70.8885 116.395 71.509 117.011 72.2743 117.011Z" fill="#CCCCCC"/>
<path d="M102.781 61.8295C102.916 61.2981 102.403 60.7105 101.635 60.5169C100.867 60.3234 100.135 60.5972 99.9993 61.1285C99.8639 61.6598 100.377 62.2475 101.145 62.441C101.913 62.6346 102.645 62.3608 102.781 61.8295Z" fill="white"/>
<path d="M93.4008 61.7694C93.5362 61.2381 93.0233 60.6504 92.2552 60.4569C91.4871 60.2633 90.7547 60.5371 90.6193 61.0685C90.4839 61.5998 90.9968 62.1874 91.7649 62.381C92.533 62.5745 93.2654 62.3007 93.4008 61.7694Z" fill="#3F3D56"/>
<path d="M104.541 69.5679C104.676 69.0365 104.164 68.4489 103.395 68.2553C102.627 68.0618 101.895 68.3356 101.76 68.8669C101.624 69.3983 102.137 69.9859 102.905 70.1795C103.673 70.373 104.406 70.0992 104.541 69.5679Z" fill="#FF6584"/>
<path d="M106.728 72.4858C106.783 71.9909 106.548 71.5585 106.201 71.5201C105.855 71.4816 105.529 71.8516 105.474 72.3465C105.418 72.8414 105.654 73.2737 106 73.3122C106.346 73.3507 106.672 72.9807 106.728 72.4858Z" fill="#E6E6E6"/>
<path d="M107.499 78.3306C107.555 77.8357 107.319 77.4034 106.973 77.3649C106.627 77.3264 106.301 77.6964 106.245 78.1913C106.19 78.6862 106.425 79.1186 106.771 79.1571C107.118 79.1955 107.443 78.8255 107.499 78.3306Z" fill="#3F3D56"/>
<path d="M97.9092 67.1921C97.9648 66.6972 97.7292 66.2648 97.383 66.2263C97.0368 66.1879 96.7111 66.5579 96.6554 67.0528C96.5998 67.5477 96.8354 67.98 97.1816 68.0185C97.5279 68.057 97.8536 67.687 97.9092 67.1921Z" fill="#E6E6E6"/>
<path d="M102.63 65.4287C102.685 64.9338 102.45 64.5014 102.103 64.4629C101.757 64.4245 101.432 64.7945 101.376 65.2894C101.32 65.7842 101.556 66.2166 101.902 66.2551C102.248 66.2935 102.574 65.9235 102.63 65.4287Z" fill="#FF6584"/>
<path d="M96.8143 60.6645C96.8699 60.1696 96.6343 59.7372 96.2881 59.6988C95.9419 59.6603 95.6161 60.0303 95.5605 60.5252C95.5049 61.0201 95.7405 61.4524 96.0867 61.4909C96.4329 61.5294 96.7587 61.1594 96.8143 60.6645Z" fill="#3F3D56"/>
<path d="M15.1991 58.5223C15.3345 57.991 14.8216 57.4034 14.0535 57.2098C13.2854 57.0163 12.553 57.2901 12.4175 57.8214C12.2821 58.3527 12.795 58.9404 13.5631 59.1339C14.3312 59.3275 15.0637 59.0537 15.1991 58.5223Z" fill="white"/>
<path d="M5.81902 58.4622C5.95443 57.9308 5.44154 57.3432 4.67344 57.1496C3.90533 56.9561 3.17289 57.2299 3.03748 57.7612C2.90207 58.2925 3.41497 58.8802 4.18307 59.0737C4.95117 59.2673 5.68361 58.9935 5.81902 58.4622Z" fill="#3F3D56"/>
<path d="M16.9593 66.2606C17.0947 65.7293 16.5818 65.1417 15.8137 64.9481C15.0456 64.7545 14.3132 65.0284 14.1777 65.5597C14.0423 66.091 14.5552 66.6786 15.3233 66.8722C16.0914 67.0658 16.8239 66.7919 16.9593 66.2606Z" fill="#FF6584"/>
<path d="M19.1458 69.1787C19.2015 68.6838 18.9659 68.2514 18.6196 68.2129C18.2734 68.1745 17.9477 68.5445 17.8921 69.0394C17.8365 69.5342 18.072 69.9666 18.4183 70.0051C18.7645 70.0435 19.0902 69.6735 19.1458 69.1787Z" fill="#E6E6E6"/>
<path d="M19.9172 75.0235C19.9728 74.5286 19.7372 74.0962 19.391 74.0578C19.0448 74.0193 18.719 74.3893 18.6634 74.8842C18.6078 75.3791 18.8434 75.8115 19.1896 75.8499C19.5358 75.8884 19.8616 75.5184 19.9172 75.0235Z" fill="#3F3D56"/>
<path d="M10.3274 63.8848C10.383 63.3899 10.1474 62.9576 9.80123 62.9191C9.45501 62.8806 9.12926 63.2506 9.07365 63.7455C9.01804 64.2404 9.25363 64.6728 9.59985 64.7113C9.94606 64.7497 10.2718 64.3797 10.3274 63.8848Z" fill="#E6E6E6"/>
<path d="M15.0479 62.1215C15.1035 61.6266 14.8679 61.1943 14.5217 61.1558C14.1755 61.1173 13.8497 61.4873 13.7941 61.9822C13.7385 62.4771 13.9741 62.9095 14.3203 62.9479C14.6665 62.9864 14.9923 62.6164 15.0479 62.1215Z" fill="#FF6584"/>
<path d="M9.23251 57.3574C9.28812 56.8625 9.05254 56.4301 8.70632 56.3916C8.3601 56.3532 8.03435 56.7232 7.97874 57.2181C7.92313 57.713 8.15872 58.1453 8.50494 58.1838C8.85115 58.2223 9.1769 57.8523 9.23251 57.3574Z" fill="#3F3D56"/>
<path d="M75.0532 84.957C72.767 81.9331 71.4456 78.5517 71.4023 74.6967C71.3287 74.4889 71.3409 74.2606 71.4363 74.0618C71.5317 73.863 71.7026 73.7099 71.9113 73.6362L79.704 70.8945C79.9129 70.8212 80.1425 70.8334 80.3424 70.9283C80.5424 71.0232 80.6963 71.193 80.7704 71.4006L84.4213 81.6609C84.495 81.8687 84.4827 82.097 84.3873 82.2958C84.2919 82.4946 84.1211 82.6476 83.9123 82.7214L76.1197 85.4631C75.9107 85.5363 75.6811 85.5242 75.4812 85.4293C75.2813 85.3344 75.1274 85.1645 75.0532 84.957Z" fill="#F2F2F2"/>
<path opacity="0.2" d="M76.8126 84.7741C76.6036 84.8473 76.374 84.8352 76.1741 84.7403C75.9742 84.6454 75.8203 84.4755 75.7461 84.2679C73.4599 81.2441 72.1385 77.8627 72.0952 74.0077C72.0475 73.871 72.037 73.7243 72.0647 73.5823L71.9113 73.6362C71.7026 73.7099 71.5317 73.863 71.4363 74.0618C71.3409 74.2606 71.3287 74.4889 71.4023 74.6966C71.4456 78.5517 72.767 81.9331 75.0532 84.9569C75.1274 85.1645 75.2813 85.3344 75.4812 85.4293C75.6811 85.5242 75.9107 85.5363 76.1197 85.4631L83.9123 82.7214C84.0506 82.6722 84.1733 82.5876 84.268 82.476C84.3628 82.3645 84.4262 82.2301 84.4519 82.0863L76.8126 84.7741Z" fill="black"/>
<path d="M80.4633 77.0945L75.2464 78.9462C75.1634 78.9757 75.0721 78.9711 74.9924 78.9336C74.9127 78.8961 74.8513 78.8286 74.8217 78.746C74.7921 78.6635 74.7966 78.5726 74.8344 78.4934C74.8721 78.4142 74.94 78.3532 75.023 78.3237L80.2399 76.472C80.281 76.4574 80.3246 76.451 80.3681 76.4532C80.4117 76.4553 80.4545 76.466 80.4939 76.4846C80.5334 76.5032 80.5687 76.5293 80.598 76.5615C80.6273 76.5937 80.6499 76.6313 80.6646 76.6721C80.6793 76.713 80.6857 76.7564 80.6835 76.7997C80.6814 76.8431 80.6706 76.8856 80.6519 76.9248C80.6332 76.964 80.607 76.9992 80.5746 77.0283C80.5422 77.0574 80.5044 77.0799 80.4633 77.0945Z" fill="white"/>
<path d="M75.7814 76.8319L74.6337 77.2393C74.5926 77.2539 74.5491 77.2604 74.5055 77.2583C74.4619 77.2562 74.4191 77.2455 74.3797 77.227C74.3402 77.2085 74.3048 77.1824 74.2755 77.1502C74.2461 77.1181 74.2235 77.0805 74.2087 77.0397C74.194 76.9988 74.1875 76.9555 74.1897 76.9121C74.1918 76.8688 74.2025 76.8262 74.2211 76.787C74.2398 76.7478 74.266 76.7126 74.2983 76.6834C74.3306 76.6542 74.3684 76.6317 74.4095 76.6171L74.4103 76.6168L75.558 76.2094C75.641 76.1801 75.7323 76.1847 75.8119 76.2222C75.8914 76.2598 75.9528 76.3272 75.9824 76.4097C76.012 76.4922 76.0075 76.583 75.9698 76.6622C75.9321 76.7413 75.8644 76.8024 75.7814 76.8319Z" fill="white"/>
<path d="M81.4457 79.8312L76.2289 81.6829C76.1878 81.6975 76.1442 81.704 76.1006 81.7019C76.057 81.6997 76.0143 81.6891 75.9748 81.6706C75.9353 81.652 75.8999 81.626 75.8706 81.5938C75.8413 81.5617 75.8186 81.5241 75.8039 81.4832C75.7892 81.4424 75.7827 81.399 75.7848 81.3557C75.7869 81.3123 75.7976 81.2698 75.8163 81.2306C75.8349 81.1914 75.8611 81.1561 75.8935 81.127C75.9258 81.0978 75.9636 81.0753 76.0047 81.0606L76.0054 81.0604L81.2223 79.2087C81.3053 79.1793 81.3966 79.1839 81.4762 79.2215C81.5558 79.259 81.6171 79.3265 81.6467 79.409C81.6763 79.4915 81.6718 79.5823 81.6341 79.6614C81.5964 79.7406 81.5287 79.8017 81.4457 79.8312Z" fill="white"/>
<path d="M80.9545 78.4629L75.7377 80.3146C75.6966 80.3292 75.653 80.3357 75.6094 80.3336C75.5658 80.3315 75.5231 80.3208 75.4836 80.3023C75.4441 80.2838 75.4087 80.2577 75.3794 80.2255C75.3501 80.1934 75.3274 80.1558 75.3127 80.115C75.298 80.0741 75.2915 80.0308 75.2936 79.9874C75.2957 79.9441 75.3064 79.9016 75.3251 79.8623C75.3437 79.8231 75.3699 79.7879 75.4023 79.7587C75.4346 79.7295 75.4724 79.707 75.5135 79.6924L75.5142 79.6921L80.7311 77.8404C80.8141 77.8108 80.9054 77.8153 80.9851 77.8527C81.0648 77.8902 81.1263 77.9575 81.1561 78.0401C81.1858 78.1226 81.1814 78.2135 81.1437 78.2927C81.1061 78.372 81.0383 78.4331 80.9553 78.4627L80.9545 78.4629Z" fill="white"/>
<path d="M75.6001 73.7424C76.3655 73.7424 76.9859 73.1255 76.9859 72.3644C76.9859 71.6034 76.3655 70.9865 75.6001 70.9865C74.8348 70.9865 74.2144 71.6034 74.2144 72.3644C74.2144 73.1255 74.8348 73.7424 75.6001 73.7424Z" fill="#CCCCCC"/>
</g>
<defs>
<clipPath id="clip0_35_685">
<rect width="108" height="152" fill="white"/>
</clipPath>
</defs>
</svg>
