<svg width="177" height="130" viewBox="0 0 177 130" fill="none" xmlns="http://www.w3.org/2000/svg">
<g clip-path="url(#clip0_34_231)">
<path d="M163.064 31.6012C142.975 3.95984 100.537 -7.25268 58.8017 4.82347C36.7372 11.2078 15.463 23.9997 4.91998 48.7689C-13.9267 93.0465 25.6443 107.188 51.5195 111.695C64.0313 113.874 75.8154 117.535 86.5837 122.519C105.957 131.486 140.249 139.432 166.107 102.08C184.849 75.0075 176.445 50.013 163.064 31.6012Z" fill="#F2F2F2"/>
<path d="M46.5938 37.0699C46.5376 36.6306 46.424 36.2003 46.2557 35.79C46.2342 35.7124 46.1967 35.6401 46.1454 35.5776C46.0941 35.5151 46.0302 35.4639 45.9578 35.4272C45.861 35.4023 45.7596 35.4012 45.6623 35.424L44.1448 35.6535C44.0178 35.6593 43.8962 35.706 43.7986 35.7866C43.6009 35.9921 43.7956 36.323 43.7895 36.6066C43.7827 36.9254 43.4962 37.1842 43.1855 37.2698C42.8684 37.3332 42.5413 37.3292 42.2258 37.258L40.104 36.932C40.7289 36.7347 41.2851 36.3677 41.7092 35.8728C41.9884 35.5458 42.1369 34.9351 41.7334 34.7802C41.6135 34.7477 41.4885 34.7378 41.3648 34.751C40.4035 34.7584 39.647 33.9647 38.747 33.6304C38.171 33.4303 37.5457 33.4154 36.9607 33.5879C36.3756 33.7604 35.8606 34.1113 35.4894 34.5906L36.6198 34.6445C36.7261 34.6387 36.8316 34.6665 36.9209 34.7239C37.1686 34.9252 36.8606 35.3117 36.8955 35.6268C36.9409 36.0363 37.4906 36.1237 37.9051 36.1651C38.3195 36.2065 38.8453 36.5394 38.6459 36.9011C36.5629 37.6105 34.4433 35.5143 32.2557 35.7723C31.702 35.8376 31.1792 36.0527 30.6386 36.1879C27.3365 37.014 23.9227 34.8099 20.5495 35.2767C19.7995 35.4031 19.0625 35.5953 18.3471 35.851C17.888 36.0001 17.4091 36.1612 17.0755 36.5069C16.7419 36.8525 16.6149 37.4437 16.931 37.8052C16.0599 37.8761 15.1831 37.7937 14.3411 37.5618C14.5688 37.6869 14.7582 37.8703 14.8895 38.0928C15.0207 38.3153 15.089 38.5686 15.0871 38.8261C13.7271 39.0454 12.4031 39.4446 11.1507 40.0129C11.3844 40.3973 11.6574 40.7569 11.9654 41.0861L10.2437 42.1798C10.8254 42.3247 11.1261 43.109 10.7878 43.5989C11.391 43.3335 11.7648 42.6472 12.4097 42.508C12.8323 42.4169 13.2622 42.5878 13.6631 42.7484C14.0639 42.9089 14.5045 43.0646 14.9194 42.9441C15.3344 42.8236 15.6405 42.2916 15.3768 41.9526C17.1504 41.4409 18.9834 41.1578 20.8304 41.1101C20.9729 41.0924 21.1174 41.1196 21.2434 41.1876C21.4838 41.3526 21.4206 41.7088 21.4076 41.9979C21.3947 42.2869 21.6225 42.6668 21.8838 42.5365C21.5764 42.8001 21.8392 43.2963 22.1341 43.5734C22.429 43.8506 22.7845 44.233 22.6039 44.5935C22.5568 44.6876 22.4769 44.7629 22.4315 44.8579C22.2977 45.1381 22.5102 45.4649 22.7608 45.651C23.0115 45.8371 23.3185 45.9672 23.4926 46.2249C23.6667 46.4826 23.5876 46.9337 23.2763 46.9697L22.3914 45.8588C22.089 46.1688 21.8818 46.5571 21.7936 46.9789C22.732 47.7374 22.8731 49.2812 22.0875 50.1938C21.6861 50.6601 21.1152 50.9435 20.6169 51.3072C20.1186 51.671 19.6576 52.189 19.6588 52.8014C19.661 53.8594 19.5736 54.8424 19.9745 55.8233C20.7139 57.6321 21.5676 59.3931 22.5304 61.096C22.7833 61.5431 23.1101 62.0332 23.6223 62.1102C22.975 60.5519 22.3922 58.9694 21.8741 57.3626C22.2115 57.364 22.6015 57.3904 22.7994 57.6608C22.9632 57.8846 22.928 58.189 22.9789 58.4607C23.0437 58.7239 23.1516 58.9749 23.2985 59.2036L26.3898 64.6484C26.6461 65.0997 26.94 65.5842 27.4298 65.767C27.7429 65.8839 28.1052 65.8619 28.3934 66.0301C28.6194 66.162 28.7715 66.3961 29.0018 66.5203C29.653 66.8716 30.5586 66.1979 31.1671 66.6173C31.3412 66.7372 31.4519 66.9277 31.6122 67.065C32.1742 67.5463 33.0963 67.2244 33.7451 67.5834C34.1633 67.8148 34.38 68.2775 34.603 68.6969C35.1617 69.7473 36.0657 70.7765 37.2631 70.8601C37.6392 70.8864 38.0234 70.8159 38.391 70.8986C38.7586 70.9813 39.1205 71.2985 39.0615 71.6668C38.9604 72.298 39.2758 72.9893 39.1911 73.6229C39.0368 74.7771 37.3811 75.2843 37.2388 76.44C37.2077 76.6931 37.2564 76.9542 37.1955 77.2019C37.1208 77.5055 36.8903 77.7527 36.8083 78.0544C36.6531 78.6262 37.0674 79.1953 37.5225 79.58C37.9777 79.9647 38.5206 80.2964 38.7694 80.8349C39.0324 81.4041 38.9033 82.0678 38.9888 82.6878C39.1755 84.0414 40.358 85.0449 41.5749 85.692C41.9456 85.8891 42.3437 86.08 42.5837 86.422C42.8969 86.8683 42.8657 87.4568 42.9703 87.9901C43.2264 89.2963 44.3385 90.3726 44.3701 91.7028C44.3925 92.6482 43.861 93.5059 43.5435 94.398C43.2458 95.2527 43.1381 96.1608 43.2277 97.0604C43.3173 97.96 43.6021 98.83 44.0626 99.6109C44.3001 100.007 44.5842 100.381 44.7522 100.811C45.052 101.578 44.9547 102.45 45.2312 103.226C45.5967 104.252 46.601 105.099 46.5049 106.182C46.9608 107.118 47.9676 107.578 48.98 107.857L50.7945 108.356C51.1419 108.452 51.5049 108.548 51.8587 108.479C52.2125 108.41 52.5501 108.119 52.541 107.763C51.6512 107.564 50.7329 107.353 49.9994 106.817C49.2659 106.281 48.7635 105.326 49.0417 104.468C49.1708 104.069 49.4453 103.609 49.1843 103.28C49.0349 103.092 48.7616 103.043 48.593 102.871C48.3301 102.603 48.4205 102.152 48.6095 101.829C48.7985 101.505 49.0717 101.216 49.1479 100.851C49.1864 100.646 49.1607 100.435 49.0742 100.245C48.9878 100.055 48.8447 99.8961 48.6642 99.789C49.0006 99.6634 49.3066 99.4693 49.5622 99.2192C49.7984 98.9525 49.9075 98.5414 49.7217 98.2382C50.2734 98.3074 50.9248 98.3413 51.287 97.924C51.5762 97.5907 51.5563 97.0925 51.442 96.6682C51.3278 96.2439 51.1346 95.8317 51.1286 95.3926C52.4013 95.4523 53.6768 95.4095 54.9425 95.2648C54.7595 94.6553 54.3436 94.1402 53.783 93.8289C54.3562 93.733 54.8784 93.0544 55.0595 92.5081C55.2406 91.9619 55.1944 91.3668 55.0825 90.8027C55.0395 90.6575 55.0336 90.504 55.0654 90.3559C55.1299 90.1525 55.332 90.0284 55.519 89.9222L58.3643 88.3065C58.5341 88.2223 58.688 88.11 58.8193 87.9743C59.1174 87.6281 59.0732 87.1054 58.9206 86.6765C58.768 86.2476 58.5235 85.8442 58.4647 85.3933C58.2888 84.0445 59.749 83.0768 60.2418 81.8071C60.4352 81.3089 60.4746 80.7673 60.512 80.2349C60.5522 79.6631 60.5552 78.9989 60.1112 78.6304C59.6855 78.2772 59.0205 78.356 58.5751 78.0274C58.1667 77.7262 58.0258 77.1411 57.5797 76.8978C57.1746 76.6769 56.6667 76.8174 56.2161 76.7135C55.4228 76.5305 54.9235 75.6264 54.1133 75.5427C53.6562 75.4955 53.1388 75.7165 52.7641 75.4532C52.434 75.2213 52.4208 74.755 52.3579 74.3594C52.2478 73.7446 51.9498 73.1779 51.504 72.7357C51.0581 72.2935 50.486 71.997 49.8645 71.8861C49.3932 71.8114 48.8802 71.8397 48.4792 71.5836C48.0732 71.3243 47.887 70.8387 47.5681 70.4796C47.0541 69.9008 46.2445 69.6951 45.4862 69.5188L42.4015 68.8018C41.8539 68.6745 41.148 68.607 40.8542 69.0813C40.7672 69.2619 40.7056 69.4534 40.6711 69.6505C40.561 70.007 40.3394 70.3199 40.0382 70.5441C39.737 70.7683 39.3716 70.8922 38.9947 70.8982C38.7361 70.4622 38.3173 70.1417 37.8256 70.0038C37.5128 69.9176 37.178 69.908 36.8796 69.7812C36.7172 69.7028 36.5726 69.5924 36.4548 69.4568C36.3369 69.3212 36.2483 69.1633 36.1943 68.9927C36.1404 68.8221 36.1222 68.6424 36.1409 68.4646C36.1596 68.2868 36.2148 68.1146 36.3031 67.9587C36.481 67.6456 36.5496 67.2833 36.4986 66.9278C36.4475 66.5722 36.2795 66.2432 36.0205 65.9915C35.4959 65.5258 34.7371 65.4133 34.0337 65.4599C33.8494 65.0624 34.1575 64.614 34.4894 64.3251C34.8213 64.0363 35.2244 63.7523 35.2967 63.321C35.4104 62.6425 34.5349 62.1272 33.8701 62.3295C33.2053 62.5318 32.781 63.1702 32.5005 63.7996C32.3396 64.1607 32.2028 64.5409 31.949 64.8454C31.6951 65.1499 31.2863 65.3679 30.8997 65.2702C30.3523 65.1318 30.1409 64.4888 30.0197 63.9432C29.8572 63.2111 29.6937 62.4688 29.7278 61.7201C29.7618 60.9713 30.0171 60.2025 30.5755 59.6956C31.4854 58.8696 32.8813 58.9506 34.1094 59.0823C33.8192 58.7591 33.8909 58.2144 34.2014 57.9101C34.3652 57.7662 34.5621 57.6639 34.775 57.6122C34.9879 57.5605 35.2103 57.5609 35.423 57.6134C35.793 57.6895 36.1264 57.8866 36.3694 58.1729C36.7184 58.5936 36.8176 59.1616 37.0814 59.6391C37.3452 60.1166 37.9383 60.5239 38.4237 60.2677C38.843 60.0465 38.9096 59.4715 38.8052 59.0131C38.7009 58.5546 38.4792 58.1087 38.517 57.6402C38.5892 56.7463 39.5263 56.2083 40.3533 55.8401C41.1802 55.472 42.1272 54.9769 42.2582 54.0895C42.2627 53.9158 42.2958 53.744 42.3563 53.5808C42.448 53.4367 42.5755 53.3182 42.7266 53.2365C45.1401 51.6594 47.5938 50.063 50.3523 49.2012C50.4959 49.1564 50.5127 49.2062 50.659 49.1711C50.8637 49.0541 50.728 48.7305 50.5318 48.6001C50.3355 48.4698 50.0732 48.3698 50.0234 48.1413C49.9868 47.9733 50.0869 47.8083 50.1129 47.6384C50.1768 47.2209 49.6717 46.8354 49.2794 47.0023C49.0578 46.7121 49.4962 46.375 49.8508 46.2785C50.9154 45.9888 52.0082 45.8122 53.1107 45.7519C53.2379 45.7319 53.3683 45.7538 53.4816 45.8143C53.6668 45.9411 53.6432 46.232 53.5119 46.413C53.3807 46.5941 53.1766 46.7077 53.013 46.8609C52.8344 47.033 52.7069 47.2504 52.6446 47.4892C52.5823 47.728 52.5876 47.9792 52.6598 48.2152C53.2353 48.5047 53.8611 48.8027 54.4985 48.7007C55.136 48.5988 55.7018 47.8906 55.4021 47.325C55.1231 46.7983 54.285 46.6795 54.1409 46.1022C53.9721 45.4263 54.9397 44.8252 54.7218 44.1633C54.6263 43.8733 54.334 43.7027 54.1098 43.4933C53.8449 43.2367 53.6648 42.9068 53.593 42.5471C53.5212 42.1873 53.5611 41.8145 53.7075 41.4776C53.3422 41.5411 52.9668 41.5171 52.6129 41.4076C52.2589 41.2981 51.9367 41.1062 51.6732 40.8482C51.1866 40.3626 50.7985 39.5967 50.1075 39.6184C49.4735 39.6383 48.9273 40.3698 48.3345 40.1466C48.1886 40.0917 48.0348 39.98 47.8935 40.0455C47.8472 40.0752 47.8083 40.1149 47.7798 40.1617C47.7513 40.2085 47.734 40.261 47.729 40.3154C47.5784 41.0277 47.8375 41.8392 47.4449 42.4547C47.0177 43.1244 46.0296 43.2173 45.5116 43.8212C45.2305 44.1491 45.1216 44.5908 44.8631 44.9365C44.6047 45.2821 44.0562 45.5019 43.7461 45.2007C43.8985 44.8908 43.9401 44.5391 43.8642 44.2028C43.7882 43.8666 43.5991 43.5657 43.3278 43.3495C43.0399 43.1638 42.7295 43.0145 42.404 42.9052C42.0402 42.7529 41.6942 42.5623 41.3719 42.3364C41.2105 42.2401 41.0793 42.1014 40.993 41.9356C40.9248 41.728 40.934 41.5031 41.0189 41.3017C41.1762 40.8559 41.4536 40.461 41.8213 40.1597C42.1889 39.8584 42.6328 39.6621 43.105 39.592C43.5179 39.5365 43.9985 39.5561 44.2718 39.245C44.4164 39.0804 44.4922 38.8315 44.7021 38.7647C44.8364 38.738 44.9757 38.755 45.0994 38.813L46.6406 39.3494C46.8126 39.4262 47.0019 39.4572 47.1897 39.4392C47.2828 39.4268 47.3677 39.3801 47.4274 39.3083C47.4871 39.2366 47.5172 39.1452 47.5116 39.0524C47.4623 38.7993 47.0685 38.6779 47.1043 38.4226C47.1244 38.3399 47.1694 38.2652 47.2333 38.2082C47.7895 37.6229 48.4697 37.1663 49.2253 36.8713C49.9808 36.5763 50.793 36.4501 51.6036 36.5018C51.7981 36.8177 51.4905 37.1918 51.2345 37.4615C50.9785 37.7312 50.7728 38.213 51.0823 38.4206C51.2092 38.4846 51.3503 38.516 51.4927 38.512C51.8722 38.5628 52.2409 38.6734 52.585 38.8396C53.1176 39.0687 53.6399 39.3195 54.1521 39.5918C54.1068 39.2579 54.0636 38.9062 54.1916 38.594C54.3196 38.2818 54.6834 38.0369 55.0011 38.1585C55.3073 38.2756 55.4644 38.6766 55.7906 38.7133C56.2258 38.7623 56.3975 38.1266 56.2157 37.7326C56.0339 37.3386 55.6741 37.0087 55.644 36.5766C55.6238 36.2851 55.7359 35.9236 55.5005 35.7471C55.4167 35.6941 55.3216 35.6612 55.2226 35.6508L49.3432 34.581C48.994 34.5175 48.4896 34.5662 48.4741 34.9169C48.4655 35.1126 48.6423 35.3063 48.564 35.4862C48.4804 35.6783 48.2058 35.6608 48.0057 35.7287C47.6954 35.8341 47.5397 36.1985 47.5695 36.5216C47.624 36.8427 47.7498 37.1479 47.9377 37.4152C47.5553 37.2571 46.9762 37.228 46.5938 37.0699Z" fill="#393939"/>
<path d="M41.9025 32.1349C41.5318 32.0136 41.1323 32.0079 40.7582 32.1187C40.3841 32.2295 40.0534 32.4513 39.8112 32.7542C39.7144 32.8802 39.6331 33.054 39.7141 33.1904C39.8303 33.3861 40.1264 33.3088 40.3446 33.2388C40.6655 33.1255 41.0147 33.1172 41.3406 33.2153C41.5456 33.2849 41.729 33.4079 41.9348 33.4748C42.035 33.5163 42.1448 33.53 42.2522 33.5144C42.3597 33.4989 42.4609 33.4548 42.5449 33.3867C42.6862 33.2442 42.6951 33.0227 42.6953 32.8232C42.7051 32.7564 42.6997 32.6883 42.6795 32.6239C42.6593 32.5594 42.6248 32.5003 42.5785 32.4507C42.4961 32.4035 42.4035 32.3764 42.3084 32.3717C42.0954 32.3327 41.9029 32.2215 41.7639 32.0571" fill="#393939"/>
<path d="M44.0226 31.5512C43.9396 31.5468 43.8569 31.5635 43.7823 31.5998C43.7078 31.6361 43.6439 31.6907 43.5969 31.7585C43.5499 31.8262 43.5213 31.9048 43.5138 31.9866C43.5064 32.0684 43.5204 32.1508 43.5545 32.2257C43.8093 32.2944 44.0755 32.3116 44.3372 32.2762C44.4677 32.2561 44.5893 32.1983 44.6866 32.1101C44.784 32.0218 44.8527 31.9071 44.8842 31.7802C44.5761 31.8357 44.2582 31.7756 43.9925 31.6118" fill="#393939"/>
<path d="M51.1355 30.5765C50.442 30.7223 49.7683 30.9486 49.1284 31.2507C49.4301 31.3653 49.6865 31.5727 49.8599 31.8424C50.0333 32.112 50.1145 32.4296 50.0916 32.7483C50.0645 32.8707 50.0676 32.9977 50.1007 33.1186C50.1744 33.2953 50.388 33.3616 50.5758 33.4069C50.9132 33.5085 51.2655 33.5529 51.6179 33.5385C51.7941 33.5293 51.9653 33.4769 52.1159 33.3859C52.2665 33.2949 52.3918 33.1682 52.4804 33.0173C52.5315 32.874 52.5914 32.734 52.6598 32.598C53.1099 31.9202 54.4471 32.7398 54.9304 32.0847C55.1006 31.8539 55.085 31.5065 55.307 31.3236C55.4218 31.2439 55.5548 31.1937 55.6941 31.1775C56.666 30.9866 57.6477 30.8484 58.6348 30.7634C59.1026 30.7232 59.7122 30.5571 59.7161 30.0929C57.9544 29.7508 56.1276 29.9938 54.52 30.7841C53.9407 31.0709 53.1747 31.6743 52.6167 31.294C52.4078 31.1516 52.4181 30.7682 52.1306 30.6081C51.8367 30.4444 51.4475 30.511 51.1355 30.5765Z" fill="#393939"/>
<path d="M56.8969 31.6418L57.7239 31.7989C57.5717 31.7923 57.4198 31.8178 57.2783 31.8737C57.1368 31.9297 57.0091 32.0149 56.9035 32.1236C56.798 32.2323 56.7171 32.3619 56.6663 32.504C56.6154 32.646 56.5958 32.7971 56.6087 32.9472C57.3832 33.2031 58.2275 32.9541 59.0433 32.9881C59.8591 33.0221 60.8082 33.5983 60.669 34.3939C60.6269 34.6344 60.4863 34.8748 60.5594 35.1079C60.6106 35.2714 60.7564 35.3873 60.8387 35.5379C61.0101 35.8515 60.8731 36.2483 60.6566 36.5334C60.4401 36.8185 60.1491 37.046 59.9591 37.349C59.4864 38.1026 59.755 39.0769 60.0365 39.9189C60.1179 40.237 60.2683 40.5338 60.4771 40.7889C60.8942 41.2274 61.574 41.2655 62.1828 41.2743C62.6259 41.2807 63.1334 41.2591 63.4137 40.9196C63.7795 40.4764 63.5237 39.785 63.7645 39.2649C63.9833 38.7925 64.5406 38.5898 65.0455 38.4461C65.9705 38.1828 66.9132 37.9589 67.7877 37.5612C68.8737 37.0673 69.8885 36.2977 71.0821 36.2341C71.4169 36.2163 71.7601 36.2553 72.0826 36.1646C72.4052 36.0739 72.7116 35.7982 72.6872 35.4675C72.6663 35.1849 72.4245 34.9774 72.2356 34.7644C72.0467 34.5514 71.8983 34.2239 72.072 33.9985L75.2004 33.4207C74.9787 32.8232 74.8059 32.0361 75.3155 31.6472C75.4994 31.5068 75.7455 31.4507 75.9021 31.2811C76.1689 30.9919 76.0347 30.4938 75.7267 30.2478C75.4187 30.0019 75.0023 29.9448 74.6078 29.9124C73.236 29.7998 71.8564 29.8742 70.4819 29.9487C67.7952 30.0943 65.1085 30.2399 62.4218 30.3855C61.881 30.4149 61.2565 30.3701 60.7605 30.5525C60.3405 30.707 60.0419 30.9905 59.5616 31.0901C58.675 31.274 57.6993 31.1496 56.8969 31.6418Z" fill="#393939"/>
<path d="M71.7122 38.1053C71.628 38.0921 71.5418 38.1114 71.4715 38.1593C71.425 38.2099 71.3974 38.2746 71.3931 38.3428C71.3398 38.6438 71.4034 38.9537 71.5712 39.2103C71.6567 39.3362 71.7747 39.4372 71.913 39.5028C72.0513 39.5683 72.2049 39.5961 72.3577 39.5832C72.73 39.5362 73.0045 39.2221 73.3468 39.0688C73.8744 38.8328 76.1152 38.4648 74.5652 37.6368C74.031 37.3514 73.6858 37.6033 73.2648 37.7913C72.7858 38.0336 72.249 38.1421 71.7122 38.1053Z" fill="#393939"/>
<path d="M85.2887 31.1743C85.1077 31.2474 84.9563 31.3778 84.8581 31.5449C84.8129 31.6298 84.8024 31.7287 84.8288 31.821C84.8552 31.9133 84.9165 31.9921 85 32.041C85.0676 32.0652 85.1392 32.0765 85.2111 32.0741L85.947 32.0959C86.2597 32.1051 86.6502 32.1709 86.7342 32.4688C86.7966 32.69 86.657 32.9743 86.8255 33.1324C86.8978 33.1877 86.9847 33.2213 87.0758 33.2289C87.3182 33.2905 87.5714 33.2986 87.8173 33.2526C88.3528 33.1106 88.0714 32.7874 88.2401 32.4997C88.4981 32.0594 88.4535 32.3259 88.9081 32.0736C89.2439 31.8873 89.6778 31.5492 89.3976 31.0743C88.9102 30.2484 86.0079 30.8195 85.2887 31.1743Z" fill="#393939"/>
<path d="M99.8144 30.7592L99.387 30.8156C98.4234 30.9427 97.4542 31.0711 96.5261 31.3572C96.9279 31.5143 97.3494 31.6165 97.779 31.6612C98.0155 31.6727 98.2505 31.7057 98.4809 31.7598C98.8908 31.8805 99.3039 32.1921 99.6999 32.0325C99.9455 31.9335 100.026 31.6807 100.229 31.5467C100.37 31.4542 100.902 31.3044 100.962 31.2111C101.443 30.4561 100.184 30.7104 99.8144 30.7592Z" fill="#393939"/>
<path d="M101.691 32.6796C101.12 32.9952 100.59 33.3787 100.114 33.8216C99.913 34.0082 99.708 34.2403 99.7262 34.5122C99.7504 34.8735 100.14 35.0832 100.477 35.2244L101.843 35.7963C102.009 35.5653 101.857 35.2465 101.686 35.0195C101.515 34.7925 101.311 34.5299 101.387 34.2568C101.473 33.9451 101.857 33.8389 102.18 33.7852C102.705 33.6977 104.121 33.7047 103.951 32.8679C103.751 31.8819 102.218 32.3883 101.691 32.6796Z" fill="#393939"/>
<path d="M101.416 88.4779C101.286 88.8502 101.274 89.2888 101.499 89.6138C101.751 89.9786 102.256 90.1145 102.693 90.022C103.129 89.9075 103.517 89.6609 103.803 89.3168C104.064 89.0286 104.279 88.7023 104.441 88.3494C104.666 87.7995 104.824 87.2252 104.914 86.6385L105.338 84.4365C105.433 83.9443 105.429 82.4355 104.514 82.9271C104.264 83.0614 103.686 84.1217 103.424 84.4224C102.952 84.9643 102.889 85.4901 102.641 86.1466C102.329 86.969 101.704 87.6543 101.416 88.4779Z" fill="#393939"/>
<path d="M149.732 99.7464C149.433 99.6309 149.143 99.4942 148.863 99.3373C148.583 100.099 148.434 100.902 148.422 101.712L150.471 100.566C150.779 100.394 151.128 100.154 151.121 99.804C151.124 99.7608 151.115 99.7176 151.095 99.679C151.075 99.6405 151.045 99.6079 151.008 99.5848C150.963 99.5667 150.913 99.561 150.865 99.5681C150.561 99.5932 150.284 99.7409 149.997 99.8437C149.711 99.9465 149.376 100.001 149.113 99.8483" fill="#393939"/>
<path d="M160.537 100.427C160.313 100.487 160.093 100.565 159.881 100.66C159.411 100.896 159.091 101.346 158.668 101.657C158.263 101.955 157.776 102.119 157.297 102.278C157.157 102.401 157.221 102.648 157.374 102.756C157.538 102.849 157.727 102.891 157.915 102.877C158.412 102.888 158.936 102.892 159.371 102.655C159.616 102.498 159.846 102.318 160.056 102.117C160.565 101.697 161.176 101.42 161.781 101.152C162.002 101.07 162.205 100.95 162.383 100.797C162.763 100.427 162.79 99.8554 162.241 99.7293C161.798 99.6275 160.959 100.292 160.537 100.427Z" fill="#393939"/>
<path d="M165.312 97.3433C165.336 97.0885 165.302 96.8315 165.211 96.5916C165.121 96.3518 164.976 96.1355 164.789 95.959C164.783 96.4688 164.768 97.012 164.478 97.4336C164.271 97.734 163.947 97.9369 163.721 98.223C163.494 98.5092 163.394 98.9627 163.659 99.2138C163.829 99.3415 164.036 99.4119 164.249 99.4147C164.778 99.4762 165.389 99.5105 165.76 99.1329C165.962 98.9268 166.061 98.6215 166.308 98.47C166.4 98.4318 166.482 98.3737 166.548 98.3C166.65 98.1398 166.488 97.9287 166.306 97.871C166.123 97.8133 165.923 97.8405 165.739 97.7856C165.556 97.7308 165.388 97.5272 165.482 97.3623" fill="#393939"/>
<path d="M156.826 78.6503C156.549 78.717 156.262 78.7337 155.979 78.6997C155.508 78.6142 155.142 78.2635 154.762 77.9759C153.859 77.296 152.761 76.9167 151.626 76.8926C150.594 76.8733 149.552 77.1499 148.538 76.9569C148.604 77.3212 148.919 77.5945 149.256 77.7569C149.592 77.9193 149.963 78.001 150.301 78.1601C150.843 78.4175 151.272 78.8591 151.511 79.4042C151.62 79.6554 151.688 79.9289 151.853 80.1483C152.19 80.5967 152.829 80.6952 153.393 80.6585C154.128 80.6107 154.896 80.4016 155.58 80.6724C156.103 80.8796 156.477 81.3324 156.914 81.6845C157.351 82.0365 157.966 82.2978 158.468 82.0438C157.947 81.877 157.493 81.5499 157.174 81.1103C156.854 80.6706 156.685 80.1414 156.691 79.5999C157.183 79.6447 158.6 79.6274 158.523 78.8008C158.459 78.1003 157.249 78.5747 156.826 78.6503Z" fill="#393939"/>
<path d="M150.391 84.3498C150.478 83.8761 150.956 83.4577 150.807 82.9992C150.704 82.6822 150.332 82.5256 149.995 82.5178C149.659 82.51 149.328 82.6091 148.991 82.6185C148.772 82.607 148.552 82.6101 148.334 82.6277C147.665 82.7363 147.254 83.4289 146.624 83.6752C146.241 83.8249 145.811 83.7963 145.412 83.8998C144.508 84.1348 143.936 84.9796 143.304 85.6606C142.283 86.7562 140.953 87.5233 139.486 87.8626C138.972 87.9803 138.419 88.0556 138.01 88.3857C137.469 88.8228 137.336 89.5722 137.216 90.2528C136.883 92.1323 136.375 93.9773 135.697 95.7639L137.844 96.0349C138.252 96.0865 138.675 96.1369 139.068 96.0174C139.354 95.9108 139.625 95.7682 139.874 95.5932C140.83 95.0063 141.9 94.6243 143.015 94.4722C143.577 94.3958 144.166 94.3819 144.694 94.5885C145.221 94.7951 145.674 95.2636 145.718 95.823C145.946 95.7528 146.189 95.7452 146.422 95.8011C146.654 95.8569 146.866 95.974 147.036 96.14C147.372 96.4787 147.593 96.9131 147.666 97.3822C147.722 97.6726 147.779 98.0205 148.051 98.1423C148.274 98.2417 148.529 98.1347 148.772 98.1154C149.597 98.0501 150.282 99.0017 151.093 98.8379C151.963 98.6621 152.177 97.3737 153.026 97.1157C153.513 96.9674 154.197 97.1477 154.43 96.6993C154.636 96.3041 154.226 95.8481 154.268 95.4056C154.32 94.8607 154.97 94.6294 155.471 94.3969C157.199 93.5954 158.019 91.2963 157.181 89.6007C156.685 88.596 155.71 87.8052 155.529 86.7015C155.391 85.8524 155.729 84.8622 155.182 84.1938C154.903 83.8538 154.432 83.6661 154.266 83.2604C154.161 83.005 154.203 82.7152 154.147 82.4455C154.091 82.1757 153.853 81.8935 153.584 81.9634C152.802 82.1664 152.552 84.5553 152.133 85.1357C151.497 86.018 150.19 85.4368 150.391 84.3498Z" fill="#393939"/>
<path d="M135.935 79.5529C135.668 79.4788 135.376 79.4058 135.12 79.5117C134.864 79.6176 134.714 79.9894 134.919 80.1738C136.527 80.1119 138.145 80.0504 139.739 80.2663C141.576 80.5151 143.394 81.1313 145.239 80.95C144.185 80.6426 143.114 80.3968 142.031 80.2139L140.225 79.8728C139.74 79.7724 139.251 79.6976 138.758 79.6487C137.728 79.5645 136.948 79.8338 135.935 79.5529Z" fill="#393939"/>
<path d="M137.544 74.0158C137.411 74.0048 137.246 73.9953 137.177 74.1087C137.111 74.2172 137.186 74.3604 137.151 74.482C137.102 74.6481 136.882 74.6905 136.709 74.6679C136.536 74.6453 136.348 74.5912 136.195 74.6738C136.117 74.7264 136.058 74.8026 136.028 74.8908C135.997 74.9791 135.997 75.0748 136.026 75.1634C136.089 75.3395 136.19 75.4995 136.323 75.632C136.55 75.915 136.809 76.1717 137.095 76.3971C137.647 76.8004 138.396 76.9948 138.744 77.5803C138.793 77.6938 138.869 77.7942 138.964 77.8735C139.131 77.9781 139.349 77.8985 139.529 77.8172L140.16 77.5323C140.273 77.4919 140.375 77.4237 140.455 77.3341C140.599 77.1408 140.51 76.8659 140.389 76.6577C140.268 76.4495 140.114 76.234 140.139 75.9953C140.186 75.5696 140.739 75.4068 140.967 75.0426C141.196 74.6755 141.047 74.2025 141.073 73.7717C141.104 73.2679 141.424 72.6127 140.909 72.2363C140.472 71.9164 140.053 72.212 139.739 72.5651C139.076 73.3098 138.763 74.1164 137.544 74.0158Z" fill="#393939"/>
<path d="M141.372 66.4888C141.588 66.8964 142.036 67.1397 142.271 67.5366C142.526 67.9669 142.497 68.5228 142.773 68.9398C143.056 69.3677 143.626 69.5948 143.785 70.0815C143.958 70.6128 143.565 71.2586 143.878 71.7228C143.937 71.7987 144.011 71.8617 144.095 71.9079C144.18 71.9541 144.273 71.9825 144.369 71.9912C144.465 72 144.562 71.9889 144.653 71.9586C144.745 71.9284 144.829 71.8797 144.901 71.8156C145.033 71.6733 145.104 71.4855 145.098 71.2923C145.092 71.0991 145.01 70.9157 144.87 70.7813C144.684 70.6139 144.417 70.5416 144.262 70.346C144.181 70.2332 144.128 70.1037 144.105 69.9673C144.02 69.5739 144.034 69.166 144.144 68.7789C144.186 68.6807 144.196 68.5724 144.175 68.4681C144.105 68.2675 143.83 68.2532 143.637 68.1602C143.199 67.9488 143.21 67.3377 143.286 66.8618C143.235 67.1786 142.094 66.6398 141.975 66.4603C141.737 66.1038 141.866 65.4161 141.819 65.0221C141.307 65.2663 141.109 65.9904 141.372 66.4888Z" fill="#393939"/>
<path d="M129.874 72.7602C129.663 72.527 129.346 72.2831 129.063 72.4237C128.848 72.531 128.789 72.8258 128.873 73.0493C128.976 73.2663 129.134 73.4531 129.333 73.591C129.921 74.071 130.555 74.5042 131.068 75.0621C131.987 76.0606 132.474 77.4079 133.473 78.3277C133.674 78.541 133.94 78.6833 134.231 78.7329C134.522 78.7597 134.849 78.5755 134.882 78.2882C134.91 78.0516 134.743 77.8399 134.58 77.6645C134.192 77.247 133.767 76.8627 133.4 76.4265C133.231 76.2589 133.125 76.0392 133.099 75.8038C133.097 75.5689 133.314 75.323 133.544 75.3812C133.264 75.3104 133.056 74.8493 132.645 74.7626C132.302 74.6902 132.219 74.9004 131.81 74.7271C131.031 74.3966 130.419 73.3644 129.874 72.7602Z" fill="#393939"/>
<path d="M148.186 50.0547C147.963 49.989 147.743 49.9114 147.528 49.8222C146.949 49.6504 146.183 50.071 146.261 50.6635C146.312 51.0572 146.682 51.3226 146.887 51.664C147.19 52.1704 147.11 52.8127 146.95 53.3798C146.911 53.5554 146.837 53.7214 146.731 53.868C146.584 54.0227 146.408 54.1479 146.213 54.2368C145.431 54.6701 144.742 55.249 144.183 55.9415C144.123 56.0054 144.08 56.0843 144.061 56.1699C144.033 56.3699 144.237 56.5157 144.352 56.6825C144.607 57.0531 144.422 57.5519 144.448 57.9997C144.444 58.063 144.456 58.1262 144.484 58.1834C144.512 58.2406 144.554 58.2898 144.606 58.3264C144.76 58.4037 144.943 58.2724 145.026 58.1229C145.303 57.6269 145.094 56.8307 145.614 56.5915C145.712 56.5463 145.831 56.5272 145.897 56.4419C146.001 56.3065 145.9 56.106 145.953 55.9442C146.032 55.7012 146.368 55.6903 146.626 55.7011C147.071 55.7195 147.515 55.661 147.939 55.5283C148.105 55.4892 148.256 55.4027 148.373 55.2796C148.528 55.088 148.515 54.8155 148.484 54.5719C148.328 53.3574 147.939 52.1835 147.337 51.1136C147.794 51.1713 148.29 51.2212 148.684 50.986C148.904 50.8544 149.169 50.4607 149.059 50.1927C148.886 49.7689 148.574 50.1256 148.186 50.0547Z" fill="#393939"/>
<path d="M89.6906 56.7345C89.7452 57.024 89.7989 57.329 89.7029 57.6078C89.6069 57.8867 89.305 58.1197 89.0199 58.0342C88.7986 57.9679 88.6708 57.7479 88.5137 57.5802C87.64 56.6476 85.6687 57.1875 85.1289 56.0337C84.9087 55.5627 85.0584 54.9986 84.9081 54.5014C84.8133 54.2141 84.6247 53.9661 84.3719 53.7962C84.1191 53.6264 83.8164 53.5444 83.5113 53.5632C83.2331 53.6029 82.9622 53.6828 82.7075 53.8004C81.001 54.4762 79.2094 54.9193 77.382 55.1175C77.0347 55.1384 76.6912 55.2002 76.3587 55.3016C75.6084 55.5705 75.0957 56.2583 74.7309 56.9602C74.366 57.6621 74.0967 58.422 73.6075 59.0455C73.0934 59.7009 72.3731 60.1598 71.7011 60.6562C71.4422 60.8211 71.2267 61.0445 71.0722 61.3079C70.9265 61.6037 70.9347 61.9476 70.946 62.2764L71.0834 66.2693C71.101 66.7828 71.1232 67.3148 71.3557 67.7744C71.646 68.3483 72.2194 68.7242 72.6173 69.2312C73.0233 69.7522 73.2348 70.3959 73.2159 71.0534C73.2075 71.3177 73.1809 71.6304 73.3891 71.7964C73.5158 71.8776 73.664 71.9197 73.8149 71.9175L79.2774 72.3595C80.2382 72.4373 81.3031 72.5651 81.9305 73.289C82.2265 73.6306 82.4644 74.1219 82.9179 74.1586C83.1124 74.1743 83.3017 74.0953 83.4962 74.0801C83.9871 74.0416 84.4183 74.41 84.6905 74.8158C85.1024 75.4342 85.2893 76.1728 85.2207 76.9102C85.1761 77.3731 85.0309 77.823 84.9996 78.287C84.8806 80.0522 86.394 81.5859 86.4234 83.3549C86.4406 84.3954 85.9411 85.3676 85.454 86.2901C86.2401 87.4676 85.5964 89.0355 85.9094 90.412C86.2063 91.7179 87.3075 92.7403 87.5819 94.051C87.7075 94.6511 87.7148 95.3895 88.2499 95.6985C88.4847 95.8117 88.745 95.8632 89.0058 95.8482C90.5787 95.8666 92.1337 95.5166 93.5436 94.8267C94.2053 94.502 94.891 94.0173 95.0066 93.2959C95.0998 92.7142 94.8014 92.0634 95.1051 91.5567C95.463 90.9594 96.3798 91.0067 96.9063 90.5476C97.7606 89.8026 97.0945 88.3819 97.4406 87.3089C97.7517 86.3444 98.8226 85.832 99.3535 84.9664C99.5624 84.5941 99.7123 84.1924 99.798 83.7751C100.041 82.7779 100.193 81.761 100.25 80.7368C100.264 80.1145 100.311 79.4934 100.389 78.8758C100.962 75.3598 104.477 73.0054 105.618 69.6277C105.727 69.3051 105.779 68.8755 105.488 68.6929C105.316 68.6117 105.121 68.5915 104.936 68.6357L102.418 68.9496C102.105 68.9886 101.773 69.0251 101.486 68.8966C101.199 68.7682 100.993 68.4089 101.145 68.136C101.573 67.37 100.693 66.402 100.302 65.617C99.2499 63.5033 97.9964 61.4933 96.559 59.6142C96.467 59.5175 96.4094 59.3938 96.3949 59.2618L97.1095 59.2854C96.8683 58.4294 96.4702 57.4928 95.6292 57.1797C95.1553 57.0033 94.6305 57.0643 94.1248 57.0916C92.6766 57.1698 91.124 56.9536 89.6906 56.7345Z" fill="#393939"/>
<path d="M94.126 37.4457C94.505 37.8436 94.9297 38.2655 95.478 38.3349C96.4465 38.4574 97.1428 37.4672 97.5862 36.607C97.6026 36.8263 97.7049 37.0306 97.8713 37.1765C98.0377 37.3223 98.255 37.3982 98.4772 37.3881C98.7162 37.3483 98.9444 37.2601 99.1474 37.129C101.066 36.0921 103.216 35.5428 105.402 35.5302C105.381 35.3664 105.422 35.2008 105.518 35.0652C105.613 34.9296 105.755 34.8337 105.918 34.796C106.363 34.7088 106.763 35.0889 106.978 35.4837C107.192 35.8785 107.326 36.3361 107.667 36.6316C108.007 36.9272 108.667 36.9143 108.802 36.4863C108.931 36.0755 108.498 35.7251 108.138 35.4829C107.779 35.2407 107.4 34.7924 107.642 34.4349C109.479 34.0328 111.328 33.6291 113.208 33.5492C113.528 33.5602 113.847 33.5059 114.145 33.3896C114.431 33.2505 114.659 32.9347 114.582 32.6283C114.172 32.7236 113.742 32.696 113.348 32.5489C112.954 32.4019 112.612 32.142 112.368 31.8025C114.977 31.5896 117.751 31.4082 120.063 32.6219C120.341 33.2108 118.927 33.7007 119.305 34.2319C119.426 34.4013 119.667 34.4212 119.877 34.425C121.483 34.4545 123.099 34.4834 124.688 34.2436C125.268 34.1559 125.854 34.0322 126.437 34.1033C127.408 34.2217 128.238 34.8621 129.193 35.0709C129.582 35.1559 130.018 35.1587 130.345 34.9352C130.673 34.7117 130.814 34.2027 130.545 33.9121C131.444 33.0407 132.937 33.2567 134.123 33.6738C135.309 34.091 136.433 34.7637 137.688 34.8567C138.589 34.9234 139.502 34.684 140.391 34.8362C140.95 34.9318 141.47 35.1777 142.017 35.3288C143.05 35.6145 144.143 35.5542 145.216 35.568C147.954 35.6044 150.661 36.1364 153.205 37.1376C153.536 37.2441 153.839 37.4212 154.093 37.6564C154.33 37.907 154.451 38.2965 154.292 38.6012L151.663 38.2214C151.911 38.7035 152.551 38.7856 153.072 38.9519C153.592 39.1182 154.132 39.6864 153.819 40.1299C153.255 39.9524 152.744 40.5098 152.459 41.0225C152.175 41.5353 151.828 42.1494 151.237 42.1807C150.708 42.2086 150.068 41.7632 149.723 42.1609C150.199 42.7552 150.607 43.4001 150.939 44.0837C151.28 44.7855 151.523 45.6698 151.062 46.3012C150.99 46.4139 150.88 46.4982 150.751 46.5395C150.375 46.6336 150.131 46.1787 149.861 45.903C149.522 45.5556 149.008 45.4571 148.547 45.2942C148.087 45.1313 147.602 44.8107 147.566 44.3287C147.544 44.0288 147.704 43.75 147.822 43.4728C148.02 43.0055 148.107 42.4994 148.075 41.9937C148.05 41.5868 147.934 41.1636 147.639 40.8794C147.343 40.5951 146.833 40.5049 146.516 40.7653C146.368 40.8868 146.249 41.0811 146.057 41.0883C145.717 41.1012 145.456 40.5157 145.183 40.7155C145.215 40.9285 145.171 41.1458 145.057 41.3296C144.242 42.0308 142.989 41.7341 141.938 41.9818C141.438 42.1233 140.959 42.33 140.514 42.5964C140.348 42.6667 140.207 42.7842 140.108 42.934C139.976 43.1862 140.121 43.5091 140.352 43.6768C140.598 43.8255 140.873 43.9185 141.159 43.9491C142.441 44.1891 143.741 44.5607 144.753 45.3746C145.765 46.1886 146.429 47.5341 146.108 48.7844L143.581 46.3965C143.677 47.3991 143.731 48.4045 143.744 49.4126C143.761 49.6095 143.733 49.8075 143.664 49.9928C143.484 50.3863 142.996 50.5187 142.568 50.6056C142.449 50.6279 142.336 50.6749 142.237 50.7435C142.137 50.8121 142.054 50.9006 141.991 51.0034C141.929 51.1061 141.89 51.2208 141.875 51.3397C141.861 51.4587 141.872 51.5793 141.908 51.6936C142.061 52.1836 142.44 52.5657 142.787 52.9463C143.134 53.327 143.475 53.7596 143.521 54.2702C143.566 54.7808 143.177 55.3563 142.66 55.3208C142.268 55.2939 141.977 54.9469 141.81 54.5953C141.642 54.2437 141.543 53.852 141.292 53.5532C140.531 52.6489 138.823 53.0363 138.142 52.0723C137.968 52.267 137.848 52.5024 137.792 52.7562C137.736 53.0099 137.747 53.2735 137.823 53.5219C138.14 53.3258 138.574 53.508 138.812 53.7931C139.05 54.0781 139.163 54.4435 139.35 54.7637C139.602 55.1957 140.004 55.5787 140.039 56.0763C140.029 56.2645 140.033 56.4531 140.048 56.6409C140.111 56.9424 140.369 57.1589 140.547 57.411C140.963 57.9974 140.943 58.8031 140.675 59.4685C140.407 60.1339 139.925 60.6899 139.448 61.229C138.615 62.1705 137.765 63.1066 136.777 63.8885C136.496 64.1116 136.195 64.331 136.019 64.6429C135.844 64.9548 135.835 65.3927 136.105 65.63C135.912 65.6395 135.565 65.7334 135.372 65.7429C135.305 64.9774 135.29 64.2083 135.328 63.4408C134.567 63.0792 133.747 64.0475 133.845 64.8772C133.943 65.7069 134.55 66.3727 134.982 67.0905C135.298 67.6154 135.533 68.2275 135.428 68.8294C135.322 69.4313 134.779 69.9866 134.163 69.9335C133.184 69.849 132.775 68.4594 131.805 68.3004C131.72 68.2805 131.63 68.2893 131.55 68.3254C131.406 68.4035 131.381 68.5939 131.373 68.756C131.334 69.5517 131.299 70.3789 131.613 71.1125C132.073 72.1857 133.26 73.0871 133.011 74.2262C131.67 73.6096 130.972 72.122 130.655 70.6931C130.339 69.2642 130.286 67.7642 129.718 66.4134C129.287 66.9597 128.381 66.5081 127.987 65.9349C127.614 65.3916 127.384 64.7631 127.022 64.2124C126.659 63.6617 126.104 63.1687 125.441 63.1384C124.745 63.1066 124.141 63.5788 123.611 64.0249C123.174 64.3917 122.726 64.773 122.471 65.2801C122.1 66.018 122.197 66.8879 122.179 67.7119C122.16 68.6026 121.969 69.5425 121.355 70.1946C120.741 70.8467 119.608 71.0738 118.93 70.4861C118.577 70.1793 118.406 69.7209 118.253 69.2808C117.518 67.1597 116.906 64.9988 116.42 62.8088C116.306 63.3086 115.862 63.9529 115.438 63.6585C115.343 63.5793 115.266 63.4811 115.212 63.3703C114.421 62.0447 112.956 61.2495 111.476 60.7728C109.996 60.296 108.438 60.0736 106.975 59.5497C106.155 59.2559 105.371 58.87 104.64 58.3996C104.453 58.6704 104.345 58.986 104.325 59.313C104.305 59.64 104.375 59.9662 104.528 60.257C104.852 60.8254 105.587 61.1543 106.216 60.9556C106.541 60.853 106.815 60.6299 107.138 60.5197C107.46 60.4095 107.893 60.4636 108.034 60.7708C108.169 61.0649 107.965 61.4206 108.066 61.7276C108.221 62.1952 108.934 62.2312 109.183 62.6567C109.369 62.9733 109.216 63.3938 108.951 63.6492C108.686 63.9047 108.333 64.0448 108.009 64.2227C106.96 64.7997 106.213 65.7847 105.296 66.5511C104.379 67.3175 103.085 67.877 101.992 67.3854C102.253 66.0809 100.681 65.1231 100.392 63.8245C100.297 63.3971 100.346 62.943 100.21 62.5265C100.014 61.9234 99.4725 61.5088 99.0285 61.0518C98.4901 60.4914 98.0707 59.8301 97.7949 59.1069C97.5191 58.3836 97.3927 57.6131 97.423 56.8408C97.447 56.3041 97.5467 55.7586 97.423 55.2355C97.2994 54.7124 96.8614 54.206 96.3186 54.2297C95.0788 54.2839 93.5171 54.3751 92.8666 53.3301C92.6345 52.9571 92.5335 52.4109 92.8691 52.1252C93.1059 51.9236 93.4554 51.9426 93.7663 51.9729L96.5596 52.2446C97.2129 52.3081 97.9191 52.3605 98.4797 52.0228C99.0403 51.6851 99.2832 50.7887 98.7641 50.3914C98.3848 50.1011 97.7053 50.1168 97.595 49.6552C97.5032 49.2708 97.9335 48.8347 97.7011 48.5134C97.5345 48.283 97.1598 48.3469 96.9328 48.5196C96.7057 48.6923 96.541 48.9449 96.2869 49.0756C95.8412 49.305 95.3086 49.0867 94.8291 48.9383C94.3496 48.79 93.7067 48.7774 93.4741 49.2178C93.214 49.7103 93.7048 50.3557 93.4467 50.8492C93.1053 51.5017 91.9495 51.1302 91.4701 51.6915C90.9201 52.3355 91.8444 53.2959 91.6589 54.1187C91.4221 54.2346 91.1589 54.2879 90.895 54.2732C90.6312 54.2586 90.3757 54.1765 90.1535 54.035C89.9349 53.8881 89.7608 53.6853 89.6495 53.4482C89.5382 53.2112 89.494 52.9487 89.5216 52.6888C89.5675 52.3187 89.7626 51.9409 89.6319 51.5911C89.5261 51.3083 89.239 51.14 88.9721 50.9941L86.2577 49.511C86.0057 49.9732 86.3243 50.5463 86.7227 50.8935C87.1212 51.2407 87.6203 51.5022 87.882 51.9592C88.0476 52.2758 88.0847 52.6429 87.9858 52.9856C87.8869 53.3283 87.6594 53.6208 87.3497 53.8033C87.3109 53.8298 87.2668 53.8476 87.2203 53.8556C87.1739 53.8636 87.1262 53.8616 87.0807 53.8497C87.0374 53.8245 86.9996 53.791 86.9696 53.7512C86.9396 53.7113 86.9181 53.6659 86.9062 53.6177C86.4272 52.4058 85.7082 51.2109 84.5585 50.5778C83.4089 49.9448 81.757 50.0749 81.0031 51.1414C80.8241 51.3947 80.7039 51.6834 80.5479 51.9512C79.7192 53.374 77.9425 54.0477 76.2826 54.0037C76.1202 54.0126 75.9587 53.9751 75.8173 53.8956C75.549 53.7124 75.5611 53.3237 75.6022 53.0039L75.7764 51.6467C75.8114 51.3741 75.8621 51.0729 76.0802 50.9028C76.3878 50.663 76.8314 50.8143 77.223 50.8087C77.5197 50.795 77.8049 50.6914 78.04 50.512C78.2752 50.3325 78.4488 50.0859 78.5374 49.8056C78.6166 49.5226 78.6161 49.2235 78.536 48.9407C78.4559 48.6579 78.2993 48.4021 78.0831 48.2008C77.9036 48.0341 77.6627 47.8247 77.7575 47.6C77.7953 47.5378 77.8464 47.4846 77.9073 47.4441C77.9682 47.4036 78.0372 47.3767 78.1097 47.3655C78.8132 47.1635 79.5564 47.1105 80.2481 46.8722C80.9398 46.6339 81.6107 46.1463 81.7745 45.4403C81.8247 45.224 81.8475 44.9619 82.044 44.8547C82.1427 44.8135 82.2486 44.7921 82.3556 44.7917C82.7306 44.739 83.0721 44.5493 83.3127 44.2601C83.5534 43.9709 83.6758 43.6031 83.656 43.2291C83.9875 43 84.4519 43.1685 84.7726 43.4121C85.0933 43.6557 85.3764 43.9776 85.7667 44.0826C86.4939 44.2783 87.1966 43.6416 87.9503 43.6387C88.2672 43.6374 88.5953 43.7482 88.8935 43.642C89.1958 43.5343 89.3763 43.2368 89.6083 43.017C89.8403 42.7972 90.2473 42.6631 90.4615 42.8999L90.2791 41.5639C90.6465 41.6556 91.0295 41.6686 91.4023 41.602C91.7752 41.5353 92.1293 41.3905 92.4409 41.1774L90.0833 40.3897C90.0013 40.3695 89.9255 40.3294 89.8629 40.2732C89.6915 40.0907 89.8617 39.8063 90.0011 39.5989C90.3345 39.1026 90.3905 38.2851 89.8422 38.038C89.4679 37.8694 89.0383 38.0718 88.6791 38.2699L86.9584 39.2186C86.9037 39.542 87.3037 39.7253 87.5515 39.9431C87.7015 40.0749 87.8076 40.2485 87.856 40.441C87.9044 40.6335 87.8927 40.836 87.8226 41.0219C87.7524 41.2078 87.627 41.3683 87.4629 41.4824C87.2988 41.5966 87.1036 41.6589 86.903 41.6614C87.0163 41.807 87.095 41.976 87.1333 42.1559C87.1716 42.3357 87.1686 42.5217 87.1243 42.7002L85.9666 42.7825C85.8366 42.8084 85.7016 42.7823 85.591 42.7101C85.4672 42.6013 85.484 42.4108 85.4553 42.2495C85.386 41.8602 85.0006 41.5874 84.6072 41.5175C84.2138 41.4475 83.8113 41.5372 83.4217 41.6257C83.2563 41.6846 83.0747 41.6804 82.9122 41.6141C82.819 41.5542 82.7482 41.4659 82.7106 41.3625C82.5398 40.953 82.6994 40.4718 82.9737 40.1216C83.248 39.7714 83.6235 39.5155 83.9608 39.224C84.7672 38.5243 85.3598 37.6156 85.6714 36.6005C86.3088 36.3364 86.9686 35.9777 87.6059 35.7136C88.5885 35.2217 89.6904 35.0106 90.7878 35.104L92.9462 35.1448C93.5852 35.1569 94.2415 35.1723 94.8324 35.4132C95.4234 35.6541 95.9426 36.1751 95.9834 36.8058C95.9957 36.8772 95.9894 36.9505 95.9652 37.0189C95.941 37.0873 95.8996 37.1484 95.845 37.1966C95.7615 37.2417 95.667 37.2627 95.5721 37.2575C94.9761 37.2782 94.722 37.425 94.126 37.4457Z" fill="#393939"/>
<path d="M76.922 44.1344C77.0063 44.0555 77.067 43.9551 77.0974 43.8443C77.1278 43.7335 77.1267 43.6165 77.0943 43.5063C76.8891 43.428 76.6658 43.4079 76.4497 43.4483C76.2336 43.4886 76.0331 43.5878 75.8709 43.7347C75.7431 43.8626 75.6329 44.0067 75.5432 44.1631C75.2596 44.6207 75.0087 45.1672 75.1731 45.6786C75.1865 45.7344 75.211 45.787 75.2452 45.8332C75.2795 45.8795 75.3227 45.9186 75.3724 45.9481C75.446 45.9774 75.5255 45.9897 75.6046 45.9841C75.9171 45.9837 76.2292 45.9647 76.5394 45.9272C76.7298 45.9042 76.951 45.851 77.0246 45.6758C77.1214 45.4455 76.8872 45.1848 76.9555 44.9447C77.0004 44.8374 77.0685 44.741 77.1549 44.6623C77.1978 44.6227 77.2308 44.5737 77.2512 44.5193C77.2716 44.4649 77.2789 44.4065 77.2726 44.3489C77.245 44.2362 77.0706 44.1723 77.0078 44.2702" fill="#393939"/>
<path d="M78.5422 42.0575C78.2647 41.9945 77.9785 41.9767 77.6952 42.0049C77.6325 42.0031 77.5704 42.017 77.5147 42.0455C77.4607 42.0848 77.4216 42.1409 77.4035 42.2047C77.3436 42.3947 77.3583 42.5999 77.4447 42.7796C77.531 42.9593 77.6826 43.1002 77.8693 43.1744C77.9711 43.1975 78.0686 43.2362 78.1582 43.2892C78.3978 43.4729 78.2451 43.8486 78.2904 44.145C78.3414 44.4779 78.6672 44.7573 78.6075 45.0888C78.5604 45.3499 78.2784 45.5567 78.3238 45.8181C78.3713 46.0919 78.7227 46.1741 79.0028 46.1961C79.1651 46.2242 79.3322 46.2052 79.4838 46.1416C79.6359 46.0388 79.744 45.8839 79.7874 45.7069C79.902 45.3695 79.9502 45.0134 79.9293 44.658C79.9281 44.4963 79.887 44.3374 79.8097 44.195C79.7253 44.0822 79.6318 43.9763 79.5301 43.8785C78.9935 43.2613 79.5585 42.3407 78.5422 42.0575Z" fill="#393939"/>
<path opacity="0.8" d="M149.104 90.4049C149.104 90.4049 108.006 67.0783 90.3126 71.4981C90.3126 71.4981 52.8149 75.4882 48.4692 84.2663C48.4692 84.2663 36.5494 47.4349 32.2037 46.2072" stroke="#161616" stroke-width="2" stroke-miterlimit="10"/>
<path opacity="0.8" d="M48.4692 84.2664C55.3603 66.0962 117.443 45.9617 117.443 45.9617C108.627 48.1716 90.3126 71.4981 90.3126 71.4981C90.3126 71.4981 51.5733 43.629 32.2037 46.2072C32.2037 46.2072 117.505 48.9696 149.104 90.4049" stroke="#161616" stroke-width="2" stroke-miterlimit="10"/>
<path d="M32.2037 47.9874C33.198 47.9874 34.004 47.1904 34.004 46.2072C34.004 45.224 33.198 44.427 32.2037 44.427C31.2093 44.427 30.4033 45.224 30.4033 46.2072C30.4033 47.1904 31.2093 47.9874 32.2037 47.9874Z" fill="#161616"/>
<path d="M48.4692 86.0465C49.4635 86.0465 50.2696 85.2494 50.2696 84.2663C50.2696 83.2831 49.4635 82.4861 48.4692 82.4861C47.4749 82.4861 46.6688 83.2831 46.6688 84.2663C46.6688 85.2494 47.4749 86.0465 48.4692 86.0465Z" fill="#161616"/>
<path d="M117.443 47.7418C118.437 47.7418 119.243 46.9448 119.243 45.9616C119.243 44.9784 118.437 44.1814 117.443 44.1814C116.448 44.1814 115.642 44.9784 115.642 45.9616C115.642 46.9448 116.448 47.7418 117.443 47.7418Z" fill="#161616"/>
<path d="M149.104 92.1851C150.099 92.1851 150.905 91.3881 150.905 90.4049C150.905 89.4218 150.099 88.6248 149.104 88.6248C148.11 88.6248 147.304 89.4218 147.304 90.4049C147.304 91.3881 148.11 92.1851 149.104 92.1851Z" fill="#161616"/>
<path d="M90.3126 73.2783C91.3069 73.2783 92.113 72.4813 92.113 71.4981C92.113 70.5149 91.3069 69.7179 90.3126 69.7179C89.3183 69.7179 88.5122 70.5149 88.5122 71.4981C88.5122 72.4813 89.3183 73.2783 90.3126 73.2783Z" fill="#161616"/>
</g>
<defs>
<clipPath id="clip0_34_231">
<rect width="177" height="130" fill="white"/>
</clipPath>
</defs>
</svg>
