<svg width="162" height="122" viewBox="0 0 162 122" fill="none" xmlns="http://www.w3.org/2000/svg">
<g clip-path="url(#clip0_64_852)">
<path d="M112.555 12.2358C115.922 12.2358 118.652 9.49672 118.652 6.1179C118.652 2.73908 115.922 0 112.555 0C109.188 0 106.458 2.73908 106.458 6.1179C106.458 9.49672 109.188 12.2358 112.555 12.2358Z" fill="black"/>
<path d="M128.899 116.814L126.703 116.86L125.479 108.194L128.719 108.126L128.899 116.814Z" fill="#FFB6B6"/>
<path d="M121.969 120.523C121.981 121.066 122.429 121.498 122.971 121.488L127.336 121.396L128.055 119.82L128.381 121.374L130.029 121.341L129.451 115.782L128.877 115.76L126.535 115.667L125.78 115.638L125.812 117.215L122.375 119.704C122.114 119.893 121.962 120.199 121.969 120.523Z" fill="#2F2E41"/>
<path d="M143.676 116.814L141.48 116.86L140.256 108.194L143.497 108.126L143.676 116.814Z" fill="#FFB6B6"/>
<path d="M136.746 120.523C136.758 121.066 137.206 121.498 137.748 121.488L142.114 121.396L142.833 119.82L143.159 121.374L144.806 121.341L144.228 115.782L143.654 115.76L141.312 115.667L140.557 115.638L140.59 117.215L137.153 119.704C136.891 119.893 136.739 120.199 136.746 120.523Z" fill="#2F2E41"/>
<path d="M131.112 50.1861L143.202 49.8491L142.531 50.8601L144.061 52.3766C144.061 52.3766 149.583 59.9591 147.904 66.8676C146.225 73.7761 147.17 114.619 147.17 114.619L137.325 113.542L138.417 72.3439L130.356 87.8459L132.7 112.977L124.311 112.952L121.624 85.8239L131.112 50.1861V50.1861Z" fill="#2F2E41"/>
<path d="M80.5348 17.5925C80.5803 17.705 80.7374 17.705 80.7829 17.5925C81.1003 16.8075 81.5521 15.9284 82.0435 15.2565C82.1222 15.149 82.0137 15.0052 81.8887 15.0506L80.8352 15.433V8.88965H80.4826V15.433L79.4288 15.0506C79.3038 15.0052 79.1953 15.1489 79.274 15.2565C79.7654 15.9283 80.2173 16.8075 80.5348 17.5925H80.5348Z" fill="black"/>
<path d="M87.4428 24.3297C87.4088 24.4462 87.5318 24.5442 87.6372 24.4845C88.3722 24.0678 89.2708 23.6613 90.0721 23.4418C90.2003 23.4067 90.2045 23.2265 90.0784 23.184L89.0165 22.8261L93.072 17.702L92.7958 17.4819L88.7404 22.606L88.1522 21.6489C88.0824 21.5353 87.9084 21.5802 87.9033 21.7135C87.8718 22.5463 87.6807 23.5167 87.4428 24.3297Z" fill="black"/>
<path d="M113.2 36.2849L119.712 35.5317L120.659 39.2044L113.746 39.7549C113.599 39.9078 113.428 40.0421 113.233 40.1506C112.174 40.7411 110.838 40.3582 110.25 39.2953C109.661 38.2324 110.043 36.8921 111.102 36.3016C111.778 35.925 112.565 35.9458 113.2 36.2849Z" fill="#FFB6B6"/>
<path d="M144.379 27.8139L141.831 23.9331C141.367 24.3022 140.961 24.6734 140.654 25.0017L140.126 25.3667L138.418 26.8982L133.586 31.2277L131.978 32.6695L130.183 32.9856L126.222 33.685L120.224 35.3047L115.807 35.5918C115.805 35.6815 115.805 35.8161 115.805 35.9833C115.803 36.8541 115.823 38.6161 115.994 39.5766C116.053 39.911 116.13 40.1476 116.232 40.2189C116.264 40.2414 119.647 39.1814 119.817 39.1794C121.193 39.1773 123.493 39.5562 128.133 38.9505C130.889 38.5875 133.315 38.2571 134.336 38.1164L134.358 38.1124L135.096 37.7534L143.194 33.8176L145.639 32.6287C145.436 30.985 145.015 29.3638 144.379 27.8139V27.8139Z" fill="black"/>
<path d="M4.61135 5.69775C2.06457 5.69775 0 7.76941 0 10.3249V88.6972H0.406465V37.8534C0.406465 20.3195 14.5718 6.10561 32.0457 6.10561L112.868 6.03145L112.794 5.69775H4.61135Z" fill="black"/>
<path d="M25.9541 18.7198C26.9033 18.7198 27.6727 17.9305 27.6727 16.9568C27.6727 15.9832 26.9033 15.1938 25.9541 15.1938C25.0049 15.1938 24.2354 15.9832 24.2354 16.9568C24.2354 17.9305 25.0049 18.7198 25.9541 18.7198Z" fill="black"/>
<path d="M31.8913 18.7198C32.8404 18.7198 33.6099 17.9305 33.6099 16.9568C33.6099 15.9832 32.8404 15.1938 31.8913 15.1938C30.9421 15.1938 30.1726 15.9832 30.1726 16.9568C30.1726 17.9305 30.9421 18.7198 31.8913 18.7198Z" fill="black"/>
<path d="M37.8284 18.7198C38.7776 18.7198 39.5471 17.9305 39.5471 16.9568C39.5471 15.9832 38.7776 15.1938 37.8284 15.1938C36.8793 15.1938 36.1098 15.9832 36.1098 16.9568C36.1098 17.9305 36.8793 18.7198 37.8284 18.7198Z" fill="black"/>
<path d="M67.7809 37.7271C65.2341 37.7271 63.1695 39.7987 63.1695 42.3542L63.1695 75.8619H63.576V69.8827C63.576 52.3488 77.7413 38.1349 95.2153 38.1349L124.62 38.0608L124.546 37.7271L67.7809 37.7271Z" fill="#F2F2F2"/>
<path d="M84.8552 58.5225C84.631 58.5225 84.4488 58.7054 84.4488 58.9303V65.2521C84.4487 65.4771 84.631 65.66 84.8552 65.66C85.0794 65.66 85.2617 65.4771 85.2617 65.2521V58.9303C85.2617 58.7054 85.0794 58.5225 84.8552 58.5225Z" fill="black"/>
<path d="M88.8388 64.6139C90.2377 64.6139 91.3717 63.4999 91.3717 62.1258C91.3717 60.7516 90.2377 59.6377 88.8388 59.6377C87.4399 59.6377 86.3058 60.7516 86.3058 62.1258C86.3058 63.4999 87.4399 64.6139 88.8388 64.6139Z" fill="black"/>
<path d="M109.144 61.2746L95.5105 61.2746C95.0428 61.2746 94.6622 60.8928 94.6622 60.4235C94.6622 59.9541 95.0428 59.5723 95.5105 59.5723L109.144 59.5723C109.612 59.5723 109.993 59.9541 109.993 60.4235C109.993 60.8928 109.612 61.2746 109.144 61.2746Z" fill="#F2F2F2"/>
<path d="M119.784 64.1555L95.5105 64.1555C95.0428 64.1555 94.6622 63.7736 94.6622 63.3043C94.6622 62.835 95.0428 62.4531 95.5105 62.4531L119.784 62.4531C120.252 62.4531 120.633 62.835 120.633 63.3043C120.633 63.7737 120.252 64.1555 119.784 64.1555Z" fill="#F2F2F2"/>
<path d="M86.1109 47.6778C87.0601 47.6778 87.8296 46.8885 87.8296 45.9148C87.8296 44.9412 87.0601 44.1519 86.1109 44.1519C85.1618 44.1519 84.3923 44.9412 84.3923 45.9148C84.3923 46.8885 85.1618 47.6778 86.1109 47.6778Z" fill="#F2F2F2"/>
<path d="M92.0481 47.6778C92.9973 47.6778 93.7668 46.8885 93.7668 45.9148C93.7668 44.9412 92.9973 44.1519 92.0481 44.1519C91.0989 44.1519 90.3295 44.9412 90.3295 45.9148C90.3295 46.8885 91.0989 47.6778 92.0481 47.6778Z" fill="#F2F2F2"/>
<path d="M97.9853 47.6778C98.9345 47.6778 99.704 46.8885 99.704 45.9148C99.704 44.9412 98.9345 44.1519 97.9853 44.1519C97.0361 44.1519 96.2667 44.9412 96.2667 45.9148C96.2667 46.8885 97.0361 47.6778 97.9853 47.6778Z" fill="#F2F2F2"/>
<path d="M18.3629 34.5469C18.1387 34.5469 17.9565 34.7298 17.9565 34.9547V41.2766C17.9565 41.5015 18.1387 41.6844 18.3629 41.6844C18.5871 41.6844 18.7694 41.5015 18.7694 41.2766V34.9547C18.7694 34.7298 18.5871 34.5469 18.3629 34.5469Z" fill="black"/>
<path d="M22.3465 40.6383C23.7454 40.6383 24.8794 39.5243 24.8794 38.1502C24.8794 36.7761 23.7454 35.6621 22.3465 35.6621C20.9476 35.6621 19.8136 36.7761 19.8136 38.1502C19.8136 39.5243 20.9476 40.6383 22.3465 40.6383Z" fill="black"/>
<path d="M42.6521 37.2991H29.0182C28.5505 37.2991 28.1699 36.9172 28.1699 36.4479C28.1699 35.9785 28.5505 35.5967 29.0182 35.5967H42.6521C43.1198 35.5967 43.5003 35.9785 43.5003 36.4479C43.5003 36.9172 43.1198 37.2991 42.6521 37.2991Z" fill="#F2F2F2"/>
<path d="M53.292 40.1799H29.0182C28.5505 40.1799 28.1699 39.7981 28.1699 39.3287C28.1699 38.8594 28.5505 38.4775 29.0182 38.4775H53.292C53.7597 38.4775 54.1403 38.8594 54.1403 39.3287C54.1403 39.7981 53.7597 40.1799 53.292 40.1799Z" fill="#F2F2F2"/>
<path d="M18.3629 52.085C18.1387 52.085 17.9565 52.2679 17.9565 52.4928V58.8146C17.9565 59.0396 18.1387 59.2225 18.3629 59.2225C18.5871 59.2225 18.7694 59.0396 18.7694 58.8146V52.4928C18.7694 52.2679 18.5871 52.085 18.3629 52.085Z" fill="black"/>
<path d="M22.3465 58.1764C23.7454 58.1764 24.8794 57.0624 24.8794 55.6883C24.8794 54.3141 23.7454 53.2002 22.3465 53.2002C20.9476 53.2002 19.8136 54.3141 19.8136 55.6883C19.8136 57.0624 20.9476 58.1764 22.3465 58.1764Z" fill="black"/>
<path d="M42.6521 54.8371H29.0182C28.5505 54.8371 28.1699 54.4553 28.1699 53.986C28.1699 53.5166 28.5505 53.1348 29.0182 53.1348H42.6521C43.1198 53.1348 43.5003 53.5166 43.5003 53.986C43.5003 54.4553 43.1198 54.8371 42.6521 54.8371Z" fill="#F2F2F2"/>
<path d="M53.292 57.718H29.0182C28.5505 57.718 28.1699 57.3361 28.1699 56.8668C28.1699 56.3975 28.5505 56.0156 29.0182 56.0156H53.292C53.7597 56.0156 54.1403 56.3975 54.1403 56.8668C54.1403 57.3361 53.7597 57.718 53.292 57.718Z" fill="#F2F2F2"/>
<path d="M18.3629 69.623C18.1387 69.623 17.9565 69.806 17.9565 70.0309V76.3527C17.9565 76.5777 18.1387 76.7606 18.3629 76.7606C18.5871 76.7606 18.7694 76.5777 18.7694 76.3527V70.0309C18.7694 69.806 18.5871 69.623 18.3629 69.623Z" fill="black"/>
<path d="M22.3465 75.7145C23.7454 75.7145 24.8794 74.6005 24.8794 73.2264C24.8794 71.8522 23.7454 70.7383 22.3465 70.7383C20.9476 70.7383 19.8136 71.8522 19.8136 73.2264C19.8136 74.6005 20.9476 75.7145 22.3465 75.7145Z" fill="black"/>
<path d="M42.6521 72.3752H29.0182C28.5505 72.3752 28.1699 71.9934 28.1699 71.524C28.1699 71.0547 28.5505 70.6729 29.0182 70.6729H42.6521C43.1198 70.6729 43.5003 71.0547 43.5003 71.524C43.5003 71.9934 43.1198 72.3752 42.6521 72.3752Z" fill="#F2F2F2"/>
<path d="M53.292 75.2561H29.0182C28.5505 75.2561 28.1699 74.8742 28.1699 74.4049C28.1699 73.9356 28.5505 73.5537 29.0182 73.5537H53.292C53.7597 73.5537 54.1403 73.9356 54.1403 74.4049C54.1403 74.8742 53.7597 75.2561 53.292 75.2561Z" fill="#F2F2F2"/>
<path d="M146.441 56.7174C146.19 58.6381 133.16 54.0908 131.605 53.2506C128.697 51.6824 131.74 53.2908 131.74 53.2908L131.402 43.6659L131.049 37.9309C131.049 37.9309 130.852 36.4076 130.44 34.4641C130.346 34.0277 130.246 33.522 130.183 32.9856C130.005 31.4378 130.141 29.6391 131.659 28.5502L136.953 20.6295L139.561 20.4766L141.831 23.9332L144.379 27.814C145.015 29.3638 145.436 30.9851 145.639 32.6288C145.735 33.3976 145.784 34.1725 145.784 34.9495C145.784 36.3178 145.635 37.6903 145.334 39.0403L143.739 43.5288C143.739 43.5288 143.538 44.2884 144.239 44.7136C145.661 45.5764 142.783 47.9484 144.544 50.8866C144.544 50.8866 144.379 52.2366 145.164 52.3549C145.948 52.4752 146.547 55.9087 146.441 56.7174Z" fill="black"/>
<path d="M121.128 61.3321L124.994 56.0205L128.326 57.8133L124.039 63.2831C124.051 63.4953 124.033 63.7127 123.981 63.93C123.694 65.1114 122.508 65.8364 121.33 65.5491C120.153 65.2619 119.43 64.0713 119.717 62.8898C119.899 62.1363 120.449 61.57 121.128 61.3321Z" fill="#FFB6B6"/>
<path d="M137.456 27.8254C136.574 27.1887 135.541 26.7384 134.404 26.5386C132.853 26.267 131.983 28.5068 131.641 30.6914C131.484 31.7038 131.437 32.705 131.491 33.4358L131.4 34.075L131.347 37.3842L131.22 45.0346L127.337 50.8036L125.711 54.6783L122.389 58.9398C122.454 59.0024 122.553 59.0937 122.675 59.2084C123.312 59.7998 124.613 60.9793 125.433 61.5055C125.718 61.6869 125.942 61.7901 126.063 61.7647C126.102 61.7563 128.441 59.4951 128.556 59.3687C129.332 58.5211 129.485 57.3835 131.832 54.0772C133.969 51.0681 136.052 48.0757 136.805 46.993L136.819 46.9736L140.202 35.7786L140.509 34.7638C140.837 31.9847 139.59 29.3632 137.456 27.8254Z" fill="black"/>
<path d="M135.538 27.9932C135.532 27.9907 135.526 27.9878 135.52 27.9854C135.467 27.9897 135.416 27.9928 135.365 27.9932H135.538Z" fill="#2F2E41"/>
<path d="M137.055 19.2018C140.32 19.2018 142.967 16.5459 142.967 13.2698C142.967 9.99371 140.32 7.33789 137.055 7.33789C133.79 7.33789 131.143 9.99371 131.143 13.2698C131.143 16.5459 133.79 19.2018 137.055 19.2018Z" fill="#FFB6B6"/>
<path d="M129.051 11.6209C128.652 8.74525 129.816 7.86548 131.636 7.60487C135.238 5.72652 136.063 6.19869 137.205 6.40255L137.625 6.31195C138.913 6.03393 139.38 6.15254 140.525 6.58698C142.941 7.50103 144.528 9.81882 144.704 12.4033C144.825 14.185 144.268 14.4624 145.298 15.9094C146.158 17.1173 145.5 18.8128 144.055 19.1248L142.71 21.1653C142.382 20.7499 142.12 20.3146 141.824 19.7691C141.707 20.2558 141.694 20.8131 141.755 21.3715C140.416 22.0408 138.954 22.3177 137.403 22.311C137.154 21.9775 136.93 21.606 136.96 21.1876C136.873 21.6069 136.768 22.0246 136.75 22.452C135.775 21.8217 134.968 22.0069 134.324 22.9756C132.698 21.6234 132.571 18.5249 134.504 17.7488C136.139 17.0921 133.56 12.4955 131.801 12.4017C131.79 12.4011 131.321 14.1784 131.305 14.145C131.056 13.6469 131.17 13.3739 130.873 12.8284C130.776 13.2387 130.749 13.6983 130.782 14.166C130.363 14.0742 129.938 13.9398 129.51 13.7607C129.013 13.0839 128.821 12.3747 129.051 11.6209V11.6209Z" fill="#2F2E41"/>
<path d="M150.973 118.465C151.393 118.492 151.625 117.968 151.307 117.663L151.275 117.537C151.28 117.527 151.284 117.517 151.288 117.507C151.713 116.491 153.152 116.498 153.573 117.515C153.946 118.418 154.422 119.323 154.539 120.278C154.592 120.699 154.568 121.129 154.475 121.542C155.35 119.623 155.811 117.528 155.811 115.42C155.811 114.891 155.782 114.361 155.723 113.833C155.675 113.401 155.608 112.972 155.521 112.546C155.052 110.246 154.038 108.056 152.574 106.226C151.871 105.84 151.284 105.237 150.929 104.514C150.802 104.253 150.702 103.973 150.655 103.687C150.735 103.697 150.957 102.474 150.897 102.399C151.008 102.229 151.208 102.144 151.33 101.979C151.936 101.154 152.771 101.298 153.207 102.418C154.138 102.89 154.147 103.672 153.576 104.424C153.212 104.903 153.162 105.551 152.843 106.063C152.876 106.105 152.91 106.146 152.943 106.188C153.545 106.963 154.065 107.795 154.504 108.67C154.38 107.698 154.563 106.527 154.875 105.772C155.231 104.912 155.896 104.188 156.483 103.444C157.187 102.551 158.632 102.941 158.756 104.073C158.757 104.084 158.758 104.095 158.759 104.106C158.672 104.155 158.587 104.207 158.504 104.263C158.028 104.578 158.192 105.318 158.756 105.405L158.769 105.407C158.737 105.722 158.683 106.034 158.604 106.341C159.357 109.26 157.733 110.324 155.413 110.371C155.362 110.398 155.312 110.424 155.261 110.449C155.496 111.113 155.684 111.794 155.823 112.484C155.948 113.094 156.034 113.71 156.083 114.329C156.143 115.111 156.138 115.896 156.072 116.675L156.076 116.648C156.243 115.789 156.708 114.987 157.382 114.431C158.387 113.602 159.808 113.297 160.892 112.631C161.414 112.311 162.083 112.725 161.992 113.332L161.987 113.361C161.826 113.427 161.668 113.504 161.516 113.589C161.429 113.639 161.343 113.691 161.26 113.746C160.785 114.062 160.949 114.801 161.512 114.889L161.525 114.891C161.534 114.892 161.542 114.893 161.551 114.895C161.274 115.554 160.888 116.167 160.405 116.695C159.935 119.244 157.915 119.485 155.753 118.743H155.752C155.516 119.776 155.171 120.785 154.727 121.746H151.065C151.051 121.706 151.04 121.663 151.028 121.623C151.366 121.644 151.708 121.624 152.041 121.562C151.769 121.227 151.498 120.89 151.226 120.556C151.219 120.549 151.214 120.543 151.209 120.536C151.071 120.365 150.932 120.195 150.794 120.024L150.794 120.023C150.785 119.498 150.848 118.974 150.973 118.465L150.973 118.465V118.465Z" fill="#F2F2F2"/>
<path d="M110.011 121.757C110.011 121.892 110.119 122 110.253 122H161.73C161.864 122 161.972 121.892 161.972 121.757C161.972 121.623 161.864 121.515 161.73 121.515H110.253C110.119 121.515 110.011 121.623 110.011 121.757Z" fill="#CCCCCC"/>
<path d="M84.1437 28.6964H77.2904C76.8649 28.6964 76.5188 28.349 76.5188 27.9221C75.6127 25.2645 75.6306 22.6605 76.5188 20.1068C76.5188 19.6799 76.8649 19.3325 77.2904 19.3325H84.1437C84.5693 19.3325 84.9154 19.6799 84.9154 20.1068V27.9221C84.9154 28.349 84.5693 28.6964 84.1437 28.6964Z" fill="#E6E6E6"/>
<path d="M78.7588 19.563C77.6487 19.563 76.7487 20.466 76.7487 21.58V27.756C76.7487 28.1478 77.0652 28.4654 77.4557 28.4654H81.2456C83.1454 28.4654 84.6855 26.92 84.6855 25.0137V20.2724C84.6855 19.8806 84.369 19.563 83.9785 19.563H78.7588Z" fill="white"/>
<path d="M82.3131 21.8344H79.1045C79.0236 21.8344 78.9578 21.7684 78.9578 21.6872C78.9578 21.6061 79.0236 21.54 79.1045 21.54H82.3131C82.394 21.54 82.4598 21.6061 82.4598 21.6872C82.4598 21.7684 82.394 21.8344 82.3131 21.8344Z" fill="#E6E6E6"/>
<path d="M82.3131 24.9736H79.1045C79.0236 24.9736 78.9578 24.9076 78.9578 24.8264C78.9578 24.7452 79.0236 24.6792 79.1045 24.6792H82.3131C82.394 24.6792 82.4598 24.7452 82.4598 24.8264C82.4598 24.9076 82.394 24.9736 82.3131 24.9736Z" fill="#E6E6E6"/>
<path d="M84.0349 23.4048H77.3827C77.3019 23.4048 77.236 23.3387 77.236 23.2575C77.236 23.1764 77.3019 23.1104 77.3827 23.1104H84.0349C84.1158 23.1104 84.1816 23.1764 84.1816 23.2575C84.1816 23.3387 84.1158 23.4048 84.0349 23.4048Z" fill="#E6E6E6"/>
<path d="M84.1134 26.2495H81.3377C81.2568 26.2495 81.1909 26.1834 81.1909 26.1023C81.1909 26.0211 81.2568 25.9551 81.3377 25.9551H84.1134C84.1943 25.9551 84.2601 26.0211 84.2601 26.1023C84.2601 26.1834 84.1943 26.2495 84.1134 26.2495Z" fill="#E6E6E6"/>
</g>
<defs>
<clipPath id="clip0_64_852">
<rect width="162" height="122" fill="white"/>
</clipPath>
</defs>
</svg>
