<svg width="160" height="84" viewBox="0 0 160 84" fill="none" xmlns="http://www.w3.org/2000/svg">
<g clip-path="url(#clip0_65_1025)">
<path d="M159.66 61.2294C158.822 66.5556 156.225 71.7254 151.94 74.9968C147.723 78.2189 142.32 79.3636 137.104 80.3477C130.848 81.5295 124.575 82.6097 118.285 83.5883C117.393 83.7304 116.501 83.8677 115.608 84.0001H78.9703C78.9332 83.9507 78.8941 83.8992 78.8571 83.8478C78.7974 83.7613 78.7377 83.6748 78.68 83.5883C78.6471 83.5389 78.6141 83.4875 78.5811 83.436H101.562C102.214 83.4354 102.839 83.1763 103.3 82.7155C103.762 82.2547 104.021 81.6297 104.023 80.9778V50.3094C104.171 49.8441 104.309 49.3767 104.434 48.9032C105.02 46.6982 105.402 44.4439 105.573 42.1688C105.697 40.5835 105.734 38.9982 105.707 37.4108C105.631 33.0482 105.06 28.6855 104.441 24.3537C104.395 24.0346 104.348 23.7134 104.303 23.3943C103.866 20.3843 103.469 17.1087 104.986 14.4713C106.722 11.4531 110.575 10.1951 114.045 10.504C120.286 11.0619 125.543 15.8405 128.276 21.4796C131.006 27.1167 131.618 33.5279 131.867 39.7867C131.999 43.1056 131.984 46.5726 131.521 49.9018C133.086 46.3235 134.652 42.7453 136.22 39.167C137.056 37.2585 137.936 35.2882 139.484 33.8923C142.721 30.9708 148.075 31.5596 151.532 34.2196C154.988 36.8817 156.882 41.0879 158.142 45.2612C159.703 50.4226 160.5 55.9032 159.66 61.2294Z" fill="#F2F2F2"/>
<path d="M145.853 32.3C148.116 36.3082 149.155 40.9043 149.13 45.4908C149.095 50.0382 148.089 54.5257 146.179 58.6529C144.451 62.3794 142.044 65.7516 139.081 68.5967C136.157 71.4355 132.687 73.6516 128.882 75.111C124.466 76.7656 119.69 77.2194 115.042 76.4258C114.396 76.3149 113.755 76.1804 113.119 76.0223C112.733 75.9272 112.568 76.5227 112.955 76.6179C117.792 77.8166 122.865 77.6708 127.625 76.1961C131.59 74.9208 135.248 72.8399 138.37 70.0842C141.531 67.3209 144.146 63.9888 146.077 60.261C148.19 56.1797 149.423 51.7003 149.696 47.1126C149.966 42.4573 149.185 37.719 147.172 33.496C146.928 32.9842 146.666 32.4817 146.386 31.9883C146.343 31.9205 146.276 31.872 146.198 31.853C146.12 31.8341 146.038 31.846 145.969 31.8865C145.9 31.9269 145.849 31.9926 145.827 32.0698C145.806 32.1469 145.815 32.2295 145.853 32.3H145.853Z" fill="#3D3D3D"/>
<path d="M113.068 10.4222C115.578 15.0478 117.534 19.953 118.895 25.0363C121.621 35.2174 122.031 45.8795 120.096 56.2399C119.131 61.4163 117.555 66.4601 115.404 71.2662C113.258 76.0318 110.169 81.0531 104.893 82.7217C104.298 82.9091 103.687 83.0455 103.069 83.1294C102.677 83.1832 102.844 83.7784 103.233 83.725C108.691 82.9761 112.483 78.4426 114.862 73.8213C117.323 69.0397 119.075 63.8472 120.24 58.6047C122.55 48.1443 122.467 37.2975 119.997 26.8737C118.771 21.6809 116.937 16.6505 114.534 11.8861C114.233 11.2894 113.922 10.6975 113.602 10.1104C113.412 9.76113 112.878 10.0725 113.068 10.4222V10.4222Z" fill="#3D3D3D"/>
<path d="M87.236 9.52393H50.2527C49.5021 9.52489 48.7825 9.82346 48.2517 10.3541C47.7209 10.8848 47.4223 11.6043 47.4213 12.3548V30.8822H53.113C53.5293 30.8811 53.9389 30.9862 54.3033 31.1876C54.6676 31.389 54.9744 31.68 55.1948 32.0331L57.1675 35.1728L59.0538 38.1726L59.4079 38.7367L61.566 42.1687L61.5907 42.2079H90.0674V12.3548C90.0664 11.6043 89.7678 10.8848 89.237 10.3541C88.7062 9.82346 87.9866 9.5249 87.236 9.52393Z" fill="#CCCCCC"/>
<path d="M72.5766 15.1875H54.2517C53.7659 15.1875 53.3 15.3804 52.9565 15.7239C52.613 16.0673 52.42 16.5331 52.42 17.0188C52.42 17.5045 52.613 17.9703 52.9565 18.3138C53.3 18.6572 53.7659 18.8502 54.2517 18.8502H72.5766C73.0624 18.8502 73.5283 18.6572 73.8718 18.3138C74.2153 17.9703 74.4082 17.5045 74.4082 17.0188C74.4082 16.5331 74.2153 16.0673 73.8718 15.7239C73.5283 15.3804 73.0624 15.1875 72.5766 15.1875Z" fill="#DADADA"/>
<path d="M82.7386 24.1807H54.4185C53.8882 24.1807 53.3796 24.3913 53.0046 24.7662C52.6297 25.1411 52.419 25.6496 52.419 26.1798C52.419 26.71 52.6297 27.2185 53.0046 27.5934C53.3796 27.9683 53.8882 28.1789 54.4185 28.1789H82.7386C83.2689 28.1789 83.7775 27.9683 84.1525 27.5934C84.5275 27.2185 84.7381 26.71 84.7381 26.1798C84.7381 25.6496 84.5275 25.1411 84.1525 24.7662C83.7775 24.3913 83.2689 24.1807 82.7386 24.1807Z" fill="#DADADA"/>
<path d="M84.5466 32.3276C84.3857 31.9839 84.1302 31.6932 83.81 31.4893C83.4898 31.2855 83.1182 31.1771 82.7386 31.1768H54.4185C54.3752 31.1768 54.334 31.1788 54.2908 31.1809C54.6603 31.3827 54.9716 31.6763 55.1948 32.0332L57.1675 35.173H82.7386C83.0749 35.173 83.4057 35.0882 83.7005 34.9264C83.9952 34.7645 84.2443 34.5308 84.4247 34.2471C84.605 33.9633 84.7107 33.6385 84.732 33.303C84.7534 32.9675 84.6896 32.632 84.5466 32.3276Z" fill="#DADADA"/>
<path d="M84.7176 39.9018C84.6524 39.4231 84.4161 38.9842 84.0523 38.6662C83.6884 38.3483 83.2218 38.1729 82.7386 38.1724H59.0538L59.4079 38.7365L61.5659 42.1686H82.7386C83.1547 42.1694 83.5604 42.039 83.898 41.7959C84.1572 41.6112 84.3686 41.3672 84.5144 41.0843C84.6601 40.8014 84.7362 40.4877 84.7361 40.1694C84.7362 40.0799 84.73 39.9905 84.7176 39.9018Z" fill="#DADADA"/>
<path d="M107.323 25.48L104.441 24.3538L90.0674 18.7456L72.8709 12.0359C72.171 11.7643 71.3919 11.7812 70.7044 12.083C70.0169 12.3848 69.4772 12.9468 69.2035 13.6459L68.6022 15.1879L67.1711 18.8506L65.0913 24.1809L63.5304 28.1791L62.3608 31.1768L60.7999 35.173L59.6282 38.1727L59.5953 38.2592L59.4079 38.7368L61.5659 42.1689L61.5907 42.208H101.562C101.929 42.2077 102.291 42.2896 102.622 42.4478C102.953 42.606 103.245 42.8365 103.475 43.1221L103.644 42.6939L105.707 37.4109L108.932 29.1489C109.204 28.449 109.187 27.6698 108.886 26.9821C108.585 26.2943 108.023 25.7542 107.323 25.48Z" fill="black"/>
<path d="M91.6076 25.4263L90.0674 24.8252L74.5369 18.766C74.084 18.5908 73.5802 18.6018 73.1354 18.7965C72.6906 18.9913 72.3409 19.3541 72.1626 19.8057C71.9871 20.2587 71.9982 20.7628 72.1934 21.2077C72.3887 21.6526 72.7523 22.002 73.2045 22.1796L78.334 24.1807L84.6785 26.6555L90.0674 28.7596L90.2753 28.8399C90.7278 29.0155 91.2316 29.0045 91.676 28.8092C92.1204 28.6138 92.4691 28.2502 92.6456 27.798C92.8221 27.3458 92.8119 26.8422 92.6173 26.3975C92.4227 25.9529 92.0596 25.6036 91.6076 25.4263Z" fill="#DADADA"/>
<path d="M97.8017 37.4994L90.0674 34.4812L84.5466 32.3276L81.5978 31.1768L73.917 28.1791L71.4212 27.2053C70.9557 27.0235 70.4389 27.0227 69.9728 27.2029C69.5067 27.3832 69.1249 27.7314 68.9028 28.1791C68.8782 28.2306 68.8535 28.2841 68.8329 28.3397C68.7374 28.5841 68.691 28.8449 68.6963 29.1073C68.7017 29.3696 68.7587 29.6283 68.864 29.8687C68.9694 30.109 69.1211 30.3262 69.3104 30.5079C69.4998 30.6896 69.7231 30.8322 69.9675 30.9276L70.6058 31.1768L80.8442 35.1729L90.0674 38.7718L96.3479 41.2239C96.5789 41.3141 96.8248 41.3602 97.0728 41.3597C97.5391 41.3606 97.9911 41.1983 98.3504 40.9011C98.7097 40.6039 98.9537 40.1903 99.0402 39.7322C99.1268 39.274 99.0503 38.8 98.8241 38.3923C98.5979 37.9845 98.2363 37.6687 97.8017 37.4994H97.8017Z" fill="#DADADA"/>
<path d="M90.0674 41.9896L89.5711 41.7961L84.7176 39.902L80.284 38.1725L72.595 35.1728L68.8761 33.7214C68.6314 33.6257 68.3703 33.5791 68.1076 33.5844C67.8449 33.5897 67.5859 33.6467 67.3452 33.7521C67.1046 33.8576 66.8871 34.0095 66.7052 34.199C66.5234 34.3886 66.3806 34.6121 66.2852 34.8569C66.1898 35.1017 66.1436 35.3628 66.1493 35.6254C66.1549 35.8881 66.2122 36.147 66.318 36.3874C66.4238 36.6279 66.576 36.8451 66.7659 37.0267C66.9557 37.2083 67.1795 37.3507 67.4244 37.4458L69.2859 38.1726L78.5728 41.7961L79.5283 42.1687L79.6272 42.2079H90.6254L90.0674 41.9896Z" fill="#DADADA"/>
<path d="M71.2813 42.1688L70.3258 41.7961L66.333 40.2376C66.054 40.1283 65.7541 40.0833 65.4553 40.1057C65.1566 40.1282 64.8668 40.2175 64.6073 40.3672C64.3478 40.5169 64.1253 40.7231 63.9564 40.9704C63.7874 41.2178 63.6763 41.5 63.6313 41.7961C63.6115 41.9193 63.6039 42.0441 63.6087 42.1688C63.6083 42.1818 63.609 42.1949 63.6108 42.2079H71.3822L71.2813 42.1688Z" fill="#DADADA"/>
<path d="M79.5284 42.1685L78.5729 41.7958H63.6313C63.6115 41.919 63.6039 42.0438 63.6087 42.1685H61.566L61.5907 42.2076H79.6272L79.5284 42.1685ZM79.5284 42.1685H61.566L61.5907 42.2076H79.6272L79.5284 42.1685ZM79.5284 42.1685H61.566L61.5907 42.2076H79.6272L79.5284 42.1685ZM79.6272 42.2076L79.5284 42.1685H61.566L61.5907 42.2076H79.6272ZM43.5892 83.4357C42.9374 83.4347 42.3126 83.1754 41.8518 82.7146C41.3909 82.2538 41.1315 81.6291 41.1305 80.9775V33.3423C41.1311 32.6903 41.3902 32.0652 41.8512 31.6039C42.3121 31.1427 42.9371 30.8831 43.5892 30.882H47.4213V30.4702H43.5892C42.828 30.4716 42.0984 30.7748 41.5603 31.3131C41.0222 31.8515 40.7196 32.5812 40.7187 33.3423V80.9775C40.7193 81.5281 40.8783 82.0669 41.1765 82.5297C41.4748 82.9925 41.8998 83.3599 42.401 83.5881H78.68C78.6471 83.5387 78.6141 83.4872 78.5811 83.4357H43.5892ZM103.644 42.6935C103.376 42.4098 103.054 42.1838 102.696 42.0294C102.338 41.8751 101.952 41.7956 101.562 41.7958H61.8193L59.5954 38.2588L59.5418 38.1723L57.6556 35.1726L55.5428 31.8126C55.2839 31.4021 54.9253 31.0638 54.5005 30.8291C54.0757 30.5944 53.5984 30.471 53.113 30.4702H43.5892C42.828 30.4716 42.0984 30.7748 41.5603 31.3131C41.0222 31.8515 40.7196 32.5812 40.7187 33.3423V80.9775C40.7193 81.5281 40.8783 82.0669 41.1765 82.5297C41.4748 82.9926 41.8998 83.3599 42.401 83.5881C42.7736 83.7596 43.179 83.8481 43.5892 83.8475H101.562C101.973 83.8481 102.379 83.7596 102.752 83.5881C103.253 83.3599 103.678 82.9925 103.977 82.5297C104.275 82.0668 104.434 81.5281 104.434 80.9775V44.6679C104.435 43.9325 104.152 43.2253 103.644 42.6935ZM104.023 80.9775C104.021 81.6294 103.762 82.2544 103.3 82.7152C102.839 83.176 102.214 83.4351 101.562 83.4357H43.5892C42.9374 83.4347 42.3126 83.1754 41.8518 82.7146C41.3909 82.2538 41.1315 81.6291 41.1305 80.9775V33.3423C41.1311 32.6903 41.3902 32.0652 41.8512 31.6039C42.3121 31.1427 42.9371 30.8831 43.5892 30.882H53.113C53.5293 30.8808 53.939 30.986 54.3033 31.1874C54.6676 31.3888 54.9744 31.6798 55.1948 32.0329L57.1676 35.1726L59.0538 38.1723L59.4079 38.7364L61.566 42.1685L61.5907 42.2076H101.562C102.214 42.2082 102.84 42.4675 103.301 42.9288C103.763 43.3901 104.022 44.0156 104.023 44.6679V80.9775ZM79.5284 42.1685H61.566L61.5907 42.2076H79.6272L79.5284 42.1685ZM79.5284 42.1685H61.566L61.5907 42.2076H79.6272L79.5284 42.1685ZM79.5284 42.1685H61.566L61.5907 42.2076H79.6272L79.5284 42.1685ZM79.5284 42.1685L78.5729 41.7958H61.8193L59.5954 38.2588L59.4079 38.7364L61.566 42.1685L61.5907 42.2076H79.6272L79.5284 42.1685Z" fill="black"/>
<path d="M32.3146 59.2468L31.1351 61.7125L21.0621 58.3372L22.8028 54.6982L32.3146 59.2468Z" fill="#070707"/>
<path d="M29.4785 63.3659L31.8628 58.3819L34.8572 59.8139L31.1503 67.5628L30.9213 67.4533C30.1878 67.1026 29.6238 66.4749 29.3532 65.7084C29.0827 64.9418 29.1277 64.0992 29.4785 63.3659Z" fill="#2F2E41"/>
<path d="M34.6891 81.2654L31.9572 81.1732L31.842 70.5405L35.0447 70.7295L34.6891 81.2654Z" fill="#070707"/>
<path d="M29.7783 80.3182L35.3008 80.5046L35.1889 83.8214L26.6026 83.5317L26.6111 83.2781C26.6386 82.4656 26.9876 81.6974 27.5816 81.1423C28.1756 80.5873 28.9657 80.2908 29.7783 80.3182Z" fill="#2F2E41"/>
<path d="M39.0886 36.7665C39.0886 36.7665 30.7273 34.6487 26.9368 37.7697L24.8186 43.9003L16.3457 55.9385L28.6091 63.2952L30.8388 57.7219L25.4875 55.0468L31.9536 49.4735L30.8388 78.9003L35.0752 79.5691C35.0752 79.5691 44.4399 43.2315 39.0886 36.7665Z" fill="#2F2E41"/>
<path d="M26.4033 38.6765L26.5052 38.4953C27.5794 36.5858 27.4054 33.4764 27.0702 31.2042C26.7895 29.301 26.7979 25.947 26.8544 23.4685C26.8684 22.6318 27.1668 21.8249 27.7006 21.1805C28.2343 20.5361 28.9717 20.0925 29.7911 19.9229C32.3348 19.3937 35.4575 19.2815 37.0925 19.2617L37.0939 19.3732L37.0925 19.2617C37.5368 19.26 37.964 19.4323 38.2826 19.7419C38.6012 20.0515 38.7857 20.4736 38.7966 20.9176C38.8464 23.5867 38.8309 28.4539 38.1684 31.0653C37.1852 34.9411 38.7227 37.5749 38.7384 37.601L38.8311 37.756L26.4033 38.6765Z" fill="black"/>
<path d="M22.1022 49.3651C22.3744 49.2348 22.6147 49.0464 22.8062 48.8132C22.9976 48.5799 23.1356 48.3076 23.2104 48.0153C23.2853 47.7229 23.2951 47.4178 23.2391 47.1213C23.1832 46.8248 23.063 46.5441 22.8869 46.2991L27.6057 25.9541H24.0382L19.8736 45.8981C19.4815 46.2212 19.2216 46.6769 19.1431 47.1788C19.0646 47.6807 19.173 48.194 19.4477 48.6213C19.7224 49.0487 20.1443 49.3604 20.6336 49.4975C21.1228 49.6346 21.6454 49.5875 22.1022 49.3651Z" fill="#070707"/>
<path d="M50.7946 29.3385L42.9197 21.8906L40.7914 24.8698L46.1122 29.5513L39.1342 35.0917C39.0838 35.0883 39.0336 35.084 38.9822 35.084C38.5528 35.0836 38.1324 35.2069 37.7713 35.4391C37.4101 35.6714 37.1235 36.0027 36.9458 36.3935C36.768 36.7843 36.7066 37.2181 36.769 37.6428C36.8313 38.0676 37.0148 38.4654 37.2973 38.7887C37.5799 39.112 37.9496 39.347 38.3623 39.4657C38.775 39.5844 39.2131 39.5817 39.6243 39.4579C40.0354 39.3342 40.4022 39.0946 40.6808 38.7679C40.9594 38.4411 41.1379 38.0411 41.195 37.6156L41.217 37.6376L50.7946 29.3385Z" fill="#070707"/>
<path d="M29.2902 20.1842C29.2902 20.1842 24.3726 19.3777 23.9267 23.1676C23.4807 26.9574 23.2578 26.9574 23.2578 26.9574C23.2578 26.9574 26.8253 26.2886 27.7172 27.1803C28.609 28.072 29.2902 20.1842 29.2902 20.1842Z" fill="black"/>
<path d="M36.636 19.6009C36.636 19.6009 40.6494 18.9321 42.4332 20.7155C44.217 22.499 45.1088 22.9448 45.1088 22.9448C45.1088 22.9448 41.0954 25.1741 42.6562 27.1805C42.6562 27.1805 38.4197 25.1741 37.7508 25.8429C37.0819 26.5117 36.636 19.6009 36.636 19.6009Z" fill="black"/>
<path d="M33.1158 6.65792C31.8498 5.64703 31.5172 3.69603 32.2517 2.25217C32.9862 0.808318 34.6469 -0.0615613 36.2658 0.00340097C37.8847 0.0683633 39.4101 0.997628 40.348 2.31852C41.6654 4.17402 41.9419 6.7529 43.6937 8.20554C45.276 9.51758 47.5427 9.48 49.5957 9.37562C50.2877 9.34044 51.0022 9.29965 51.6231 8.99223C52.2441 8.68481 52.7515 8.03644 52.6714 7.34828C53.1872 8.16458 52.888 9.30911 52.196 9.98264C51.5041 10.6562 50.5188 10.9383 49.5596 11.0507C47.8675 11.2285 46.1582 10.9626 44.6001 10.2791C43.042 9.59559 41.6888 8.5181 40.6739 7.15273C39.9596 6.1675 39.4083 5.02022 38.4281 4.29888C37.448 3.57753 35.8136 3.52732 35.2119 4.58505C34.9143 5.1082 34.9435 5.76441 34.6698 6.30045C34.3961 6.8365 33.5074 7.12553 33.2439 6.58443" fill="#2F2E41"/>
<path d="M32.9223 17.4087C36.3341 17.4087 39.0999 14.6433 39.0999 11.2322C39.0999 7.82097 36.3341 5.05566 32.9223 5.05566C29.5105 5.05566 26.7447 7.82097 26.7447 11.2322C26.7447 14.6433 29.5105 17.4087 32.9223 17.4087Z" fill="#2F2E41"/>
<path d="M32.885 17.8922C35.6782 17.8922 37.9426 15.6282 37.9426 12.8355C37.9426 10.0428 35.6782 7.77881 32.885 7.77881C30.0918 7.77881 27.8274 10.0428 27.8274 12.8355C27.8274 15.6282 30.0918 17.8922 32.885 17.8922Z" fill="#070707"/>
<path d="M28.2734 9.12152C28.9607 9.27184 28.7358 10.4247 29.279 10.8719C29.7689 11.2752 30.4745 10.8604 31.0912 10.7102C31.8697 10.5206 32.6846 10.7984 33.4034 11.1525C34.1222 11.5066 34.8153 11.946 35.5994 12.1109C36.3836 12.2759 37.3132 12.09 37.7528 11.4201C38.1731 10.7796 38.0183 9.91592 37.6895 9.22402C37.2807 8.36374 36.639 7.63513 35.8373 7.12072C35.0356 6.60632 34.1058 6.32668 33.1532 6.31348C32.2007 6.30028 31.2635 6.55405 30.4478 7.04605C29.6321 7.53805 28.9705 8.2486 28.538 9.09722" fill="#2F2E41"/>
<path d="M147.439 83.7943C147.439 83.8488 147.417 83.9011 147.378 83.9397C147.34 83.9782 147.287 84 147.233 84.0001H0.20592C0.151307 84.0001 0.0989299 83.9785 0.0603124 83.9399C0.0216949 83.9012 0 83.8489 0 83.7943C0 83.7397 0.0216949 83.6873 0.0603124 83.6487C0.0989299 83.6101 0.151307 83.5884 0.20592 83.5884H147.233C147.287 83.5885 147.34 83.6103 147.378 83.6489C147.417 83.6874 147.439 83.7397 147.439 83.7943Z" fill="black"/>
</g>
<defs>
<clipPath id="clip0_65_1025">
<rect width="160" height="84" fill="white"/>
</clipPath>
</defs>
</svg>
